<?xml version="1.0" encoding="UTF-8"?>
<svg width="716px" height="500px" viewBox="0 0 716 500" version="1.1" xmlns="http://www.w3.org/2000/svg" xmlns:xlink="http://www.w3.org/1999/xlink">
    <!-- Generator: sketchtool 54.1 (76490) - https://sketchapp.com -->
    <title>0C2D3859-6B72-4162-BD97-B136F299173F</title>
    <desc>Created with sketchtool.</desc>
    <defs>
        <rect id="path-1" x="0" y="0" width="199.375" height="131.075817" rx="8"></rect>
    </defs>
    <g id="v1-refine" stroke="none" stroke-width="1" fill="none" fill-rule="evenodd">
        <g id="ArcadeX-1" transform="translate(-624.000000, -235.000000)">
            <g id="Group-4" transform="translate(624.000000, 230.000000)">
                <g id="Group-15" transform="translate(385.000000, 5.000000)">
                    <g id="Group-2">
                        <g id="Group-32" transform="translate(0.000000, 0.668003)">
                            <path d="M40.7201069,0 L288.271209,0 C296.003196,-1.42034288e-15 302.271209,6.2680135 302.271209,14 L302.271209,45.0901804 L26.7201069,45.0901804 L26.7201069,14 C26.7201069,6.2680135 32.9881204,-3.90872764e-15 40.7201069,-5.32907052e-15 Z" id="Rectangle-Copy-85" fill="#FE474E"></path>
                            <path d="M14.9480738,471.943888 L315.778074,471.943888 L328.007171,480.15928 C329.666171,481.273781 330.661323,483.141175 330.661323,485.139772 L330.661323,496.663995 C330.661323,497.768564 329.765892,498.663995 328.661323,498.663995 L2,498.663995 C0.8954305,498.663995 -6.81985756e-13,497.768564 -6.82121026e-13,496.663995 L-6.79456491e-13,485.251501 C-6.79700258e-13,483.260994 0.987163178,481.400062 2.63520804,480.283788 L14.9480738,471.943888 Z" id="Rectangle-Copy-86" fill="#FE474E"></path>
                            <path d="M14.9480738,471.943888 L315.778074,471.943888 L328.007171,480.15928 C329.666171,481.273781 330.661323,483.141175 330.661323,485.139772 L330.661323,486.507926 L0,485.675004 L2.66453526e-15,485.251501 C3.30473121e-15,483.260994 0.987163178,481.400062 2.63520804,480.283788 L14.9480738,471.943888 Z" id="Rectangle-Copy-86" fill="#D11C25"></path>
                            <path d="M33.4154548,297.261189 L297.245868,297.261189 L311.10371,311.516321 C314.007019,314.502865 315.631263,318.50386 315.631263,322.669032 L315.631263,472.61189 L15.0300601,472.61189 L15.0300601,322.933897 C15.0300601,318.819445 16.6150856,314.863134 19.4558831,311.886797 L33.4154548,297.261189 Z" id="Rectangle-Copy-87" fill="#FE474E"></path>
                            <path d="M33.4154548,297.261189 L297.245868,297.261189 L311.10371,311.516321 C314.007019,314.502865 315.631263,318.50386 315.631263,322.669032 L315.631263,323.331997 L15.0300601,323.331997 L15.0300601,322.933897 C15.0300601,318.819445 16.6150856,314.863134 19.4558831,311.886797 L33.4154548,297.261189 Z" id="Rectangle-Copy-87" fill="#D11C25"></path>
                            <path d="M60.1297774,297.59519 L144.120111,297.59519 L152.523996,315.034271 C153.698622,317.471761 154.308617,320.142702 154.308617,322.848456 L154.308617,401.803607 C154.308617,430.579967 130.980769,453.907816 102.204409,453.907816 L102.204409,453.907816 C73.4280491,453.907816 50.1002004,430.579967 50.1002004,401.803607 L50.1002004,322.790559 C50.1002004,320.121976 50.6935565,317.486779 51.8373152,315.075731 L60.1297774,297.59519 Z" id="Rectangle-Copy-88" fill="#FECF4A"></path>
                            <path d="M60.1297774,297.59519 L144.120111,297.59519 L152.523996,315.034271 C153.698622,317.471761 154.308617,320.142702 154.308617,322.848456 L154.308617,323.331997 L50.1002004,323.331997 L50.1002004,322.790559 C50.1002004,320.121976 50.6935565,317.486779 51.8373152,315.075731 L60.1297774,297.59519 Z" id="Rectangle-Copy-88" fill="#FABA06"></path>
                            <rect id="Rectangle-Copy-89" fill="#AD0C14" x="173" y="394" width="108" height="66"></rect>
                            <rect id="Rectangle-Copy-46" fill="#D11C25" x="173" y="440" width="108" height="20" rx="8"></rect>
                            <circle id="Oval-Copy-24" fill="#AD0C14" cx="102.204409" cy="401.803607" r="47.0941884"></circle>
                            <path d="M200,328 L254,328 C272.225397,328 287,342.774603 287,361 L287,390 C287,392.209139 285.209139,394 283,394 L171,394 C168.790861,394 167,392.209139 167,390 L167,361 C167,342.774603 181.774603,328 200,328 Z" id="Rectangle-Copy-92" fill="#D11C25"></path>
                            <circle id="Oval-Copy-26" fill="#FE474E" cx="102.204409" cy="402.805611" r="31.0621242"></circle>
                            <rect id="Rectangle-Copy-93" fill="#AD0C14" x="62.1242485" y="389.779559" width="80.1603206" height="26.0521042" rx="4"></rect>
                            <path d="M72.3326799,306.613226 L132.075668,306.613226 C133.837429,306.613226 135.391759,307.765887 135.903324,309.451741 L136.083197,310.044508 C136.403932,311.101486 135.80709,312.218343 134.750112,312.539079 C134.561824,312.596214 134.366135,312.625251 134.169369,312.625251 L70.2389793,312.625251 C69.1344098,312.625251 68.2389793,311.72982 68.2389793,310.625251 C68.2389793,310.428485 68.268016,310.232796 68.3251513,310.044508 L68.5050239,309.451741 C69.0165891,307.765887 70.5709187,306.613226 72.3326799,306.613226 Z" id="Rectangle-Copy-94" fill="#F29227"></path>
                            <circle id="Oval-Copy-28" fill="#E6E6E6" cx="168.041751" cy="23.0595255" r="9.159086"></circle>
                            <circle id="Oval-Copy-29" fill="#FFFFFF" cx="168.041751" cy="23.0595255" r="6.4113602"></circle>
                            <path d="M168.041751,19.8958911 C167.812051,19.8958911 167.625842,20.0820997 167.625842,20.3117997 L167.625842,25.8072513 C167.625842,26.0369513 167.812051,26.2231599 168.041751,26.2231599 C168.271451,26.2231599 168.457659,26.0369513 168.457659,25.8072513 L168.457659,20.3117997 C168.457659,20.0820997 168.271451,19.8958911 168.041751,19.8958911 Z" id="Rectangle-Copy-95" stroke="#979797" fill="#FFFFFF"></path>
                            <rect id="Rectangle-Copy-96" fill="#D8D8D8" x="5.01002004" y="43.2095147" width="319.652101" height="255.538499" rx="14"></rect>
                            <rect id="Rectangle-Copy-96" fill="#FFFFFF" x="8.01603206" y="50.2235428" width="313.640077" height="241.510443" rx="13"></rect>
                        </g>
                        <path d="M79.1583166,268.537074 C92.993105,268.537074 104.208417,257.049128 104.208417,242.878029 C104.208417,228.706929 92.993105,208.416834 79.1583166,208.416834 C65.3235283,208.416834 54.1082164,228.706929 54.1082164,242.878029 C54.1082164,257.049128 65.3235283,268.537074 79.1583166,268.537074 Z" id="Oval-Copy-6" fill="#9B9B9B"></path>
                        <path d="M119.0501,237.12024 C132.884889,237.12024 144.1002,225.632295 144.1002,211.461195 C144.1002,197.290095 132.884889,177 119.0501,177 C105.215312,177 94,197.290095 94,211.461195 C94,225.632295 105.215312,237.12024 119.0501,237.12024 Z" id="Oval-Copy-17" fill="#9B9B9B" transform="translate(119.050100, 207.060120) rotate(-44.000000) translate(-119.050100, -207.060120) "></path>
                        <path d="M247.0501,276.12024 C260.884889,276.12024 272.1002,264.632295 272.1002,250.461195 C272.1002,236.290095 260.884889,216 247.0501,216 C233.215312,216 222,236.290095 222,250.461195 C222,264.632295 233.215312,276.12024 247.0501,276.12024 Z" id="Oval-Copy-7" fill="#9B9B9B"></path>
                        <path d="M295.0501,232.12024 C308.884889,232.12024 320.1002,220.632295 320.1002,206.461195 C320.1002,192.290095 308.884889,172 295.0501,172 C281.215312,172 270,192.290095 270,206.461195 C270,220.632295 281.215312,232.12024 295.0501,232.12024 Z" id="Oval-Copy-11" fill="#9B9B9B"></path>
                        <path d="M67.1342685,232.46493 C80.9690569,232.46493 92.1843687,220.976984 92.1843687,206.805884 C92.1843687,192.634785 80.9690569,172.344689 67.1342685,172.344689 C53.2994802,172.344689 42.0841683,192.634785 42.0841683,206.805884 C42.0841683,220.976984 53.2994802,232.46493 67.1342685,232.46493 Z" id="Oval" fill="#D8D8D8"></path>
                        <path d="M172.0501,246.12024 C185.884889,246.12024 197.1002,234.632295 197.1002,220.461195 C197.1002,206.290095 185.884889,186 172.0501,186 C158.215312,186 147,206.290095 147,220.461195 C147,234.632295 158.215312,246.12024 172.0501,246.12024 Z" id="Oval-Copy-5" fill="#9B9B9B"></path>
                        <path d="M202.0501,194.12024 C215.884889,194.12024 227.1002,182.632295 227.1002,168.461195 C227.1002,154.290095 215.884889,134 202.0501,134 C188.215312,134 177,154.290095 177,168.461195 C177,182.632295 188.215312,194.12024 202.0501,194.12024 Z" id="Oval-Copy-12" fill="#9B9B9B"></path>
                        <path d="M103.858352,285.050864 C117.69314,285.050864 128.908452,273.562918 128.908452,259.391818 C128.908452,245.220719 117.69314,224.930623 103.858352,224.930623 C90.0235635,224.930623 78.8082516,245.220719 78.8082516,259.391818 C78.8082516,273.562918 90.0235635,285.050864 103.858352,285.050864 Z" id="Oval-Copy" fill="#D8D8D8" transform="translate(103.858352, 254.990744) rotate(30.000000) translate(-103.858352, -254.990744) "></path>
                        <path d="M218.724083,278.617998 C232.558872,278.617998 243.774183,267.130052 243.774183,252.958953 C243.774183,238.787853 232.558872,218.497758 218.724083,218.497758 C204.889295,218.497758 193.673983,238.787853 193.673983,252.958953 C193.673983,267.130052 204.889295,278.617998 218.724083,278.617998 Z" id="Oval-Copy-8" fill="#D8D8D8" transform="translate(218.724083, 248.557878) rotate(30.000000) translate(-218.724083, -248.557878) "></path>
                        <path d="M248.777428,226.298724 C262.612216,226.298724 273.827528,214.810778 273.827528,200.639679 C273.827528,186.468579 262.612216,166.178484 248.777428,166.178484 C234.94264,166.178484 223.727328,186.468579 223.727328,200.639679 C223.727328,214.810778 234.94264,226.298724 248.777428,226.298724 Z" id="Oval-Copy-13" fill="#D8D8D8" transform="translate(248.777428, 196.238604) rotate(30.000000) translate(-248.777428, -196.238604) "></path>
                        <path d="M160.557878,284.784204 C174.392666,284.784204 185.607978,273.296258 185.607978,259.125158 C185.607978,244.954059 174.392666,224.663963 160.557878,224.663963 C146.72309,224.663963 135.507778,244.954059 135.507778,259.125158 C135.507778,273.296258 146.72309,284.784204 160.557878,284.784204 Z" id="Oval-Copy-3" fill="#D8D8D8" transform="translate(160.557878, 254.724083) rotate(-60.000000) translate(-160.557878, -254.724083) "></path>
                        <path d="M190.611222,232.46493 C204.446011,232.46493 215.661323,220.976984 215.661323,206.805884 C215.661323,192.634785 204.446011,172.344689 190.611222,172.344689 C176.776434,172.344689 165.561122,192.634785 165.561122,206.805884 C165.561122,220.976984 176.776434,232.46493 190.611222,232.46493 Z" id="Oval-Copy-14" fill="#D8D8D8" transform="translate(190.611222, 202.404810) rotate(-60.000000) translate(-190.611222, -202.404810) "></path>
                        <path d="M290.557878,278.784204 C304.392666,278.784204 315.607978,267.296258 315.607978,253.125158 C315.607978,238.954059 304.392666,218.663963 290.557878,218.663963 C276.72309,218.663963 265.507778,238.954059 265.507778,253.125158 C265.507778,267.296258 276.72309,278.784204 290.557878,278.784204 Z" id="Oval-Copy-9" fill="#D8D8D8" transform="translate(290.557878, 248.724083) rotate(-60.000000) translate(-290.557878, -248.724083) "></path>
                        <path d="M211.557878,173.784204 C225.392666,173.784204 236.607978,162.296258 236.607978,148.125158 C236.607978,133.954059 225.392666,113.663963 211.557878,113.663963 C197.72309,113.663963 186.507778,133.954059 186.507778,148.125158 C186.507778,162.296258 197.72309,173.784204 211.557878,173.784204 Z" id="Oval-Copy-15" fill="#D8D8D8" transform="translate(211.557878, 143.724083) rotate(-60.000000) translate(-211.557878, -143.724083) "></path>
                        <path d="M95.5578779,188.784204 C109.392666,188.784204 120.607978,177.296258 120.607978,163.125158 C120.607978,148.954059 109.392666,128.663963 95.5578779,128.663963 C81.7230895,128.663963 70.5077777,148.954059 70.5077777,163.125158 C70.5077777,177.296258 81.7230895,188.784204 95.5578779,188.784204 Z" id="Oval-Copy-18" fill="#D8D8D8" transform="translate(95.557878, 158.724083) rotate(-60.000000) translate(-95.557878, -158.724083) "></path>
                        <path d="M130.742247,232.114865 C144.577035,232.114865 155.792347,220.626919 155.792347,206.455819 C155.792347,192.28472 144.577035,171.994624 130.742247,171.994624 C116.907458,171.994624 105.692146,192.28472 105.692146,206.455819 C105.692146,220.626919 116.907458,232.114865 130.742247,232.114865 Z" id="Oval-Copy-4" fill="#D8D8D8" transform="translate(130.742247, 202.054745) scale(1, -1) rotate(-60.000000) translate(-130.742247, -202.054745) "></path>
                        <path d="M290.557878,181.784204 C304.392666,181.784204 315.607978,170.296258 315.607978,156.125158 C315.607978,141.954059 304.392666,121.663963 290.557878,121.663963 C276.72309,121.663963 265.507778,141.954059 265.507778,156.125158 C265.507778,170.296258 276.72309,181.784204 290.557878,181.784204 Z" id="Oval-Copy-16" fill="#D8D8D8" transform="translate(290.557878, 151.724083) scale(1, -1) rotate(-60.000000) translate(-290.557878, -151.724083) "></path>
                        <path d="M36.7240833,285.050864 C50.5588716,285.050864 61.7741835,273.562918 61.7741835,259.391818 C61.7741835,245.220719 50.5588716,224.930623 36.7240833,224.930623 C22.8892949,224.930623 11.6739831,245.220719 11.6739831,259.391818 C11.6739831,273.562918 22.8892949,285.050864 36.7240833,285.050864 Z" id="Oval-Copy-2" fill="#D8D8D8" transform="translate(36.724083, 254.990744) rotate(-30.000000) translate(-36.724083, -254.990744) "></path>
                    </g>
                </g>
                <g id="Group-10" transform="translate(24.451250, 0.000000)">
                    <g transform="translate(0.548750, 0.000000)" id="Group-27">
                        <g transform="translate(3.987500, 4.990196)">
                            <rect id="Rectangle" fill="#FE474E" x="0" y="0" width="303.735352" height="54.5802696"></rect>
                            <rect id="Rectangle-Copy-45" fill="#FE474E" x="0" y="314.486315" width="303.735352" height="184.533292"></rect>
                            <rect id="Rectangle-Copy-43" fill="#E6E6E6" x="17.94375" y="87.827451" width="267.1625" height="189.627451"></rect>
                            <polygon id="Rectangle-Copy-43" stroke="#979797" fill="#FFFFFF" transform="translate(225.854492, 297.592422) scale(1, -1) translate(-225.854492, -297.592422) " points="171.337891 291.094771 280.371094 291.094771 272.29456 304.090074 179.414424 304.090074"></polygon>
                            <rect id="Rectangle-Copy-43" fill="#F8AC0E" transform="translate(298.065625, 233.541176) scale(-1, 1) translate(-298.065625, -233.541176) " x="285.10625" y="218.570588" width="25.91875" height="29.9411765"></rect>
                            <g id="Group-3" transform="translate(287.100000, 118.766667)">
                                <rect id="Rectangle-Copy-47" fill="#F8AC0E" transform="translate(10.965625, 10.978431) scale(-1, 1) translate(-10.965625, -10.978431) " x="0" y="0" width="21.93125" height="21.9568627" rx="2"></rect>
                                <rect id="Rectangle-Copy-43" fill="#FFE52D" transform="translate(10.965625, 60.880392) scale(-1, -1) translate(-10.965625, -60.880392) " x="6.978125" y="21.9568627" width="7.975" height="77.8470588"></rect>
                            </g>
                            <rect id="Rectangle-Copy-43" stroke="#979797" x="50.9513889" y="115.328976" width="199.375" height="133.071895" rx="8"></rect>
                            <path d="M58.9513889,115.328976 L117.409722,115.328976 L117.409722,248.400871 L58.9513889,248.400871 C54.5331109,248.400871 50.9513889,244.819149 50.9513889,240.400871 L50.9513889,123.328976 C50.9513889,118.910698 54.5331109,115.328976 58.9513889,115.328976 Z" id="Rectangle-Copy-43" stroke="#979797" fill="#FFFFFF"></path>
                            <rect id="Rectangle-Copy-75" stroke="#979797" fill="#FFFFFF" x="117.13125" y="115.272549" width="67.4583333" height="133.073856" rx="8"></rect>
                            <path d="M191.868056,115.328976 L250.326389,115.328976 L250.326389,248.400871 L191.868056,248.400871 C187.449778,248.400871 183.868056,244.819149 183.868056,240.400871 L183.868056,123.328976 C183.868056,118.910698 187.449778,115.328976 191.868056,115.328976 Z" id="Rectangle-Copy-81" stroke="#979797" fill="#FFFFFF" transform="translate(217.097222, 181.864924) scale(-1, 1) translate(-217.097222, -181.864924) "></path>
                            <path d="M51.8375,185.635294 L116.302083,185.635294 L116.302083,247.383247 L59.8375,247.383247 C55.419222,247.383247 51.8375,243.801525 51.8375,239.383247 L51.8375,185.635294 Z" id="Rectangle-Copy-43" fill="#D8D8D8"></path>
                            <path d="M184.864931,185.635294 L249.329514,185.635294 L249.329514,239.383247 C249.329514,243.801525 245.747792,247.383247 241.329514,247.383247 L184.864931,247.383247 L184.864931,185.635294 Z" id="Rectangle-Copy-48" fill="#D8D8D8"></path>
                            <rect id="Rectangle-Copy-75" fill="#D8D8D8" x="118.406597" y="185.65488" width="64.4645833" height="61.7479525" rx="8"></rect>
                            <g id="Group-6" transform="translate(50.840625, 116.770588)">
                                <mask id="mask-2" fill="white">
                                    <use xlink:href="#path-1"></use>
                                </mask>
                                <g id="Mask"></g>
                                <g mask="url(#mask-2)">
                                    <g transform="translate(6.803374, -27.945098)">
                                        <g id="Group-5" transform="translate(2.168501, 134.735294)">
                                            <path d="M43.2120391,41.1422953 C37.428918,46.6240257 30.8563965,43.3354865 29.2626426,42.3998248 C29.772918,41.3381605 30.1641914,40.1267904 30.385373,38.7332782 C30.4420703,38.3789743 31.6570117,30.5113064 28.6919316,25.8691765 C31.9099687,23.0946275 34.9903125,21.9556152 37.8581973,22.4889424 C42.7235703,23.3952868 45.5478418,28.8495711 45.6089004,28.9637218 C45.6462832,29.026723 49.2668086,35.4016985 43.2120391,41.1422953 Z M15.3032773,47.4368039 C14.7375508,47.4368039 14.3930059,47.4093578 14.3693301,47.4068627 C14.3394238,47.4049914 14.302041,47.4043676 14.2715117,47.4043676 C14.1680859,47.4043676 3.86662891,47.2895931 2.54327734,37.4532929 C1.30029883,28.2114498 4.05541211,25.9315539 6.91395117,24.9197917 C7.44042578,24.7332831 8.06658789,24.6390931 8.77499219,24.6390931 C11.8366445,24.6390931 15.3288223,26.3769289 15.3624668,26.3950184 C15.6652676,26.5472194 16.0210273,26.5522096 16.3275664,26.4068701 C18.6932754,25.28969 20.7474609,24.7226789 22.4284414,24.7226789 C24.1069297,24.7226789 25.3947676,25.2753431 26.3636055,26.4137316 C29.4888086,30.0777831 28.2240234,38.30225 28.2115625,38.3864596 C26.9168711,46.554163 18.7537109,47.4368039 15.3032773,47.4368039 L15.3032773,47.4368039 Z" id="Fill-124" fill="#E32A75"></path>
                                            <path d="M34.3616582,5.12929779 C28.2215312,6.53965196 24.9642422,4.34209436 23.6296758,3.01345466 C30.6788281,1.55132721 33.3847207,3.74015196 34.3616582,5.12929779" id="Fill-125" fill="#FFFFFE"></path>
                                            <path d="M8.77499219,24.6390931 C8.06658789,24.6390931 7.44042578,24.7332831 6.91395117,24.9197917 C4.05541211,25.9315539 1.30029883,28.2114498 2.54327734,37.4532929 C3.86662891,47.2895931 14.1680859,47.4043676 14.2715117,47.4043676 C14.302041,47.4043676 14.3394238,47.4049914 14.3693301,47.4068627 C14.3930059,47.4093578 14.7375508,47.4368039 15.3032773,47.4368039 C18.7537109,47.4368039 26.9168711,46.554163 28.2115625,38.3864596 C28.2240234,38.30225 29.4888086,30.0777831 26.3636055,26.4137316 C25.3947676,25.2753431 24.1069297,24.7226789 22.4284414,24.7226789 C20.7474609,24.7226789 18.6932754,25.28969 16.3275664,26.4068701 C16.0210273,26.5522096 15.6652676,26.5472194 15.3624668,26.3950184 C15.3288223,26.3769289 11.8366445,24.6390931 8.77499219,24.6390931 Z M15.3032773,49.6418468 L15.3032773,49.6418468 C14.7425352,49.6418468 14.3649687,49.6168958 14.2335059,49.6087868 C10.7681191,49.588826 1.6641582,47.4355564 0.361367187,37.7470907 C-0.780054688,29.2650049 1.01494336,24.6684105 6.18000195,22.841375 C6.94385742,22.5712806 7.81674609,22.4340502 8.77499219,22.4340502 C11.6621914,22.4340502 14.6964297,23.6666287 15.8633965,24.1937181 C21.3773613,21.709848 25.5168848,22.0211115 28.0402246,24.985288 C31.8239883,29.4265625 30.4464316,38.3552708 30.385373,38.7332782 C28.7822734,48.8540196 18.4372031,49.6418468 15.3032773,49.6418468 L15.3032773,49.6418468 Z" id="Fill-126" fill="#8B234D"></path>
                                            <path d="M35.8669395,46.4063284 C31.3006289,46.4063284 27.7318164,44.0465895 27.6751191,44.0085392 C27.1704512,43.666087 27.0377422,42.9818064 27.3791719,42.476549 C27.7199785,41.9744105 28.4034609,41.8390515 28.9081289,42.1808799 C29.2395898,42.4035674 36.725498,47.2920882 43.2120391,41.1422953 C49.2668086,35.4016985 45.6462832,29.026723 45.6089004,28.9637218 C45.5478418,28.8495711 42.7235703,23.3952868 37.8581973,22.4889424 C34.8762949,21.9337831 31.6644883,23.1832034 28.3075117,26.2022721 C27.8545566,26.6083493 27.1592363,26.5715466 26.7530098,26.1186863 C26.3461602,25.665826 26.384166,24.9684461 26.836498,24.5617451 C30.7355254,21.0561324 34.5822168,19.6264412 38.2750156,20.3244449 C44.2145215,21.4403775 47.4082598,27.6450625 47.5415918,27.9089191 C47.5546758,27.9276324 52.036875,35.8121422 44.726043,42.7435245 C41.7821465,45.5349154 38.6401211,46.4063284 35.8669395,46.4063284" id="Fill-127" fill="#8B234D"></path>
                                            <path d="M15.3562363,25.7325699 C14.8278926,25.7325699 14.3624766,25.3526912 14.2708887,24.8143738 C14.1450332,24.0664681 11.3051855,6.44421446 20.8839082,1.70477574 C21.2110078,1.54259436 21.599166,1.55444608 21.9187891,1.73721201 C22.2359199,1.91935417 22.4427715,2.24745956 22.4695625,2.61299142 C22.4807773,2.77579657 23.7374629,18.7706225 32.1498418,21.3617819 C32.7317676,21.5408051 33.0576211,22.1570944 32.8794297,22.7396998 C32.6999922,23.3210576 32.0850449,23.6454203 31.5031191,23.4688922 C23.4290547,20.982527 21.080168,9.15201961 20.468959,4.56914828 C14.0652832,9.69407966 16.4172852,24.2916507 16.4434531,24.4482181 C16.5437637,25.048913 16.1381602,25.6165478 15.5387891,25.7175993 C15.4783535,25.7282034 15.4154258,25.7325699 15.3562363,25.7325699" id="Fill-128" fill="#8B234D"></path>
                                            <path d="M30.5785176,7.79531005 C23.8265586,7.79531005 21.147457,3.50062255 21.0116328,3.2741924 C20.7455918,2.8313125 20.8259648,2.27490564 21.1761172,1.92496814 C21.2745586,1.54508946 21.572375,1.22945956 21.9798477,1.12903186 C34.9498145,-2.07155515 36.9286113,5.27526103 37.004623,5.58964338 C37.1473008,6.16413971 36.8127246,6.74736887 36.245752,6.91329289 C34.1012246,7.54081005 32.218377,7.79531005 30.5785176,7.79531005 L30.5785176,7.79531005 Z" id="Fill-129" fill="#8B234D"></path>
                                            <path d="M23.6296758,3.01345466 C24.9642422,4.34209436 28.2215313,6.53965196 34.3616582,5.12929779 C33.3847207,3.74015196 30.6788281,1.55132721 23.6296758,3.01345466 Z" id="Path" fill="#61AD0E"></path>
                                            <path d="M7.37936719,38.8661422 C6.91768945,38.8661422 6.48654102,38.5735919 6.33327148,38.1101275 C4.15821484,31.5112169 7.35008398,27.9157806 7.4871543,27.765451 C7.89836523,27.3157096 8.59493164,27.2857684 9.04290234,27.696212 C9.48900391,28.1060319 9.52140234,28.7990453 9.11642188,29.248163 C8.99866602,29.3822745 6.68093164,32.1300012 8.42546289,37.4177377 C8.61611523,37.9972243 8.30209961,38.6209988 7.72391211,38.8118738 C7.61114063,38.8493002 7.49338477,38.8661422 7.37936719,38.8661422" id="Fill-130" fill="#8B234D"></path>
                                        </g>
                                        <g id="Group-5-Copy" transform="translate(67.358566, 68.715000)">
                                            <path d="M43.2120391,41.1422953 C37.428918,46.6240257 30.8563965,43.3354865 29.2626426,42.3998248 C29.772918,41.3381605 30.1641914,40.1267904 30.385373,38.7332782 C30.4420703,38.3789743 31.6570117,30.5113064 28.6919316,25.8691765 C31.9099688,23.0946275 34.9903125,21.9556152 37.8581973,22.4889424 C42.7235703,23.3952868 45.5478418,28.8495711 45.6089004,28.9637218 C45.6462832,29.026723 49.2668086,35.4016985 43.2120391,41.1422953 Z M15.3032773,47.4368039 C14.7375508,47.4368039 14.3930059,47.4093578 14.3693301,47.4068627 C14.3394238,47.4049914 14.302041,47.4043676 14.2715117,47.4043676 C14.1680859,47.4043676 3.86662891,47.2895931 2.54327734,37.4532929 C1.30029883,28.2114498 4.05541211,25.9315539 6.91395117,24.9197917 C7.44042578,24.7332831 8.06658789,24.6390931 8.77499219,24.6390931 C11.8366445,24.6390931 15.3288223,26.3769289 15.3624668,26.3950184 C15.6652676,26.5472194 16.0210273,26.5522096 16.3275664,26.4068701 C18.6932754,25.28969 20.7474609,24.7226789 22.4284414,24.7226789 C24.1069297,24.7226789 25.3947676,25.2753431 26.3636055,26.4137316 C29.4888086,30.0777831 28.2240234,38.30225 28.2115625,38.3864596 C26.9168711,46.554163 18.7537109,47.4368039 15.3032773,47.4368039 L15.3032773,47.4368039 Z" id="Fill-124" fill="#E32A75"></path>
                                            <path d="M34.3616582,5.12929779 C28.2215313,6.53965196 24.9642422,4.34209436 23.6296758,3.01345466 C30.6788281,1.55132721 33.3847207,3.74015196 34.3616582,5.12929779" id="Fill-125" fill="#FFFFFE"></path>
                                            <path d="M8.77499219,24.6390931 C8.06658789,24.6390931 7.44042578,24.7332831 6.91395117,24.9197917 C4.05541211,25.9315539 1.30029883,28.2114498 2.54327734,37.4532929 C3.86662891,47.2895931 14.1680859,47.4043676 14.2715117,47.4043676 C14.302041,47.4043676 14.3394238,47.4049914 14.3693301,47.4068627 C14.3930059,47.4093578 14.7375508,47.4368039 15.3032773,47.4368039 C18.7537109,47.4368039 26.9168711,46.554163 28.2115625,38.3864596 C28.2240234,38.30225 29.4888086,30.0777831 26.3636055,26.4137316 C25.3947676,25.2753431 24.1069297,24.7226789 22.4284414,24.7226789 C20.7474609,24.7226789 18.6932754,25.28969 16.3275664,26.4068701 C16.0210273,26.5522096 15.6652676,26.5472194 15.3624668,26.3950184 C15.3288223,26.3769289 11.8366445,24.6390931 8.77499219,24.6390931 Z M15.3032773,49.6418468 L15.3032773,49.6418468 C14.7425352,49.6418468 14.3649688,49.6168958 14.2335059,49.6087868 C10.7681191,49.588826 1.6641582,47.4355564 0.361367187,37.7470907 C-0.780054688,29.2650049 1.01494336,24.6684105 6.18000195,22.841375 C6.94385742,22.5712806 7.81674609,22.4340502 8.77499219,22.4340502 C11.6621914,22.4340502 14.6964297,23.6666287 15.8633965,24.1937181 C21.3773613,21.709848 25.5168848,22.0211115 28.0402246,24.985288 C31.8239883,29.4265625 30.4464316,38.3552708 30.385373,38.7332782 C28.7822734,48.8540196 18.4372031,49.6418468 15.3032773,49.6418468 L15.3032773,49.6418468 Z" id="Fill-126" fill="#8B234D"></path>
                                            <path d="M35.8669395,46.4063284 C31.3006289,46.4063284 27.7318164,44.0465895 27.6751191,44.0085392 C27.1704512,43.666087 27.0377422,42.9818064 27.3791719,42.476549 C27.7199785,41.9744105 28.4034609,41.8390515 28.9081289,42.1808799 C29.2395898,42.4035674 36.725498,47.2920882 43.2120391,41.1422953 C49.2668086,35.4016985 45.6462832,29.026723 45.6089004,28.9637218 C45.5478418,28.8495711 42.7235703,23.3952868 37.8581973,22.4889424 C34.8762949,21.9337831 31.6644883,23.1832034 28.3075117,26.2022721 C27.8545566,26.6083493 27.1592363,26.5715466 26.7530098,26.1186863 C26.3461602,25.665826 26.384166,24.9684461 26.836498,24.5617451 C30.7355254,21.0561324 34.5822168,19.6264412 38.2750156,20.3244449 C44.2145215,21.4403775 47.4082598,27.6450625 47.5415918,27.9089191 C47.5546758,27.9276324 52.036875,35.8121422 44.726043,42.7435245 C41.7821465,45.5349154 38.6401211,46.4063284 35.8669395,46.4063284" id="Fill-127" fill="#8B234D"></path>
                                            <path d="M15.3562363,25.7325699 C14.8278926,25.7325699 14.3624766,25.3526912 14.2708887,24.8143738 C14.1450332,24.0664681 11.3051855,6.44421446 20.8839082,1.70477574 C21.2110078,1.54259436 21.599166,1.55444608 21.9187891,1.73721201 C22.2359199,1.91935417 22.4427715,2.24745956 22.4695625,2.61299142 C22.4807773,2.77579657 23.7374629,18.7706225 32.1498418,21.3617819 C32.7317676,21.5408051 33.0576211,22.1570944 32.8794297,22.7396998 C32.6999922,23.3210576 32.0850449,23.6454203 31.5031191,23.4688922 C23.4290547,20.982527 21.080168,9.15201961 20.468959,4.56914828 C14.0652832,9.69407966 16.4172852,24.2916507 16.4434531,24.4482181 C16.5437637,25.048913 16.1381602,25.6165478 15.5387891,25.7175993 C15.4783535,25.7282034 15.4154258,25.7325699 15.3562363,25.7325699" id="Fill-128" fill="#8B234D"></path>
                                            <path d="M30.5785176,7.79531005 C23.8265586,7.79531005 21.147457,3.50062255 21.0116328,3.2741924 C20.7455918,2.8313125 20.8259648,2.27490564 21.1761172,1.92496814 C21.2745586,1.54508946 21.572375,1.22945956 21.9798477,1.12903186 C34.9498145,-2.07155515 36.9286113,5.27526103 37.004623,5.58964338 C37.1473008,6.16413971 36.8127246,6.74736887 36.245752,6.91329289 C34.1012246,7.54081005 32.218377,7.79531005 30.5785176,7.79531005 L30.5785176,7.79531005 Z" id="Fill-129" fill="#8B234D"></path>
                                            <path d="M23.6296758,3.01345466 C24.9642422,4.34209436 28.2215313,6.53965196 34.3616582,5.12929779 C33.3847207,3.74015196 30.6788281,1.55132721 23.6296758,3.01345466 Z" id="Path" fill="#61AD0E"></path>
                                            <path d="M7.37936719,38.8661422 C6.91768945,38.8661422 6.48654102,38.5735919 6.33327148,38.1101275 C4.15821484,31.5112169 7.35008398,27.9157806 7.4871543,27.765451 C7.89836523,27.3157096 8.59493164,27.2857684 9.04290234,27.696212 C9.48900391,28.1060319 9.52140234,28.7990453 9.11642188,29.248163 C8.99866602,29.3822745 6.68093164,32.1300012 8.42546289,37.4177377 C8.61611523,37.9972243 8.30209961,38.6209988 7.72391211,38.8118738 C7.61114063,38.8493002 7.49338477,38.8661422 7.37936719,38.8661422" id="Fill-130" fill="#8B234D"></path>
                                        </g>
                                        <g id="Group-4" transform="translate(67.358566, 134.885000)">
                                            <path d="M33.7147499,40.0336805 C27.6666443,39.1778262 23.4153801,33.6630525 24.0400825,27.6331203 C24.0636458,27.5360137 24.0702217,27.4367127 24.0663858,27.3357658 C24.0713176,27.2951676 24.0713176,27.2534721 24.0773455,27.2123253 C24.9508328,21.0178057 30.6959029,16.6902554 36.8831966,17.5647629 C43.0715862,18.4387218 47.3935404,24.1905014 46.521149,30.3844723 C45.6465656,36.5800891 39.9020435,40.9076394 33.7147499,40.0336805 Z" id="Path" fill="#3A3FCF"></path>
                                            <path d="M2.38208887,36.6223332 C4.02439859,31.0477593 6.4262149,28.0336162 7.57369456,26.834323 C9.49109252,28.5564554 11.9192121,29.7469706 14.654751,30.1326536 C16.4877593,30.392153 18.343783,30.2582886 20.1071973,29.7727559 C18.9635536,31.169554 16.2910329,33.7327278 11.8386584,34.0717777 C11.2523149,34.116765 10.8133793,34.628083 10.857766,35.2151113 C10.8972209,35.722589 11.2862899,36.1192445 11.7701603,36.1878226 C11.8446862,36.198795 11.921404,36.2026354 12.0003138,36.1955033 C17.5585212,35.7719652 20.7488873,32.4500436 21.9950041,30.8228233 C22.2985876,32.814879 23.0520664,34.6823968 24.1496794,36.3129089 C13.7450966,44.1511076 4.62937354,38.3186802 2.38208887,36.6223332 Z" id="Path" fill="#698F4A"></path>
                                            <path d="M5.31599819,15.2029343 C6.18893759,9.00841477 11.9340077,4.68031586 18.1207533,5.55537198 C24.0132313,6.38873264 28.2716193,11.6769245 27.8392594,17.6064584 C24.8132887,19.629237 22.6120348,22.8535034 22.0092517,26.7130769 C19.8688241,27.8975573 17.385906,28.3677285 14.9528546,28.0242896 C8.76501299,27.1492334 4.44196282,21.3980025 5.31599819,15.2029343 Z" id="Path" fill="#3A3FCF"></path>
                                            <path d="M36.0771113,2.52477008 C42.2633089,3.39872896 46.5863591,9.14995989 45.7123237,15.3444795 C45.5287489,16.6474627 45.1342,17.8785762 44.5363489,19.0191665 C42.5773041,17.1587808 40.0527392,15.8607351 37.1813002,15.454753 C34.6479676,15.0970498 32.185325,15.4871218 29.9928388,16.4340478 C29.8958455,12.6666431 28.2157248,9.21689209 25.5437521,6.79800654 C28.0189984,3.62092189 32.0538087,1.95529782 36.0771113,2.52477008 L36.0771113,2.52477008 Z" id="Path" fill="#3A3FCF"></path>
                                            <path d="M33.7147499,40.0336805 C27.6666443,39.1778262 23.4153801,33.6630525 24.0400825,27.6331203 C24.0636458,27.5360137 24.0702217,27.4367127 24.0663858,27.3357658 C24.0713176,27.2951676 24.0713176,27.2534721 24.0773455,27.2123253 C24.9508328,21.0178057 30.6959029,16.6902554 36.8831966,17.5647629 C43.0715862,18.4387218 47.3935404,24.1905014 46.521149,30.3844723 C45.6465656,36.5800891 39.9020435,40.9076394 33.7147499,40.0336805 Z M2.38208887,36.6223332 C4.02439859,31.0477593 6.4262149,28.0336162 7.57369456,26.834323 C9.49109252,28.5564554 11.9192121,29.7469706 14.654751,30.1326536 C16.4877593,30.392153 18.343783,30.2582886 20.1071973,29.7727559 C18.9635536,31.169554 16.2910329,33.7327278 11.8386584,34.0717777 C11.2523149,34.116765 10.8133793,34.628083 10.857766,35.2151113 C10.8972209,35.722589 11.2862899,36.1192445 11.7701603,36.1878226 C11.8446862,36.198795 11.921404,36.2026354 12.0003138,36.1955033 C17.5585212,35.7719652 20.7488873,32.4500436 21.9950041,30.8228233 C22.2985876,32.814879 23.0520664,34.6823968 24.1496794,36.3129089 C13.7450966,44.1511076 4.62937354,38.3186802 2.38208887,36.6223332 Z M5.31599819,15.2029343 C6.18893759,9.00841477 11.9340077,4.68031586 18.1207533,5.55537198 C24.0132313,6.38873264 28.2716193,11.6769245 27.8392594,17.6064584 C24.8132887,19.629237 22.6120348,22.8535034 22.0092517,26.7130769 C19.8688241,27.8975573 17.385906,28.3677285 14.9528546,28.0242896 C8.76501299,27.1492334 4.44196282,21.3980025 5.31599819,15.2029343 Z M36.0771113,2.52477008 C42.2633089,3.39872896 46.5863591,9.14995989 45.7123237,15.3444795 C45.5287489,16.6474627 45.1342,17.8785762 44.5363489,19.0191665 C42.5773041,17.1587808 40.0527392,15.8607351 37.1813002,15.454753 C34.6479676,15.0970498 32.185325,15.4871218 29.9928388,16.4340478 C29.8958455,12.6666431 28.2157248,9.21689209 25.5437521,6.79800654 C28.0189984,3.62092189 32.0538087,1.95529782 36.0771113,2.52477008 Z M46.0416625,20.6880824 C46.9666604,19.1448016 47.5656075,17.4522949 47.8204203,15.6423826 C48.8577551,8.28477901 43.7220438,1.45275775 36.3735709,0.414760144 C31.5918577,-0.2616939 26.7948009,1.7199379 23.8559597,5.4999609 C22.2563928,4.45647705 20.4211925,3.72900092 18.4183089,3.44481342 C11.0687401,2.40681581 4.24578435,7.54797627 3.2079016,14.9050312 C2.66430092,18.7646048 3.8287681,22.4689176 6.10947982,25.2784238 C4.7263668,26.6922292 1.9267137,30.1886133 0.139736062,36.7298636 C0.0317831043,37.1232274 0.157819552,37.544571 0.46414292,37.8128484 C0.532640989,37.8720999 4.60197431,41.3591574 10.6177488,42.210074 C14.8438057,42.8075261 20.0326714,42.0954115 25.4686782,37.9878596 C27.4967691,40.1675449 30.2492955,41.6954642 33.4166463,42.1420446 C40.7662151,43.1816881 47.5902668,38.0405276 48.6270536,30.6823754 C49.1476389,26.9989103 48.1190719,23.4471151 46.0416625,20.6880824 L46.0416625,20.6880824 Z" id="Fill-76" fill="#22224B"></path>
                                            <path d="M12.5406266,20.54544 C12.8732532,20.5920731 13.2173875,20.4790564 13.4601447,20.223946 L17.2554857,16.2348971 C17.5875644,15.8854232 17.6440068,15.3570978 17.3930298,14.9467267 L14.8295581,10.7327417 C14.6081723,10.3679063 14.192252,10.1736933 13.7719479,10.2307502 L9.11298318,10.8940373 C8.68774716,10.9554832 8.34032496,11.267102 8.232372,11.6840566 L6.97803535,16.5668149 C6.85857471,17.0331458 7.06626086,17.5219702 7.48437308,17.7584274 L12.1641612,20.4170618 C12.2836218,20.4845427 12.4107542,20.5267868 12.5406266,20.54544 L12.5406266,20.54544 Z" id="Path" fill="#22224B"></path>
                                            <polygon id="Path" fill="#9D9BFF" points="10.1168909 12.9041975 13.377399 12.4406098 15.151773 15.3560006 12.491856 18.1528884 9.24285552 16.3078641"></polygon>
                                            <path d="M43.6847809,33.4940761 L43.2721485,28.578949 C43.2376255,28.153765 42.9526735,27.7916728 42.5493569,27.6572598 L38.0871186,26.1655497 C37.6799661,26.0294908 37.2284268,26.1523827 36.9462148,26.477717 L33.6446078,30.2873657 C33.3295167,30.6511038 33.2966376,31.1810751 33.5651501,31.5804738 L36.5675575,36.0506664 C36.7396246,36.3079713 37.010329,36.4698156 37.3018568,36.5104138 C37.4684441,36.5340046 37.6437991,36.5186431 37.8103864,36.4577458 L42.9866486,34.5847417 C43.4398318,34.4218002 43.7264277,33.9752198 43.6847809,33.4940761 L43.6847809,33.4940761 Z" id="Path" fill="#22224B"></path>
                                            <polygon id="Path" fill="#9D9BFF" points="37.8679248 34.1716274 35.7866795 31.0686071 38.0882146 28.4121671 41.2106306 29.4561996 41.4972265 32.8598662"></polygon>
                                            <path d="M34.0205252,11.3367773 C34.1920444,11.5951794 34.4643927,11.7570237 34.7548245,11.7976219 C34.9225078,11.8217614 35.0978629,11.8053026 35.2644502,11.7438567 L39.4203651,10.2417227 C39.8730003,10.077684 40.1585003,9.63110361 40.1184974,9.15105714 L39.7875147,5.20425228 C39.7529917,4.7796169 39.4680397,4.41807333 39.0636271,4.2831117 L35.4814521,3.08601298 C35.0753955,2.94940547 34.6244042,3.07284599 34.3416442,3.39818033 L31.6910429,6.45621346 C31.3748558,6.82050014 31.3414287,7.34937419 31.6110371,7.74932147 L34.0205252,11.3367773 L34.0205252,11.3367773 Z" id="Path" fill="#22224B"></path>
                                            <polygon id="Path" fill="#9D9BFF" points="35.4820001 5.33317905 37.7265448 6.08205153 37.9303951 8.51465269 35.3236325 9.45773826 33.8325665 7.23690616"></polygon>
                                        </g>
                                        <g id="Group-4-Copy" transform="translate(134.717131, 72.532500)">
                                            <path d="M33.7147499,40.0336805 C27.6666443,39.1778262 23.4153801,33.6630525 24.0400825,27.6331203 C24.0636458,27.5360137 24.0702217,27.4367127 24.0663858,27.3357658 C24.0713176,27.2951676 24.0713176,27.2534721 24.0773455,27.2123253 C24.9508328,21.0178057 30.6959029,16.6902554 36.8831966,17.5647629 C43.0715862,18.4387218 47.3935404,24.1905014 46.521149,30.3844723 C45.6465656,36.5800891 39.9020435,40.9076394 33.7147499,40.0336805 Z" id="Path" fill="#3A3FCF"></path>
                                            <path d="M2.38208887,36.6223332 C4.02439859,31.0477593 6.4262149,28.0336162 7.57369456,26.834323 C9.49109252,28.5564554 11.9192121,29.7469706 14.654751,30.1326536 C16.4877593,30.392153 18.343783,30.2582886 20.1071973,29.7727559 C18.9635536,31.169554 16.2910329,33.7327278 11.8386584,34.0717777 C11.2523149,34.116765 10.8133793,34.628083 10.857766,35.2151113 C10.8972209,35.722589 11.2862899,36.1192445 11.7701603,36.1878226 C11.8446862,36.198795 11.921404,36.2026354 12.0003138,36.1955033 C17.5585212,35.7719652 20.7488873,32.4500436 21.9950041,30.8228233 C22.2985876,32.814879 23.0520664,34.6823968 24.1496794,36.3129089 C13.7450966,44.1511076 4.62937354,38.3186802 2.38208887,36.6223332 Z" id="Path" fill="#698F4A"></path>
                                            <path d="M5.31599819,15.2029343 C6.18893759,9.00841477 11.9340077,4.68031586 18.1207533,5.55537198 C24.0132313,6.38873264 28.2716193,11.6769245 27.8392594,17.6064584 C24.8132887,19.629237 22.6120348,22.8535034 22.0092517,26.7130769 C19.8688241,27.8975573 17.385906,28.3677285 14.9528546,28.0242896 C8.76501299,27.1492334 4.44196282,21.3980025 5.31599819,15.2029343 Z" id="Path" fill="#3A3FCF"></path>
                                            <path d="M36.0771113,2.52477008 C42.2633089,3.39872896 46.5863591,9.14995989 45.7123237,15.3444795 C45.5287489,16.6474627 45.1342,17.8785762 44.5363489,19.0191665 C42.5773041,17.1587808 40.0527392,15.8607351 37.1813002,15.454753 C34.6479676,15.0970498 32.185325,15.4871218 29.9928388,16.4340478 C29.8958455,12.6666431 28.2157248,9.21689209 25.5437521,6.79800654 C28.0189984,3.62092189 32.0538087,1.95529782 36.0771113,2.52477008 L36.0771113,2.52477008 Z" id="Path" fill="#3A3FCF"></path>
                                            <path d="M33.7147499,40.0336805 C27.6666443,39.1778262 23.4153801,33.6630525 24.0400825,27.6331203 C24.0636458,27.5360137 24.0702217,27.4367127 24.0663858,27.3357658 C24.0713176,27.2951676 24.0713176,27.2534721 24.0773455,27.2123253 C24.9508328,21.0178057 30.6959029,16.6902554 36.8831966,17.5647629 C43.0715862,18.4387218 47.3935404,24.1905014 46.521149,30.3844723 C45.6465656,36.5800891 39.9020435,40.9076394 33.7147499,40.0336805 Z M2.38208887,36.6223332 C4.02439859,31.0477593 6.4262149,28.0336162 7.57369456,26.834323 C9.49109252,28.5564554 11.9192121,29.7469706 14.654751,30.1326536 C16.4877593,30.392153 18.343783,30.2582886 20.1071973,29.7727559 C18.9635536,31.169554 16.2910329,33.7327278 11.8386584,34.0717777 C11.2523149,34.116765 10.8133793,34.628083 10.857766,35.2151113 C10.8972209,35.722589 11.2862899,36.1192445 11.7701603,36.1878226 C11.8446862,36.198795 11.921404,36.2026354 12.0003138,36.1955033 C17.5585212,35.7719652 20.7488873,32.4500436 21.9950041,30.8228233 C22.2985876,32.814879 23.0520664,34.6823968 24.1496794,36.3129089 C13.7450966,44.1511076 4.62937354,38.3186802 2.38208887,36.6223332 Z M5.31599819,15.2029343 C6.18893759,9.00841477 11.9340077,4.68031586 18.1207533,5.55537198 C24.0132313,6.38873264 28.2716193,11.6769245 27.8392594,17.6064584 C24.8132887,19.629237 22.6120348,22.8535034 22.0092517,26.7130769 C19.8688241,27.8975573 17.385906,28.3677285 14.9528546,28.0242896 C8.76501299,27.1492334 4.44196282,21.3980025 5.31599819,15.2029343 Z M36.0771113,2.52477008 C42.2633089,3.39872896 46.5863591,9.14995989 45.7123237,15.3444795 C45.5287489,16.6474627 45.1342,17.8785762 44.5363489,19.0191665 C42.5773041,17.1587808 40.0527392,15.8607351 37.1813002,15.454753 C34.6479676,15.0970498 32.185325,15.4871218 29.9928388,16.4340478 C29.8958455,12.6666431 28.2157248,9.21689209 25.5437521,6.79800654 C28.0189984,3.62092189 32.0538087,1.95529782 36.0771113,2.52477008 Z M46.0416625,20.6880824 C46.9666604,19.1448016 47.5656075,17.4522949 47.8204203,15.6423826 C48.8577551,8.28477901 43.7220438,1.45275775 36.3735709,0.414760144 C31.5918577,-0.2616939 26.7948009,1.7199379 23.8559597,5.4999609 C22.2563928,4.45647705 20.4211925,3.72900092 18.4183089,3.44481342 C11.0687401,2.40681581 4.24578435,7.54797627 3.2079016,14.9050312 C2.66430092,18.7646048 3.8287681,22.4689176 6.10947982,25.2784238 C4.7263668,26.6922292 1.9267137,30.1886133 0.139736062,36.7298636 C0.0317831043,37.1232274 0.157819552,37.544571 0.46414292,37.8128484 C0.532640989,37.8720999 4.60197431,41.3591574 10.6177488,42.210074 C14.8438057,42.8075261 20.0326714,42.0954115 25.4686782,37.9878596 C27.4967691,40.1675449 30.2492955,41.6954642 33.4166463,42.1420446 C40.7662151,43.1816881 47.5902668,38.0405276 48.6270536,30.6823754 C49.1476389,26.9989103 48.1190719,23.4471151 46.0416625,20.6880824 L46.0416625,20.6880824 Z" id="Fill-76" fill="#22224B"></path>
                                            <path d="M12.5406266,20.54544 C12.8732532,20.5920731 13.2173875,20.4790564 13.4601447,20.223946 L17.2554857,16.2348971 C17.5875644,15.8854232 17.6440068,15.3570978 17.3930298,14.9467267 L14.8295581,10.7327417 C14.6081723,10.3679063 14.192252,10.1736933 13.7719479,10.2307502 L9.11298318,10.8940373 C8.68774716,10.9554832 8.34032496,11.267102 8.232372,11.6840566 L6.97803535,16.5668149 C6.85857471,17.0331458 7.06626086,17.5219702 7.48437308,17.7584274 L12.1641612,20.4170618 C12.2836218,20.4845427 12.4107542,20.5267868 12.5406266,20.54544 L12.5406266,20.54544 Z" id="Path" fill="#22224B"></path>
                                            <polygon id="Path" fill="#9D9BFF" points="10.1168909 12.9041975 13.377399 12.4406098 15.151773 15.3560006 12.491856 18.1528884 9.24285552 16.3078641"></polygon>
                                            <path d="M43.6847809,33.4940761 L43.2721485,28.578949 C43.2376255,28.153765 42.9526735,27.7916728 42.5493569,27.6572598 L38.0871186,26.1655497 C37.6799661,26.0294908 37.2284268,26.1523827 36.9462148,26.477717 L33.6446078,30.2873657 C33.3295167,30.6511038 33.2966376,31.1810751 33.5651501,31.5804738 L36.5675575,36.0506664 C36.7396246,36.3079713 37.010329,36.4698156 37.3018568,36.5104138 C37.4684441,36.5340046 37.6437991,36.5186431 37.8103864,36.4577458 L42.9866486,34.5847417 C43.4398318,34.4218002 43.7264277,33.9752198 43.6847809,33.4940761 L43.6847809,33.4940761 Z" id="Path" fill="#22224B"></path>
                                            <polygon id="Path" fill="#9D9BFF" points="37.8679248 34.1716274 35.7866795 31.0686071 38.0882146 28.4121671 41.2106306 29.4561996 41.4972265 32.8598662"></polygon>
                                            <path d="M34.0205252,11.3367773 C34.1920444,11.5951794 34.4643927,11.7570237 34.7548245,11.7976219 C34.9225078,11.8217614 35.0978629,11.8053026 35.2644502,11.7438567 L39.4203651,10.2417227 C39.8730003,10.077684 40.1585003,9.63110361 40.1184974,9.15105714 L39.7875147,5.20425228 C39.7529917,4.7796169 39.4680397,4.41807333 39.0636271,4.2831117 L35.4814521,3.08601298 C35.0753955,2.94940547 34.6244042,3.07284599 34.3416442,3.39818033 L31.6910429,6.45621346 C31.3748558,6.82050014 31.3414287,7.34937419 31.6110371,7.74932147 L34.0205252,11.3367773 L34.0205252,11.3367773 Z" id="Path" fill="#22224B"></path>
                                            <polygon id="Path" fill="#9D9BFF" points="35.4820001 5.33317905 37.7265448 6.08205153 37.9303951 8.51465269 35.3236325 9.45773826 33.8325665 7.23690616"></polygon>
                                        </g>
                                        <g id="Group-7" transform="translate(0.000000, 2.545000)">
                                            <path d="M42.0778348,43.4062809 C38.2521652,47.191053 33.1881696,47.467782 31.1918304,47.4191762 C30.6966295,47.4042704 25.1057143,47.3764031 24.8564955,47.375107 C24.61375,47.3764031 18.8959598,47.4042704 18.4007589,47.4191762 C16.4076563,47.4690782 11.3397768,47.1904049 7.51345982,43.4062809 C4.25613839,40.1827438 2.65466518,35.16144 2.75694196,28.4434696 C2.65142857,21.4960797 4.38042411,16.3626585 7.89667411,13.1831907 C12.576808,8.95254138 18.9632813,9.63431882 19.0668527,9.64728037 C19.0785045,9.64857652 19.0901563,9.64598421 19.101808,9.64728037 C19.1348214,9.65116883 19.1671875,9.6550573 19.1995536,9.6550573 C19.2131473,9.6550573 19.2267411,9.65246499 19.2396875,9.65246499 C19.2804688,9.64987268 19.3199554,9.64598421 19.3600893,9.64015152 C19.3879241,9.63561497 19.4157589,9.63043035 19.4442411,9.62524573 C19.4882589,9.61422842 19.5303348,9.60126687 19.5717634,9.58571301 C19.5853571,9.58182455 19.5995982,9.58052839 19.6138393,9.57404762 C19.6261384,9.57015915 19.6358482,9.56173415 19.6468527,9.55654953 C19.6882813,9.53969952 19.7271205,9.51766488 19.7659598,9.49498217 C19.7931473,9.47813216 19.8196875,9.46193023 19.8442857,9.44378406 C19.8753571,9.4223975 19.903192,9.39841864 19.9316741,9.37249554 C19.9582143,9.34981283 19.9847545,9.32583397 20.0093527,9.29861472 C20.0326563,9.27398778 20.0540179,9.2474166 20.0747321,9.21954927 C20.0973884,9.19038579 20.1193973,9.16057423 20.138817,9.12881844 C20.156942,9.09965495 20.1724777,9.06854724 20.1880134,9.0380876 C20.2048438,9.00438757 20.2203795,8.9719837 20.2339732,8.93698752 C20.245625,8.90458365 20.2553348,8.8715317 20.2643973,8.83912783 C20.2754018,8.80024319 20.283817,8.7626547 20.2909375,8.72312198 C20.2928795,8.70756812 20.2993527,8.69395849 20.3006473,8.67775656 C20.3032366,8.65961039 20.3006473,8.6421123 20.301942,8.62461421 C20.3051786,8.58443341 20.3064732,8.54490069 20.3045313,8.50536797 C20.3032366,8.46842755 20.3,8.4353756 20.2961161,8.39973135 C20.2915848,8.36473517 20.2844643,8.32909091 20.2766964,8.29409473 C20.2676339,8.25521008 20.2566295,8.21826967 20.243683,8.1800331 C20.2378571,8.16383117 20.2352679,8.14633308 20.2281473,8.12883499 L18.4072321,3.60201426 L21.1525223,4.58968424 C21.4457589,4.69532086 21.7687723,4.67328622 22.0451786,4.52617265 L24.9665402,2.98893303 L27.8982589,4.52746881 C28.1727232,4.67328622 28.4950893,4.69532086 28.7883259,4.58968424 L31.3925,3.65321238 L29.3819196,8.0854138 C29.3715625,8.10874459 29.3670313,8.13272345 29.3579688,8.15670232 C29.344375,8.19299465 29.3301339,8.22928699 29.3204241,8.26817163 C29.3107143,8.30511204 29.306183,8.3407563 29.3003571,8.37769672 C29.2945313,8.41204482 29.2893527,8.44639292 29.2867634,8.48268526 C29.2854688,8.52351413 29.2874107,8.56434301 29.29,8.60452381 C29.2912946,8.62915075 29.288058,8.65312962 29.2912946,8.67775656 C29.291942,8.68682964 29.2958259,8.69395849 29.2964732,8.7023835 C29.3029464,8.74191622 29.3126563,8.78015279 29.3230134,8.81903743 C29.3314286,8.85208938 29.3379018,8.88514133 29.3489063,8.91560097 C29.3618527,8.95254138 29.378683,8.98429717 29.3955134,9.01864528 C29.4104018,9.04910491 29.4220536,9.08150879 29.4388839,9.10937611 C29.4621875,9.14761268 29.4900223,9.18131271 29.5172098,9.21825312 C29.5320982,9.23704736 29.5450446,9.259082 29.5625223,9.27787624 C29.598125,9.31740896 29.6382589,9.3537013 29.6796875,9.38869748 C29.6919866,9.39841864 29.7029911,9.41073211 29.7152902,9.41980519 C29.7586607,9.4541533 29.8059152,9.48202063 29.8557589,9.51053603 C29.8693527,9.51701681 29.8822991,9.52738605 29.8971875,9.5345149 C29.9107813,9.54099567 29.9211384,9.54942068 29.9347321,9.55525337 C29.9716295,9.57275146 30.0104688,9.5831207 30.0506027,9.5947861 C30.067433,9.59997072 30.0836161,9.60709957 30.1017411,9.61163611 C30.1541741,9.62654189 30.2066071,9.63561497 30.2596875,9.64079959 C30.2797545,9.64468806 30.2998214,9.64728037 30.3205357,9.64987268 C30.3677902,9.65376114 30.4150446,9.65116883 30.4622991,9.64728037 C30.4836607,9.64598421 30.5050223,9.64987268 30.5263839,9.64728037 C30.5917634,9.63885536 36.9607589,8.92078559 41.6777902,13.1669888 C45.2050446,16.3451604 46.9405134,21.4837662 46.835,28.4758734 C46.9366295,35.16144 45.3358036,40.18404 42.0778348,43.4062809" id="Fill-83" fill="#F7F4CC"></path>
                                            <path d="M31.5925223,49.6453221 C31.4261607,49.6453221 31.2720982,49.6433779 31.1296875,49.6401375 C30.7393527,49.627824 26.4689732,49.6044933 24.8564955,49.5967163 C23.2194196,49.6044933 18.851942,49.627824 18.4622545,49.6401375 C16.1752679,49.7127222 10.387567,49.3724815 5.9540625,44.9869417 C2.24944196,41.3220639 0.426584821,35.755727 0.537276786,28.4434696 C0.422053571,20.8473542 2.40415179,15.1403845 6.43049107,11.5163356 C11.89,6.60002037 19.03125,7.40493252 19.3329018,7.4399287 C19.9413839,7.51575376 20.3750893,8.06856379 20.3006473,8.67775656 C20.2275,9.28565317 19.6720982,9.72504966 19.0668527,9.64728037 C18.9632813,9.63431882 12.576808,8.95254138 7.89667411,13.1831907 C4.38042411,16.3626585 2.65142857,21.4960797 2.75694196,28.4434696 C2.65466518,35.16144 4.25613839,40.1827438 7.51345982,43.4062809 C11.3397768,47.1904049 16.4076563,47.4690782 18.4007589,47.4191762 C18.8959598,47.4042704 24.61375,47.3764031 24.8564955,47.375107 C25.1057143,47.3764031 30.6966295,47.4042704 31.1918304,47.4191762 C33.1881696,47.467782 38.2521652,47.191053 42.0778348,43.4062809 C45.3358036,40.18404 46.9366295,35.16144 46.835,28.4758734 C46.9405134,21.4837662 45.2050446,16.3451604 41.6777902,13.1669888 C36.9607589,8.92078559 30.5917634,9.63885536 30.5263839,9.64728037 C29.9179018,9.71338426 29.3657366,9.28694933 29.2912946,8.67775656 C29.2168527,8.06856379 29.6512054,7.51575376 30.2590402,7.4399287 C30.5600446,7.40298829 37.7032366,6.59872422 43.1608036,11.5163356 C47.1871429,15.1403845 49.1698884,20.8473542 49.0546652,28.4758734 C49.1647098,35.755727 47.3425,41.3233601 43.6385268,44.9869417 C39.4788393,49.1015852 34.1248438,49.6453221 31.5925223,49.6453221" id="Fill-84" fill="#8B2225"></path>
                                            <path d="M19.1995536,9.6550573 C18.7600223,9.6550573 18.3437946,9.39258594 18.1696652,8.95837408 L15.4237277,2.13217469 C15.2599554,1.72583015 15.3512277,1.26180672 15.6541741,0.9468411 C15.9558259,0.631875477 16.4160714,0.52364655 16.8290625,0.672056277 L21.4444643,2.33372676 L24.4493304,0.751769799 C24.7723437,0.580677362 25.1575,0.580677362 25.4811607,0.751121721 L28.4970312,2.33372676 L33.112433,0.672056277 C33.5325446,0.522350395 34.0018527,0.635763942 34.3041518,0.96433919 C34.6070982,1.29291444 34.6841295,1.76989941 34.4989955,2.17624395 L31.4035045,9.0037395 C31.1491071,9.56173415 30.4927232,9.80929972 29.9347321,9.55525337 C29.3760937,9.30250318 29.1294643,8.6421123 29.3819196,8.0854138 L31.3925,3.65321238 L28.7883259,4.58968424 C28.4950893,4.69532086 28.1727232,4.67328622 27.8982589,4.52746881 L24.9665402,2.98893303 L22.0451786,4.52617265 C21.7687723,4.67328622 21.4457589,4.69532086 21.1525223,4.58968424 L18.4072321,3.60201426 L20.2281473,8.12883499 C20.4579464,8.69719888 20.1828348,9.34592437 19.6138393,9.57404762 C19.4779018,9.6291342 19.337433,9.6550573 19.1995536,9.6550573" id="Fill-85" fill="#8B2225"></path>
                                            <path d="M19.065558,45.5280863 C13.974375,45.5280863 5.3378125,43.3725809 4.68854911,28.9450815 C4.42573661,23.1130328 5.77022321,18.6069506 8.68446429,15.5558021 C12.2874554,11.7826954 17.4336607,11.21822 20.1795982,11.21822 C21.7532366,11.21822 22.8064286,11.3925528 22.8510938,11.4016259 C23.3851339,11.4910606 23.7767634,11.9531398 23.7767634,12.4962287 L23.7767634,44.0161217 C23.7767634,44.5190298 23.4382143,44.9603705 22.9533705,45.089986 C22.8860491,45.1081322 21.2884598,45.5280863 19.065558,45.5280863 L19.065558,45.5280863 Z" id="Fill-86" fill="#8B2225"></path>
                                            <path d="M20.1795982,13.4404775 C17.7870982,13.4404775 13.3212277,13.9155182 10.2885268,17.0904495 C7.80928571,19.6866476 6.67129464,23.6412159 6.90433036,28.8459256 C7.44225446,40.7964731 13.8144866,43.3051808 19.065558,43.3051808 C20.0902679,43.3051808 20.9641518,43.2027846 21.5570982,43.106221 L21.5570982,13.4916756 C21.186183,13.4638083 20.7175223,13.4404775 20.1795982,13.4404775 Z" id="Path" fill="#E1707A"></path>
                                            <path d="M30.1645313,45.5287344 C30.1645313,45.5287344 30.1645313,45.5287344 30.1638839,45.5287344 C27.9675223,45.5280863 26.3887054,45.106836 26.3233259,45.089986 C25.8397768,44.9577782 25.5031696,44.5190298 25.5031696,44.0174179 L25.5031696,12.4962287 C25.5031696,11.9557321 25.8922098,11.4923568 26.4256027,11.4016259 C26.4689732,11.393849 27.5111607,11.21822 29.0647321,11.21822 C31.7556473,11.21822 36.7982813,11.7742704 40.3540179,15.4942348 C43.2702009,18.5466794 44.6159821,23.072204 44.3551116,28.9450815 C43.7149107,43.3725809 35.1890402,45.5287344 30.1645313,45.5287344 L30.1645313,45.5287344 Z" id="Fill-87" fill="#8B2225"></path>
                                            <path d="M27.7221875,43.1088133 C28.3060714,43.2053769 29.161183,43.3051808 30.1645313,43.3051808 C35.3333929,43.3051808 41.6072321,40.7971212 42.138683,28.8472218 C42.3704241,23.6029794 41.2311384,19.6283206 38.7506027,17.0308263 C35.7651563,13.9070932 31.4002679,13.4404775 29.0647321,13.4404775 C28.5429911,13.4404775 28.0859821,13.4625121 27.7221875,13.4903794 L27.7221875,43.1088133 Z" id="Path" fill="#E1707A"></path>
                                            <path d="M18.3088393,23.4539216 C17.6964732,23.4539216 17.1993304,22.9574943 17.1993304,22.343765 L17.1993304,17.7864846 C17.1993304,17.1740514 17.6964732,16.676328 18.3088393,16.676328 C18.9212054,16.676328 19.4183482,17.1740514 19.4183482,17.7864846 L19.4183482,22.343765 C19.4183482,22.9574943 18.9212054,23.4539216 18.3088393,23.4539216" id="Fill-88" fill="#8B2225"></path>
                                            <path d="M11.2154911,30.6897059 C10.603125,30.6897059 10.1053348,30.1926305 10.1053348,29.5801974 L10.1053348,25.022917 C10.1053348,24.4091877 10.603125,23.9121123 11.2154911,23.9121123 C11.8278571,23.9121123 12.325,24.4091877 12.325,25.022917 L12.325,29.5801974 C12.325,30.1926305 11.8278571,30.6897059 11.2154911,30.6897059" id="Fill-89" fill="#8B2225"></path>
                                            <path d="M18.3088393,38.8639063 C17.6964732,38.8639063 17.1993304,38.3668309 17.1993304,37.7537497 L17.1993304,33.1971174 C17.1993304,32.5833881 17.6964732,32.0869608 18.3088393,32.0869608 C18.9212054,32.0869608 19.4183482,32.5833881 19.4183482,33.1971174 L19.4183482,37.7537497 C19.4183482,38.3668309 18.9212054,38.8639063 18.3088393,38.8639063" id="Fill-90" fill="#8B2225"></path>
                                            <path d="M31.2746875,38.8639063 C30.6623214,38.8639063 30.1658259,38.3668309 30.1658259,37.7537497 L30.1658259,33.1971174 C30.1658259,32.5833881 30.6623214,32.0869608 31.2746875,32.0869608 C31.8870536,32.0869608 32.3841964,32.5833881 32.3841964,33.1971174 L32.3841964,37.7537497 C32.3841964,38.3668309 31.8870536,38.8639063 31.2746875,38.8639063" id="Fill-91" fill="#8B2225"></path>
                                            <path d="M38.368683,31.628122 C37.756317,31.628122 37.2591741,31.1310466 37.2591741,30.5173173 L37.2591741,25.9613331 C37.2591741,25.3476038 37.756317,24.8511765 38.368683,24.8511765 C38.9810491,24.8511765 39.4788393,25.3476038 39.4788393,25.9613331 L39.4788393,30.5173173 C39.4788393,31.1310466 38.9810491,31.628122 38.368683,31.628122" id="Fill-92" fill="#8B2225"></path>
                                            <path d="M31.2746875,23.4539216 C30.6623214,23.4539216 30.1658259,22.9574943 30.1658259,22.343765 L30.1658259,17.7864846 C30.1658259,17.1740514 30.6623214,16.676328 31.2746875,16.676328 C31.8870536,16.676328 32.3841964,17.1740514 32.3841964,17.7864846 L32.3841964,22.343765 C32.3841964,22.9574943 31.8870536,23.4539216 31.2746875,23.4539216" id="Fill-93" fill="#8B2225"></path>
                                        </g>
                                        <g id="Group-23" transform="translate(2.541833, 72.532500)">
                                            <g id="Group-10" transform="translate(2.541833, 2.545000)">
                                                <path d="M34.0827895,10.7433671 C33.8785267,10.8394201 33.7184579,11.0094015 33.6322256,11.2193151 L31.9054232,15.4634551 L26.4226639,11.3768852 C26.0788124,11.1200244 25.5991451,11.142149 25.2811634,11.4308476 L20.3244213,15.9156597 L15.3682181,11.4308476 C15.1962924,11.2765152 14.9807116,11.1982698 14.7635139,11.1982698 C14.5748807,11.1982698 14.3862474,11.2570888 14.2256397,11.3768852 L8.74288037,15.4634551 L7.01661691,11.2193151 C6.92984563,11.0094015 6.76977687,10.8394201 6.56605299,10.7433671 L2.63385873,8.88760138 C5.17609562,6.01032812 8.74665304,4.55388391 13.2636103,4.55388391 C16.695657,4.55388391 19.5111426,5.43077233 20.0414714,5.60615001 C20.1390218,5.63906706 20.2408837,5.65255765 20.3422067,5.65093878 C20.4004135,5.66227087 20.4602372,5.66820673 20.5205998,5.66820673 C20.7399533,5.66820673 20.9388266,5.58672356 21.0951227,5.45559502 C22.1525467,5.14854917 24.5573508,4.55388391 27.3852322,4.55388391 C31.9011116,4.55388391 35.471669,6.01032812 38.0155227,8.88760138 L34.0827895,10.7433671 Z" id="Path" fill="#698F4A"></path>
                                                <path d="M35.4118453,22.4580567 C33.5120393,32.8976157 22.9642085,38.3586069 21.0875774,39.2538426 C8.53376697,35.4829526 4.6479226,24.5679852 4.21137142,20.6486986 C3.95590815,18.3472038 3.8923118,15.0063939 4.98153392,11.9893581 L5.48006458,12.224634 L7.51299176,17.2220885 C7.61916532,17.4811079 7.83744091,17.675912 8.10583903,17.7514593 C8.37423716,17.8248481 8.66149861,17.7725046 8.88516372,17.6052213 L14.7085408,13.265568 L19.596297,17.6883234 C19.7628332,17.8377991 19.9767972,17.9203615 20.1999233,17.9203615 L20.4478413,17.9203615 C20.6709674,17.9203615 20.8854704,17.8377991 21.0520066,17.6883234 L25.9408407,13.265568 L31.7636788,17.6052213 C31.9873439,17.7725046 32.2740664,17.8243085 32.5430035,17.7514593 C32.8108627,17.675912 33.0291383,17.4811079 33.1347729,17.2220885 L35.168239,12.224634 L35.1876413,12.2154604 C36.2046438,14.6480838 36.2687791,17.7493008 35.4118453,22.4580567 L35.4118453,22.4580567 Z" id="Path" fill="#FF4354"></path>
                                                <path d="M21.1576412,41.1160838 C21.0741036,41.1160838 20.9900271,41.104212 20.9091843,41.0810082 C7.15081598,37.1271858 2.89902315,25.1351296 2.42097267,20.8483594 C2.13532808,18.2797509 2.07388754,14.5002269 3.39593695,11.0757752 C3.57648589,10.6116989 4.09873044,10.3834381 4.56061236,10.5593554 C5.02357218,10.7390501 5.25532157,11.2619454 5.07585053,11.7260217 C3.88530543,14.8099708 3.94836282,18.2802905 4.21137142,20.6486986 C4.6479226,24.5679852 8.53376697,35.4829526 21.0875774,39.2538426 C22.9642085,38.3586069 33.5120393,32.8976157 35.4118453,22.4580567 C36.3140511,17.5005343 36.1976374,14.3232303 35.0205661,11.8334068 C34.808219,11.3833607 34.999008,10.8464352 35.4484941,10.6327442 C35.9001359,10.4201325 36.4358543,10.6122385 36.6482014,11.0622847 C37.9993542,13.9185126 38.1594229,17.4239078 37.1833808,22.7807517 C34.9311001,35.1575595 22.0582301,40.8090379 21.5122716,41.0437742 C21.3985527,41.0912611 21.2783664,41.1160838 21.1576412,41.1160838" id="Fill-204" fill="#AB2531"></path>
                                                <path d="M14.7635139,11.1982698 C14.9807116,11.1982698 15.1962924,11.2765152 15.3682181,11.4308476 L20.3244213,15.9156597 L25.2811634,11.4308476 C25.5991451,11.142149 26.0788124,11.1200244 26.4226639,11.3768852 L31.9054232,15.4634551 L33.6322256,11.2193151 C33.7184579,11.0094015 33.8785267,10.8394201 34.0827895,10.7433671 L38.0155227,8.88760138 C35.471669,6.01032812 31.9011116,4.55388391 27.3852322,4.55388391 C23.9531855,4.55388391 21.137161,5.43077233 20.6073711,5.60615001 C20.4235884,5.66712748 20.2247151,5.66712748 20.0414714,5.60615001 C19.5111426,5.43077233 16.695657,4.55388391 13.2636103,4.55388391 C8.74665304,4.55388391 5.17609562,6.01032812 2.63385873,8.88760138 L6.56605299,10.7433671 C6.76977687,10.8394201 6.92984563,11.0094015 7.01661691,11.2193151 L8.74288037,15.4634551 L14.2256397,11.3768852 C14.3862474,11.2570888 14.5748807,11.1982698 14.7635139,11.1982698 Z M20.4478413,17.9203615 L20.1999233,17.9203615 C19.9767972,17.9203615 19.7628332,17.8377991 19.596297,17.6883234 L14.7085408,13.265568 L8.88516372,17.6052213 C8.66149861,17.7725046 8.37423716,17.8248481 8.10583903,17.7514593 C7.83744091,17.675912 7.61916532,17.4811079 7.51299176,17.2220885 L5.48006458,12.224634 L0.825674561,10.0283658 C0.581529276,9.91342592 0.401519287,9.6937991 0.335767136,9.43100239 C0.270553936,9.1687453 0.326065998,8.89083912 0.487751617,8.67337079 C3.37491782,4.79887305 7.79324684,2.75100133 13.2636103,2.75100133 C16.5582242,2.75100133 19.3402948,3.50269706 20.3244213,3.80380705 C21.3080088,3.50269706 24.0906183,2.75100133 27.3852322,2.75100133 C32.8545178,2.75100133 37.2728468,4.79887305 40.1610909,8.67337079 C40.3227765,8.89083912 40.3782886,9.1687453 40.3130754,9.43100239 C40.2478622,9.6937991 40.0683912,9.91342592 39.8237069,10.0283658 L35.168239,12.224634 L33.1347729,17.2220885 C33.0291383,17.4811079 32.8108627,17.675912 32.5430035,17.7514593 C32.2740664,17.8243085 31.9873439,17.7725046 31.7636788,17.6052213 L25.9408407,13.265568 L21.0520066,17.6883234 C20.8854704,17.8377991 20.6709674,17.9203615 20.4478413,17.9203615 L20.4478413,17.9203615 Z" id="Fill-205" fill="#AB2531"></path>
                                                <path d="M8.42813237,26.6201739 C7.93067961,26.6201739 7.52700452,26.2159958 7.52700452,25.7179231 L7.52700452,21.9826483 C7.52700452,21.484036 7.93067961,21.0803976 8.42813237,21.0803976 C8.92504617,21.0803976 9.32818231,21.484036 9.32818231,21.9826483 L9.32818231,25.7179231 C9.32818231,26.2159958 8.92504617,26.6201739 8.42813237,26.6201739" id="Fill-206" fill="#AB2531"></path>
                                                <path d="M14.1350958,21.6556364 C13.637643,21.6556364 13.2339679,21.2519979 13.2339679,20.7539253 L13.2339679,17.01919 C13.2339679,16.5211174 13.637643,16.1174789 14.1350958,16.1174789 C14.6309317,16.1174789 15.0346068,16.5211174 15.0346068,17.01919 L15.0346068,20.7539253 C15.0346068,21.2519979 14.6309317,21.6556364 14.1350958,21.6556364" id="Fill-207" fill="#AB2531"></path>
                                                <path d="M20.5205998,26.7092118 C20.0231471,26.7092118 19.619472,26.3055733 19.619472,25.8075007 L19.619472,22.0716862 C19.619472,21.5736136 20.0231471,21.1699751 20.5205998,21.1699751 C21.0180526,21.1699751 21.4211887,21.5736136 21.4211887,22.0716862 L21.4211887,25.8075007 C21.4211887,26.3055733 21.0180526,26.7092118 20.5205998,26.7092118" id="Fill-208" fill="#AB2531"></path>
                                                <path d="M20.5205998,5.66820673 C20.0231471,5.66820673 19.619472,5.26402862 19.619472,4.76649563 L19.619472,1.0317604 C19.619472,0.534227405 20.0231471,0.130049298 20.5205998,0.130049298 C21.0180526,0.130049298 21.4211887,0.534227405 21.4211887,1.0317604 L21.4211887,4.76649563 C21.4211887,5.26402862 21.0180526,5.66820673 20.5205998,5.66820673" id="Fill-209" fill="#AB2531"></path>
                                                <path d="M26.3623012,21.6556364 C25.8653874,21.6556364 25.4622513,21.2519979 25.4622513,20.7539253 L25.4622513,17.01919 C25.4622513,16.5211174 25.8653874,16.1174789 26.3623012,16.1174789 C26.859754,16.1174789 27.2634291,16.5211174 27.2634291,17.01919 L27.2634291,20.7539253 C27.2634291,21.2519979 26.859754,21.6556364 26.3623012,21.6556364" id="Fill-210" fill="#AB2531"></path>
                                                <path d="M14.1350958,33.2715749 C13.637643,33.2715749 13.2339679,32.868476 13.2339679,32.3698638 L13.2339679,28.6351285 C13.2339679,28.1375955 13.637643,27.7339571 14.1350958,27.7339571 C14.6309317,27.7339571 15.0346068,28.1375955 15.0346068,28.6351285 L15.0346068,32.3698638 C15.0346068,32.868476 14.6309317,33.2715749 14.1350958,33.2715749" id="Fill-211" fill="#AB2531"></path>
                                                <path d="M26.3623012,33.2715749 C25.8653874,33.2715749 25.4622513,32.868476 25.4622513,32.3698638 L25.4622513,28.6351285 C25.4622513,28.1375955 25.8653874,27.7339571 26.3623012,27.7339571 C26.859754,27.7339571 27.2634291,28.1375955 27.2634291,28.6351285 L27.2634291,32.3698638 C27.2634291,32.868476 26.859754,33.2715749 26.3623012,33.2715749" id="Fill-212" fill="#AB2531"></path>
                                                <path d="M32.0013567,26.7092118 C31.503365,26.7092118 31.0996899,26.3055733 31.0996899,25.8075007 L31.0996899,22.0716862 C31.0996899,21.5736136 31.503365,21.1699751 32.0013567,21.1699751 C32.4982705,21.1699751 32.9008677,21.5736136 32.9008677,22.0716862 L32.9008677,25.8075007 C32.9008677,26.3055733 32.4982705,26.7092118 32.0013567,26.7092118" id="Fill-213" fill="#AB2531"></path>
                                            </g>
                                        </g>
                                        <g id="Group-8" transform="translate(67.358566, 2.545000)">
                                            <path d="M38.7485313,5.3326003 C31.7428005,6.92255354 28.0489952,4.36987632 26.561351,2.86514027 C34.2142837,1.43103469 37.4817332,3.79715535 38.7485313,5.3326003" id="Fill-188" fill="#61AD0E"></path>
                                            <path d="M46.1323077,26.1140799 C45.7197548,34.6365671 41.0413437,43.1199005 34.4596683,47.3132006 C34.1222644,47.3515867 33.4528245,47.4153077 32.6698942,47.4153077 C30.7950024,47.4153077 29.405512,47.0529427 28.8625986,46.4249457 C27.4455024,44.7843228 25.6196875,44.5179231 24.7547067,44.4895173 C24.7294014,44.4879819 24.7025625,44.4872142 24.6772572,44.4872142 C24.6764904,44.4872142 24.6718894,44.4872142 24.6665216,44.4872142 C24.6642212,44.4872142 24.5844712,44.4872142 24.5821707,44.4872142 C24.5691346,44.4872142 24.5568654,44.4872142 24.5430625,44.4879819 C23.9526058,44.5033363 21.4236106,44.6622549 19.9014591,46.4249457 C19.3577788,47.0529427 17.9705889,47.4153077 16.0933966,47.4153077 C15.3127668,47.4153077 14.6425601,47.3515867 14.3036226,47.3132006 C7.72271394,43.1199005 3.04276923,34.6365671 2.63251683,26.1133122 C2.35952644,20.4766938 4.04501202,15.975537 7.37994231,13.4351433 C10.0139928,11.4283167 12.8773245,10.4118522 15.892488,10.4118522 C19.4091562,10.4118522 22.347637,11.8075716 23.787738,12.6405505 C24.1550481,12.8539774 24.6090096,12.8539774 24.9763197,12.6405505 C26.4156538,11.8075716 29.3556683,10.4118522 32.8731034,10.4118522 C35.8875,10.4118522 38.7500649,11.4283167 41.3841154,13.4351433 C44.7182788,15.975537 46.4052981,20.4782293 46.1323077,26.1140799" id="Fill-189" fill="#BFF645"></path>
                                            <path d="M24.7547067,44.4895173 C25.6196875,44.5179231 27.4455024,44.7843228 28.8625986,46.4249457 C29.405512,47.0529427 30.7950024,47.4153077 32.6698942,47.4153077 C33.4528245,47.4153077 34.1222644,47.3515867 34.4596683,47.3132006 C41.0413438,43.1199005 45.7197548,34.6365671 46.1323077,26.1140799 C46.4052981,20.4782293 44.7182788,15.975537 41.3841154,13.4351433 C38.7500649,11.4283167 35.8875,10.4118522 32.8731034,10.4118522 C29.3556683,10.4118522 26.4156538,11.8075716 24.9763197,12.6405505 C24.6090096,12.8539774 24.1550481,12.8539774 23.787738,12.6405505 C22.347637,11.8075716 19.4091563,10.4118522 15.892488,10.4118522 C12.8773245,10.4118522 10.0139928,11.4283167 7.37994231,13.4351433 C4.04501202,15.975537 2.35952644,20.4766938 2.63251683,26.1133122 C3.04276923,34.6365671 7.72271394,43.1199005 14.3036226,47.3132006 C14.6425601,47.3515867 15.3127668,47.4153077 16.0933966,47.4153077 C17.9705889,47.4153077 19.3577788,47.0529427 19.9014591,46.4249457 C21.4236106,44.6622549 23.9526058,44.5033363 24.5430625,44.4879819 C24.5568654,44.4872142 24.5691346,44.4872142 24.5821707,44.4872142 C24.5844712,44.4872142 24.6642212,44.4872142 24.6665216,44.4872142 C24.6718894,44.4872142 24.6764904,44.4872142 24.6772572,44.4872142 C24.7025625,44.4872142 24.7294014,44.4879819 24.7547067,44.4895173 Z M32.6698942,49.7929442 L32.6698942,49.7929442 C29.990601,49.7929442 28.1049736,49.1826048 27.0659231,47.9811192 C26.2001755,46.9777059 25.0614375,46.8671538 24.607476,46.8648507 C23.8705553,46.877902 22.4381226,47.1251086 21.6981346,47.9811192 C20.659851,49.1826048 18.7742236,49.7929442 16.0933966,49.7929442 C14.7851899,49.7929442 13.7607091,49.6417029 13.7185337,49.6355611 C13.5590337,49.6125294 13.4064351,49.5557179 13.2691731,49.4705008 C5.93984135,44.9317255 0.710848558,35.5923816 0.2591875,26.2284706 C-0.0529110577,19.7865113 1.9653774,14.5706048 5.941375,11.5419397 C8.99718029,9.21343741 12.3459135,8.03268024 15.892488,8.03268024 C19.521113,8.03268024 22.5922548,9.30249321 24.381262,10.2521659 C26.1710361,9.30249321 29.2429447,8.03268024 32.8731034,8.03268024 C36.4181442,8.03268024 39.7668774,9.21343741 42.8226827,11.5419397 C46.7986803,14.5713725 48.8162019,19.7865113 48.505637,26.2284706 C48.0524423,35.5923816 42.8234495,44.9324932 35.4941178,49.4705008 C35.3568558,49.5557179 35.205024,49.6125294 35.045524,49.6355611 C35.0025817,49.6417029 33.9796346,49.7929442 32.6698942,49.7929442 L32.6698942,49.7929442 Z" id="Fill-190" fill="#698F4A"></path>
                                            <path d="M26.561351,2.86514027 C28.0489952,4.36987632 31.7428005,6.92255354 38.7485313,5.3326003 C37.4817332,3.79715535 34.2142837,1.43103469 26.561351,2.86514027 Z M24.3820288,11.7238899 C23.7263918,11.7238899 23.1949808,11.1918582 23.1949808,10.5346878 L23.1949808,2.12275264 C23.1949808,1.57536652 23.5676587,1.09937858 24.0975361,0.968098039 C38.6258389,-2.61563047 41.5834904,5.35102564 41.7023486,5.69189442 C41.8089375,5.99975113 41.784399,6.33754902 41.6356346,6.62774811 C41.487637,6.91717949 41.226149,7.13367722 40.9132837,7.2250362 C32.7243389,9.62416893 27.9293702,7.19048869 25.5698438,5.18059125 L25.5698438,10.5346878 C25.5698438,11.1918582 25.0384327,11.7238899 24.3820288,11.7238899 L24.3820288,11.7238899 Z" id="Fill-191" fill="#698F4A"></path>
                                            <path d="M8.74259375,32.6696621 C8.24645673,32.6696621 7.78329327,32.3556637 7.616125,31.8581795 C3.74518269,20.3285234 11.6381322,15.0297029 11.7178822,14.9774977 C12.2684639,14.6189713 13.003851,14.7763544 13.3611923,15.3268115 C13.7177668,15.875733 13.5636346,16.6104434 13.0161202,16.9689698 C12.7400625,17.1524555 6.60544712,21.3818386 9.86829567,31.1012051 C10.0784062,31.7238281 9.74330288,32.3971207 9.12140625,32.6067089 C8.99564663,32.6489336 8.86758654,32.6696621 8.74259375,32.6696621" id="Fill-192" fill="#698F4A"></path>
                                        </g>
                                        <g id="Group-9" transform="translate(132.818700, 0.000000)">
                                            <path d="M48.2868658,40.7919175 L48.1644554,41.0597736 C47.3537615,42.8239547 45.4575,46.9614144 42.2975528,46.9614144 C38.2448162,46.9614144 35.7687546,45.0908247 35.0159674,44.4274221 C37.0522312,40.8535611 38.1876425,35.167673 38.3936144,27.403515 C38.3958134,27.3726932 38.3943474,27.3418714 38.3928814,27.3117834 C38.0227183,20.5508016 36.8543222,15.5760164 34.9162799,12.4087096 C36.092739,11.666051 40.4034903,9.19590398 44.2927688,10.2027494 C46.461705,10.7641465 48.1981733,12.3624769 49.454529,14.9537096 C53.5380515,23.3768671 49.648773,37.8535727 48.2868658,40.7919175 Z M30.3511788,46.1615153 C27.5665257,47.5587702 24.2629113,45.5847073 22.9721048,44.671795 C22.6275965,44.4296237 22.2955492,44.2534991 21.9752298,44.1309458 C21.9202551,43.960692 21.8403585,43.8014461 21.7054871,43.6678849 C17.7824908,39.8305709 18.1116062,28.6143714 18.1152711,28.502092 C18.135795,27.8834544 17.6534835,27.3646208 17.0348346,27.344073 C16.4213166,27.3110496 15.8994233,27.8071338 15.8788994,28.4250375 C15.8627734,28.9013077 15.548318,39.5986736 19.4940372,44.5433708 C19.3701608,44.651981 19.2499494,44.7701312 19.13267,44.90516 C18.5528699,45.5891104 16.0284306,47.1426759 13.2298506,46.9438019 C10.0786994,46.7207108 3.83870175,42.2684285 2.77585708,27.010904 C2.10003447,17.3071742 5.23799173,11.4231459 12.36858,9.02711794 C13.161682,8.76072953 13.953318,8.64845012 14.7222312,8.64845012 C17.6388235,8.64845012 20.2321645,10.249716 21.341921,11.0466796 C20.9534329,11.343156 20.7166751,11.5537716 20.6726953,11.5933997 C20.2145726,12.0072924 20.1764568,12.7147261 20.5905997,13.1755854 C21.0047426,13.6364446 21.7120841,13.6724034 22.1716728,13.2577768 C22.2149196,13.2196165 26.515409,9.39697953 30.1701287,10.9050461 C32.5399058,11.8832713 35.4990119,15.53859 36.1557767,27.3881041 C35.7958755,40.6789043 32.8015855,44.9330464 30.3511788,46.1615153 Z" id="Fill-22" fill="#FFAB02"></path>
                                            <path d="M25.5097381,2.35713379 L31.0453263,2.35713379 L34.0095634,10.3326413 C33.8182514,10.4493238 33.6723851,10.5417892 33.5558387,10.6195776 C32.7964545,9.8226139 31.9564407,9.21938725 31.0240694,8.83338091 C28.2694692,7.69370819 25.4401034,8.62203143 23.4360915,9.6993267 L25.5097381,2.35713379 L25.5097381,2.35713379 Z" id="Path" fill="#FFE1A4"></path>
                                            <path d="M48.2868658,40.7919175 L48.1644554,41.0597736 C47.3537615,42.8239547 45.4575,46.9614144 42.2975528,46.9614144 C38.2448162,46.9614144 35.7687546,45.0908247 35.0159674,44.4274221 C37.0522312,40.8535611 38.1876425,35.167673 38.3936144,27.403515 C38.3958134,27.3726932 38.3943474,27.3418714 38.3928814,27.3117834 C38.0227183,20.5508016 36.8543222,15.5760164 34.9162799,12.4087096 C36.092739,11.666051 40.4034903,9.19590398 44.2927688,10.2027494 C46.461705,10.7641465 48.1981733,12.3624769 49.454529,14.9537096 C53.5380515,23.3768671 49.648773,37.8535727 48.2868658,40.7919175 Z M30.3511788,46.1615153 C27.5665257,47.5587702 24.2629113,45.5847073 22.9721048,44.671795 C22.6275965,44.4296237 22.2955492,44.2534991 21.9752298,44.1309458 C21.9202551,43.960692 21.8403585,43.8014461 21.7054871,43.6678849 C17.7824908,39.8305709 18.1116062,28.6143714 18.1152711,28.502092 C18.135795,27.8834544 17.6534835,27.3646208 17.0348346,27.344073 C16.4213166,27.3110496 15.8994233,27.8071338 15.8788994,28.4250375 C15.8627734,28.9013077 15.548318,39.5986736 19.4940372,44.5433708 C19.3701608,44.651981 19.2499494,44.7701312 19.13267,44.90516 C18.5528699,45.5891104 16.0284306,47.1426759 13.2298506,46.9438019 C10.0786994,46.7207108 3.83870175,42.2684285 2.77585708,27.010904 C2.10003447,17.3071742 5.23799173,11.4231459 12.36858,9.02711794 C13.161682,8.76072953 13.953318,8.64845012 14.7222312,8.64845012 C17.6388235,8.64845012 20.2321645,10.249716 21.341921,11.0466796 C20.9534329,11.343156 20.7166751,11.5537716 20.6726953,11.5933997 C20.2145726,12.0072924 20.1764568,12.7147261 20.5905997,13.1755854 C21.0047426,13.6364446 21.7120841,13.6724034 22.1716728,13.2577768 C22.2149196,13.2196165 26.515409,9.39697953 30.1701287,10.9050461 C32.5399058,11.8832713 35.4990119,15.53859 36.1557767,27.3881041 C35.7958755,40.6789043 32.8015855,44.9330464 30.3511788,46.1615153 Z M25.5097381,2.35713379 L31.0453263,2.35713379 L34.0095634,10.3326413 C33.8182514,10.4493238 33.6723851,10.5417892 33.5558387,10.6195776 C32.7964545,9.8226139 31.9564407,9.21938725 31.0240694,8.83338091 C28.2694692,7.69370819 25.4401034,8.62203143 23.4360915,9.6993267 L25.5097381,2.35713379 Z M51.4680699,13.9747506 C49.9104527,10.7612111 47.6806778,8.76146338 44.8417831,8.02981257 C41.5784835,7.18881776 38.2477482,8.23749279 36.0062454,9.27516003 L32.8719531,0.845397924 C32.7092279,0.407288062 32.290687,0.115948674 31.8237684,0.115948674 L24.6623943,0.115948674 C24.1617578,0.115948674 23.72196,0.448383795 23.5856227,0.931992503 L21.4650643,8.44297145 C19.3049242,7.14772203 15.5893658,5.57874567 11.6561075,6.90188149 C3.53524127,9.63181228 -0.203039982,16.4507685 0.542417279,27.1672145 C1.70934743,43.926201 8.96747702,48.8885107 13.0707904,49.1791162 C13.2884903,49.1937933 13.5032583,49.2011318 13.7172932,49.2011318 C16.9160892,49.2011318 19.8114246,47.5631733 20.8346875,46.3611231 C20.9849517,46.1864663 21.0663143,46.1644507 21.0663143,46.1644507 C21.1865257,46.1739908 21.5456939,46.4088235 21.6805653,46.5034905 C23.6919072,47.9271641 27.6244324,50.0377235 31.3546507,48.1649322 C32.2276494,47.7275562 33.0178194,47.0898385 33.7310248,46.2686577 C34.9082169,47.2461491 37.8226103,49.2025995 42.2975528,49.2025995 C46.8919738,49.2025995 49.2089752,44.1514937 50.1977872,41.9947016 L50.3172656,41.7356517 C51.2071232,39.8166277 56.2691958,23.8766205 51.4680699,13.9747506 L51.4680699,13.9747506 Z" id="Fill-23" fill="#AA6F30"></path>
                                            <path d="M11.7521301,12.3837587 C11.4816544,12.4909011 5.14563419,15.1342373 6.11612132,25.9233348 C6.16889706,26.5052797 6.65707261,26.9433896 7.23027574,26.9433896 C7.26326057,26.9433896 7.2969784,26.9419219 7.33142923,26.9389864 C7.94714614,26.8839475 8.40160386,26.3386952 8.34662914,25.7222592 C7.53520221,16.7068829 12.361983,14.5581632 12.5862799,14.4634963 C13.154352,14.2330666 13.4314246,13.585075 13.2056618,13.0119363 C12.9769669,12.436596 12.3267992,12.1562644 11.7521301,12.3837587" id="Fill-24" fill="#AA6F30"></path>
                                            <path d="M8.70579733,29.133205 C8.53207721,28.5402523 7.90903033,28.2004787 7.31603631,28.3780709 C6.72304228,28.5527278 6.38513097,29.1765023 6.56105009,29.7687212 L8.17144301,35.212438 C8.31584329,35.699716 8.76223805,36.0145386 9.24381664,36.0145386 C9.3501011,36.0145386 9.45638557,36.0005954 9.56340303,35.9683059 C10.1556641,35.7936491 10.4935754,35.1691407 10.3183892,34.5754542 L8.70579733,29.133205" id="Fill-25" fill="#AA6F30"></path>
                                        </g>
                                        <g id="Group-12" transform="translate(134.089617, 138.702500)" stroke-linecap="round" stroke-linejoin="round">
                                            <path d="M49.6431715,15.060954 L24.8215858,42.0028681 L0,15.060954 L6.5188003,0 L43.1243712,0 L49.6431715,15.060954 Z" id="Combined-Shape" stroke="#4A4A4A" stroke-width="2" fill="#7CC3CA"></path>
                                            <path d="M33.2220755,6.39488462e-14 L43.1243712,6.39488462e-14 L49.6431715,15.060954 L39.614248,15.060954 L24.8215858,41.6686393 L10.0289235,15.060954 L2.84217094e-14,15.060954 L6.5188003,6.39488462e-14 L16.9225422,6.39488462e-14 L10.0289235,15.060954 L39.614248,15.060954 L33.2220755,-3.19744231e-14 Z" id="Combined-Shape" stroke="#4A4A4A" stroke-width="2" fill="#BCF5EA"></path>
                                        </g>
                                    </g>
                                </g>
                            </g>
                            <path d="M59.9205729,366.467525 L243.814779,366.467525 C248.233057,366.467525 251.814779,370.049247 251.814779,374.467525 L251.814779,499.019608 L51.9205729,499.019608 L51.9205729,374.467525 C51.9205729,370.049247 55.5022949,366.467525 59.9205729,366.467525 Z" id="Rectangle-Copy-46" fill="#AD0C14"></path>
                            <rect id="Rectangle-Copy-46" fill="#D11C25" x="51.9205729" y="478.227124" width="199.894206" height="20.7924837" rx="8"></rect>
                            <polygon id="Rectangle-Copy-42" fill="#801433" points="0 54.5802696 303.735352 54.5802696 285.563151 88.3680556 18.1722005 88.3680556"></polygon>
                            <polygon id="Rectangle-Copy-44" fill="#D11C25" transform="translate(151.867676, 296.292892) scale(1, -1) translate(-151.867676, -296.292892) " points="0 278.099469 303.735352 278.099469 285.563151 314.486315 18.1722005 314.486315"></polygon>
                            <polygon id="Rectangle-Copy-11" fill="#FFE52D" points="33.2291667 301.62963 39.875 286.104575 81.9652778 286.104575 79.75 301.62963"></polygon>
                            <polygon id="Rectangle-Copy-82" fill="#FFE52D" points="104.118056 301.62963 106.333333 286.104575 152.854167 286.104575 155.069444 301.62963"></polygon>
                            <polygon id="Rectangle-Copy-84" fill="#ED4457" points="177.222222 308.283224 175.006944 286.104575 272.479167 286.104575 283.555556 308.283224"></polygon>
                            <polygon id="Rectangle-Copy-84" fill="#AD0C14" points="183.596797 301.62963 182.584124 292.75817 268.0006 292.75817 272.479167 301.62963"></polygon>
                            <polygon id="Rectangle-Copy-11" fill="#F8AC0E" transform="translate(56.489583, 305.107570) scale(1, -1) translate(-56.489583, -305.107570) " points="33.2291667 308.585511 33.2291667 301.62963 79.75 301.62963 79.75 308.585511"></polygon>
                            <polygon id="Rectangle-Copy-83" fill="#F8AC0E" transform="translate(129.593750, 305.107570) scale(1, -1) translate(-129.593750, -305.107570) " points="104.118056 308.585511 104.118056 301.62963 155.069444 301.62963 155.069444 308.585511"></polygon>
                        </g>
                    </g>
                </g>
            </g>
        </g>
    </g>
</svg>