<?xml version="1.0" encoding="UTF-8"?>
<svg width="265px" height="400px" viewBox="0 0 265 400" version="1.1" xmlns="http://www.w3.org/2000/svg" xmlns:xlink="http://www.w3.org/1999/xlink">
    <!-- Generator: sketchtool 54.1 (76490) - https://sketchapp.com -->
    <title>53A2273A-938B-4A3E-8BB1-78AE47A1EF05</title>
    <desc>Created with sketchtool.</desc>
    <g id="v1-refine" stroke="none" stroke-width="1" fill="none" fill-rule="evenodd">
        <g id="ArcadeX-game-2" transform="translate(-948.000000, -153.000000)">
            <g id="Group-11" transform="translate(948.000000, 153.000000)">
                <g id="Group-2">
                    <g id="Group-32" transform="translate(0.000000, 0.534402)">
                        <path d="M35.3922306,0 L227.999608,0 C235.731595,-1.42034288e-15 241.999608,6.2680135 241.999608,14 L241.999608,36.0721443 L21.3922306,36.0721443 L21.3922306,14 C21.3922306,6.2680135 27.6602441,1.42034288e-15 35.3922306,0 Z" id="Rectangle-Copy-85" fill="#FE474E"></path>
                        <path d="M11.9674911,377.55511 L252.813262,377.55511 L262.072961,383.770995 C263.732967,384.885329 264.728853,386.753315 264.728853,388.752656 L264.728853,396.931196 C264.728853,398.035765 263.833423,398.931196 262.728853,398.931196 L2,398.931196 C0.8954305,398.931196 -6.81985756e-13,398.035765 -6.82121026e-13,396.931196 L-6.81232848e-13,388.839109 C-6.81476706e-13,386.847857 0.987896949,384.98633 2.63694947,383.870216 L11.9674911,377.55511 Z" id="Rectangle-Copy-86" fill="#FE474E"></path>
                        <path d="M11.9674911,377.55511 L252.813262,377.55511 L262.072961,383.770995 C263.732967,384.885329 264.728853,386.753315 264.728853,388.752656 L264.728853,389.206341 L0,388.540003 L0,388.540003 C5.80275552e-16,386.735801 0.895098032,385.049138 2.38924544,384.037868 L11.9674911,377.55511 Z" id="Rectangle-Copy-86" fill="#D11C25"></path>
                        <path d="M26.7525544,237.808951 L237.976299,237.808951 L248.163962,248.280774 C251.069855,251.267721 252.695724,255.270553 252.695724,259.437813 L252.695724,378.089512 L12.0331297,378.089512 L12.0331297,259.632642 C12.0331297,255.516104 13.6197588,251.557951 16.4631193,248.581177 L26.7525544,237.808951 Z" id="Rectangle-Copy-87" fill="#FE474E"></path>
                        <path d="M26.7525544,237.808951 L237.976299,237.808951 L248.702439,248.834271 C251.263045,251.4663 252.695724,254.993503 252.695724,258.665598 L252.695724,258.665598 L12.0331297,258.665598 L12.0331297,258.665598 C12.0331297,255.169751 13.3805272,251.808408 15.7951663,249.280472 L26.7525544,237.808951 Z" id="Rectangle-Copy-87" fill="#D11C25"></path>
                        <path d="M48.1401541,238.076152 L115.38317,238.076152 L121.753202,251.284764 C122.929327,253.723523 123.540132,256.396189 123.540132,259.103737 L123.540132,321.411403 C123.540132,344.449878 104.863757,363.126253 81.825282,363.126253 L81.825282,363.126253 C58.7868067,363.126253 40.1104323,344.449878 40.1104323,321.411403 L40.1104323,259.045809 C40.1104323,256.37545 40.7045784,253.738544 41.849804,251.326226 L48.1401541,238.076152 Z" id="Rectangle-Copy-88" fill="#FECF4A"></path>
                        <path d="M48.1401541,238.076152 L115.38317,238.076152 L121.943524,251.679408 C122.994382,253.858419 123.540132,256.246426 123.540132,258.665598 L123.540132,258.665598 L40.1104323,258.665598 L40.1104323,258.665598 C40.1104323,256.245575 40.6488794,253.855869 41.6867444,251.669697 L48.1401541,238.076152 Z" id="Rectangle-Copy-88" fill="#FABA06"></path>
                        <rect id="Rectangle-Copy-89" fill="#AD0C14" x="138.504532" y="315.2" width="86.4652568" height="52.8"></rect>
                        <rect id="Rectangle-Copy-46" fill="#D11C25" x="138.504532" y="352" width="86.4652568" height="16" rx="8"></rect>
                        <ellipse id="Oval-Copy-24" fill="#AD0C14" cx="81.825282" cy="321.442886" rx="37.7038064" ry="37.6753507"></ellipse>
                        <path d="M160.100906,262.4 L203.373414,262.4 C217.953731,262.4 229.773414,274.219683 229.773414,288.8 L229.773414,311.2 C229.773414,313.409139 227.982553,315.2 225.773414,315.2 L137.700906,315.2 C135.491767,315.2 133.700906,313.409139 133.700906,311.2 L133.700906,288.8 C133.700906,274.219683 145.520589,262.4 160.100906,262.4 Z" id="Rectangle-Copy-92" fill="#D11C25"></path>
                        <ellipse id="Oval-Copy-26" fill="#FE474E" cx="81.825282" cy="322.244489" rx="24.8684681" ry="24.8496994"></ellipse>
                        <rect id="Rectangle-Copy-93" fill="#AD0C14" x="49.7369361" y="311.823647" width="64.1766918" height="20.8416834" rx="4"></rect>
                        <path d="M58.048249,245.290581 L105.601939,245.290581 C107.094675,245.290581 108.41172,246.267062 108.845468,247.695391 L108.845468,247.695391 C109.144499,248.680097 108.588649,249.720771 107.603942,250.019802 C107.428403,250.073109 107.245954,250.1002 107.0625,250.1002 L56.5876882,250.1002 C55.5585791,250.1002 54.7243213,249.265943 54.7243213,248.236834 C54.7243213,248.053379 54.7514131,247.87093 54.8047199,247.695391 L54.8047199,247.695391 C55.2384677,246.267062 56.5555127,245.290581 58.048249,245.290581 Z" id="Rectangle-Copy-94" fill="#F29227"></path>
                        <ellipse id="Oval-Copy-28" fill="#E6E6E6" cx="134.534936" cy="18.4476204" rx="7.33280299" ry="7.3272688"></ellipse>
                        <ellipse id="Oval-Copy-29" fill="#FFFFFF" cx="134.534936" cy="18.4476204" rx="5.13296209" ry="5.12908816"></ellipse>
                        <path d="M134.534936,16.0167129 C134.406099,16.0167129 134.301656,16.121156 134.301656,16.2499932 L134.301656,20.6452476 C134.301656,20.7740848 134.406099,20.8785279 134.534936,20.8785279 C134.663774,20.8785279 134.768217,20.7740848 134.768217,20.6452476 L134.768217,16.2499932 C134.768217,16.121156 134.663774,16.0167129 134.534936,16.0167129 Z" id="Rectangle-Copy-95" stroke="#979797" fill="#FFFFFF"></path>
                        <rect id="Rectangle-Copy-96" fill="#D8D8D8" x="4.01104323" y="34.5676118" width="255.914824" height="204.430799" rx="14"></rect>
                        <rect id="Rectangle-Copy-96" fill="#FFFFFF" x="6.41766918" y="40.1788342" width="251.101572" height="193.208355" rx="13"></rect>
                    </g>
                    <path d="M63.3744831,214.829659 C74.4506732,214.829659 83.4296993,205.639303 83.4296993,194.302423 C83.4296993,182.965543 74.4506732,166.733467 63.3744831,166.733467 C52.2982931,166.733467 43.3192669,182.965543 43.3192669,194.302423 C43.3192669,205.639303 52.2982931,214.829659 63.3744831,214.829659 Z" id="Oval-Copy-6" fill="#9B9B9B"></path>
                    <path d="M95.3207171,189.704034 C106.392873,189.708211 115.365161,180.517891 115.360882,169.176879 C115.356603,157.835868 106.374721,141.594489 95.3025649,141.590312 C84.2304087,141.586135 75.2607789,157.820741 75.2650576,169.161753 C75.2693362,180.502764 84.2485609,189.699857 95.3207171,189.704034 Z" id="Oval-Copy-17" fill="#9B9B9B" transform="translate(95.312970, 165.647173) rotate(-44.000000) translate(-95.312970, -165.647173) "></path>
                    <path d="M197.789355,220.896192 C208.865545,220.896192 217.844571,211.705836 217.844571,200.368956 C217.844571,189.032076 208.865545,172.8 197.789355,172.8 C186.713165,172.8 177.734139,189.032076 177.734139,200.368956 C177.734139,211.705836 186.713165,220.896192 197.789355,220.896192 Z" id="Oval-Copy-7" fill="#9B9B9B"></path>
                    <path d="M236.218358,185.696192 C247.294548,185.696192 256.273574,176.505836 256.273574,165.168956 C256.273574,153.832076 247.294548,137.6 236.218358,137.6 C225.142168,137.6 216.163142,153.832076 216.163142,165.168956 C216.163142,176.505836 225.142168,185.696192 236.218358,185.696192 Z" id="Oval-Copy-11" fill="#9B9B9B"></path>
                    <path d="M53.7479793,185.971944 C64.8241694,185.971944 73.8031955,176.781587 73.8031955,165.444708 C73.8031955,154.107828 64.8241694,137.875752 53.7479793,137.875752 C42.6717893,137.875752 33.6927632,154.107828 33.6927632,165.444708 C33.6927632,176.781587 42.6717893,185.971944 53.7479793,185.971944 Z" id="Oval" fill="#D8D8D8"></path>
                    <path d="M137.744038,196.896192 C148.820228,196.896192 157.799254,187.705836 157.799254,176.368956 C157.799254,165.032076 148.820228,148.8 137.744038,148.8 C126.667848,148.8 117.688822,165.032076 117.688822,176.368956 C117.688822,187.705836 126.667848,196.896192 137.744038,196.896192 Z" id="Oval-Copy-5" fill="#9B9B9B"></path>
                    <path d="M161.762165,155.296192 C172.838355,155.296192 181.817381,146.105836 181.817381,134.768956 C181.817381,123.432076 172.838355,107.2 161.762165,107.2 C150.685975,107.2 141.706949,123.432076 141.706949,134.768956 C141.706949,146.105836 150.685975,155.296192 161.762165,155.296192 Z" id="Oval-Copy-12" fill="#9B9B9B"></path>
                    <path d="M83.141725,228.044656 C94.2158252,228.041036 103.196163,218.84601 103.199871,207.50699 C103.203578,196.167969 94.231555,179.935762 83.1574548,179.939382 C72.0833546,179.943002 63.1007139,196.181078 63.0970062,207.520098 C63.0932985,218.859118 72.0676248,228.048276 83.141725,228.044656 Z" id="Oval-Copy" fill="#D8D8D8" transform="translate(83.148438, 203.992019) rotate(30.000000) translate(-83.148438, -203.992019) "></path>
                    <path d="M175.103715,222.898364 C186.177816,222.894744 195.158153,213.699717 195.161861,202.360697 C195.165569,191.021677 186.193545,174.78947 175.119445,174.79309 C164.045345,174.796709 155.062704,191.034785 155.058997,202.373805 C155.055289,213.712825 164.029615,222.901983 175.103715,222.898364 Z" id="Oval-Copy-8" fill="#D8D8D8" transform="translate(175.110429, 198.845727) rotate(30.000000) translate(-175.110429, -198.845727) "></path>
                    <path d="M199.16455,181.042945 C210.23865,181.039325 219.218988,171.844298 219.222696,160.505278 C219.226404,149.166258 210.25438,132.934051 199.18028,132.937671 C188.10618,132.94129 179.123539,149.179366 179.119831,160.518386 C179.116124,171.857407 188.09045,181.046564 199.16455,181.042945 Z" id="Oval-Copy-13" fill="#D8D8D8" transform="translate(199.171264, 156.990308) rotate(30.000000) translate(-199.171264, -156.990308) "></path>
                    <path d="M128.550605,227.839988 C139.620526,227.843608 148.591464,218.650979 148.587756,207.307678 C148.584049,195.964376 139.604796,179.72017 128.534876,179.716551 C117.464955,179.712931 108.49632,195.951268 108.500028,207.294569 C108.503736,218.637871 117.480685,227.836368 128.550605,227.839988 Z" id="Oval-Copy-3" fill="#D8D8D8" transform="translate(128.543892, 203.778270) rotate(-60.000000) translate(-128.543892, -203.778270) "></path>
                    <path d="M152.61144,185.984569 C163.681361,185.988189 172.652299,176.79556 172.648591,165.452259 C172.644883,154.108957 163.665631,137.864751 152.59571,137.861132 C141.52579,137.857512 132.557155,154.095849 132.560863,165.439151 C132.56457,176.782452 141.54152,185.980949 152.61144,185.984569 Z" id="Oval-Copy-14" fill="#D8D8D8" transform="translate(152.604727, 161.922851) rotate(-60.000000) translate(-152.604727, -161.922851) "></path>
                    <path d="M232.629155,223.039988 C243.699076,223.043608 252.670014,213.850979 252.666306,202.507678 C252.662598,191.164376 243.683346,174.92017 232.613426,174.916551 C221.543505,174.912931 212.57487,191.151268 212.578578,202.494569 C212.582285,213.837871 221.559235,223.036368 232.629155,223.039988 Z" id="Oval-Copy-9" fill="#D8D8D8" transform="translate(232.622442, 198.978270) rotate(-60.000000) translate(-232.622442, -198.978270) "></path>
                    <path d="M169.381421,139.039988 C180.451342,139.043608 189.42228,129.850979 189.418572,118.507678 C189.414864,107.164376 180.435612,90.9201704 169.365691,90.9165507 C158.295771,90.9129309 149.327136,107.151268 149.330844,118.494569 C149.334551,129.837871 158.311501,139.036368 169.381421,139.039988 Z" id="Oval-Copy-15" fill="#D8D8D8" transform="translate(169.374708, 114.978270) rotate(-60.000000) translate(-169.374708, -114.978270) "></path>
                    <path d="M76.5113306,151.039988 C87.5812511,151.043608 96.552189,141.850979 96.5484813,130.507678 C96.5447736,119.164376 87.5655213,102.92017 76.4956007,102.916551 C65.4256802,102.912931 56.4570453,119.151268 56.460753,130.494569 C56.4644607,141.837871 65.44141,151.036368 76.5113306,151.039988 Z" id="Oval-Copy-18" fill="#D8D8D8" transform="translate(76.504617, 126.978270) rotate(-60.000000) translate(-76.504617, -126.978270) "></path>
                    <path d="M104.680085,185.706511 C115.750005,185.710131 124.720943,176.517502 124.717236,165.174201 C124.713528,153.830899 115.734276,137.586694 104.664355,137.583074 C93.5944347,137.579454 84.6257997,153.817791 84.6295074,165.161093 C84.6332151,176.504394 93.6101645,185.702891 104.680085,185.706511 Z" id="Oval-Copy-4" fill="#D8D8D8" transform="translate(104.673372, 161.644793) scale(1, -1) rotate(-60.000000) translate(-104.673372, -161.644793) "></path>
                    <path d="M232.629155,145.441982 C243.699076,145.445602 252.670014,136.252973 252.666306,124.909672 C252.662598,113.56637 243.683346,97.3221646 232.613426,97.3185449 C221.543505,97.3149252 212.57487,113.553262 212.578578,124.896564 C212.582285,136.239865 221.559235,145.438362 232.629155,145.441982 Z" id="Oval-Copy-16" fill="#D8D8D8" transform="translate(232.622442, 121.380264) scale(1, -1) rotate(-60.000000) translate(-232.622442, -121.380264) "></path>
                    <path d="M29.4091671,228.044656 C40.4832673,228.048276 49.4575936,218.859118 49.4538859,207.520098 C49.4501782,196.181078 40.4675375,179.943002 29.3934373,179.939382 C18.3193371,179.935762 9.34731384,196.167969 9.35102156,207.50699 C9.35472927,218.84601 18.3350669,228.041036 29.4091671,228.044656 Z" id="Oval-Copy-2" fill="#D8D8D8" transform="translate(29.402454, 203.992019) rotate(-30.000000) translate(-29.402454, -203.992019) "></path>
                </g>
            </g>
        </g>
    </g>
</svg>