<?xml version="1.0" encoding="UTF-8"?>
<svg width="273px" height="242px" viewBox="0 0 273 242" version="1.1" xmlns="http://www.w3.org/2000/svg" xmlns:xlink="http://www.w3.org/1999/xlink">
    <!-- Generator: sketchtool 52.5 (67469) - http://www.bohemiancoding.com/sketch -->
    <title>D7191458-8146-4C00-B074-FF17F7734C60</title>
    <desc>Created with sketchtool.</desc>
    <defs>
        <rect id="path-1" x="0" y="0" width="273" height="242"></rect>
    </defs>
    <g id="v1-UI" stroke="none" stroke-width="1" fill="none" fill-rule="evenodd">
        <g id="ArcadeX-game-capsule-machine" transform="translate(-110.000000, -173.000000)">
            <g id="Group-19" transform="translate(110.000000, 173.000000)">
                <mask id="mask-2" fill="white">
                    <use xlink:href="#path-1"></use>
                </mask>
                <use id="Mask" fill="#9B9B9B" xlink:href="#path-1"></use>
                <path d="M63.5195313,121.597656 C63.5195313,122.972652 63.9765282,124.117188 64.8905907,125.03125 C65.8046532,125.945312 66.9491882,126.402344 68.3241844,126.402344 C69.1757507,126.402344 69.980442,126.22266 70.7382584,125.863281 C71.4960747,125.503902 72.0429535,125.140621 72.3788948,124.773438 L72.8828011,124.234375 L75.5195198,127.117188 C75.4570236,127.210938 75.3652306,127.333984 75.2441406,127.486328 C75.1230507,127.638672 74.8418007,127.908203 74.4003906,128.294922 C73.9589806,128.681641 73.4824142,129.023441 72.9706917,129.320312 C72.4589691,129.617184 71.7831841,129.884758 70.9433365,130.123035 C70.1034889,130.361313 69.230442,130.480457 68.3241959,130.480457 C65.714817,130.480457 63.5019302,129.60741 61.685524,127.861317 C59.8691177,126.115223 58.9609146,124.027328 58.9609146,121.597645 C58.9609146,119.167961 59.8691177,117.080067 61.685524,115.333973 C63.5019302,113.587879 65.714817,112.714832 68.3241959,112.714832 C69.2226372,112.714832 70.0781059,112.83202 70.8906021,113.066395 C71.7030983,113.30077 72.373024,113.58202 72.9003677,113.910145 C73.4277115,114.23827 73.8886452,114.566395 74.2831802,114.89452 C74.6777153,115.222645 74.9609222,115.503895 75.1328011,115.73827 L75.4023323,116.078114 L72.6367073,118.960926 C72.5898323,118.89843 72.5273361,118.818356 72.4492073,118.720703 C72.3710785,118.623051 72.1913948,118.451172 71.9101448,118.205078 C71.6288948,117.958984 71.3359261,117.740231 71.0312386,117.548828 C70.7265511,117.357426 70.3261566,117.185547 69.8300667,117.033203 C69.3339767,116.880859 68.8320274,116.804688 68.3242188,116.804688 C66.9492226,116.804688 65.8046875,117.259762 64.890625,118.169922 C63.9765625,119.080082 63.5195313,120.22266 63.5195313,121.597656 Z M80.921875,124.117188 C80.921875,124.820312 81.1503906,125.416012 81.6074219,125.904297 C82.0644531,126.392582 82.5956993,126.636719 83.2011719,126.636719 C83.8066444,126.636719 84.3378906,126.392582 84.7949219,125.904297 C85.2519531,125.416012 85.4804688,124.820312 85.4804688,124.117188 C85.4804688,123.414062 85.2519531,122.818363 84.7949219,122.330078 C84.3378906,121.841793 83.8066444,121.597656 83.2011719,121.597656 C82.5956993,121.597656 82.0644531,121.841793 81.6074219,122.330078 C81.1503906,122.818363 80.921875,123.414062 80.921875,124.117188 Z M89.6757813,124.117188 C89.6757813,125.749996 89.0410118,127.177727 87.7714844,128.400379 C86.5019569,129.623032 84.9785194,130.234364 83.2011719,130.234364 C81.4238243,130.234364 79.8984299,129.623032 78.6249886,128.400379 C77.3515472,127.177727 76.7148323,125.749996 76.7148323,124.117188 C76.7148323,122.484379 77.3515472,121.056648 78.6249886,119.833996 C79.8984299,118.611343 81.4238243,118.000011 83.2011719,118.000011 C84.9785194,118.000011 86.5019569,118.611343 87.7714844,119.833996 C89.0410118,121.056648 89.6757813,122.484379 89.6757813,124.117188 Z M106.351562,130 L106.351585,123.765636 C106.351585,122.562508 105.832058,121.960949 104.792992,121.960949 C104.347679,121.960949 103.976582,122.148449 103.67971,122.523449 C103.382839,122.898449 103.234398,123.429695 103.234398,124.117199 L103.234398,130.000011 L99.1562729,130.000011 L99.1562729,123.765636 C99.1562729,122.562508 98.6367455,121.960949 97.5976791,121.960949 C97.1523666,121.960949 96.7812691,122.148449 96.4843979,122.523449 C96.1875267,122.898449 96.0390854,123.429695 96.0390854,124.117199 L96.0390854,130.000011 L91.9609604,130.000011 L91.9609604,118.234386 L96.0390854,118.234386 L96.0390854,119.675793 L96.1562729,119.500011 C96.2031479,119.429699 96.3183784,119.298836 96.501976,119.107433 C96.6855736,118.916031 96.8867493,118.744152 97.1055031,118.591808 C97.3242569,118.439465 97.6055069,118.302742 97.9492531,118.181652 C98.2929993,118.060562 98.6562805,118.000011 99.0390968,118.000011 C99.7422218,118.000011 100.373077,118.160172 100.931675,118.48048 C101.490273,118.800789 101.875034,119.121098 102.085972,119.441406 L102.402378,119.921875 C102.433632,119.875 102.484409,119.806644 102.554722,119.716797 C102.625034,119.626949 102.779335,119.470703 103.017612,119.248047 C103.25589,119.025391 103.511745,118.830074 103.785179,118.662109 C104.058613,118.494144 104.419937,118.341801 104.869152,118.205078 C105.318367,118.068356 105.773441,118 106.234375,118 C107.484379,118 108.498051,118.447269 109.275391,119.341797 C110.052731,120.236324 110.441406,121.46875 110.441406,123.039062 L110.441406,130.000011 L106.351562,130 Z M117.507812,118.234375 L117.507812,130 L113.429688,130 L113.429688,118.234375 L117.507812,118.234375 Z M117.753906,114.759766 C117.753906,115.365238 117.537109,115.876961 117.103516,116.294933 C116.669922,116.712906 116.125,116.921886 115.46875,116.921886 C114.8125,116.921886 114.267578,116.712906 113.833984,116.294933 C113.400391,115.876961 113.183594,115.365238 113.183594,114.759766 C113.183594,114.154293 113.400391,113.64257 113.833984,113.224598 C114.267578,112.806625 114.8125,112.597645 115.46875,112.597645 C116.125,112.597645 116.669922,112.806625 117.103516,113.224598 C117.537109,113.64257 117.753906,114.154293 117.753906,114.759766 Z M124.585938,118.234375 L124.585938,119.675804 C124.679688,119.5508 124.810551,119.3965 124.978516,119.212902 C125.146481,119.029305 125.523438,118.781254 126.109375,118.46875 C126.695312,118.156246 127.30859,118 127.949219,118 C129.214844,118 130.249996,118.464848 131.054688,119.394531 C131.859379,120.324215 132.261719,121.539062 132.261719,123.039062 L132.261719,130 L128.183594,130 L128.183594,123.765625 C128.183594,123.171871 128.027348,122.703121 127.714844,122.359375 C127.40234,122.015629 127,121.84375 126.507812,121.84375 C125.945312,121.84375 125.484379,122.046871 125.125,122.453125 C124.765621,122.859379 124.585938,123.414062 124.585938,124.117188 L124.585938,130 L120.507812,130 L120.507812,118.234375 L124.585938,118.234375 Z M143.054688,128.675781 L143.054733,127.84375 C143.023479,127.890625 142.972702,127.949219 142.90239,128.019531 C142.832077,128.089844 142.685593,128.220707 142.462936,128.412109 C142.24028,128.603512 142.000046,128.775391 141.742233,128.927734 C141.484421,129.080078 141.160198,129.216801 140.769577,129.337891 C140.378956,129.458981 139.984421,129.519531 139.585983,129.519531 C138.289104,129.519531 137.123089,128.955074 136.087936,127.826172 C135.052784,126.697269 134.535202,125.341797 134.535202,123.759766 C134.535202,122.177734 135.052784,120.822262 136.087936,119.693359 C137.123089,118.564457 138.289104,118 139.585983,118 C140.226612,118 140.83403,118.140625 141.408249,118.421875 C141.982468,118.703125 142.398483,118.976559 142.656296,119.242188 L143.054733,119.675781 L143.054733,118.234375 L147.144577,118.234375 L147.144577,128.675781 C147.144577,130.433594 146.500046,131.933594 145.210983,133.175781 C143.921921,134.417969 142.324268,135.039062 140.418015,135.039062 C139.71489,135.039062 139.046921,134.951172 138.414108,134.775391 C137.781296,134.599609 137.261768,134.392574 136.855515,134.154297 C136.449261,133.916019 136.089882,133.671883 135.777378,133.421886 C135.464874,133.17189 135.24612,132.960953 135.121117,132.789074 L134.89846,132.519543 L137.183617,130.234386 C137.246113,130.328136 137.349625,130.449226 137.494152,130.597668 C137.63868,130.746109 137.958988,130.943371 138.455078,131.189465 C138.951168,131.435558 139.484371,131.558605 140.054688,131.558605 C140.953129,131.558605 141.677734,131.291031 142.228516,130.755871 C142.779297,130.220711 143.054688,129.527348 143.054688,128.675781 Z M138.742233,123.759766 C138.742233,124.365238 138.953171,124.876938 139.375046,125.29491 C139.796921,125.712883 140.304729,125.921864 140.898483,125.921864 C141.492237,125.921864 142.000046,125.712883 142.421921,125.29491 C142.843796,124.876938 143.054733,124.382793 143.054733,123.812477 C143.054733,123.187481 142.847698,122.662094 142.43364,122.236317 C142.019581,121.810539 141.507858,121.597645 140.898483,121.597645 C140.304729,121.597645 139.796921,121.806625 139.375046,122.224598 C138.953171,122.64257 138.742233,123.154293 138.742233,123.759766 Z M162.613281,124.84375 C162.613281,124.539062 162.468754,124.273376 162.179688,124.046818 C161.890621,123.820259 161.517578,123.632759 161.060547,123.484318 C160.603516,123.335876 160.095707,123.177673 159.537109,123.009708 C158.978512,122.841743 158.423828,122.628849 157.873047,122.371037 C157.322266,122.113224 156.818359,121.804634 156.361328,121.445255 C155.904297,121.085876 155.531254,120.601505 155.242188,119.99213 C154.953121,119.382755 154.808594,118.67963 154.808594,117.882755 C154.808594,116.507759 155.404293,115.302685 156.595703,114.267532 C157.787113,113.23238 159.312508,112.714798 161.171886,112.714798 C161.937508,112.714798 162.660168,112.798786 163.339855,112.966751 C164.019543,113.134716 164.576183,113.335892 165.009777,113.570267 C165.443371,113.804642 165.82423,114.03706 166.152355,114.267532 C166.48048,114.498005 166.707039,114.703083 166.832043,114.882767 L167.054699,115.117142 L164.406261,117.882767 C164.328133,117.789017 164.212902,117.669872 164.060558,117.525345 C163.908215,117.380817 163.591808,117.183556 163.11134,116.933559 C162.630871,116.683563 162.144543,116.558559 161.652355,116.558559 C161.13673,116.558559 160.707039,116.703087 160.363293,116.992153 C160.019547,117.281219 159.847668,117.617161 159.847668,117.999977 C159.847668,118.304665 159.992195,118.568336 160.281261,118.790993 C160.570328,119.013649 160.943371,119.201149 161.400402,119.353493 C161.857433,119.505836 162.36134,119.665997 162.912121,119.833961 C163.462902,120.001926 164.017586,120.214821 164.576183,120.472633 C165.134781,120.730446 165.64259,121.039036 166.099621,121.398415 C166.556652,121.757793 166.929695,122.242165 167.218761,122.85154 C167.507828,123.460915 167.652355,124.16404 167.652355,124.960915 C167.652355,126.515606 167.039078,127.824203 165.812511,128.886707 C164.585945,129.949211 162.957039,130.480457 160.925793,130.480457 C160.097664,130.480457 159.298832,130.380848 158.529297,130.181629 C157.759762,129.98241 157.126949,129.742176 156.630859,129.460926 C156.134769,129.179676 155.695316,128.898426 155.3125,128.617176 C154.929684,128.335926 154.648434,128.093735 154.46875,127.890614 L154.210938,127.597645 L156.847656,124.843739 C156.87891,124.890614 156.935547,124.95311 157.017578,125.031239 C157.099609,125.109367 157.259769,125.253895 157.498047,125.464832 C157.736324,125.67577 157.988277,125.861313 158.253906,126.021473 C158.519535,126.181633 158.851562,126.324215 159.25,126.449219 C159.648438,126.574223 160.046875,126.636719 160.445312,126.636719 C161.085941,126.636719 161.607426,126.460938 162.009766,126.109375 C162.412106,125.757812 162.613281,125.335938 162.613281,124.84375 Z M173.289062,124.117188 C173.289062,124.820312 173.517578,125.416012 173.974609,125.904297 C174.431641,126.392582 174.962887,126.636719 175.568359,126.636719 C176.173832,126.636719 176.705078,126.392582 177.162109,125.904297 C177.619141,125.416012 177.847656,124.820312 177.847656,124.117188 C177.847656,123.414062 177.619141,122.818363 177.162109,122.330078 C176.705078,121.841793 176.173832,121.597656 175.568359,121.597656 C174.962887,121.597656 174.431641,121.841793 173.974609,122.330078 C173.517578,122.818363 173.289062,123.414062 173.289062,124.117188 Z M182.042969,124.117188 C182.042969,125.749996 181.408199,127.177727 180.138672,128.400379 C178.869144,129.623032 177.345707,130.234364 175.568359,130.234364 C173.791012,130.234364 172.265617,129.623032 170.992176,128.400379 C169.718735,127.177727 169.08202,125.749996 169.08202,124.117188 C169.08202,122.484379 169.718735,121.056648 170.992176,119.833996 C172.265617,118.611343 173.791012,118.000011 175.568359,118.000011 C177.345707,118.000011 178.869144,118.611343 180.138672,119.833996 C181.408199,121.056648 182.042969,122.484379 182.042969,124.117188 Z M187.925781,124.117188 C187.925781,124.820312 188.154297,125.416012 188.611328,125.904297 C189.068359,126.392582 189.599606,126.636719 190.205078,126.636719 C190.810551,126.636719 191.341797,126.392582 191.798828,125.904297 C192.255859,125.416012 192.484375,124.820312 192.484375,124.117188 C192.484375,123.414062 192.255859,122.818363 191.798828,122.330078 C191.341797,121.841793 190.810551,121.597656 190.205078,121.597656 C189.599606,121.597656 189.068359,121.841793 188.611328,122.330078 C188.154297,122.818363 187.925781,123.414062 187.925781,124.117188 Z M196.679688,124.117188 C196.679688,125.749996 196.044918,127.177727 194.775391,128.400379 C193.505863,129.623032 191.982426,130.234364 190.205078,130.234364 C188.427731,130.234364 186.902336,129.623032 185.628895,128.400379 C184.355453,127.177727 183.718739,125.749996 183.718739,124.117188 C183.718739,122.484379 184.355453,121.056648 185.628895,119.833996 C186.902336,118.611343 188.427731,118.000011 190.205078,118.000011 C191.982426,118.000011 193.505863,118.611343 194.775391,119.833996 C196.044918,121.056648 196.679688,122.484379 196.679688,124.117188 Z M203.042969,118.234375 L203.042969,119.675804 C203.136719,119.5508 203.267582,119.3965 203.435547,119.212902 C203.603512,119.029305 203.980469,118.781254 204.566406,118.46875 C205.152344,118.156246 205.765621,118 206.40625,118 C207.671875,118 208.707027,118.464848 209.511719,119.394531 C210.31641,120.324215 210.71875,121.539062 210.71875,123.039062 L210.71875,130 L206.640625,130 L206.640625,123.765625 C206.640625,123.171871 206.484379,122.703121 206.171875,122.359375 C205.859371,122.015629 205.457031,121.84375 204.964844,121.84375 C204.402344,121.84375 203.94141,122.046871 203.582031,122.453125 C203.222652,122.859379 203.042969,123.414062 203.042969,124.117188 L203.042969,130 L198.964844,130 L198.964844,118.234375 L203.042969,118.234375 Z" id="Coming-Soon" fill="#FFFFFF" mask="url(#mask-2)"></path>
            </g>
        </g>
    </g>
</svg>