<svg xmlns="http://www.w3.org/2000/svg" xmlns:xlink="http://www.w3.org/1999/xlink" width="373" height="210" viewBox="0 0 373 210">
    <defs>
        <rect id="a" width="616" height="299" rx="12"/>
        <path id="c" d="M0 .404h371.1v127.815H0z"/>
    </defs>
    <g fill="none" fill-rule="evenodd" transform="translate(-121 -88)">
        <mask id="b" fill="#fff">
            <use xlink:href="#a"/>
        </mask>
        <g mask="url(#b)">
            <g transform="translate(121.517 210.634)">
                <mask id="d" fill="#fff">
                    <use xlink:href="#c"/>
                </mask>
                <path fill="#954A97" d="M354.673 126.425c9.085 5.955 20.165-4.022 15.195-13.67C335.51 46.042 265.874.404 185.551.404c-80.324 0-149.958 45.64-184.32 112.349-4.969 9.649 6.112 19.626 15.197 13.671C64.995 94.588 123.105 76.068 185.55 76.068c62.445 0 120.555 18.52 169.122 50.356" mask="url(#d)"/>
            </g>
            <path fill="#712473" fill-rule="nonzero" d="M192.578 138.36c-4.519 4.509-2.826 13.51 2.336 18.662 4.519 4.511 11.845 4.511 16.362 0a11.532 11.532 0 0 0 0-16.33c-5.164-5.153-14.18-6.842-18.698-2.333m228.979 0c-4.518-4.509-13.535-2.82-18.699 2.334a11.533 11.533 0 0 0 0 16.33c4.518 4.51 11.845 4.51 16.361 0 5.164-5.154 6.855-14.154 2.338-18.664"/>
            <path fill="#954A97" d="M225.153 416.44c23.737 14.878 51.816 23.492 81.915 23.492 30.124 0 58.226-8.629 81.976-23.53a154.973 154.973 0 0 0 34.681-29.702c23.424-27.001 37.597-62.217 37.597-100.738C461.322 188.778 392.258 88 307.067 88c-85.193 0-154.254 100.778-154.254 197.962 0 38.547 14.192 73.786 37.645 100.795a154.963 154.963 0 0 0 34.694 29.683"/>
            <path fill="#C5809F" d="M308.83 186.843c0 13.364-10.853 24.197-24.24 24.197-13.387 0-24.24-10.833-24.24-24.197 0-13.362 10.853-24.195 24.24-24.195 13.387 0 24.24 10.833 24.24 24.195"/>
            <path fill="#C5809F" d="M353.784 186.843c0 13.364-10.853 24.197-24.24 24.197-13.388 0-24.24-10.833-24.24-24.197 0-13.362 10.852-24.195 24.24-24.195 13.387 0 24.24 10.833 24.24 24.195"/>
            <path fill="#FFF" d="M205.039 175.846c0 7.288-5.92 13.197-13.221 13.197-7.302 0-13.222-5.909-13.222-13.197 0-7.29 5.92-13.197 13.222-13.197s13.22 5.907 13.22 13.197"/>
            <path fill="#040000" d="M202.836 175.846c0 6.073-4.933 10.997-11.018 10.997-6.086 0-11.02-4.924-11.02-10.997 0-6.075 4.934-10.998 11.02-10.998 6.085 0 11.018 4.923 11.018 10.998"/>
            <path fill="#FFF" d="M435.54 175.846c0 7.288-5.921 13.197-13.223 13.197-7.302 0-13.222-5.909-13.222-13.197 0-7.29 5.92-13.197 13.222-13.197s13.222 5.907 13.222 13.197"/>
            <path fill="#040000" d="M433.335 175.846c0 6.073-4.933 10.997-11.018 10.997-6.086 0-11.018-4.924-11.018-10.997 0-6.075 4.932-10.998 11.018-10.998s11.018 4.923 11.018 10.998"/>
            <path fill="#000" d="M259.518 233.475h-.882c0-29.28 20.712-62.029 48.43-62.029v.88c-22.445 0-47.548 26.151-47.548 61.149"/>
            <path fill="#000" d="M362.599 224.676h-.881c0-32.48-28.854-56.748-54.651-56.748-25.798 0-54.65 24.268-54.65 56.748h-.881c0-27.203 23.748-57.628 55.53-57.628 14.48 0 28.429 6.467 39.281 18.207 10.329 11.177 16.25 25.546 16.252 39.421"/>
            <path fill="#000" d="M373.617 233.475h-.881c0-16.837-7.017-34.28-19.25-47.859-12.836-14.243-29.32-22.088-46.42-22.088-17.097 0-33.583 7.845-46.418 22.09-12.233 13.577-19.25 31.02-19.25 47.858h-.88c0-33.435 28.46-70.828 66.549-70.828 17.352 0 34.069 7.949 47.073 22.382 12.379 13.736 19.477 31.394 19.477 48.445"/>
            <path fill="#712473" d="M333.511 171.887c0 12.148-11.84 21.995-26.444 21.995s-26.443-9.848-26.443-21.995c0-12.148 11.839-21.996 26.443-21.996 14.604 0 26.444 9.848 26.444 21.996"/>
            <path fill="#040000" fill-rule="nonzero" d="M303.542 186.843c0 1.012-.987 1.833-2.203 1.833-1.219 0-2.205-.82-2.205-1.833 0-1.012.986-1.832 2.204-1.832 1.217 0 2.203.82 2.203 1.832m11.46 0c0 1.012-.987 1.833-2.204 1.833s-2.203-.82-2.203-1.833c0-1.012.986-1.832 2.203-1.832 1.217 0 2.203.82 2.203 1.832"/>
            <path fill="#C5809F" d="M412.841 320.306c0 48.592-47.356 87.983-105.774 87.983-58.417 0-105.774-39.391-105.774-87.984 0-48.59 47.357-87.982 105.774-87.982s105.774 39.391 105.774 87.983"/>
        </g>
    </g>
</svg>
