<?xml version="1.0" encoding="UTF-8"?>
<svg width="20px" height="20px" viewBox="0 0 20 20" version="1.1" xmlns="http://www.w3.org/2000/svg" xmlns:xlink="http://www.w3.org/1999/xlink">
    <!-- Generator: sketchtool 54.1 (76490) - https://sketchapp.com -->
    <title>33266F24-F50E-4570-8B05-425D3A2C4317</title>
    <desc>Created with sketchtool.</desc>
    <g id="v1-refine" stroke="none" stroke-width="1" fill="none" fill-rule="evenodd">
        <g id="m-ArcadeX-game-sm-mask" transform="translate(-274.000000, -574.000000)" fill="#FFFFFF" fill-rule="nonzero">
            <g id="Group-10" transform="translate(0.000000, 554.000000)">
                <g id="Group-14" transform="translate(118.000000, 19.000000)">
                    <g id="Group-16" transform="translate(156.000000, 1.000000)">
                        <path d="M6.12721417,19.7931034 C5.99838969,19.9310345 5.8373591,20 5.66022544,20 C5.48309179,20 5.32206119,19.9310345 5.19323671,19.7931034 C4.93558776,19.5172414 4.93558776,19.0689655 5.19323671,18.7931034 L13.4057971,10 L5.19323671,1.20689655 C4.93558776,0.931034483 4.93558776,0.482758621 5.19323671,0.206896552 C5.45088567,-0.0689655172 5.86956522,-0.0689655172 6.12721417,0.206896552 L14.8067633,9.5 C15.0644122,9.77586207 15.0644122,10.2241379 14.8067633,10.5 L6.12721417,19.7931034 L6.12721417,19.7931034 Z" id="Path" transform="translate(10.000000, 10.000000) scale(1, -1) rotate(90.000000) translate(-10.000000, -10.000000) "></path>
                    </g>
                </g>
            </g>
        </g>
    </g>
</svg>