<svg xmlns="http://www.w3.org/2000/svg" xmlns:xlink="http://www.w3.org/1999/xlink" width="26" height="26" viewBox="0 0 26 26">
    <defs>
        <path id="a" d="M.001.047h13.474v16.468H0z"/>
        <path id="c" d="M0 .02h15.87v19.202H0z"/>
    </defs>
    <g fill="none" fill-rule="evenodd">
        <path fill="#F44336" d="M24.076 8.486H12.978a4.491 4.491 0 0 0-3.923 6.687L3.506 5.652C7.548.42 15.065-.543 20.296 3.498a11.97 11.97 0 0 1 3.78 4.988"/>
        <g transform="translate(11.48 8.44)">
            <mask id="b" fill="#fff">
                <use xlink:href="#a"/>
            </mask>
            <path fill="#FFC107" d="M13.475 4.538C13.469 11.15 8.11 16.509 1.498 16.515a10.87 10.87 0 0 1-1.497-.1l5.39-9.631A4.502 4.502 0 0 0 3.743.646a4.45 4.45 0 0 0-2.236-.6h11.088a11.81 11.81 0 0 1 .879 4.492" mask="url(#b)"/>
        </g>
        <g transform="translate(1 5.633)">
            <mask id="d" fill="#fff">
                <use xlink:href="#c"/>
            </mask>
            <path fill="#4CAF50" d="M15.87 9.59l-5.39 9.632h-.01C3.913 18.393-.732 12.405.097 5.846A11.97 11.97 0 0 1 2.506.02l5.55 9.522.03.05a4.491 4.491 0 0 0 7.784 0" mask="url(#d)"/>
        </g>
        <path fill="#F44336" d="M16.87 15.223a4.491 4.491 0 0 1-7.785 0l-.03-.05a4.491 4.491 0 0 1 3.923-6.687h.01a4.45 4.45 0 0 1 2.235.6 4.502 4.502 0 0 1 1.647 6.137"/>
        <path fill="#2196F3" d="M16.87 15.223a4.491 4.491 0 0 1-7.785 0l-.03-.05a4.491 4.491 0 0 1 3.923-6.687h.01a4.45 4.45 0 0 1 2.235.6 4.502 4.502 0 0 1 1.647 6.137"/>
        <path fill="#FAFAFA" fill-rule="nonzero" d="M12.987 8.985a3.996 3.996 0 1 0 1.989.535 3.993 3.993 0 0 0-1.988-.535h-.001zm-.026 8.983a4.99 4.99 0 0 1 .016-9.981 4.99 4.99 0 0 1 4.326 7.486 5.018 5.018 0 0 1-4.342 2.495z"/>
    </g>
</svg>
