<svg xmlns="http://www.w3.org/2000/svg" width="40" height="50" viewBox="0 0 40 50">
    <g fill="none" fill-rule="evenodd" transform="translate(-997 -408)">
        <path fill="#192133" d="M0 0h1440v1144H0z"/>
        <rect width="430" height="640" x="950" y="100" fill="#20293F" rx="12"/>
        <rect width="390" height="83.478" fill="#192133" rx="12" transform="translate(970 391)"/>
        <g transform="translate(1000 413)">
            <path fill="#F58323" d="M8.494 16.727l-8.45 15.92 7.674-.71 3.713 6.753 8.45-15.919z"/>
            <g fill="#F58323">
                <path d="M9.462 34.055c.237-.51-.01-1.118-.507-1.382l-.486-.258a1.04 1.04 0 0 1 1-1.823l1.375.729a.867.867 0 0 0 1.175-.365l.034-.066a.82.82 0 0 0-.316-1.156l-4.11-2.181c-.5-.266-.746-.872-.513-1.383a1.042 1.042 0 0 1 1.432-.479l3.813 2.024a.877.877 0 0 0 1.182-.363l.022-.056.006-.012a.913.913 0 0 0-.376-1.242l-2.139-1.135c-.5-.266-.746-.872-.51-1.388a1.047 1.047 0 0 1 1.433-.48l2.363 1.255c.441.235.968.039 1.197-.407l.006-.012.006-.012c.24-.439.108-.986-.335-1.219l-2.549-1.352c-.494-.263-.74-.869-.507-1.38a1.042 1.042 0 0 1 1.433-.479l6.288 3.338-8.45 15.92L9.1 34.457a.99.99 0 0 0 .362-.403z"/>
                <path d="M24.3 16.727l8.45 15.92-7.673-.71-3.714 6.753-8.45-15.919z"/>
            </g>
            <path fill="#F58323" d="M23.332 34.055c-.237-.51.011-1.118.507-1.382l.486-.258a1.04 1.04 0 0 0-1-1.823l-1.374.729a.867.867 0 0 1-1.176-.365l-.034-.066a.82.82 0 0 1 .316-1.156l4.112-2.182c.5-.267.746-.873.512-1.383a1.042 1.042 0 0 0-1.432-.48l-3.813 2.025a.877.877 0 0 1-1.182-.363l-.021-.056-.006-.012a.913.913 0 0 1 .376-1.242l2.139-1.135c.5-.266.746-.872.509-1.389a1.047 1.047 0 0 0-1.432-.479l-2.365 1.257c-.442.235-.97.039-1.198-.406l-.006-.012-.006-.012c-.24-.44-.108-.986.335-1.22l2.549-1.352c.495-.263.74-.869.507-1.38a1.042 1.042 0 0 0-1.433-.478l-6.287 3.337 8.45 15.92 2.328-4.233a1.007 1.007 0 0 1-.36-.404z"/>
            <circle cx="16.397" cy="14.118" r="14.118" fill="#FDBC4B"/>
            <path fill="#FDBC4B" d="M18.312 12.498H9.365A1.272 1.272 0 0 1 8.1 11.232l.01-.087v-.02a1.322 1.322 0 0 1 1.324-1.334h6.2c.822 0 1.548-.608 1.596-1.43a1.516 1.516 0 0 0-1.508-1.587H9.152c-.724 0-1.266-.608-1.256-1.334v-.02-.019c-.01-.724.53-1.334 1.256-1.334h6.874c.811 0 1.537-.609 1.586-1.421a1.51 1.51 0 0 0-1.509-1.586H11.07C5.937 3.175 2.32 8.222 2.32 14.118s3.617 10.942 8.751 13.055h6.39c.812 0 1.538-.608 1.587-1.421a1.51 1.51 0 0 0-1.509-1.585l-7.27-.001a1.504 1.504 0 0 1-1.502-1.586c.042-.813.773-1.424 1.587-1.424h2.818a1.508 1.508 0 0 0 1.465-1.504 1.51 1.51 0 0 0-1.508-1.508H8.856c-.696 0-1.266-.57-1.257-1.267v-.106a1.19 1.19 0 0 1 1.19-1.267h9.436c.821 0 1.547-.608 1.596-1.42a1.51 1.51 0 0 0-1.509-1.586z"/>
            <path fill="#FFDB70" d="M16.397 24.195c-5.557 0-10.078-4.522-10.078-10.078C6.32 8.56 10.84 4.04 16.397 4.04c5.557 0 10.078 4.522 10.078 10.078 0 5.556-4.52 10.077-10.078 10.077z"/>
            <path fill="#FFC03E" d="M26.475 14.118c0-5.361-4.212-9.746-9.5-10.049h-.938c-.62 0-1.172.465-1.21 1.084a1.153 1.153 0 0 0 1.15 1.21l5.546.001c.654 0 1.18.547 1.145 1.21-.033.62-.589 1.086-1.21 1.086h-2.15a1.15 1.15 0 0 0-1.118 1.147c0 .634.516 1.15 1.15 1.15h3.26c.53 0 .965.436.957.966v.08a.907.907 0 0 1-.907.965h-7.196c-.627 0-1.18.464-1.217 1.084a1.153 1.153 0 0 0 1.15 1.21h6.823c.53 0 .965.435.965.965l-.007.066v.015c.007.56-.45 1.017-1.01 1.017h-4.73c-.627 0-1.18.465-1.217 1.091a1.157 1.157 0 0 0 1.15 1.21h5.01c.552 0 .965.464.958 1.017V20.672c.007.553-.406 1.018-.958 1.018h-5.242c-.62 0-1.172.464-1.21 1.083a1.152 1.152 0 0 0 1.15 1.21h1.383c4.577-.953 8.023-5.014 8.023-9.865z" opacity=".2"/>
        </g>
        <text fill="#FFF" font-family="HelveticaNeue-Bold, Helvetica Neue" font-size="14" font-weight="bold" transform="translate(1000 413)">
            <tspan x="12.366" y="19.048">3</tspan>
        </text>
    </g>
</svg>
