<svg xmlns="http://www.w3.org/2000/svg" width="26" height="26" viewBox="0 0 26 26">
    <defs>
        <radialGradient id="a" cx="50.731%" cy="5.242%" r="96.476%" fx="50.731%" fy="5.242%" gradientTransform="matrix(1 0 0 .96845 0 .002)">
            <stop offset="0%" stop-color="#67C5D5"/>
            <stop offset="16%" stop-color="#66C2D3"/>
            <stop offset="28%" stop-color="#62B9CE"/>
            <stop offset="38.5%" stop-color="#5CA8C6"/>
            <stop offset="48.3%" stop-color="#5392BA"/>
            <stop offset="57.6%" stop-color="#4874AA"/>
            <stop offset="66.5%" stop-color="#3A5097"/>
            <stop offset="74.9%" stop-color="#2A2781"/>
            <stop offset="81.5%" stop-color="#1B006D"/>
            <stop offset="100%" stop-color="#596AAD"/>
        </radialGradient>
        <radialGradient id="b" cx="88.968%" cy="-255.965%" r="248.685%" fx="88.968%" fy="-255.965%" gradientTransform="matrix(1 0 0 .97725 0 -.058)">
            <stop offset="0%" stop-color="#0F80BC"/>
            <stop offset="33.8%" stop-color="#0A5F9E"/>
            <stop offset="100%" stop-color="#00145A"/>
        </radialGradient>
        <radialGradient id="c" cx="-921.44%" cy="-1094.441%" r="1369.172%" fx="-921.44%" fy="-1094.441%" gradientTransform="matrix(1 0 0 .96154 0 -.42)">
            <stop offset="0%" stop-color="#0F80BC"/>
            <stop offset="33.8%" stop-color="#0A5F9E"/>
            <stop offset="100%" stop-color="#00145A"/>
        </radialGradient>
        <radialGradient id="d" cx="-817.243%" cy="-853.305%" r="1332.827%" fx="-817.243%" fy="-853.305%" gradientTransform="matrix(1 0 0 .96154 0 -.328)">
            <stop offset="0%" stop-color="#0F80BC"/>
            <stop offset="33.8%" stop-color="#0A5F9E"/>
            <stop offset="100%" stop-color="#00145A"/>
        </radialGradient>
        <radialGradient id="e" cx="1.605%" cy="-32.198%" r="170.122%" fx="1.605%" fy="-32.198%" gradientTransform="matrix(1 0 0 .63993 0 -.116)">
            <stop offset="0%" stop-color="#0F80BC"/>
            <stop offset="26.4%" stop-color="#0B629B"/>
            <stop offset="84.4%" stop-color="#031747"/>
            <stop offset="100%" stop-color="#00022F"/>
        </radialGradient>
        <radialGradient id="f" cx="51.255%" cy="-47.607%" r="634.959%" fx="51.255%" fy="-47.607%" gradientTransform="matrix(.99063 0 0 1 .005 0)">
            <stop offset="0%" stop-color="#0F80BC"/>
            <stop offset="33.8%" stop-color="#0A5F9E"/>
            <stop offset="100%" stop-color="#00145A"/>
        </radialGradient>
        <radialGradient id="g" cx="1.676%" cy="-1569.395%" r="1324.625%" fx="1.676%" fy="-1569.395%" gradientTransform="matrix(1 0 0 .96154 0 -.604)">
            <stop offset="0%" stop-color="#0F80BC"/>
            <stop offset="33.8%" stop-color="#0A5F9E"/>
            <stop offset="100%" stop-color="#00145A"/>
        </radialGradient>
        <linearGradient id="h" x1="29.707%" x2="76.247%" y1="48.998%" y2="53.877%">
            <stop offset="0%" stop-color="#0F80BC"/>
            <stop offset="33.8%" stop-color="#0A5F9E"/>
            <stop offset="100%" stop-color="#00145A"/>
        </linearGradient>
        <linearGradient id="i" x1="41.732%" x2="18.82%" y1="63.862%" y2="115.366%">
            <stop offset="0%" stop-color="#0F80BC"/>
            <stop offset="33.8%" stop-color="#0A5F9E"/>
            <stop offset="100%" stop-color="#00145A"/>
        </linearGradient>
        <linearGradient id="j" x1="50.01%" x2="50.01%" y1="78.216%" y2="16.92%">
            <stop offset="1.4%" stop-opacity="0"/>
            <stop offset="65%" stop-color="#C4E0E3" stop-opacity=".2"/>
            <stop offset="82.2%" stop-color="#C4E0E3"/>
            <stop offset="85%" stop-color="#CDE5E8"/>
            <stop offset="94.4%" stop-color="#E8F4F7"/>
            <stop offset="100%" stop-color="#F2FAFC"/>
        </linearGradient>
        <linearGradient id="k" x1="49.374%" x2="61.882%" y1="42.517%" y2="34.403%">
            <stop offset="0%" stop-color="#DF731B"/>
            <stop offset="54.5%" stop-color="#DF731B"/>
            <stop offset="70.1%" stop-color="#EC8811"/>
            <stop offset="85.9%" stop-color="#F4950B"/>
            <stop offset="100%" stop-color="#F79A09"/>
        </linearGradient>
        <linearGradient id="l" x1="9.176%" x2="60.948%" y1="47.379%" y2="52.473%">
            <stop offset="1.1%" stop-color="#941403"/>
            <stop offset="89.7%" stop-color="#E85C0A"/>
        </linearGradient>
        <linearGradient id="m" x1="-228.067%" x2="141.518%" y1="-2.199%" y2="70.75%">
            <stop offset="1.1%" stop-color="#941403"/>
            <stop offset="13.6%" stop-color="#A32104"/>
            <stop offset="49.8%" stop-color="#C84107"/>
            <stop offset="78.9%" stop-color="#DF5509"/>
            <stop offset="97.2%" stop-color="#E85C0A"/>
        </linearGradient>
        <linearGradient id="n" x1="16.438%" x2="37.348%" y1="71.198%" y2="56.922%">
            <stop offset="0%" stop-color="#F2C8A9"/>
            <stop offset="100%" stop-color="#FFC"/>
        </linearGradient>
        <linearGradient id="o" x1="36.441%" x2="96.032%" y1="50.206%" y2="53.387%">
            <stop offset="0%" stop-color="#B30000"/>
            <stop offset="100%" stop-color="#DF731B"/>
        </linearGradient>
        <linearGradient id="p" x1="30.961%" x2="128.929%" y1="21.676%" y2="138.839%">
            <stop offset="0%" stop-color="#941403"/>
            <stop offset="100%" stop-color="#DF731B"/>
        </linearGradient>
        <linearGradient id="q" x1="-3.672%" x2="111.977%" y1="48.26%" y2="51.949%">
            <stop offset="5.6%" stop-color="#B30000"/>
            <stop offset="100%" stop-color="#DE5C01"/>
        </linearGradient>
        <linearGradient id="r" x1="40.863%" x2="132.24%" y1="38.637%" y2="213.154%">
            <stop offset="5.6%" stop-color="#DE7210"/>
            <stop offset="100%" stop-color="#F6C08F"/>
        </linearGradient>
        <linearGradient id="s" x1="48.915%" x2="28.694%" y1="37.541%" y2="182.599%">
            <stop offset="5.6%" stop-color="#DE7210"/>
            <stop offset="100%" stop-color="#F6C08F"/>
        </linearGradient>
        <linearGradient id="t" x1="56.031%" x2="15.042%" y1="88.061%" y2="18.676%">
            <stop offset="1.1%" stop-color="#941403"/>
            <stop offset="47.2%" stop-color="#E85C0A"/>
            <stop offset="100%" stop-color="#F9BD5F"/>
        </linearGradient>
        <linearGradient id="u" x1="33.857%" x2="108.808%" y1="65.78%" y2="-3.07%">
            <stop offset="19.7%" stop-color="#DE7210"/>
            <stop offset="84.3%" stop-color="#F9BD5F"/>
            <stop offset="100%" stop-color="#FFFCCF"/>
        </linearGradient>
        <linearGradient id="v" x1="24.082%" x2="69.066%" y1="11.229%" y2="93.07%">
            <stop offset="1.7%" stop-color="#941403"/>
            <stop offset="50%" stop-color="#E35100"/>
            <stop offset="100%" stop-color="#DF731B"/>
        </linearGradient>
        <linearGradient id="w" x1="48.276%" x2="73.703%" y1="39.157%" y2="71.5%">
            <stop offset="0%" stop-color="#EEA272"/>
            <stop offset="18.6%" stop-color="#EFA777"/>
            <stop offset="40.6%" stop-color="#F2B585"/>
            <stop offset="64.3%" stop-color="#F6CD9C"/>
            <stop offset="89%" stop-color="#FCEEBB"/>
            <stop offset="100%" stop-color="#FFC"/>
        </linearGradient>
        <linearGradient id="x" x1="47.145%" x2="102.652%" y1="59.557%" y2="148.176%">
            <stop offset="19.7%" stop-color="#DF731B"/>
            <stop offset="84.3%" stop-color="#F9BD5F"/>
            <stop offset="100%" stop-color="#FFFCCF"/>
        </linearGradient>
        <linearGradient id="y" x1="63.944%" x2="-35.362%" y1="1.496%" y2="190.171%">
            <stop offset="5.6%" stop-color="#DE7210"/>
            <stop offset="100%" stop-color="#F6C08F"/>
        </linearGradient>
        <linearGradient id="z" x1="65.322%" x2="-21.894%" y1="23.082%" y2="189.432%">
            <stop offset="5.6%" stop-color="#DE7210"/>
            <stop offset="100%" stop-color="#F2C06E"/>
        </linearGradient>
        <linearGradient id="A" x1="122.839%" x2="9.236%" y1="22.931%" y2="86.406%">
            <stop offset=".5%" stop-color="#FFFAEE"/>
            <stop offset="27.6%" stop-color="#F5F89B"/>
            <stop offset="31%" stop-color="#F3ED91"/>
            <stop offset="46.7%" stop-color="#ECC267"/>
            <stop offset="61.8%" stop-color="#E6A046"/>
            <stop offset="76.1%" stop-color="#E2872E"/>
            <stop offset="89.2%" stop-color="#E07820"/>
            <stop offset="100%" stop-color="#DF731B"/>
        </linearGradient>
        <linearGradient id="B" x1="56.496%" x2="-3.386%" y1="3.473%" y2="187.138%">
            <stop offset="5.6%" stop-color="#DE7210"/>
            <stop offset="100%" stop-color="#F2C06E"/>
        </linearGradient>
        <linearGradient id="C" x1="70.208%" x2="-47.152%" y1="-.164%" y2="192.969%">
            <stop offset="5.6%" stop-color="#DE7210"/>
            <stop offset="100%" stop-color="#F2C06E"/>
        </linearGradient>
        <linearGradient id="D" x1="51.138%" x2="65.919%" y1="37.948%" y2="185.924%">
            <stop offset="5.6%" stop-color="#DE7210"/>
            <stop offset="100%" stop-color="#F2C072"/>
        </linearGradient>
        <linearGradient id="E" x1="51.19%" x2="65.987%" y1="37.97%" y2="185.941%">
            <stop offset="5.6%" stop-color="#DE7210"/>
            <stop offset="100%" stop-color="#F2C072"/>
        </linearGradient>
        <linearGradient id="F" x1="47.452%" x2="-5.641%" y1="39.387%" y2="138.972%">
            <stop offset="5.6%" stop-color="#DE7210"/>
            <stop offset="100%" stop-color="#EED8A5"/>
        </linearGradient>
        <linearGradient id="G" x1="47.46%" x2="-5.633%" y1="39.315%" y2="138.891%">
            <stop offset="5.6%" stop-color="#DE7210"/>
            <stop offset="100%" stop-color="#EED8A5"/>
        </linearGradient>
        <linearGradient id="H" x1="44.26%" x2="15.163%" y1="52.205%" y2="124.854%">
            <stop offset="5.6%" stop-color="#DE7210"/>
            <stop offset="100%" stop-color="#F2C072"/>
        </linearGradient>
        <linearGradient id="I" x1="49.572%" x2="-61.231%" y1="32.037%" y2="199.013%">
            <stop offset="5.6%" stop-color="#DE7210"/>
            <stop offset="100%" stop-color="#F2C072"/>
        </linearGradient>
        <linearGradient id="J" x1="49.495%" x2="-61.116%" y1="32.204%" y2="198.904%">
            <stop offset="5.6%" stop-color="#DE7210"/>
            <stop offset="100%" stop-color="#F2C072"/>
        </linearGradient>
        <linearGradient id="K" x1="52.345%" x2="76.016%" y1="13.777%" y2="53.75%">
            <stop offset="0%" stop-color="#8B8B89"/>
            <stop offset="100%" stop-color="#120500"/>
        </linearGradient>
        <linearGradient id="L" x1="50.018%" x2="50.018%" y1="37.807%" y2="3.223%">
            <stop offset="5.6%" stop-color="#DE7210"/>
            <stop offset="100%" stop-color="#F6C08F"/>
        </linearGradient>
        <linearGradient id="M" x1="-24.606%" x2="114.995%" y1="106.974%" y2="-36.238%">
            <stop offset="5.6%" stop-color="#DE7210"/>
            <stop offset="100%" stop-color="#F6C08F"/>
        </linearGradient>
        <linearGradient id="N" x1="47.313%" x2="-5.79%" y1="39.357%" y2="138.932%">
            <stop offset="5.6%" stop-color="#DE7210"/>
            <stop offset="100%" stop-color="#EED8A5"/>
        </linearGradient>
        <linearGradient id="O" x1="-23.388%" x2="116.328%" y1="105.954%" y2="-37.534%">
            <stop offset="5.6%" stop-color="#DE7210"/>
            <stop offset="100%" stop-color="#F6C08F"/>
        </linearGradient>
        <linearGradient id="P" x1="-37.965%" x2="117.499%" y1="-25.879%" y2="99.153%">
            <stop offset="5.6%" stop-color="#DE7210"/>
            <stop offset="100%" stop-color="#F6C08F"/>
        </linearGradient>
        <linearGradient id="Q" x1="-38.763%" x2="119.425%" y1="-7.178%" y2="89.412%">
            <stop offset="5.6%" stop-color="#DE7210"/>
            <stop offset="100%" stop-color="#F6C08F"/>
        </linearGradient>
        <linearGradient id="R" x1="-38.519%" x2="118.07%" y1="-15.168%" y2="99.735%">
            <stop offset="5.6%" stop-color="#DE7210"/>
            <stop offset="100%" stop-color="#F6C08F"/>
        </linearGradient>
        <linearGradient id="S" x1="55.572%" x2="-99.292%" y1="48.349%" y2="-11.928%">
            <stop offset="5.6%" stop-color="#DE7210"/>
            <stop offset="100%" stop-color="#F6C08F"/>
        </linearGradient>
        <linearGradient id="T" x1="-19.838%" x2="116.248%" y1="109.64%" y2="-38.021%">
            <stop offset="5.6%" stop-color="#DE7210"/>
            <stop offset="100%" stop-color="#F6C08F"/>
        </linearGradient>
        <linearGradient id="U" x1="10.116%" x2="88.249%" y1="107.835%" y2="29.791%">
            <stop offset="0%" stop-color="#DE5C01"/>
            <stop offset="73.6%" stop-color="#FEFD00"/>
            <stop offset="77.8%" stop-color="#FEFE26"/>
            <stop offset="83.7%" stop-color="#FFFE54"/>
            <stop offset="88.9%" stop-color="#FFFF76"/>
            <stop offset="93.2%" stop-color="#FFFF8B"/>
            <stop offset="96.1%" stop-color="#FFFF92"/>
        </linearGradient>
        <linearGradient id="V" x1="79.674%" x2="20.549%" y1="58.031%" y2="16.789%">
            <stop offset="0%" stop-color="#F79A09"/>
            <stop offset="73.6%" stop-color="#FEFD00"/>
            <stop offset="77.8%" stop-color="#FEFE26"/>
            <stop offset="83.7%" stop-color="#FFFE54"/>
            <stop offset="88.9%" stop-color="#FFFF76"/>
            <stop offset="93.2%" stop-color="#FFFF8B"/>
            <stop offset="96.1%" stop-color="#FFFF92"/>
        </linearGradient>
        <linearGradient id="W" x1="121.645%" x2="11.006%" y1="92.617%" y2="-11.207%">
            <stop offset="0%" stop-color="#DE5C01"/>
            <stop offset="73.6%" stop-color="#FEFD00"/>
            <stop offset="77.8%" stop-color="#FEFE26"/>
            <stop offset="83.7%" stop-color="#FFFE54"/>
            <stop offset="88.9%" stop-color="#FFFF76"/>
            <stop offset="93.2%" stop-color="#FFFF8B"/>
            <stop offset="96.1%" stop-color="#FFFF92"/>
        </linearGradient>
        <linearGradient id="X" x1="60.22%" x2="12.527%" y1="53.18%" y2="25.576%">
            <stop offset="0%" stop-color="#F79A09"/>
            <stop offset="73.6%" stop-color="#FEFD00"/>
            <stop offset="77.8%" stop-color="#FEFE26"/>
            <stop offset="83.7%" stop-color="#FFFE54"/>
            <stop offset="88.9%" stop-color="#FFFF76"/>
            <stop offset="93.2%" stop-color="#FFFF8B"/>
            <stop offset="96.1%" stop-color="#FFFF92"/>
        </linearGradient>
        <linearGradient id="Y" x1="7.725%" x2="79.221%" y1="69.727%" y2="22.73%">
            <stop offset="0%" stop-color="#F79A09"/>
            <stop offset="73.6%" stop-color="#FEFD00"/>
            <stop offset="77.8%" stop-color="#FEFE26"/>
            <stop offset="83.7%" stop-color="#FFFE54"/>
            <stop offset="88.9%" stop-color="#FFFF76"/>
            <stop offset="93.2%" stop-color="#FFFF8B"/>
            <stop offset="96.1%" stop-color="#FFFF92"/>
        </linearGradient>
        <linearGradient id="Z" x1="53.913%" x2="37.08%" y1="77.833%" y2="14.412%">
            <stop offset="0%" stop-color="#F79A09"/>
            <stop offset="73.6%" stop-color="#FEFD00"/>
            <stop offset="77.8%" stop-color="#FEFE26"/>
            <stop offset="83.7%" stop-color="#FFFE54"/>
            <stop offset="88.9%" stop-color="#FFFF76"/>
            <stop offset="93.2%" stop-color="#FFFF8B"/>
            <stop offset="96.1%" stop-color="#FFFF92"/>
        </linearGradient>
        <linearGradient id="aa" x1="34.129%" x2="89.699%" y1="71.333%" y2="23.825%">
            <stop offset="0%" stop-color="#F79A09"/>
            <stop offset="73.6%" stop-color="#FEFD00"/>
            <stop offset="77.8%" stop-color="#FEFE26"/>
            <stop offset="83.7%" stop-color="#FFFE54"/>
            <stop offset="88.9%" stop-color="#FFFF76"/>
            <stop offset="93.2%" stop-color="#FFFF8B"/>
            <stop offset="96.1%" stop-color="#FFFF92"/>
        </linearGradient>
        <linearGradient id="ab" x1="50.227%" x2="49.154%" y1="79.803%" y2="20.974%">
            <stop offset="0%" stop-color="#DE5C01"/>
            <stop offset="73.6%" stop-color="#FEFD00"/>
            <stop offset="77.8%" stop-color="#FEFE26"/>
            <stop offset="83.7%" stop-color="#FFFE54"/>
            <stop offset="88.9%" stop-color="#FFFF76"/>
            <stop offset="93.2%" stop-color="#FFFF8B"/>
            <stop offset="96.1%" stop-color="#FFFF92"/>
        </linearGradient>
        <linearGradient id="ac" x1="22.673%" x2="96.945%" y1="89.594%" y2="22.985%">
            <stop offset="0%" stop-color="#B9120D"/>
            <stop offset="7.8%" stop-color="#BB180D"/>
            <stop offset="18.2%" stop-color="#C0290C"/>
            <stop offset="30.1%" stop-color="#C8450A"/>
            <stop offset="43.1%" stop-color="#D36C08"/>
            <stop offset="57.1%" stop-color="#E29E05"/>
            <stop offset="71.5%" stop-color="#F4DA02"/>
            <stop offset="79.2%" stop-color="#FEFD00"/>
            <stop offset="81.4%" stop-color="#FEFD07"/>
            <stop offset="84.6%" stop-color="#FEFD1B"/>
            <stop offset="88.4%" stop-color="#FEFE3C"/>
            <stop offset="92.7%" stop-color="#FFFE69"/>
            <stop offset="97.4%" stop-color="#FFFFA3"/>
            <stop offset="100%" stop-color="#FFFFC7"/>
        </linearGradient>
        <linearGradient id="ad" x1="40.128%" x2="148.046%" y1="57.358%" y2="137.06%">
            <stop offset="5.6%" stop-color="#DE7210"/>
            <stop offset="100%" stop-color="#F6C08F"/>
        </linearGradient>
        <linearGradient id="ae" x1="33.051%" x2="159.025%" y1="38.634%" y2="135.737%">
            <stop offset="5.6%" stop-color="#DE7210"/>
            <stop offset="100%" stop-color="#F6C08F"/>
        </linearGradient>
        <linearGradient id="af" x1="22.836%" x2="163.052%" y1="22.822%" y2="204.598%">
            <stop offset="5.6%" stop-color="#DE7210"/>
            <stop offset="100%" stop-color="#F6C08F"/>
        </linearGradient>
    </defs>
    <g fill="none" fill-rule="evenodd">
        <g transform="translate(1.442 1.012)">
            <ellipse cx="11.544" cy="11.947" fill="#110070" rx="11.534" ry="11.909"/>
            <ellipse cx="11.544" cy="11.947" fill="url(#a)" rx="11.317" ry="11.686"/>
            <path fill="url(#b)" d="M9.918 17.978a.624.624 0 0 0-.283-.287c-.119-.043-.232.176-.304-.186-.248.143-.351-.043-.351-.043s-.264.016-.316.351c-.124.155-.449.714-.278.133.176-.585-.18-.048-.217.25-.061.134-.165.144-.098-.447-.227-.08-.346-.628-.221-.638-.145-.208-.032-.527.087-.512.119.016.33-.271.32-.34-.005-.07.093-.022.087-.469-.005-.452.166-.564.181-.186.015.378.233-.123.212-.314-.02-.192.02-.623.154-.367-.153-.629-.03-.655.063-.235.232.022.237.15.237.15a.307.307 0 0 1 .397.244c.238-.287.481.022.481.022s.164-.059.087.24c-.077.297.346.137.243-.075.206-.107.515.223.614.447.098.223-.165.548.04.623.208.074.12.447.12.447s.433.25.135.463l-.104.256s.196.223.263.09c.068-.133.093.138.093.138-.026-.047.046.283.32.352.273.069.443.51.144.516-.299.006-.325-.005-.408.176-.082.18-.464.186-.665-.048-.212.075-.588-.021-.475-.197-.18.112-.356-.186-.212-.314.145-.133-.082-.298-.154-.112s-.47.282-.439-.037c.01-.096.216-.15.221-.07.026.086.043-.01.026-.02v-.001z"/>
            <path fill="url(#c)" d="M19.28 8.843c.062.064.18.048.243.026.067-.02.057-.069.114-.085.056-.021.273.085.216.32-.129.021-.18.18-.18.18s-.13.06-.196.027c-.067-.026-.067-.02-.16-.01s-.32-.123-.078-.123c.243 0-.026-.117-.13-.117-.102 0-.02-.106.104-.074-.082-.144-.036-.25.068-.144z"/>
            <path fill="url(#d)" d="M18.434 9.37c-.068.07.01.271.093.26.083-.009.216-.046.216-.046s.068.133 0 .175c-.067.038-.257.022-.01.118.254.095.32.069.336.02.02-.047.103-.212.15-.201.036-.087-.13-.166-.036-.225.092-.059.02-.272.02-.272s-.135.012-.186.107c-.058.096-.129-.01-.185-.01-.01.057-.047.105-.047.105l-.036-.084c-.006-.006-.27-.016-.315.053z"/>
            <path fill="url(#e)" d="M16.679 9.53c-.01-.027.072-.123.052.005-.052.09.206.176.279.074.242-.34-.227-.505-.43-.346-.205.16-.318-.18-.082-.234.238-.048.253-.49-.005-.49.227-.117-.087-.463-.35-.527-.042-.372-.424-.612-.63-.479-.201.139-.222.112-.522-.074-.299-.187-.438.388-.22.638.22.25.06.66.066.591 0 0-.083.155-.077.213-.253.09-.325-.277-.481-.356-.113.154-.298.234-.298.234l.014-.314s-.779-.437-1.021-.314c-.294.096-.366.798-.098.905.268.106-.337.362.268 1.027.625.682.867.698.996.586.031-.027.087-.07.154-.117a.19.19 0 0 0 .032.074c.154.245-.362.431-.434.783-.072.351-.005 1.006.305 1.027.057-.346.635-.223.32.09-.32.32-.093.379-.093.379s.015.601.506.41a.418.418 0 0 0-.031.127c-.135-.026-.47-.069-.553.17-.103.304-.541-.1-.846.033-.304.133-.748.58-.598.889.288-.139.506.495.103.362-.403-.128-.325.117-.325.117s-.418.34-.026.703c-.15.021-.418.197-.33.575 0 0-.171.005-.196.346-.563.117-.527.298.32.1-.341.182.237.267.495.246.258-.027.933.32.423.325-.505.005-.355.26.253.271.609.01.542.16.635.15.087-.006.484.313.459.489-.02.176.413.362.692.16.015.186.753.042.866-.293.806.128.785-.027.604-.128-.402-.064-1.14-.612-.34-.33.794.282.03-.224-.181-.415a.551.551 0 0 1-.48-.485s.253-.149.052-.516c.495-.096.196-.272.253-.442.057-.17.304-.389.392-.405.016-.02.15.006.025.059-.108 0-.03.314.098.33.434.053.31-.532.052-.65-.258-.117-.026-.441.155-.223.18.218.584-.027.433-.304.238.17.367-.383.269-.702.32-.288.31-.857.061-.985-.123-.064-.18-.101-.211-.181.15-.07.341-.123.418-.053.124.117.47-.203.45-.58.143.084.376-.682.18-.948.454-.655.33-.714.18-.602-.226.325-.975.713-.397.138.562-.559-.15-.133-.387-.042-.279.362-.578.186-.578.186s.01-.298-.35-.303c.165-.474-.105-.304-.197-.437-.087-.144-.124-.458-.093-.537z"/>
            <path fill="url(#f)" d="M10.817 4.76c-.073.186.226.495.381.399.15-.101.367-.298.367-.298s.227.191.135.324c-.094.133-.465.288.071.224.552-.064.65-.181.65-.288-.005-.106.026-.495.125-.521.005-.197-.378-.181-.243-.378.129-.197-.175-.522-.175-.522s-.238.144-.27.378c-.03.234-.252.106-.36.16a.623.623 0 0 1-.006.245l-.14-.128c-.004 0-.504.234-.536.404l.001.001z"/>
            <path fill="url(#g)" d="M11.71 14.672c-.068.07.01.272.092.261.083-.01.217-.048.217-.048s.068.133 0 .176c-.067.037-.258.021-.01.117.253.096.32.07.34.021.021-.048.104-.213.15-.202.037-.085-.129-.165-.037-.224.094-.058.022-.271.022-.271s-.13.01-.186.106c-.058.096-.13-.01-.186-.01a.272.272 0 0 1-.047.106l-.035-.085c-.01-.005-.274-.016-.32.053z"/>
            <path fill="url(#h)" d="M11.797.24c-.175.042.12.703.12.703s-.01.441.06.468c.073.021.554.15.807.469.253.324.123.495-.089.399-.211-.096-.154.192-.154.192s.635.212.154.196c-.48-.01.325.352.27.39-.053.036-.083.244-.083.244s-.423.037-.068.192c1.218.527-.128.388-.128.388l-.17.219.34.441.262.192s.553-.192.723-.218c.175-.027.609-.362.609-.362s.129.096.03-.101c-.097-.197.357-.107.471.037l.805.373c.01.026.03.053.056.074.155.112-.139.309-.113.517.03.202.212.543.414.505-.037-.197.36-.218.22 0-.139.219.016.213.016.213s.129.304.397.133c-.01.09.047.282.274.293 0 0-.026.101.166.176-.026.346.082.362.107-.17.047.234.192-.096.222-.25.031-.16.34-.501.259-.198-.083.304.918.416 1.032.054.113-.363.51-.554.526-.607.01-.059-.893-.144-.789-.102.097.043.283-.191.217-.399.113.021.16-.463-.016-.585.221-.485.13-.496.036-.4-.109.24-.568.607-.258.155.315-.453-.129-.059-.279.042-.134.272-.372.219-.372.219s-.04-.181-.293-.123c.03-.325-.13-.17-.217-.229a.482.482 0 0 1-.14-.202c.217.09.506.186.46.021-.031-.106.413.128.428.08l.553-.08.536-.351C15.751.069 11.798.24 11.798.24z"/>
            <path fill="url(#i)" d="M6.684 1.262C4.63 2.21 3.076 4.174 3.076 4.174s.18.431.248.4c.062-.034-.46 1.127-.077 1.191.387.064 1.496-.719 1.29-.644-.207.069.113-.426.113-.426s.578-.266.237.042c-.34.304.45.038.439.102-.01.063.104.229.104.229s-.27.298.077.18c1.202-.415.16.357.16.357l.02.261.522.09.304-.031s.269-.49.372-.623c.103-.133.202-.66.202-.66s.153-.016-.043-.096c-.195-.08.192-.32.368-.288l.835-.266a.134.134 0 0 0 .093.016c.19-.021.093.32.253.453.154.127.51.255.64.095-.154-.117.129-.404.165-.149.036.25.15.144.15.144s.3-.532.397-.836c.051.075.542-.665.393-1.017-.15-.356.092-.692.067-.745-.026-.053-.176.107-.067.07.107-.038-.31.154-.367-.416-.058-.58-.14.048-.191.234.072.304.836-1.224.836-1.224l.981-.41c-.006.005-2.235-.186-4.913 1.054v.001z"/>
            <ellipse cx="11.328" cy="4.706" fill="url(#j)" opacity=".5" rx="5.991" ry="4.003"/>
        </g>
        <path fill="url(#k)" d="M23.955 8.69l-.279 1.837s-.397-3.397-.883-4.67c-.743-1.948-1.073-1.932-1.078-1.927.5 1.31.408 2.013.408 2.013s-.883-2.486-3.221-3.274c-2.765-.937-4.173-.597-4.164-.587.01.01 2.86.517 3.365 1.23 0 0-1.214 0-2.416.357-.057.016 4.433.58 5.347 5.2 0 0-.49-1.058-1.1-1.24.398 1.257.3 3.637-.082 4.819-.046.154-.098-.66-.851-1.007.242 1.778-.016 4.595-1.208 5.372-.093.059.748-2.779.17-1.682-3.457 5.473-7.576 2.214-9.243 1.054 1.337.34 2.762.096 3.587-.485.831-.585 1.32-1.017 1.765-.915.444.1.733-.357.392-.762a2.246 2.246 0 0 0-2.302-.66c-.794.213-1.78 1.124-3.281.203-1.286-.783-1.275-1.422-1.275-1.827 0-.404.35-1.022.985-.92.573.09.27-.256.883 0 .165.069-.015-.831-.253-1.406.46-.985 1.945-1.278 2.054-1.368.202-.155.093-.234.16-.474.062-.218.103-.815-1.558-.65-.764.075-1.255-.947-1.415-1.197.052-.314.135-.607.249-.868a3.82 3.82 0 0 1 .36-.628l.104-.139a3.39 3.39 0 0 1 .918-.766c.192-.112-2.131-.006-3.179 1.4-.278.037-.665-.048-1.094-.048a5.03 5.03 0 0 0-1.357.165.725.725 0 0 1-.289-.021c-.346-.367-1.321-1.257-1.367-2.459 0 0-1.42 1.123-1.208 4.195-.021 1.698-.506 1.214-.755 2.135-.118.436.176.767.176.777 0 .006.351-.388.351-.388s-2.204 3.934.64 8.954c2.456 4.334 6.569 6.245 10.837 5.872a12.74 12.74 0 0 0 2.25-.351c9.94-2.481 8.856-14.864 8.856-14.864z" transform="translate(1 1)"/>
        <path fill="url(#l)" d="M8.432 5.586S8.86 6.8 9.825 6.795c1.837-.006 1.873.021 1.888.25.037.703-.299.932-.428 1.033-.13.1-1.878 1.144-1.946 1.448-.061.298-2.017-2.848-2.017-2.848l1.11-1.092z" transform="translate(1 1)"/>
        <path fill="url(#m)" d="M9.412 6.891s.599.787.144 1.102c-.552.383.78.468 1.264.186.486-.282.779-.692.795-.75.016-.06.175-.613-.83-.421-.64.127-.873.154-1.373-.117z" transform="translate(1 1)"/>
        <path fill="url(#n)" d="M11.285 8.078c.098-.075.315-.23.398-.602-.063.027-.068-.048-.14-.016-1.352 1.454-1.404.442-2.141.644-.671.192-.827.453-.852.469a.21.21 0 0 0 .03.042c.197.102.383.426.522.714.135.165.227.25.242.191.063-.298 1.812-1.346 1.94-1.442z" transform="translate(1 1)"/>
        <path fill="url(#o)" d="M1.18 9.233c-.273.596-2.047 3.684.847 8.827 2.828 5.03 7.725 6.676 12.726 5.558 1.43-.32 3.071-1.47 4.123-2.316-.676-1.752-.273-1.688-.635-1.459-4.025 2.572-7.23.037-9.706-.287-9.12-1.194-7.323-10.344-7.323-10.344l-.031.021z" transform="translate(1 1)"/>
        <path fill="url(#p)" d="M8.772 16.282c.856.266 2.735.037 3.54-.58.542-.416.954-.73 1.296-.863-.61-.426-.62.176-1.9.484-2.668.64-3.963-.74-3.963-.74.19 1.092.851 1.624 1.145 1.81a1.073 1.073 0 0 1-.118-.111z" transform="translate(1 1)"/>
        <path fill="url(#q)" d="M5.876 21.27s-2.223-2.587-2.842-5.483a22.72 22.72 0 0 1-1.993-2.189c.248 2.06 1.27 5.26 4.836 7.672h-.001z" transform="translate(1 1)"/>
        <path fill="url(#r)" d="M4.024 18.917s-1.533-2.252-.96-4.163c.517-1.72-.108-.698-.475-.33-.366.372-.557-1.097-.547-1.267v-.006c-.026 0-.728 3.52 1.982 5.766z" transform="translate(1 1)"/>
        <path fill="url(#s)" d="M1.754 16.958s-.351-4.568.753-5.218c1.755-1.027.144-.787-.362-.5-.515.288-.464-1.602-.391-1.783.067-.181-1.812 1.788 0 7.5v.001z" transform="translate(1 1)"/>
        <path fill="#A40000" d="M10.428 4.504S9.038 5.958 9.05 5.963c.01.005.04 1.869.087 2.396.165.202.687 1.522.289 1.23-.408-.299-.114-.304-.077-.155v.005c-.03.022-1.011-2.182 1.079-4.935z"/>
        <path fill="url(#t)" d="M2.822 2.387S1.346 3.553 1.63 6.757C2.77 5.698 4.386 4.91 4.386 4.91c-.27-.176-1.518-1.203-1.564-2.523z" transform="translate(1 1)"/>
        <path fill="url(#u)" d="M6.46 5.89l2.219 2.842c-.64-2.795-.15-4.472 1.43-5.383.227-.133-3.293.048-3.65 2.54v.001z" transform="translate(1 1)"/>
        <path fill="url(#v)" d="M4.896 12.917c.377-2.46 3.695-2.098 3.695-2.098-.15.112-.717.181-.877.65-.537 1.55-.026 4.93 3.318 6.346.355.154-6.693-1.262-6.135-4.898z" transform="translate(1 1)"/>
        <path fill="url(#w)" d="M11.662 7.54c-.016-.005-.031 0-.036.005-.041.059-.196.25-.573.565-.697.585-.99.436-1.507.559-.237.053-.46.218-.614.351.062.101.119.213.17.32.135.164.227.25.242.191.063-.298 1.818-1.347 1.946-1.448.088-.08.28-.218.372-.543z" transform="translate(1 1)"/>
        <path fill="url(#x)" d="M9.525 11.256c.021-.522-.015-1.783-.541-2.326-.397-.421-.496-.9-.548-1.443-4.344 1.677-4.969 3.865-4.535 3.795 3.479-.575 4.459-.645 5.625-.027l-.001.001z" transform="translate(1 1)"/>
        <path fill="url(#y)" d="M.257 14.322s.305-4.05 2.265-5.53c1.543-1.167.346-.74-.253-.693-.629.053-.964.447-.841.298.006-.005.006-.01.006-.01-.021-.023-1.472 1.235-1.177 5.935z" transform="translate(1 1)"/>
        <path fill="url(#z)" d="M.045 11.213s1.053-3.45 3.179-3.417c1.409.02.294-1.23-.135-1.422-.442-.197-.551-.192-.654-.096-.155.144-1.553.09-2.39 4.935z" transform="translate(1 1)"/>
        <path fill="url(#A)" d="M14.402 14.589c.16-.16.046-.783-.96-1.16-.913-.342-2.337.526-2.76.697 0 0 1.615-.315 2.218-.208.827.144 1.115 1.065 1.502.67v.001z" transform="translate(1 1)"/>
        <path fill="url(#B)" d="M1.604 13.449s-.176-3.39 1.3-4.839c1.157-1.14.207-.655-.279-.548-.515.112-.753.479-.665.34.005-.005.005-.01.005-.01-.026-.01-1.1 1.198-.361 5.057z" transform="translate(1 1)"/>
        <path fill="url(#C)" d="M.468 12.374s.625-3.333 2.39-4.37c1.388-.815.355-.581-.145-.602-.526-.022-.84.276-.727.165.004-.006.004-.006.004-.011C1.975 7.54.654 8.44.468 12.374z" transform="translate(1 1)"/>
        <path fill="url(#D)" d="M2.568 13.742s-.34-2.023.393-3.013c.583-.793.073-.405-.201-.293-.284.117-.393.357-.351.266.036-.08-1.265.959.16 3.04z" transform="translate(1 1)"/>
        <path fill="url(#E)" d="M2.956 11.836s-.34-2.023.392-3.013c.583-.793.072-.405-.202-.293-.283.117-.391.357-.35.266.036-.08-1.26.959.16 3.04z" transform="translate(1 1)"/>
        <path fill="url(#F)" d="M.897 9.073s.794-1.681 1.852-2.011c.841-.266.264-.261.006-.325-.274-.07-.475.048-.397.005.066-.038-1.43.01-1.463 2.331h.002z" transform="translate(1 1)"/>
        <path fill="url(#G)" d="M.784 10.404s.794-1.682 1.852-2.012c.84-.266.263-.261.005-.325-.274-.07-.475.048-.398.005.068-.042-1.429.011-1.46 2.332z" transform="translate(1 1)"/>
        <path fill="url(#H)" d="M1.362 10.037s1.403-2.965 3.266-3.546c1.486-.463.464-.458.005-.575-.48-.117-.837.085-.707.006.129-.07-2.514.02-2.564 4.115z" transform="translate(1 1)"/>
        <path fill="url(#I)" d="M2.321 8.445s.872-1.842 2.029-2.204c.923-.287.288-.287.005-.357-.3-.074-.517.054-.44.006.077-.054-1.563.005-1.594 2.555z" transform="translate(1 1)"/>
        <path fill="url(#J)" d="M2.605 9.095S3.4 7.412 4.458 7.082c.841-.266.263-.26.005-.325-.274-.069-.475.048-.398.006.068-.043-1.43.01-1.46 2.332z" transform="translate(1 1)"/>
        <path fill="url(#K)" d="M11.713 7.045c-.01-.176-.036-.234-.846-.245.093.043.253.133.428.282.233.197.274.415.294.644.083-.16.14-.372.124-.681z" transform="translate(1 1)"/>
        <path fill="url(#L)" d="M6.94 4.702l-.707 1.172s-2.818-.458-5.207 1.927c-.196.197 1.563-4.217 5.913-3.099z" transform="translate(1 1)"/>
        <path fill="url(#M)" d="M4.412 6.8s.752-1.437 1.723-1.874c-.506.016-1.636.42-1.723 1.874z" transform="translate(1 1)"/>
        <path fill="url(#N)" d="M1.521 8.2s.795-1.682 1.853-2.012c.841-.266.264-.261.005-.325-.273-.07-.475.048-.397.005.061-.037-1.435.011-1.46 2.332z" transform="translate(1 1)"/>
        <path fill="url(#O)" d="M3.184 7.018s.82-1.352 1.795-1.714c-.49-.016-1.616.303-1.796 1.714z" transform="translate(1 1)"/>
        <path fill="url(#P)" d="M4.591 4.708s-.619.277-1.707-.187l.97.506.737-.32v.001z" transform="translate(1 1)"/>
        <path fill="url(#Q)" d="M4.292 4.883s-.826.33-2.41-.16l1.357.56c.166-.165 1.053-.4 1.053-.4z" transform="translate(1 1)"/>
        <path fill="url(#R)" d="M4.891 4.612s-.548.17-1.558-.229l.97.506c.109-.096.588-.277.588-.277z" transform="translate(1 1)"/>
        <path fill="url(#S)" d="M3.188 5.262s-.407.345-1.445.361l.898.032.547-.394v.001z" transform="translate(1 1)"/>
        <path fill="url(#T)" d="M2.197 7.045S3.591 5.176 4.736 4.75c-.577-.016-2.327.64-2.539 2.295z" transform="translate(1 1)"/>
        <path fill="url(#U)" d="M16.045 8.228s.15 3.466-4.52 8.284c-.521.538-3.334 3.258-3.236 4.073.036.293 7.39-1.16 7.756-12.357z" transform="translate(8.692 3)"/>
        <path fill="url(#V)" d="M6.993.072c5.625.447 6.715 4.616 6.715 4.36C13.723.381 8.37.072 6.993.072z" transform="translate(8.692 3)"/>
        <path fill="url(#W)" d="M8.707 1.659s3.896.82 5 5.084c.145.564-.469-3.466-.278-3.083.185.39-1.574-1.873-4.721-2.001h-.001z" transform="translate(8.692 3)"/>
        <path fill="url(#X)" d="M10.265 1.558s3.52.756 3.556 6.521c.026 4.078.609 1.533 1.192.612.5-.793.16-1.756.145-1.756 0 0-.253-.751-.083-.432a2.717 2.717 0 0 1-.232-.207c.036-.006-.14-4.142-4.577-4.738z" transform="translate(8.692 3)"/>
        <path fill="url(#Y)" d="M14.23 2.335s1.263 3.396-.078 5.09c-.44.553-.486 3.375.046 3.12.537-.262.418 1.5.351 1.697v.006c.036.026 2.642-4.344-.32-9.913z" transform="translate(8.692 3)"/>
        <path fill="url(#Z)" d="M12.47 5.912s.793 2.407-.037 4.126l.63 1.454c.464-1.171 1.052-3.652-.594-5.58z" transform="translate(8.692 3)"/>
        <path fill="url(#aa)" fill-rule="nonzero" d="M13.873 5.63s.552 3.817-1.435 7.262a6.288 6.288 0 0 1-.288 2.113c.084.12.213.198.356.213a5.486 5.486 0 0 1-.202.181c-.122.054-.242.111-.362.17l-.077.176c.135-.095.28-.213.433-.346.409-.186.77-.33.77-.33l-.254.096a.81.81 0 0 1-.314.053c1.533-1.448 3.638-4.674 1.373-9.588zm-2.317 10.147c-.176.107-.305.208-.331.283-.02.058.098.02.305-.096.015-.064.021-.128.026-.187z" transform="translate(8.692 3)"/>
        <path fill="url(#ab)" d="M11.422 9.698s1.568 4.6-3.442 8.912c-.294.255 2.032.143 2.234.048.598-.283 1.311-2.157 1.223-1.933-.077.224 2.332-3.317-.016-7.027h.001z" transform="translate(8.692 3)"/>
        <path fill="url(#ac)" d="M13.61 12.61s-.945 5.968-7.478 6.447c-2.56.186-6.23-.431-5.904.575.104.314.584 1.613 1.678 1.916 2.972.82 10.873.554 11.704-8.938z" transform="translate(8.692 3)"/>
        <g>
            <path fill="url(#ad)" d="M13.935 4.123s-4 .943-6.586-1.33c-2.368-2.082-1.192-.33-.872.532.33.884-1.527.207-1.806.069-.284-.138 4.397 2.886 9.264.73v-.001z" transform="translate(2.923 16)"/>
            <path fill="url(#ae)" d="M11.36 6.375s-4.77-.969-6.276-4.301c-1.29-2.848-.95-.756-1.006.191-.063.98-1.4-.356-1.58-.59l-.01-.011c-.026.021 2.456 4.04 8.872 4.711z" transform="translate(2.923 16)"/>
            <path fill="url(#af)" d="M6.147 5.944s-2.276-1.82-3.303-4.317C1.983 1.317.832.61.811.487c.367 1.943 2.287 4.206 5.336 5.457z" transform="translate(2.923 16)"/>
        </g>
    </g>
</svg>
