<svg xmlns="http://www.w3.org/2000/svg" width="40" height="50" viewBox="0 0 40 50">
    <g fill="none" fill-rule="evenodd">
        <g transform="translate(3 5)">
            <path fill="#E95454" d="M8.777 17.285l-8.73 16.45 7.928-.733 3.838 6.978 8.73-16.45z"/>
            <g fill="#E95454">
                <path d="M9.777 35.19c.246-.526-.01-1.155-.523-1.428l-.503-.267a1.076 1.076 0 0 1 1.034-1.884l1.42.754a.896.896 0 0 0 1.215-.378l.035-.067a.847.847 0 0 0-.326-1.195L7.88 28.471c-.517-.275-.771-.901-.53-1.429a1.077 1.077 0 0 1 1.48-.495l3.94 2.092a.906.906 0 0 0 1.222-.375l.022-.058.006-.012a.944.944 0 0 0-.388-1.284l-2.21-1.173c-.518-.275-.772-.9-.527-1.435a1.082 1.082 0 0 1 1.48-.495l2.442 1.297c.456.242 1 .04 1.237-.42l.006-.013.007-.012c.248-.454.11-1.019-.347-1.26L13.088 22c-.512-.271-.765-.897-.524-1.425a1.077 1.077 0 0 1 1.48-.495l6.497 3.449-8.731 16.45-2.406-4.374c.155-.105.29-.235.374-.416z"/>
                <path d="M25.11 17.285l8.731 16.45-7.928-.732-3.838 6.977-8.731-16.45z"/>
            </g>
            <path fill="#E95454" d="M24.11 35.19c-.245-.526.011-1.155.524-1.427l.502-.268a1.076 1.076 0 0 0-1.034-1.884l-1.42.754a.896.896 0 0 1-1.214-.378l-.035-.067a.847.847 0 0 1 .326-1.195l4.248-2.255c.518-.275.772-.901.53-1.429a1.077 1.077 0 0 0-1.48-.495l-3.94 2.091a.906.906 0 0 1-1.22-.375l-.023-.057-.006-.012a.944.944 0 0 1 .388-1.284l2.21-1.173c.518-.275.771-.901.526-1.435a1.082 1.082 0 0 0-1.48-.495l-2.443 1.299c-.456.242-1.002.04-1.238-.42l-.006-.012-.006-.013c-.249-.454-.111-1.019.346-1.26l2.634-1.397c.511-.272.765-.898.524-1.425a1.077 1.077 0 0 0-1.48-.495l-6.498 3.448 8.731 16.45 2.407-4.373a1.04 1.04 0 0 1-.373-.418z"/>
            <circle cx="16.944" cy="14.589" r="14.589" fill="#9B9B9B"/>
            <path fill="#9B9B9B" d="M18.922 12.915H9.678c-.718 0-1.308-.59-1.308-1.309l.01-.09v-.02a1.367 1.367 0 0 1 1.369-1.379h6.407c.849 0 1.599-.628 1.649-1.478A1.567 1.567 0 0 0 16.245 7H9.457C8.71 7 8.15 6.371 8.16 5.621v-.02-.02c-.01-.749.548-1.379 1.298-1.379h7.103c.839 0 1.589-.628 1.639-1.468a1.56 1.56 0 0 0-1.559-1.639h-5.201C6.135 3.281 2.397 8.496 2.397 14.589c0 6.092 3.738 11.306 9.043 13.49h6.604c.838 0 1.588-.629 1.639-1.469a1.56 1.56 0 0 0-1.56-1.637l-7.512-.002c-.886 0-1.6-.741-1.552-1.639.043-.84.799-1.47 1.64-1.47h2.912a1.558 1.558 0 0 0 1.514-1.554 1.56 1.56 0 0 0-1.559-1.56H9.151a1.298 1.298 0 0 1-1.298-1.308v-.11a1.23 1.23 0 0 1 1.228-1.309h9.752c.848 0 1.598-.629 1.648-1.469a1.561 1.561 0 0 0-1.559-1.637z"/>
            <path fill="#CDCDCD" d="M16.944 25.001C11.2 25.001 6.53 20.33 6.53 14.587c0-5.74 4.671-10.412 10.414-10.412 5.742 0 10.414 4.673 10.414 10.414S22.686 25 16.944 25z"/>
            <path fill="#CDCDCD" d="M27.358 14.589c0-5.54-4.353-10.072-9.817-10.384h-.97c-.64 0-1.211.48-1.25 1.12-.03.685.51 1.25 1.189 1.25l5.73.001c.676 0 1.22.565 1.184 1.25-.034.641-.609 1.123-1.252 1.123h-2.22a1.189 1.189 0 0 0-1.156 1.185 1.19 1.19 0 0 0 1.189 1.188h3.367a.99.99 0 0 1 .99.998v.082a.937.937 0 0 1-.937.998h-7.436c-.648 0-1.219.48-1.258 1.12-.03.685.51 1.25 1.189 1.25h7.05c.549 0 .998.45.998.997l-.008.07v.014a1.042 1.042 0 0 1-1.044 1.052H18.01c-.648 0-1.219.48-1.258 1.127-.03.677.51 1.25 1.189 1.25h5.176c.572 0 .998.48.99 1.051v.03c.008.572-.419 1.052-.99 1.052H17.7c-.64 0-1.211.48-1.25 1.12a1.19 1.19 0 0 0 1.189 1.25h1.428c4.73-.986 8.29-5.182 8.29-10.194z" opacity=".2"/>
        </g>
        <text fill="#FFF" font-family="HelveticaNeue-Bold, Helvetica Neue" font-size="14" font-weight="bold" transform="translate(3 5)">
            <tspan x="12.908" y="19.5">2</tspan>
        </text>
    </g>
</svg>
