<svg xmlns="http://www.w3.org/2000/svg" xmlns:xlink="http://www.w3.org/1999/xlink" width="112" height="107" viewBox="0 0 112 107">
    <defs>
        <rect id="a" width="620" height="300" rx="12"/>
    </defs>
    <g fill="none" fill-rule="evenodd" transform="translate(-254 -102)">
        <mask id="b" fill="#fff">
            <use xlink:href="#a"/>
        </mask>
        <path fill="#FFF" d="M322.273 123.65l-12.5-21.65-12.5 21.65L284.774 102 254 155.3l30.774 53.301 12.499-21.65 12.5 21.65 12.5-21.65 12.5 21.65 30.774-53.301-30.774-53.3-12.5 21.65zm5.773 53.301l12.501-21.651-12.501-21.65 6.727-11.651L354 155.3l-19.227 33.301-6.727-11.65zm-25-43.301l6.727-11.651 6.727 11.651-6.727 11.65-6.727-11.65zm-37.499 21.65l19.227-33.301 6.726 11.651L279 155.3l12.5 21.651-6.726 11.65-19.227-33.301zm49.999 0l6.727-11.65L329 155.3l-6.727 11.651-6.727-11.651zm-24.999 0l6.726-11.65 6.726 11.65-6.726 11.651-6.726-11.651zm12.499 21.651l6.727-11.651 6.727 11.651-6.727 11.65-6.727-11.65z" mask="url(#b)"/>
    </g>
</svg>
