<?xml version="1.0" encoding="UTF-8"?>
<svg width="52px" height="52px" viewBox="0 0 52 52" version="1.1" xmlns="http://www.w3.org/2000/svg" xmlns:xlink="http://www.w3.org/1999/xlink">
    <!-- Generator: sketchtool 53.2 (72643) - https://sketchapp.com -->
    <title>CEC4CF9B-ECB4-4C7D-BEA8-FA29E2C967DA</title>
    <desc>Created with sketchtool.</desc>
    <g id="Symbols" stroke="none" stroke-width="1" fill="none" fill-rule="evenodd">
        <g id="m-header-s" transform="translate(0.000000, -39.000000)" stroke="#20293F" stroke-width="2">
            <g id="Group-3" transform="translate(0.000000, 39.000000)">
                <g id="logo" transform="translate(9.750000, 2.400000)">
                    <path d="M17.3846154,18.0777775 L26.7080831,23.4606841 C27.9456874,24.1752153 28.7080831,25.4957233 28.7080831,26.9247857 L28.7080831,37.6905989 C28.7080831,39.1196613 27.9456874,40.4401694 26.7080831,41.1547005 L17.3846154,46.5376072 C16.1470111,47.2521383 14.6222197,47.2521383 13.3846154,46.5376072 L4.06114763,41.1547005 C2.82354333,40.4401694 2.06114763,39.1196613 2.06114763,37.6905989 L2.06114763,26.9247857 C2.06114763,25.4957233 2.82354333,24.1752153 4.06114763,23.4606841 L13.3846154,18.0777775 C14.6222197,17.3632463 16.1470111,17.3632463 17.3846154,18.0777775 Z" id="Polygon-Copy-3" fill="#FE474E"></path>
                    <path d="M18.4060578,5.03264491 L26.4169047,9.98148897 C27.5965443,10.7102325 28.3146355,11.9979126 28.3146355,13.3844971 L28.3146355,21.7883609 C28.3146355,23.2879114 27.4759171,24.6615038 26.1419931,25.3465576 L20.2784371,28.3578621 C19.0502192,28.9886292 17.5835353,28.9413743 16.3984677,28.232854 L8.60144035,23.5712196 C7.10414591,22.6760273 6.35968772,20.9137202 6.76172634,19.2161852 L9.1375551,9.18468037 C9.40800882,8.04273875 10.1662867,7.07716909 11.2115575,6.54370419 L14.4854651,4.87283114 C15.7304854,4.23742199 17.216884,4.29801154 18.4060578,5.03264491 Z" id="Polygon-Copy-4" fill="#FFFFFF"></path>
                    <path d="M2.69230769,24.6153846 L13.9021034,31.2033719 C14.8204761,31.7430988 15.9561821,31.7553556 16.8859893,31.2355749 L28.7284846,24.6153846" id="Path-3-Copy"></path>
                    <path d="M9.35262324,9.12443459 L18.9801897,14.7953664 C19.8560127,15.311253 20.9334908,15.3485658 21.8429029,14.8945014 L28.1101945,11.7652774" id="Path-3-Copy-2" stroke-linecap="round"></path>
                    <path d="M15.3846154,46.9230769 L15.3846154,32.3076923" id="Line-7-Copy" stroke-linecap="square"></path>
                    <path d="M18.1428851,28.1899156 L21.7532242,14.8593932" id="Line-7-Copy-2" stroke-linecap="round"></path>
                    <path d="M17.3586518,1.2194256 L26.904579,6.73076923 C27.9351528,7.3257713 28.5700124,8.42538047 28.5700124,9.61538462 L28.5700124,9.61538462 C28.5700124,10.8139629 27.9606288,11.9303159 26.9524916,12.5785823 L22.9653425,15.1424546 C21.7056225,15.9524972 20.0989254,15.9909559 18.8018912,15.2421129 L9.25596404,9.73076923 C8.22539022,9.13576716 7.59053057,8.03615799 7.59053057,6.84615385 L7.59053057,6.84615385 C7.59053057,5.64757555 8.1999142,4.53122256 9.20805139,3.88295614 L13.1952005,1.31908391 C14.4549204,0.509041249 16.0616176,0.470582595 17.3586518,1.2194256 Z" id="Polygon-Copy-5" fill="#FE474E"></path>
                    <path d="M7.35623368,4.92307692 L18.7910939,11.5632658 C20.1216259,12.3359016 21.7773835,12.2769032 23.0495493,11.4115272 L28.0650195,7.99981175" id="Path-3-Copy-3"></path>
                    <path d="M20.6923077,15.0841547 L20.6923077,12.9230769" id="Line-7-Copy-3" stroke-linecap="square"></path>
                </g>
            </g>
        </g>
    </g>
</svg>