<?xml version="1.0" encoding="UTF-8"?>
<svg width="251px" height="400px" viewBox="0 0 251 400" version="1.1" xmlns="http://www.w3.org/2000/svg" xmlns:xlink="http://www.w3.org/1999/xlink">
    <!-- Generator: sketchtool 54.1 (76490) - https://sketchapp.com -->
    <title>F02B92A2-F8E7-402C-A750-067AAC4ABC44</title>
    <desc>Created with sketchtool.</desc>
    <defs>
        <rect id="path-1" x="0" y="0" width="156.875" height="103.006536" rx="8"></rect>
    </defs>
    <g id="v1-refine" stroke="none" stroke-width="1" fill="none" fill-rule="evenodd">
        <g id="ArcadeX-game-2" transform="translate(-235.000000, -153.000000)">
            <g id="Group-10" transform="translate(235.000000, 153.000000)">
                <g id="Group-27">
                    <g transform="translate(3.137500, 3.921569)">
                        <rect id="Rectangle" fill="#FE474E" x="0" y="0" width="238.989258" height="42.8921569"></rect>
                        <rect id="Rectangle-Copy-45" fill="#FE474E" x="0" y="247.140523" width="238.989258" height="145.01634"></rect>
                        <rect id="Rectangle-Copy-43" fill="#E6E6E6" x="14.11875" y="69.0196078" width="210.2125" height="149.019608"></rect>
                        <polygon id="Rectangle-Copy-43" stroke="#979797" fill="#FFFFFF" transform="translate(177.709961, 233.864379) scale(1, -1) translate(-177.709961, -233.864379) " points="134.814453 228.75817 220.605469 228.75817 214.250579 238.970588 141.169343 238.970588"></polygon>
                        <rect id="Rectangle-Copy-43" fill="#F8AC0E" transform="translate(234.528125, 183.529412) scale(-1, 1) translate(-234.528125, -183.529412) " x="224.33125" y="171.764706" width="20.39375" height="23.5294118"></rect>
                        <g id="Group-3" transform="translate(225.900000, 93.333333)">
                            <rect id="Rectangle-Copy-47" fill="#F8AC0E" transform="translate(8.628125, 8.627451) scale(-1, 1) translate(-8.628125, -8.627451) " x="0" y="0" width="17.25625" height="17.254902" rx="2"></rect>
                            <rect id="Rectangle-Copy-43" fill="#FFE52D" transform="translate(8.628125, 47.843137) scale(-1, -1) translate(-8.628125, -47.843137) " x="5.490625" y="17.254902" width="6.275" height="61.1764706"></rect>
                        </g>
                        <rect id="Rectangle-Copy-43" stroke="#979797" x="40.0902778" y="90.6318083" width="156.875" height="104.575163" rx="8"></rect>
                        <path d="M48.0902778,90.6318083 L92.3819444,90.6318083 L92.3819444,195.206972 L48.0902778,195.206972 C43.6719998,195.206972 40.0902778,191.62525 40.0902778,187.206972 L40.0902778,98.6318083 C40.0902778,94.2135303 43.6719998,90.6318083 48.0902778,90.6318083 Z" id="Rectangle-Copy-43" stroke="#979797" fill="#FFFFFF"></path>
                        <rect id="Rectangle-Copy-75" stroke="#979797" fill="#FFFFFF" x="92.05625" y="90.4803922" width="53.2916667" height="104.79085" rx="8"></rect>
                        <path d="M152.673611,90.6318083 L196.965278,90.6318083 L196.965278,195.206972 L152.673611,195.206972 C148.255333,195.206972 144.673611,191.62525 144.673611,187.206972 L144.673611,98.6318083 C144.673611,94.2135303 148.255333,90.6318083 152.673611,90.6318083 Z" id="Rectangle-Copy-81" stroke="#979797" fill="#FFFFFF" transform="translate(170.819444, 142.919390) scale(-1, 1) translate(-170.819444, -142.919390) "></path>
                        <path d="M40.7875,145.882353 L91.5104167,145.882353 L91.5104167,194.407266 L48.7875,194.407266 C44.369222,194.407266 40.7875,190.825544 40.7875,186.407266 L40.7875,145.882353 Z" id="Rectangle-Copy-43" fill="#D8D8D8"></path>
                        <path d="M145.457986,145.882353 L196.180903,145.882353 L196.180903,186.407266 C196.180903,190.825544 192.599181,194.407266 188.180903,194.407266 L145.457986,194.407266 L145.457986,145.882353 Z" id="Rectangle-Copy-48" fill="#D8D8D8"></path>
                        <rect id="Rectangle-Copy-75" fill="#D8D8D8" x="93.1663194" y="145.897744" width="50.7229167" height="48.5249135" rx="8"></rect>
                        <g id="Group-6" transform="translate(40.003125, 91.764706)">
                            <mask id="mask-2" fill="white">
                                <use xlink:href="#path-1"></use>
                            </mask>
                            <g id="Mask"></g>
                            <g mask="url(#mask-2)">
                                <g transform="translate(5.353125, -21.960784)">
                                    <g id="Group-5" transform="translate(1.706250, 105.882353)">
                                        <path d="M34.0006953,32.3318627 C29.4503398,36.6397059 24.2788574,34.0553922 23.0248379,33.320098 C23.4263398,32.4857843 23.734207,31.5338235 23.9082402,30.4387255 C23.9528516,30.1602941 24.9088086,23.977451 22.5757832,20.3294118 C25.1078437,18.1490196 27.5315625,17.2539216 29.7881113,17.6730392 C33.6163516,18.3852941 35.838584,22.6715686 35.886627,22.7612745 C35.916041,22.8107843 38.764793,27.8205882 34.0006953,32.3318627 Z M12.0411367,37.2784314 C11.5960039,37.2784314 11.3249043,37.2568627 11.3062754,37.254902 C11.2827441,37.2534314 11.2533301,37.2529412 11.2293086,37.2529412 C11.1479297,37.2529412 3.04239453,37.1627451 2.00113672,29.4328431 C1.02311914,22.170098 3.19093555,20.3784314 5.44013086,19.5833333 C5.85437891,19.4367647 6.34706445,19.3627451 6.90446094,19.3627451 C9.31347266,19.3627451 12.0612363,20.7284314 12.087709,20.7426471 C12.3259629,20.8622549 12.6058867,20.8661765 12.847082,20.7519608 C14.708502,19.8740196 16.3248047,19.4284314 17.647457,19.4284314 C18.9681484,19.4284314 19.9814629,19.8627451 20.7437773,20.7573529 C23.202793,23.6367647 22.2076172,30.1 22.1978125,30.1661765 C21.1791055,36.5848039 14.7560547,37.2784314 12.0411367,37.2784314 L12.0411367,37.2784314 Z" id="Fill-124" fill="#E32A75"></path>
                                        <path d="M27.036916,4.03088235 C22.2056562,5.13921569 19.6427109,3.4122549 18.5926289,2.36813725 C24.1391406,1.21911765 26.2682285,2.93921569 27.036916,4.03088235" id="Fill-125" fill="#FFFFFE"></path>
                                        <path d="M6.90446094,19.3627451 C6.34706445,19.3627451 5.85437891,19.4367647 5.44013086,19.5833333 C3.19093555,20.3784314 1.02311914,22.170098 2.00113672,29.4328431 C3.04239453,37.1627451 11.1479297,37.2529412 11.2293086,37.2529412 C11.2533301,37.2529412 11.2827441,37.2534314 11.3062754,37.254902 C11.3249043,37.2568627 11.5960039,37.2784314 12.0411367,37.2784314 C14.7560547,37.2784314 21.1791055,36.5848039 22.1978125,30.1661765 C22.2076172,30.1 23.202793,23.6367647 20.7437773,20.7573529 C19.9814629,19.8627451 18.9681484,19.4284314 17.647457,19.4284314 C16.3248047,19.4284314 14.708502,19.8740196 12.847082,20.7519608 C12.6058867,20.8661765 12.3259629,20.8622549 12.087709,20.7426471 C12.0612363,20.7284314 9.31347266,19.3627451 6.90446094,19.3627451 Z M12.0411367,39.0112745 L12.0411367,39.0112745 C11.5999258,39.0112745 11.3028437,38.9916667 11.1994043,38.9852941 C8.4727207,38.9696078 1.30941602,37.277451 0.284335937,29.6637255 C-0.613773438,22.9980392 0.798591797,19.3857843 4.86263477,17.95 C5.46366211,17.7377451 6.15048047,17.629902 6.90446094,17.629902 C9.17620703,17.629902 11.5636484,18.5985294 12.4818574,19.0127451 C16.8204316,17.0607843 20.0775488,17.3053922 22.062998,19.6348039 C25.0401914,23.125 23.9562832,30.1416667 23.9082402,30.4387255 C22.6468672,38.3921569 14.5070156,39.0112745 12.0411367,39.0112745 L12.0411367,39.0112745 Z" id="Fill-126" fill="#8B234D"></path>
                                        <path d="M28.2213223,36.4686275 C24.6283945,36.4686275 21.820332,34.6142157 21.7757207,34.5843137 C21.3786309,34.3151961 21.2742109,33.777451 21.5428594,33.3803922 C21.8110176,32.9857843 22.3488047,32.8794118 22.7458945,33.1480392 C23.0066992,33.3230392 28.8968652,37.1647059 34.0006953,32.3318627 C38.764793,27.8205882 35.916041,22.8107843 35.886627,22.7612745 C35.838584,22.6715686 33.6163516,18.3852941 29.7881113,17.6730392 C27.4418496,17.2367647 24.9146914,18.2186275 22.2733086,20.5911765 C21.9169082,20.9102941 21.3698066,20.8813725 21.0501738,20.5254902 C20.7300508,20.1696078 20.7599551,19.6215686 21.1158652,19.3019608 C24.183752,16.5470588 27.210459,15.4235294 30.1160781,15.9720588 C34.7894824,16.8490196 37.3024238,21.725 37.407334,21.9323529 C37.4176289,21.9470588 40.944375,28.1431373 35.1919648,33.5901961 C32.8756074,35.7838235 30.4033555,36.4686275 28.2213223,36.4686275" id="Fill-127" fill="#8B234D"></path>
                                        <path d="M12.0828066,20.2220588 C11.6670879,20.2220588 11.3008828,19.9235294 11.2288184,19.5004902 C11.129791,18.9127451 8.89530273,5.06421569 16.432166,1.33970588 C16.6895391,1.2122549 16.9949551,1.22156863 17.2464453,1.36519608 C17.4959746,1.50833333 17.6587324,1.76617647 17.6798125,2.05343137 C17.6886367,2.18137255 18.6774395,14.7509804 25.296584,16.7872549 C25.7544629,16.9279412 26.0108555,17.4122549 25.8706484,17.870098 C25.7294609,18.3269608 25.2455996,18.5818627 24.7877207,18.4431373 C18.4347734,16.4892157 16.5865898,7.19215686 16.1056699,3.59068627 C11.067041,7.61813725 12.9176758,19.0897059 12.9382656,19.2127451 C13.0171934,19.6848039 12.6980508,20.1308824 12.2264453,20.2102941 C12.1788926,20.2186275 12.1293789,20.2220588 12.0828066,20.2220588" id="Fill-128" fill="#8B234D"></path>
                                        <path d="M24.0602129,6.12598039 C18.747543,6.12598039 16.6395352,2.75098039 16.5326641,2.57303922 C16.323334,2.225 16.3865742,1.7877451 16.6620859,1.5127451 C16.739543,1.21421569 16.973875,0.966176471 17.2944883,0.887254902 C27.4996973,-1.62794118 29.0566816,4.14558824 29.1164902,4.39264706 C29.2287539,4.84411765 28.965498,5.30245098 28.5193848,5.43284314 C26.831998,5.92598039 25.3505098,6.12598039 24.0602129,6.12598039 L24.0602129,6.12598039 Z" id="Fill-129" fill="#8B234D"></path>
                                        <path d="M18.5926289,2.36813725 C19.6427109,3.4122549 22.2056563,5.13921569 27.036916,4.03088235 C26.2682285,2.93921569 24.1391406,1.21911765 18.5926289,2.36813725 Z" id="Path" fill="#61AD0E"></path>
                                        <path d="M5.80633594,30.5431373 C5.44307227,30.5431373 5.10383008,30.3132353 4.98323242,29.9490196 C3.27182422,24.7632353 5.78329492,21.9377451 5.89114648,21.8196078 C6.21470117,21.4661765 6.7627832,21.4426471 7.11526172,21.7651961 C7.46626953,22.0872549 7.49176172,22.6318627 7.17310937,22.9848039 C7.08045508,23.0901961 5.2567832,25.2495098 6.62943945,29.404902 C6.77945117,29.8602941 6.53237305,30.3504902 6.07743555,30.5004902 C5.98870312,30.529902 5.89604883,30.5431373 5.80633594,30.5431373" id="Fill-130" fill="#8B234D"></path>
                                    </g>
                                    <g id="Group-5-Copy" transform="translate(53.000000, 54.000000)">
                                        <path d="M34.0006953,32.3318627 C29.4503398,36.6397059 24.2788574,34.0553922 23.0248379,33.320098 C23.4263398,32.4857843 23.734207,31.5338235 23.9082402,30.4387255 C23.9528516,30.1602941 24.9088086,23.977451 22.5757832,20.3294118 C25.1078437,18.1490196 27.5315625,17.2539216 29.7881113,17.6730392 C33.6163516,18.3852941 35.838584,22.6715686 35.886627,22.7612745 C35.916041,22.8107843 38.764793,27.8205882 34.0006953,32.3318627 Z M12.0411367,37.2784314 C11.5960039,37.2784314 11.3249043,37.2568627 11.3062754,37.254902 C11.2827441,37.2534314 11.2533301,37.2529412 11.2293086,37.2529412 C11.1479297,37.2529412 3.04239453,37.1627451 2.00113672,29.4328431 C1.02311914,22.170098 3.19093555,20.3784314 5.44013086,19.5833333 C5.85437891,19.4367647 6.34706445,19.3627451 6.90446094,19.3627451 C9.31347266,19.3627451 12.0612363,20.7284314 12.087709,20.7426471 C12.3259629,20.8622549 12.6058867,20.8661765 12.847082,20.7519608 C14.708502,19.8740196 16.3248047,19.4284314 17.647457,19.4284314 C18.9681484,19.4284314 19.9814629,19.8627451 20.7437773,20.7573529 C23.202793,23.6367647 22.2076172,30.1 22.1978125,30.1661765 C21.1791055,36.5848039 14.7560547,37.2784314 12.0411367,37.2784314 L12.0411367,37.2784314 Z" id="Fill-124" fill="#E32A75"></path>
                                        <path d="M27.036916,4.03088235 C22.2056562,5.13921569 19.6427109,3.4122549 18.5926289,2.36813725 C24.1391406,1.21911765 26.2682285,2.93921569 27.036916,4.03088235" id="Fill-125" fill="#FFFFFE"></path>
                                        <path d="M6.90446094,19.3627451 C6.34706445,19.3627451 5.85437891,19.4367647 5.44013086,19.5833333 C3.19093555,20.3784314 1.02311914,22.170098 2.00113672,29.4328431 C3.04239453,37.1627451 11.1479297,37.2529412 11.2293086,37.2529412 C11.2533301,37.2529412 11.2827441,37.2534314 11.3062754,37.254902 C11.3249043,37.2568627 11.5960039,37.2784314 12.0411367,37.2784314 C14.7560547,37.2784314 21.1791055,36.5848039 22.1978125,30.1661765 C22.2076172,30.1 23.202793,23.6367647 20.7437773,20.7573529 C19.9814629,19.8627451 18.9681484,19.4284314 17.647457,19.4284314 C16.3248047,19.4284314 14.708502,19.8740196 12.847082,20.7519608 C12.6058867,20.8661765 12.3259629,20.8622549 12.087709,20.7426471 C12.0612363,20.7284314 9.31347266,19.3627451 6.90446094,19.3627451 Z M12.0411367,39.0112745 L12.0411367,39.0112745 C11.5999258,39.0112745 11.3028437,38.9916667 11.1994043,38.9852941 C8.4727207,38.9696078 1.30941602,37.277451 0.284335937,29.6637255 C-0.613773438,22.9980392 0.798591797,19.3857843 4.86263477,17.95 C5.46366211,17.7377451 6.15048047,17.629902 6.90446094,17.629902 C9.17620703,17.629902 11.5636484,18.5985294 12.4818574,19.0127451 C16.8204316,17.0607843 20.0775488,17.3053922 22.062998,19.6348039 C25.0401914,23.125 23.9562832,30.1416667 23.9082402,30.4387255 C22.6468672,38.3921569 14.5070156,39.0112745 12.0411367,39.0112745 L12.0411367,39.0112745 Z" id="Fill-126" fill="#8B234D"></path>
                                        <path d="M28.2213223,36.4686275 C24.6283945,36.4686275 21.820332,34.6142157 21.7757207,34.5843137 C21.3786309,34.3151961 21.2742109,33.777451 21.5428594,33.3803922 C21.8110176,32.9857843 22.3488047,32.8794118 22.7458945,33.1480392 C23.0066992,33.3230392 28.8968652,37.1647059 34.0006953,32.3318627 C38.764793,27.8205882 35.916041,22.8107843 35.886627,22.7612745 C35.838584,22.6715686 33.6163516,18.3852941 29.7881113,17.6730392 C27.4418496,17.2367647 24.9146914,18.2186275 22.2733086,20.5911765 C21.9169082,20.9102941 21.3698066,20.8813725 21.0501738,20.5254902 C20.7300508,20.1696078 20.7599551,19.6215686 21.1158652,19.3019608 C24.183752,16.5470588 27.210459,15.4235294 30.1160781,15.9720588 C34.7894824,16.8490196 37.3024238,21.725 37.407334,21.9323529 C37.4176289,21.9470588 40.944375,28.1431373 35.1919648,33.5901961 C32.8756074,35.7838235 30.4033555,36.4686275 28.2213223,36.4686275" id="Fill-127" fill="#8B234D"></path>
                                        <path d="M12.0828066,20.2220588 C11.6670879,20.2220588 11.3008828,19.9235294 11.2288184,19.5004902 C11.129791,18.9127451 8.89530273,5.06421569 16.432166,1.33970588 C16.6895391,1.2122549 16.9949551,1.22156863 17.2464453,1.36519608 C17.4959746,1.50833333 17.6587324,1.76617647 17.6798125,2.05343137 C17.6886367,2.18137255 18.6774395,14.7509804 25.296584,16.7872549 C25.7544629,16.9279412 26.0108555,17.4122549 25.8706484,17.870098 C25.7294609,18.3269608 25.2455996,18.5818627 24.7877207,18.4431373 C18.4347734,16.4892157 16.5865898,7.19215686 16.1056699,3.59068627 C11.067041,7.61813725 12.9176758,19.0897059 12.9382656,19.2127451 C13.0171934,19.6848039 12.6980508,20.1308824 12.2264453,20.2102941 C12.1788926,20.2186275 12.1293789,20.2220588 12.0828066,20.2220588" id="Fill-128" fill="#8B234D"></path>
                                        <path d="M24.0602129,6.12598039 C18.747543,6.12598039 16.6395352,2.75098039 16.5326641,2.57303922 C16.323334,2.225 16.3865742,1.7877451 16.6620859,1.5127451 C16.739543,1.21421569 16.973875,0.966176471 17.2944883,0.887254902 C27.4996973,-1.62794118 29.0566816,4.14558824 29.1164902,4.39264706 C29.2287539,4.84411765 28.965498,5.30245098 28.5193848,5.43284314 C26.831998,5.92598039 25.3505098,6.12598039 24.0602129,6.12598039 L24.0602129,6.12598039 Z" id="Fill-129" fill="#8B234D"></path>
                                        <path d="M18.5926289,2.36813725 C19.6427109,3.4122549 22.2056563,5.13921569 27.036916,4.03088235 C26.2682285,2.93921569 24.1391406,1.21911765 18.5926289,2.36813725 Z" id="Path" fill="#61AD0E"></path>
                                        <path d="M5.80633594,30.5431373 C5.44307227,30.5431373 5.10383008,30.3132353 4.98323242,29.9490196 C3.27182422,24.7632353 5.78329492,21.9377451 5.89114648,21.8196078 C6.21470117,21.4661765 6.7627832,21.4426471 7.11526172,21.7651961 C7.46626953,22.0872549 7.49176172,22.6318627 7.17310937,22.9848039 C7.08045508,23.0901961 5.2567832,25.2495098 6.62943945,29.404902 C6.77945117,29.8602941 6.53237305,30.3504902 6.07743555,30.5004902 C5.98870312,30.529902 5.89604883,30.5431373 5.80633594,30.5431373" id="Fill-130" fill="#8B234D"></path>
                                    </g>
                                    <g id="Group-4" transform="translate(53.000000, 106.000000)">
                                        <path d="M26.5279066,31.4606527 C21.7690524,30.7880756 18.4240138,26.4542652 18.9155508,21.7156151 C18.9340912,21.6393035 18.9392653,21.5612673 18.9362471,21.4819377 C18.9401277,21.4500335 18.9401277,21.4172669 18.9448706,21.3849314 C19.63216,16.5169397 24.1525757,13.1161143 29.0209478,13.80335 C33.8901822,14.4901547 37.2908421,19.0102172 36.604415,23.8777778 C35.9162632,28.7466319 31.3962787,32.1474573 26.5279066,31.4606527 Z" id="Path" fill="#3A3FCF"></path>
                                        <path d="M1.87430817,28.7798296 C3.16653306,24.399025 5.05636345,22.0303467 5.95923929,21.0878766 C7.46791293,22.4412223 9.37843961,23.3767942 11.5308542,23.679885 C12.9731273,23.8838138 14.4335095,23.7786158 15.8210236,23.3970577 C14.921166,24.4947379 12.8183362,26.5090199 9.31505721,26.7754638 C8.85370231,26.8108173 8.5083329,27.2126389 8.54325789,27.6739578 C8.57430234,28.0727615 8.88043503,28.384475 9.26116061,28.4383674 C9.31980011,28.4469902 9.3801643,28.4500082 9.44225319,28.4444034 C13.8156389,28.111564 16.325927,25.5010166 17.3064139,24.222258 C17.5452837,25.7877241 18.1381463,27.2553217 19.0017854,28.5366672 C10.8151074,34.6963517 3.64254783,30.1129118 1.87430817,28.7798296 Z" id="Path" fill="#698F4A"></path>
                                        <path d="M4.18280735,11.9472961 C4.86966562,7.07930433 9.39008128,3.67804782 14.2580222,4.36571472 C18.8944233,5.02061504 22.2450672,9.17636501 21.9048718,13.8361166 C19.5239356,15.4257265 17.7919145,17.9595311 17.3176244,20.9925948 C15.6334634,21.9234242 13.6798195,22.2929104 11.7654122,22.0230173 C6.89660896,21.3353504 3.49508673,16.8157191 4.18280735,11.9472961 Z" id="Path" fill="#3A3FCF"></path>
                                        <path d="M28.3866926,1.98410223 C33.2542023,2.67090684 36.6557246,7.19053823 35.968004,12.05853 C35.8235611,13.0824854 35.5131166,14.0499616 35.0427071,14.9462998 C33.5012644,13.4843071 31.5148513,12.4642319 29.2555058,12.145189 C27.2621939,11.8640863 25.3245033,12.1706262 23.599381,12.9147723 C23.5230634,9.95413998 22.2010876,7.2431372 20.098689,5.34224482 C22.0462965,2.84551819 25.2210219,1.53657982 28.3866926,1.98410223 L28.3866926,1.98410223 Z" id="Path" fill="#3A3FCF"></path>
                                        <path d="M26.5279066,31.4606527 C21.7690524,30.7880756 18.4240138,26.4542652 18.9155508,21.7156151 C18.9340912,21.6393035 18.9392653,21.5612673 18.9362471,21.4819377 C18.9401277,21.4500335 18.9401277,21.4172669 18.9448706,21.3849314 C19.63216,16.5169397 24.1525757,13.1161143 29.0209478,13.80335 C33.8901822,14.4901547 37.2908421,19.0102172 36.604415,23.8777778 C35.9162632,28.7466319 31.3962787,32.1474573 26.5279066,31.4606527 Z M1.87430817,28.7798296 C3.16653306,24.399025 5.05636345,22.0303467 5.95923929,21.0878766 C7.46791293,22.4412223 9.37843961,23.3767942 11.5308542,23.679885 C12.9731273,23.8838138 14.4335095,23.7786158 15.8210236,23.3970577 C14.921166,24.4947379 12.8183362,26.5090199 9.31505721,26.7754638 C8.85370231,26.8108173 8.5083329,27.2126389 8.54325789,27.6739578 C8.57430234,28.0727615 8.88043503,28.384475 9.26116061,28.4383674 C9.31980011,28.4469902 9.3801643,28.4500082 9.44225319,28.4444034 C13.8156389,28.111564 16.325927,25.5010166 17.3064139,24.222258 C17.5452837,25.7877241 18.1381463,27.2553217 19.0017854,28.5366672 C10.8151074,34.6963517 3.64254783,30.1129118 1.87430817,28.7798296 Z M4.18280735,11.9472961 C4.86966562,7.07930433 9.39008128,3.67804782 14.2580222,4.36571472 C18.8944233,5.02061504 22.2450672,9.17636501 21.9048718,13.8361166 C19.5239356,15.4257265 17.7919145,17.9595311 17.3176244,20.9925948 C15.6334634,21.9234242 13.6798195,22.2929104 11.7654122,22.0230173 C6.89660896,21.3353504 3.49508673,16.8157191 4.18280735,11.9472961 Z M28.3866926,1.98410223 C33.2542023,2.67090684 36.6557246,7.19053823 35.968004,12.05853 C35.8235611,13.0824854 35.5131166,14.0499616 35.0427071,14.9462998 C33.5012644,13.4843071 31.5148513,12.4642319 29.2555058,12.145189 C27.2621939,11.8640863 25.3245033,12.1706262 23.599381,12.9147723 C23.5230634,9.95413998 22.2010876,7.2431372 20.098689,5.34224482 C22.0462965,2.84551819 25.2210219,1.53657982 28.3866926,1.98410223 Z M36.2271388,16.257825 C36.9549585,15.0450307 37.4262304,13.7149665 37.6267257,12.2926386 C38.4429358,6.51063184 34.4019843,1.14165639 28.6199571,0.325941174 C24.8575432,-0.20565336 21.0830565,1.35162114 18.7706768,4.32216967 C17.5120833,3.50214306 16.0680856,2.93045259 14.492149,2.70712253 C8.70925942,1.89140732 3.34072687,5.931612 2.52408558,11.7131876 C2.09636216,14.7462513 3.01260437,17.6573026 4.80714557,19.865166 C3.71886542,20.9762116 1.51600357,23.7238612 0.109949064,28.8643329 C0.0250080225,29.1734596 0.124177767,29.5045745 0.365203363,29.7154015 C0.419099963,29.7619645 3.62098919,32.5022848 8.35440421,33.1709815 C11.6796089,33.640492 15.7623841,33.0808735 20.0396183,29.8529349 C21.6353888,31.5658506 23.8011698,32.766573 26.2933486,33.1175203 C32.0762382,33.9345289 37.4456331,29.8943242 38.2614121,24.1118864 C38.6710262,21.2172183 37.8617149,18.4260237 36.2271388,16.257825 L36.2271388,16.257825 Z" id="Fill-76" fill="#22224B"></path>
                                        <path d="M9.86738957,16.1457289 C10.1291115,16.1823757 10.399888,16.093561 10.5908975,15.8930813 L13.5772004,12.7582688 C13.8384911,12.4836332 13.8829019,12.0684462 13.6854247,11.7459542 L11.6683984,8.43437459 C11.4942046,8.14766707 11.1669444,7.99504382 10.8362349,8.03988229 L7.17040369,8.56112949 C6.8358136,8.60941707 6.56245004,8.85430409 6.477509,9.18196982 L5.49055446,13.019108 C5.39655879,13.3855762 5.55997328,13.7697212 5.88895813,13.9555421 L9.57117385,16.0448423 C9.66516952,16.0978724 9.76520161,16.1310701 9.86738957,16.1457289 L9.86738957,16.1457289 Z" id="Path" fill="#22224B"></path>
                                        <polygon id="Path" fill="#9D9BFF" points="7.96031227 10.1408232 10.5257904 9.77651066 11.921928 12.0675839 9.82901519 14.2655312 7.27259165 12.8156103"></polygon>
                                        <path d="M34.3726646,26.3214744 L34.0479915,22.458899 C34.0208276,22.1247662 33.7966177,21.8402144 33.4792745,21.7345853 L29.9682344,20.562318 C29.647873,20.4553955 29.2925866,20.5519707 29.0705326,20.8076362 L26.4727165,23.8014662 C26.2247922,24.0873114 26.1989218,24.5037918 26.4101965,24.8176611 L28.7725922,28.3305827 C28.9079805,28.5327869 29.1209799,28.6599729 29.3503638,28.6918772 C29.4814403,28.7104162 29.6194156,28.6983443 29.7504922,28.6504879 L33.8233504,27.1785789 C34.1799303,27.0505306 34.4054337,26.6995834 34.3726646,26.3214744 L34.3726646,26.3214744 Z" id="Path" fill="#22224B"></path>
                                        <polygon id="Path" fill="#9D9BFF" points="29.7957653 26.8539312 28.158171 24.4154083 29.9690968 22.3278327 32.4259194 23.1482904 32.6514228 25.8230775"></polygon>
                                        <path d="M26.7685011,8.90905876 C26.9034581,9.11212528 27.117751,9.23931132 27.3462726,9.27121562 C27.4782115,9.29018574 27.6161868,9.27725156 27.7472633,9.22896398 L31.0172778,8.04850507 C31.3734266,7.91959448 31.5980676,7.56864723 31.566592,7.19140051 L31.3061636,4.08978568 C31.2789997,3.75608401 31.0547899,3.47196333 30.7365843,3.3659031 L27.9180077,2.42515754 C27.5985087,2.3178039 27.2436535,2.41481021 27.0211683,2.6704757 L24.9355855,5.07364515 C24.6867988,5.35992153 24.6604972,5.77553964 24.8726342,6.08984006 L26.7685011,8.90905876 L26.7685011,8.90905876 Z" id="Path" fill="#22224B"></path>
                                        <polygon id="Path" fill="#9D9BFF" points="27.9184389 4.19110338 29.6845227 4.77960827 29.844919 6.69127913 27.79383 7.43240727 26.6206088 5.68715612"></polygon>
                                    </g>
                                    <g id="Group-4-Copy" transform="translate(106.000000, 57.000000)">
                                        <path d="M26.5279066,31.4606527 C21.7690524,30.7880756 18.4240138,26.4542652 18.9155508,21.7156151 C18.9340912,21.6393035 18.9392653,21.5612673 18.9362471,21.4819377 C18.9401277,21.4500335 18.9401277,21.4172669 18.9448706,21.3849314 C19.63216,16.5169397 24.1525757,13.1161143 29.0209478,13.80335 C33.8901822,14.4901547 37.2908421,19.0102172 36.604415,23.8777778 C35.9162632,28.7466319 31.3962787,32.1474573 26.5279066,31.4606527 Z" id="Path" fill="#3A3FCF"></path>
                                        <path d="M1.87430817,28.7798296 C3.16653306,24.399025 5.05636345,22.0303467 5.95923929,21.0878766 C7.46791293,22.4412223 9.37843961,23.3767942 11.5308542,23.679885 C12.9731273,23.8838138 14.4335095,23.7786158 15.8210236,23.3970577 C14.921166,24.4947379 12.8183362,26.5090199 9.31505721,26.7754638 C8.85370231,26.8108173 8.5083329,27.2126389 8.54325789,27.6739578 C8.57430234,28.0727615 8.88043503,28.384475 9.26116061,28.4383674 C9.31980011,28.4469902 9.3801643,28.4500082 9.44225319,28.4444034 C13.8156389,28.111564 16.325927,25.5010166 17.3064139,24.222258 C17.5452837,25.7877241 18.1381463,27.2553217 19.0017854,28.5366672 C10.8151074,34.6963517 3.64254783,30.1129118 1.87430817,28.7798296 Z" id="Path" fill="#698F4A"></path>
                                        <path d="M4.18280735,11.9472961 C4.86966562,7.07930433 9.39008128,3.67804782 14.2580222,4.36571472 C18.8944233,5.02061504 22.2450672,9.17636501 21.9048718,13.8361166 C19.5239356,15.4257265 17.7919145,17.9595311 17.3176244,20.9925948 C15.6334634,21.9234242 13.6798195,22.2929104 11.7654122,22.0230173 C6.89660896,21.3353504 3.49508673,16.8157191 4.18280735,11.9472961 Z" id="Path" fill="#3A3FCF"></path>
                                        <path d="M28.3866926,1.98410223 C33.2542023,2.67090684 36.6557246,7.19053823 35.968004,12.05853 C35.8235611,13.0824854 35.5131166,14.0499616 35.0427071,14.9462998 C33.5012644,13.4843071 31.5148513,12.4642319 29.2555058,12.145189 C27.2621939,11.8640863 25.3245033,12.1706262 23.599381,12.9147723 C23.5230634,9.95413998 22.2010876,7.2431372 20.098689,5.34224482 C22.0462965,2.84551819 25.2210219,1.53657982 28.3866926,1.98410223 L28.3866926,1.98410223 Z" id="Path" fill="#3A3FCF"></path>
                                        <path d="M26.5279066,31.4606527 C21.7690524,30.7880756 18.4240138,26.4542652 18.9155508,21.7156151 C18.9340912,21.6393035 18.9392653,21.5612673 18.9362471,21.4819377 C18.9401277,21.4500335 18.9401277,21.4172669 18.9448706,21.3849314 C19.63216,16.5169397 24.1525757,13.1161143 29.0209478,13.80335 C33.8901822,14.4901547 37.2908421,19.0102172 36.604415,23.8777778 C35.9162632,28.7466319 31.3962787,32.1474573 26.5279066,31.4606527 Z M1.87430817,28.7798296 C3.16653306,24.399025 5.05636345,22.0303467 5.95923929,21.0878766 C7.46791293,22.4412223 9.37843961,23.3767942 11.5308542,23.679885 C12.9731273,23.8838138 14.4335095,23.7786158 15.8210236,23.3970577 C14.921166,24.4947379 12.8183362,26.5090199 9.31505721,26.7754638 C8.85370231,26.8108173 8.5083329,27.2126389 8.54325789,27.6739578 C8.57430234,28.0727615 8.88043503,28.384475 9.26116061,28.4383674 C9.31980011,28.4469902 9.3801643,28.4500082 9.44225319,28.4444034 C13.8156389,28.111564 16.325927,25.5010166 17.3064139,24.222258 C17.5452837,25.7877241 18.1381463,27.2553217 19.0017854,28.5366672 C10.8151074,34.6963517 3.64254783,30.1129118 1.87430817,28.7798296 Z M4.18280735,11.9472961 C4.86966562,7.07930433 9.39008128,3.67804782 14.2580222,4.36571472 C18.8944233,5.02061504 22.2450672,9.17636501 21.9048718,13.8361166 C19.5239356,15.4257265 17.7919145,17.9595311 17.3176244,20.9925948 C15.6334634,21.9234242 13.6798195,22.2929104 11.7654122,22.0230173 C6.89660896,21.3353504 3.49508673,16.8157191 4.18280735,11.9472961 Z M28.3866926,1.98410223 C33.2542023,2.67090684 36.6557246,7.19053823 35.968004,12.05853 C35.8235611,13.0824854 35.5131166,14.0499616 35.0427071,14.9462998 C33.5012644,13.4843071 31.5148513,12.4642319 29.2555058,12.145189 C27.2621939,11.8640863 25.3245033,12.1706262 23.599381,12.9147723 C23.5230634,9.95413998 22.2010876,7.2431372 20.098689,5.34224482 C22.0462965,2.84551819 25.2210219,1.53657982 28.3866926,1.98410223 Z M36.2271388,16.257825 C36.9549585,15.0450307 37.4262304,13.7149665 37.6267257,12.2926386 C38.4429358,6.51063184 34.4019843,1.14165639 28.6199571,0.325941174 C24.8575432,-0.20565336 21.0830565,1.35162114 18.7706768,4.32216967 C17.5120833,3.50214306 16.0680856,2.93045259 14.492149,2.70712253 C8.70925942,1.89140732 3.34072687,5.931612 2.52408558,11.7131876 C2.09636216,14.7462513 3.01260437,17.6573026 4.80714557,19.865166 C3.71886542,20.9762116 1.51600357,23.7238612 0.109949064,28.8643329 C0.0250080225,29.1734596 0.124177767,29.5045745 0.365203363,29.7154015 C0.419099963,29.7619645 3.62098919,32.5022848 8.35440421,33.1709815 C11.6796089,33.640492 15.7623841,33.0808735 20.0396183,29.8529349 C21.6353888,31.5658506 23.8011698,32.766573 26.2933486,33.1175203 C32.0762382,33.9345289 37.4456331,29.8943242 38.2614121,24.1118864 C38.6710262,21.2172183 37.8617149,18.4260237 36.2271388,16.257825 L36.2271388,16.257825 Z" id="Fill-76" fill="#22224B"></path>
                                        <path d="M9.86738957,16.1457289 C10.1291115,16.1823757 10.399888,16.093561 10.5908975,15.8930813 L13.5772004,12.7582688 C13.8384911,12.4836332 13.8829019,12.0684462 13.6854247,11.7459542 L11.6683984,8.43437459 C11.4942046,8.14766707 11.1669444,7.99504382 10.8362349,8.03988229 L7.17040369,8.56112949 C6.8358136,8.60941707 6.56245004,8.85430409 6.477509,9.18196982 L5.49055446,13.019108 C5.39655879,13.3855762 5.55997328,13.7697212 5.88895813,13.9555421 L9.57117385,16.0448423 C9.66516952,16.0978724 9.76520161,16.1310701 9.86738957,16.1457289 L9.86738957,16.1457289 Z" id="Path" fill="#22224B"></path>
                                        <polygon id="Path" fill="#9D9BFF" points="7.96031227 10.1408232 10.5257904 9.77651066 11.921928 12.0675839 9.82901519 14.2655312 7.27259165 12.8156103"></polygon>
                                        <path d="M34.3726646,26.3214744 L34.0479915,22.458899 C34.0208276,22.1247662 33.7966177,21.8402144 33.4792745,21.7345853 L29.9682344,20.562318 C29.647873,20.4553955 29.2925866,20.5519707 29.0705326,20.8076362 L26.4727165,23.8014662 C26.2247922,24.0873114 26.1989218,24.5037918 26.4101965,24.8176611 L28.7725922,28.3305827 C28.9079805,28.5327869 29.1209799,28.6599729 29.3503638,28.6918772 C29.4814403,28.7104162 29.6194156,28.6983443 29.7504922,28.6504879 L33.8233504,27.1785789 C34.1799303,27.0505306 34.4054337,26.6995834 34.3726646,26.3214744 L34.3726646,26.3214744 Z" id="Path" fill="#22224B"></path>
                                        <polygon id="Path" fill="#9D9BFF" points="29.7957653 26.8539312 28.158171 24.4154083 29.9690968 22.3278327 32.4259194 23.1482904 32.6514228 25.8230775"></polygon>
                                        <path d="M26.7685011,8.90905876 C26.9034581,9.11212528 27.117751,9.23931132 27.3462726,9.27121562 C27.4782115,9.29018574 27.6161868,9.27725156 27.7472633,9.22896398 L31.0172778,8.04850507 C31.3734266,7.91959448 31.5980676,7.56864723 31.566592,7.19140051 L31.3061636,4.08978568 C31.2789997,3.75608401 31.0547899,3.47196333 30.7365843,3.3659031 L27.9180077,2.42515754 C27.5985087,2.3178039 27.2436535,2.41481021 27.0211683,2.6704757 L24.9355855,5.07364515 C24.6867988,5.35992153 24.6604972,5.77553964 24.8726342,6.08984006 L26.7685011,8.90905876 L26.7685011,8.90905876 Z" id="Path" fill="#22224B"></path>
                                        <polygon id="Path" fill="#9D9BFF" points="27.9184389 4.19110338 29.6845227 4.77960827 29.844919 6.69127913 27.79383 7.43240727 26.6206088 5.68715612"></polygon>
                                    </g>
                                    <g id="Group-7" transform="translate(0.000000, 2.000000)">
                                        <path d="M33.108265,34.1110262 C30.0980986,37.0853069 26.1135755,37.3027757 24.5427881,37.2645786 C24.1531473,37.2528648 19.754026,37.2309651 19.5579322,37.2299465 C19.3669318,37.2309651 14.8679809,37.2528648 14.4783401,37.2645786 C12.9100994,37.3037942 8.92252029,37.0847976 5.91184456,34.1110262 C3.34887378,31.5777948 2.08878044,27.63178 2.16925528,22.3524319 C2.08623377,16.8927935 3.44666599,12.8586707 6.21337054,10.3600713 C9.89585836,7.03539598 14.9209517,7.57117392 15.0024452,7.58135982 C15.0116132,7.58237841 15.0207813,7.58034123 15.0299493,7.58135982 C15.0559253,7.58441558 15.081392,7.58747135 15.1068588,7.58747135 C15.1175548,7.58747135 15.1282508,7.58543417 15.1384375,7.58543417 C15.1705256,7.583397 15.201595,7.58034123 15.2331737,7.57575758 C15.2550751,7.57219251 15.2769765,7.56811816 15.2993872,7.5640438 C15.3340219,7.55538579 15.3671287,7.5451999 15.3997261,7.53297683 C15.4104221,7.52992106 15.4216274,7.52890247 15.4328328,7.52380952 C15.4425101,7.52075376 15.4501502,7.51413293 15.4588088,7.51005857 C15.4914063,7.49681691 15.5219663,7.47950089 15.5525264,7.46167558 C15.5739184,7.44843392 15.5948011,7.43570155 15.6141558,7.4214413 C15.6386039,7.40463458 15.6605053,7.38579068 15.682916,7.36541889 C15.7037987,7.34759358 15.7246814,7.32874968 15.7440361,7.30735931 C15.7623722,7.28800611 15.7791802,7.26712503 15.7954789,7.24522536 C15.8133056,7.2223071 15.830623,7.19887955 15.845903,7.17392412 C15.8601644,7.15100586 15.8723884,7.12655971 15.8846124,7.10262287 C15.8978551,7.07613955 15.9100791,7.05067482 15.9207752,7.02317291 C15.9299432,6.99770817 15.9375832,6.97173415 15.9447139,6.94626942 C15.9533726,6.91571174 15.9599939,6.88617265 15.9655966,6.85510568 C15.9671246,6.84288261 15.9722179,6.83218742 15.9732366,6.81945505 C15.9752739,6.80519481 15.9732366,6.79144385 15.9742553,6.7776929 C15.9768019,6.74611663 15.9778206,6.71504966 15.9762926,6.68398268 C15.9752739,6.65495289 15.9727273,6.62897886 15.9696713,6.60096766 C15.9661059,6.57346575 15.9605032,6.54545455 15.9543912,6.51795264 C15.9472606,6.48739496 15.9386019,6.45836516 15.9284152,6.42831678 C15.9238312,6.41558442 15.9217938,6.40183346 15.9161912,6.38808251 L14.4834334,2.83065954 L16.6435207,3.60682455 C16.8742492,3.68983957 17.1284071,3.67252355 17.3458929,3.55691367 L19.6445191,2.34886682 L21.9512946,3.55793226 C22.1672524,3.67252355 22.420901,3.68983957 22.6516295,3.60682455 L24.7006818,2.87089381 L23.1186891,6.35395977 C23.1105398,6.37229437 23.1069744,6.39113827 23.0998438,6.40998217 C23.0891477,6.43850267 23.0779424,6.46702317 23.0703024,6.49758085 C23.0626623,6.52661064 23.059097,6.55462185 23.054513,6.58365164 C23.049929,6.61064426 23.0458543,6.63763687 23.043817,6.66615737 C23.0427983,6.69824293 23.0443263,6.7303285 23.0463636,6.76190476 C23.0473823,6.78125796 23.0448356,6.80010186 23.0473823,6.81945505 C23.0478916,6.82658518 23.0509476,6.83218742 23.051457,6.83880825 C23.0565503,6.86987522 23.0641903,6.89992361 23.0723397,6.93048128 C23.078961,6.95645531 23.0840544,6.98242934 23.0927131,7.00636618 C23.1028998,7.03539598 23.1161425,7.06035141 23.1293851,7.08734403 C23.1410998,7.11128088 23.1502679,7.13674561 23.1635106,7.15864528 C23.1818466,7.18869366 23.203748,7.21517698 23.22514,7.24420677 C23.2368547,7.25897632 23.2470414,7.27629234 23.2607934,7.29106188 C23.2888068,7.32212885 23.3203856,7.35064935 23.352983,7.37815126 C23.3626603,7.38579068 23.371319,7.39546728 23.3809963,7.4025974 C23.4151218,7.42959002 23.4523032,7.45148969 23.4915219,7.47389865 C23.5022179,7.4789916 23.5124046,7.48714031 23.5241193,7.49274255 C23.5348153,7.4978355 23.5429647,7.50445633 23.5536607,7.50903998 C23.5826928,7.52279093 23.6132528,7.53093965 23.6448316,7.54010695 C23.6580743,7.54418131 23.6708076,7.54978355 23.685069,7.55334861 C23.7263251,7.56506239 23.7675812,7.57219251 23.8093466,7.57626687 C23.825136,7.57932264 23.8409253,7.58135982 23.857224,7.583397 C23.8944054,7.58645276 23.9315869,7.58441558 23.9687683,7.58135982 C23.9855763,7.58034123 24.0023843,7.583397 24.0191924,7.58135982 C24.0706351,7.57473899 29.0819765,7.01044054 32.7934963,10.3473389 C35.5688596,12.8449198 36.9343851,16.8831169 36.8513636,22.3778966 C36.9313291,27.63178 35.6717451,31.5788133 33.108265,34.1110262" id="Fill-83" fill="#F7F4CC"></path>
                                        <path d="M24.8580662,39.0140056 C24.7271672,39.0140056 24.6059456,39.0124777 24.493892,39.0099312 C24.1867634,39.0002546 20.8266843,38.98192 19.5579322,38.9758085 C18.2698255,38.98192 14.8333462,39.0002546 14.5267269,39.0099312 C12.7272484,39.0669722 8.17328937,38.7995926 4.68485795,35.3531958 C1.76993709,32.4731347 0.33565138,28.0988032 0.422747565,22.3524319 C0.332086039,16.3829896 1.89166802,11.8981411 5.05972808,9.05016552 C9.35545455,5.18665648 14.9744318,5.81920041 15.2117817,5.84670232 C15.690556,5.90628979 16.0318101,6.34071811 15.9732366,6.81945505 C15.9156818,7.29717341 15.4786729,7.64247517 15.0024452,7.58135982 C14.9209517,7.57117392 9.89585836,7.03539598 6.21337054,10.3600713 C3.44666599,12.8586707 2.08623377,16.8927935 2.16925528,22.3524319 C2.08878044,27.63178 3.34887378,31.5777948 5.91184456,34.1110262 C8.92252029,37.0847976 12.9100994,37.3037942 14.4783401,37.2645786 C14.8679809,37.2528648 19.3669318,37.2309651 19.5579322,37.2299465 C19.754026,37.2309651 24.1531473,37.2528648 24.5427881,37.2645786 C26.1135755,37.3027757 30.0980986,37.0853069 33.108265,34.1110262 C35.6717451,31.5788133 36.9313291,27.63178 36.8513636,22.3778966 C36.9343851,16.8831169 35.5688596,12.8449198 32.7934963,10.3473389 C29.0819765,7.01044054 24.0706351,7.57473899 24.0191924,7.58135982 C23.540418,7.63330787 23.1059558,7.298192 23.0473823,6.81945505 C22.9888088,6.34071811 23.3305722,5.90628979 23.8088373,5.84670232 C24.0456778,5.81767252 29.666183,5.18563789 33.9603815,9.05016552 C37.1284416,11.8981411 38.6885329,16.3829896 38.5978713,22.3778966 C38.6844582,28.0988032 37.2506818,32.4741533 34.3362703,35.3531958 C31.0632873,38.5867074 26.8505824,39.0140056 24.8580662,39.0140056" id="Fill-84" fill="#8B2225"></path>
                                        <path d="M15.1068588,7.58747135 C14.7610207,7.58747135 14.4335187,7.38120703 14.2965077,7.03997963 L12.1359111,1.67557932 C12.0070495,1.35625159 12.0788657,0.991596639 12.3172342,0.74407945 C12.554584,0.496562261 12.9167208,0.411510059 13.2416761,0.528138528 L16.8732305,1.83396995 L19.2375609,0.590781767 C19.4917187,0.456327986 19.7947727,0.456327986 20.0494399,0.590272473 L22.422429,1.83396995 L26.0539834,0.528138528 C26.3845414,0.410491469 26.7538088,0.499618029 26.991668,0.757830405 C27.2300365,1.01604278 27.2906473,1.39088363 27.1449777,1.71021136 L24.7093405,7.07563025 C24.5091721,7.51413293 23.992707,7.70868347 23.5536607,7.50903998 C23.1141051,7.31041508 22.9200487,6.79144385 23.1186891,6.35395977 L24.7006818,2.87089381 L22.6516295,3.60682455 C22.420901,3.68983957 22.1672524,3.67252355 21.9512946,3.55793226 L19.6445191,2.34886682 L17.3458929,3.55691367 C17.1284071,3.67252355 16.8742492,3.68983957 16.6435207,3.60682455 L14.4834334,2.83065954 L15.9161912,6.38808251 C16.0970049,6.83473389 15.8805377,7.34453782 15.4328328,7.52380952 C15.3258726,7.56709957 15.215347,7.58747135 15.1068588,7.58747135" id="Fill-85" fill="#8B2225"></path>
                                        <path d="M15.0014265,35.7784568 C10.9955114,35.7784568 4.19997159,34.0845429 3.68910917,22.7466259 C3.4823194,18.1634836 4.54020698,14.622358 6.83323052,12.2245989 C9.66818588,9.25948561 13.7173945,8.81588999 15.8779911,8.81588999 C17.116183,8.81588999 17.9448701,8.95289025 17.9800142,8.96002037 C18.4002151,9.03030303 18.7083624,9.3934301 18.7083624,9.820219 L18.7083624,34.5902725 C18.7083624,34.9854851 18.4419805,35.3323147 18.060489,35.4341737 C18.0075183,35.4484339 16.7504809,35.7784568 15.0014265,35.7784568 L15.0014265,35.7784568 Z" id="Fill-86" fill="#8B2225"></path>
                                        <path d="M15.8779911,10.5622613 C13.9954911,10.5622613 10.4815929,10.9355742 8.0953612,13.4306086 C6.14461039,15.4708429 5.24920049,18.5785587 5.43256088,22.6687038 C5.85581778,32.0600968 10.8697058,34.0315763 15.0014265,34.0315763 C15.8077029,34.0315763 16.4953044,33.9511077 16.9618547,33.8752228 L16.9618547,10.6024955 C16.6700061,10.5805959 16.301248,10.5622613 15.8779911,10.5622613 Z" id="Path" fill="#E1707A"></path>
                                        <path d="M23.7344744,35.7789661 C23.7344744,35.7789661 23.7344744,35.7789661 23.7339651,35.7789661 C22.0057934,35.7784568 20.7635268,35.4474153 20.712084,35.4341737 C20.3316112,35.3302776 20.0667573,34.9854851 20.0667573,34.5912911 L20.0667573,9.820219 C20.0667573,9.39546728 20.3728673,9.03132162 20.7925588,8.96002037 C20.8266843,8.95390884 21.6467127,8.81588999 22.8691153,8.81588999 C24.9864184,8.81588999 28.9541335,9.25286478 31.7519075,12.1762159 C34.046459,14.5749936 35.1053653,18.131398 34.9001035,22.7466259 C34.3963718,34.0845429 27.6879282,35.7789661 23.7344744,35.7789661 L23.7344744,35.7789661 Z" id="Fill-87" fill="#8B2225"></path>
                                        <path d="M21.8127557,33.87726 C22.2721753,33.9531449 22.9450061,34.0315763 23.7344744,34.0315763 C27.8015097,34.0315763 32.7379789,32.0606061 33.1561425,22.6697224 C33.3384842,18.5485103 32.4420556,15.4250064 30.4902861,13.3837535 C28.1412358,10.9289534 24.7067938,10.5622613 22.8691153,10.5622613 C22.4585917,10.5622613 22.0990016,10.5795773 21.8127557,10.601477 L21.8127557,33.87726 Z" id="Path" fill="#E1707A"></path>
                                        <path d="M14.4060146,18.4313725 C13.9241843,18.4313725 13.5330154,18.0412529 13.5330154,17.5589509 L13.5330154,13.977591 C13.5330154,13.4963076 13.9241843,13.1051693 14.4060146,13.1051693 C14.887845,13.1051693 15.2790138,13.4963076 15.2790138,13.977591 L15.2790138,17.5589509 C15.2790138,18.0412529 14.887845,18.4313725 14.4060146,18.4313725" id="Fill-88" fill="#8B2225"></path>
                                        <path d="M8.82472808,24.1176471 C8.34289773,24.1176471 7.95121956,23.7270181 7.95121956,23.2457347 L7.95121956,19.6643748 C7.95121956,19.1820728 8.34289773,18.7914439 8.82472808,18.7914439 C9.30655844,18.7914439 9.69772727,19.1820728 9.69772727,19.6643748 L9.69772727,23.2457347 C9.69772727,23.7270181 9.30655844,24.1176471 8.82472808,24.1176471" id="Fill-89" fill="#8B2225"></path>
                                        <path d="M14.4060146,30.5413802 C13.9241843,30.5413802 13.5330154,30.1507512 13.5330154,29.6689585 L13.5330154,26.088108 C13.5330154,25.605806 13.9241843,25.2156863 14.4060146,25.2156863 C14.887845,25.2156863 15.2790138,25.605806 15.2790138,26.088108 L15.2790138,29.6689585 C15.2790138,30.1507512 14.887845,30.5413802 14.4060146,30.5413802" id="Fill-90" fill="#8B2225"></path>
                                        <path d="M24.607983,30.5413802 C24.1261526,30.5413802 23.7354931,30.1507512 23.7354931,29.6689585 L23.7354931,26.088108 C23.7354931,25.605806 24.1261526,25.2156863 24.607983,25.2156863 C25.0898133,25.2156863 25.4809821,25.605806 25.4809821,26.088108 L25.4809821,29.6689585 C25.4809821,30.1507512 25.0898133,30.5413802 24.607983,30.5413802" id="Fill-91" fill="#8B2225"></path>
                                        <path d="M30.1897788,24.8551057 C29.7079485,24.8551057 29.3167796,24.4644767 29.3167796,23.9821747 L29.3167796,20.4018335 C29.3167796,19.9195314 29.7079485,19.5294118 30.1897788,19.5294118 C30.6716092,19.5294118 31.0632873,19.9195314 31.0632873,20.4018335 L31.0632873,23.9821747 C31.0632873,24.4644767 30.6716092,24.8551057 30.1897788,24.8551057" id="Fill-92" fill="#8B2225"></path>
                                        <path d="M24.607983,18.4313725 C24.1261526,18.4313725 23.7354931,18.0412529 23.7354931,17.5589509 L23.7354931,13.977591 C23.7354931,13.4963076 24.1261526,13.1051693 24.607983,13.1051693 C25.0898133,13.1051693 25.4809821,13.4963076 25.4809821,13.977591 L25.4809821,17.5589509 C25.4809821,18.0412529 25.0898133,18.4313725 24.607983,18.4313725" id="Fill-93" fill="#8B2225"></path>
                                    </g>
                                    <g id="Group-23" transform="translate(2.000000, 57.000000)">
                                        <g id="Group-10" transform="translate(2.000000, 2.000000)">
                                            <path d="M26.8174927,8.44272462 C26.6567718,8.51820832 26.5308243,8.65178903 26.4629738,8.8167506 L25.1042672,12.1520276 L20.7902465,8.94057779 C20.5196926,8.7387225 20.1422741,8.7561092 19.8920753,8.98298436 L15.9919428,12.5073946 L12.0922343,8.98298436 C11.9569573,8.86170156 11.787331,8.80021203 11.6164325,8.80021203 C11.4680095,8.80021203 11.3195865,8.8464352 11.1932149,8.94057779 L6.87919428,12.1520276 L5.52091174,8.8167506 C5.45263716,8.65178903 5.32668964,8.51820832 5.16639279,8.44272462 L2.07240922,6.98436258 C4.07272727,4.7232441 6.88216274,3.5786907 10.4362576,3.5786907 C13.1367082,3.5786907 15.3520276,4.26779751 15.7693082,4.40561887 C15.8460641,4.43148688 15.9262126,4.44208852 16.0059369,4.44081633 C16.051736,4.44972171 16.0988073,4.45438643 16.1463027,4.45438643 C16.3188974,4.45438643 16.4753777,4.3903525 16.5983567,4.28730453 C17.4303737,4.04601113 19.322555,3.5786907 21.5476279,3.5786907 C25.1008746,3.5786907 27.9103101,4.7232441 29.9119003,6.98436258 L26.8174927,8.44272462 Z" id="Path" fill="#698F4A"></path>
                                            <path d="M27.8632388,17.6487676 C26.3684071,25.8527432 18.0690167,30.1442884 16.5924198,30.8478134 C6.71465677,27.8844421 3.65714286,19.3068646 3.31364962,16.2268752 C3.11264246,14.4182348 3.0626027,11.7928439 3.91963954,9.42189239 L4.31190034,9.60678505 L5.91147628,13.5340578 C5.99501723,13.7376093 6.16676385,13.8906971 6.37794858,13.9500663 C6.58913332,14.0077392 6.81516035,13.9666048 6.99114763,13.8351444 L11.5731778,10.4248078 L15.4190299,13.9004506 C15.5500663,14.0179168 15.7184204,14.0827988 15.8939836,14.0827988 L16.0890538,14.0827988 C16.264617,14.0827988 16.4333952,14.0179168 16.5644315,13.9004506 L20.4111317,10.4248078 L24.9927379,13.8351444 C25.1687252,13.9666048 25.3943281,14.0073151 25.6059369,13.9500663 C25.8166976,13.8906971 25.9884442,13.7376093 26.0715611,13.5340578 L27.6715611,9.60678505 L27.6868275,9.59957593 C28.4870395,11.5112642 28.5375033,13.94837 27.8632388,17.6487676 L27.8632388,17.6487676 Z" id="Path" fill="#FF4354"></path>
                                            <path d="M16.6475484,32.3112642 C16.5818182,32.3112642 16.5156639,32.3019348 16.4520541,32.2837 C5.62650411,29.1765704 2.28104956,19.7525576 1.90490326,16.3837795 C1.68014842,14.3652266 1.63180493,11.3950702 2.67203817,8.70394911 C2.81410019,8.33925258 3.22501988,8.15987278 3.58844421,8.29811821 C3.95271667,8.4393321 4.13506494,8.85025179 3.99385105,9.21494832 C3.05708985,11.638484 3.10670554,14.3656507 3.31364962,16.2268752 C3.65714286,19.3068646 6.71465677,27.8844421 16.5924198,30.8478134 C18.0690167,30.1442884 26.3684071,25.8527432 27.8632388,17.6487676 C28.5731248,13.7528757 28.4815266,11.2559767 27.5553671,9.2993374 C27.3882852,8.94566658 27.5384045,8.52372118 27.8920753,8.35579115 C28.2474424,8.18870925 28.6689637,8.33967665 28.8360456,8.69334747 C29.8991784,10.9379274 30.0251259,13.6926584 29.2571429,17.9023589 C27.4849722,27.6287305 17.3561622,32.0699708 16.9265836,32.2544394 C16.8371058,32.2917572 16.7425391,32.3112642 16.6475484,32.3112642" id="Fill-204" fill="#AB2531"></path>
                                            <path d="M11.6164325,8.80021203 C11.787331,8.80021203 11.9569573,8.86170156 12.0922343,8.98298436 L15.9919428,12.5073946 L19.8920753,8.98298436 C20.1422741,8.7561092 20.5196926,8.7387225 20.7902465,8.94057779 L25.1042672,12.1520276 L26.4629738,8.8167506 C26.5308243,8.65178903 26.6567718,8.51820832 26.8174927,8.44272462 L29.9119003,6.98436258 C27.9103101,4.7232441 25.1008746,3.5786907 21.5476279,3.5786907 C18.8471773,3.5786907 16.6314339,4.26779751 16.2145773,4.40561887 C16.0699708,4.4535383 15.9134906,4.4535383 15.7693082,4.40561887 C15.3520276,4.26779751 13.1367082,3.5786907 10.4362576,3.5786907 C6.88216274,3.5786907 4.07272727,4.7232441 2.07240922,6.98436258 L5.16639279,8.44272462 C5.32668964,8.51820832 5.45263716,8.65178903 5.52091174,8.8167506 L6.87919428,12.1520276 L11.1932149,8.94057779 C11.3195865,8.8464352 11.4680095,8.80021203 11.6164325,8.80021203 Z M16.0890538,14.0827988 L15.8939836,14.0827988 C15.7184204,14.0827988 15.5500663,14.0179168 15.4190299,13.9004506 L11.5731778,10.4248078 L6.99114763,13.8351444 C6.81516035,13.9666048 6.58913332,14.0077392 6.37794858,13.9500663 C6.16676385,13.8906971 5.99501723,13.7376093 5.91147628,13.5340578 L4.31190034,9.60678505 L0.649668699,7.88083753 C0.457566923,7.79051153 0.315928969,7.61791678 0.26419295,7.41139677 C0.212880997,7.20530082 0.256559767,6.98690697 0.383779486,6.81600848 C2.6554996,3.77121654 6.13199046,2.16188709 10.4362576,2.16188709 C13.0285714,2.16188709 15.2175987,2.75261065 15.9919428,2.98923933 C16.7658627,2.75261065 18.9553141,2.16188709 21.5476279,2.16188709 C25.8510469,2.16188709 29.3275378,3.77121654 31.600106,6.81600848 C31.7273257,6.98690697 31.7710045,7.20530082 31.7196926,7.41139677 C31.6683806,7.61791678 31.5271667,7.79051153 31.3346409,7.88083753 L27.6715611,9.60678505 L26.0715611,13.5340578 C25.9884442,13.7376093 25.8166976,13.8906971 25.6059369,13.9500663 C25.3943281,14.0073151 25.1687252,13.9666048 24.9927379,13.8351444 L20.4111317,10.4248078 L16.5644315,13.9004506 C16.4333952,14.0179168 16.264617,14.0827988 16.0890538,14.0827988 L16.0890538,14.0827988 Z" id="Fill-205" fill="#AB2531"></path>
                                            <path d="M6.63153989,20.9195865 C6.24012722,20.9195865 5.92250199,20.6019613 5.92250199,20.2105486 L5.92250199,17.2751657 C5.92250199,16.8833289 6.24012722,16.5661277 6.63153989,16.5661277 C7.02252849,16.5661277 7.33972966,16.8833289 7.33972966,17.2751657 L7.33972966,20.2105486 C7.33972966,20.6019613 7.02252849,20.9195865 6.63153989,20.9195865" id="Fill-206" fill="#AB2531"></path>
                                            <path d="M11.1219719,17.0181818 C10.7305592,17.0181818 10.412934,16.7009807 10.412934,16.309568 L10.412934,13.3746091 C10.412934,12.9831964 10.7305592,12.6659952 11.1219719,12.6659952 C11.5121124,12.6659952 11.8297376,12.9831964 11.8297376,13.3746091 L11.8297376,16.309568 C11.8297376,16.7009807 11.5121124,17.0181818 11.1219719,17.0181818" id="Fill-207" fill="#AB2531"></path>
                                            <path d="M16.1463027,20.9895574 C15.75489,20.9895574 15.4372648,20.6723562 15.4372648,20.2809435 L15.4372648,17.3451365 C15.4372648,16.9537238 15.75489,16.6365227 16.1463027,16.6365227 C16.5377153,16.6365227 16.8549165,16.9537238 16.8549165,17.3451365 L16.8549165,20.2809435 C16.8549165,20.6723562 16.5377153,20.9895574 16.1463027,20.9895574" id="Fill-208" fill="#AB2531"></path>
                                            <path d="M16.1463027,4.45438643 C15.75489,4.45438643 15.4372648,4.1367612 15.4372648,3.74577259 L15.4372648,0.810813676 C15.4372648,0.419825073 15.75489,0.102199841 16.1463027,0.102199841 C16.5377153,0.102199841 16.8549165,0.419825073 16.8549165,0.810813676 L16.8549165,3.74577259 C16.8549165,4.1367612 16.5377153,4.45438643 16.1463027,4.45438643" id="Fill-209" fill="#AB2531"></path>
                                            <path d="M20.7427511,17.0181818 C20.3517625,17.0181818 20.0345614,16.7009807 20.0345614,16.309568 L20.0345614,13.3746091 C20.0345614,12.9831964 20.3517625,12.6659952 20.7427511,12.6659952 C21.1341638,12.6659952 21.451789,12.9831964 21.451789,13.3746091 L21.451789,16.309568 C21.451789,16.7009807 21.1341638,17.0181818 20.7427511,17.0181818" id="Fill-210" fill="#AB2531"></path>
                                            <path d="M11.1219719,26.1466207 C10.7305592,26.1466207 10.412934,25.8298436 10.412934,25.4380069 L10.412934,22.503048 C10.412934,22.1120594 10.7305592,21.7948582 11.1219719,21.7948582 C11.5121124,21.7948582 11.8297376,22.1120594 11.8297376,22.503048 L11.8297376,25.4380069 C11.8297376,25.8298436 11.5121124,26.1466207 11.1219719,26.1466207" id="Fill-211" fill="#AB2531"></path>
                                            <path d="M20.7427511,26.1466207 C20.3517625,26.1466207 20.0345614,25.8298436 20.0345614,25.4380069 L20.0345614,22.503048 C20.0345614,22.1120594 20.3517625,21.7948582 20.7427511,21.7948582 C21.1341638,21.7948582 21.451789,22.1120594 21.451789,22.503048 L21.451789,25.4380069 C21.451789,25.8298436 21.1341638,26.1466207 20.7427511,26.1466207" id="Fill-212" fill="#AB2531"></path>
                                            <path d="M25.1797509,20.9895574 C24.7879141,20.9895574 24.4702889,20.6723562 24.4702889,20.2809435 L24.4702889,17.3451365 C24.4702889,16.9537238 24.7879141,16.6365227 25.1797509,16.6365227 C25.5707395,16.6365227 25.8875166,16.9537238 25.8875166,17.3451365 L25.8875166,20.2809435 C25.8875166,20.6723562 25.5707395,20.9895574 25.1797509,20.9895574" id="Fill-213" fill="#AB2531"></path>
                                        </g>
                                    </g>
                                    <g id="Group-8" transform="translate(53.000000, 2.000000)">
                                        <path d="M30.4886563,4.19064857 C24.9763101,5.44012066 22.069899,3.43408748 20.8993702,2.25158371 C26.9209567,1.12458522 29.4918966,2.98401207 30.4886563,4.19064857" id="Fill-188" fill="#61AD0E"></path>
                                        <path d="M36.2984615,20.5218703 C35.973851,27.2193062 32.2927187,33.8859729 27.1140337,37.1812971 C26.8485529,37.211463 26.3218149,37.2615385 25.7057788,37.2615385 C24.2305505,37.2615385 23.1372524,36.9767722 22.7100697,36.4832579 C21.5950505,35.1939668 20.1584375,34.9846154 19.4778413,34.9622926 C19.4579303,34.961086 19.4368125,34.9604827 19.4169014,34.9604827 C19.4162981,34.9604827 19.4126779,34.9604827 19.4084543,34.9604827 C19.4066442,34.9604827 19.3438942,34.9604827 19.3420841,34.9604827 C19.3318269,34.9604827 19.3221731,34.9604827 19.3113125,34.961086 C18.8467212,34.9731523 16.8568221,35.0980392 15.6591418,36.4832579 C15.2313558,36.9767722 14.1398678,37.2615385 12.6628293,37.2615385 C12.0486034,37.2615385 11.521262,37.211463 11.2545745,37.1812971 C6.07649279,33.8859729 2.39415385,27.2193062 2.07135337,20.521267 C1.85655529,16.0917044 3.1827524,12.5544495 5.80678846,10.5580694 C7.87934856,8.98099548 10.1323149,8.18220211 12.5047476,8.18220211 C15.2717812,8.18220211 17.5838774,9.27903469 18.7169976,9.93363499 C19.0060096,10.1013575 19.3632019,10.1013575 19.6522139,9.93363499 C20.7847308,9.27903469 23.0980337,8.18220211 25.8656707,8.18220211 C28.2375,8.18220211 30.489863,8.98099548 32.5624231,10.5580694 C35.1858558,12.5544495 36.5132596,16.092911 36.2984615,20.5218703" id="Fill-189" fill="#BFF645"></path>
                                        <path d="M19.4778413,34.9622926 C20.1584375,34.9846154 21.5950505,35.1939668 22.7100697,36.4832579 C23.1372524,36.9767722 24.2305505,37.2615385 25.7057788,37.2615385 C26.3218149,37.2615385 26.8485529,37.211463 27.1140337,37.1812971 C32.2927188,33.8859729 35.973851,27.2193062 36.2984615,20.5218703 C36.5132596,16.092911 35.1858558,12.5544495 32.5624231,10.5580694 C30.489863,8.98099548 28.2375,8.18220211 25.8656707,8.18220211 C23.0980337,8.18220211 20.7847308,9.27903469 19.6522139,9.93363499 C19.3632019,10.1013575 19.0060096,10.1013575 18.7169976,9.93363499 C17.5838774,9.27903469 15.2717813,8.18220211 12.5047476,8.18220211 C10.1323149,8.18220211 7.87934856,8.98099548 5.80678846,10.5580694 C3.1827524,12.5544495 1.85655529,16.0917044 2.07135337,20.521267 C2.39415385,27.2193062 6.07649279,33.8859729 11.2545745,37.1812971 C11.521262,37.211463 12.0486034,37.2615385 12.6628293,37.2615385 C14.1398678,37.2615385 15.2313558,36.9767722 15.6591418,36.4832579 C16.8568221,35.0980392 18.8467212,34.9731523 19.3113125,34.961086 C19.3221731,34.9604827 19.3318269,34.9604827 19.3420841,34.9604827 C19.3438942,34.9604827 19.4066442,34.9604827 19.4084543,34.9604827 C19.4126779,34.9604827 19.4162981,34.9604827 19.4169014,34.9604827 C19.4368125,34.9604827 19.4579303,34.961086 19.4778413,34.9622926 Z M25.7057788,39.1300151 L25.7057788,39.1300151 C23.5976202,39.1300151 22.1139447,38.6503771 21.2963846,37.706184 C20.6151851,36.9176471 19.7191875,36.8307692 19.3619952,36.8289593 C18.7821611,36.8392157 17.6550745,37.0334842 17.0728269,37.706184 C16.2558702,38.6503771 14.7721947,39.1300151 12.6628293,39.1300151 C11.633488,39.1300151 10.8273918,39.0111614 10.7942067,39.0063348 C10.6687067,38.9882353 10.548637,38.9435897 10.4406346,38.8766214 C4.67366827,35.3098039 0.559319712,27.9704374 0.2039375,20.6117647 C-0.0416322115,15.5493213 1.54642548,11.4503771 4.674875,9.07028658 C7.07928606,7.24042232 9.71418269,6.31251885 12.5047476,6.31251885 C15.3598726,6.31251885 17.776351,7.31040724 19.1840024,8.05671192 C20.5922572,7.31040724 23.0093389,6.31251885 25.8656707,6.31251885 C28.6550288,6.31251885 31.2899255,7.24042232 33.6943365,9.07028658 C36.8227861,11.4509804 38.4102404,15.5493213 38.1658774,20.6117647 C37.8092885,27.9704374 33.6949399,35.3104072 27.9279736,38.8766214 C27.8199712,38.9435897 27.7005048,38.9882353 27.5750048,39.0063348 C27.5412163,39.0111614 26.7363269,39.1300151 25.7057788,39.1300151 L25.7057788,39.1300151 Z" id="Fill-190" fill="#698F4A"></path>
                                        <path d="M20.8993702,2.25158371 C22.069899,3.43408748 24.9763101,5.44012066 30.4886563,4.19064857 C29.4918966,2.98401207 26.9209567,1.12458522 20.8993702,2.25158371 Z M19.1846058,9.213273 C18.6687284,9.213273 18.2505962,8.79517345 18.2505962,8.27873303 L18.2505962,1.66817496 C18.2505962,1.23800905 18.5438317,0.863951735 18.9607572,0.760784314 C30.3921178,-2.05550528 32.7192981,4.20512821 32.8128197,4.47300151 C32.8966875,4.71493213 32.8773798,4.98039216 32.7603269,5.20844646 C32.6438774,5.43589744 32.4381298,5.60603318 32.1919567,5.67782805 C25.7486178,7.56319759 21.975774,5.65067873 20.1192188,4.07119155 L20.1192188,8.27873303 C20.1192188,8.79517345 19.7010865,9.213273 19.1846058,9.213273 L19.1846058,9.213273 Z" id="Fill-191" fill="#698F4A"></path>
                                        <path d="M6.87896875,25.6736048 C6.48859135,25.6736048 6.12415865,25.4268477 5.992625,25.0358974 C2.94683654,15.975264 9.15727644,11.8111614 9.22002644,11.7701357 C9.65324279,11.4883861 10.2318702,11.6120664 10.5130385,12.0446456 C10.7936034,12.4760181 10.6723269,13.0533937 10.241524,13.3351433 C10.0243125,13.4793363 5.19738942,16.8030166 7.76470913,24.4410256 C7.93003125,24.9303167 7.66636058,25.4594268 7.17703125,25.6241327 C7.07807933,25.6573152 6.97731731,25.6736048 6.87896875,25.6736048" id="Fill-192" fill="#698F4A"></path>
                                    </g>
                                    <g id="Group-9" transform="translate(104.506250, 0.000000)">
                                        <path d="M37.9937408,32.0565167 L37.8974242,32.2670127 C37.2595427,33.6534025 35.7675,36.9048443 33.2811466,36.9048443 C30.0923162,36.9048443 28.1440671,35.4348328 27.5517486,34.9134948 C29.1539499,32.1049596 30.04733,27.6366782 30.2093957,21.5351788 C30.2111259,21.5109573 30.2099724,21.4867359 30.2088189,21.4630911 C29.917562,16.1499423 28.9982284,12.2404844 27.4733111,9.75144175 C28.398989,9.16782007 31.7908341,7.2266436 34.8510501,8.01787774 C36.5576425,8.45905421 37.9239545,9.71510957 38.9124977,11.7514418 C42.1255515,18.3708189 39.0653355,29.7474048 37.9937408,32.0565167 Z M23.881335,36.2762399 C21.6902757,37.3742791 19.0908801,35.8229527 18.0752298,35.1055363 C17.804159,34.9152249 17.5428929,34.7768166 17.2908548,34.6805075 C17.2475988,34.5467128 17.1847335,34.4215686 17.0786121,34.316609 C13.9918658,31.3010381 14.2508249,22.4867359 14.2537086,22.3985006 C14.2698575,21.9123414 13.8903585,21.5046136 13.4035846,21.488466 C12.9208479,21.4625144 12.5102045,21.8523645 12.4940556,22.3379469 C12.4813672,22.7122261 12.233943,31.1188005 15.3385685,35.0046136 C15.2410983,35.0899654 15.1465119,35.1828143 15.0542325,35.2889273 C14.5980262,35.8264129 12.6117119,37.0472895 10.4096944,36.8910035 C7.93026195,36.7156863 3.0204205,33.2168397 2.18413833,21.2266436 C1.65237822,13.6009227 4.12142923,8.97693195 9.73201746,7.09400231 C10.356057,6.88465975 10.978943,6.79642445 11.5839499,6.79642445 C13.8788235,6.79642445 15.919352,8.05478662 16.792546,8.6810842 C16.4868704,8.91407151 16.3005813,9.07958478 16.2659766,9.11072664 C15.9055101,9.43598616 15.8755193,9.99192618 16.201381,10.3540946 C16.5272426,10.716263 17.0838028,10.7445213 17.4454228,10.4186851 C17.4794508,10.3886967 20.8632215,7.38465975 23.7388787,8.56978085 C25.6034995,9.33852364 27.9318244,12.2110727 28.4485892,21.5230681 C28.1654067,31.9677047 25.809398,35.310842 23.881335,36.2762399 Z" id="Fill-22" fill="#FFAB02"></path>
                                        <path d="M20.0719256,1.85236448 L24.4275138,1.85236448 L26.7598759,8.11995386 C26.6093451,8.21164937 26.4945726,8.28431373 26.4028699,8.34544406 C25.8053608,7.71914648 25.1444095,7.24509804 24.4107881,6.94175317 C22.2433755,6.0461361 20.0171347,6.77566321 18.4403102,7.62226067 L20.0719256,1.85236448 L20.0719256,1.85236448 Z" id="Path" fill="#FFE1A4"></path>
                                        <path d="M37.9937408,32.0565167 L37.8974242,32.2670127 C37.2595427,33.6534025 35.7675,36.9048443 33.2811466,36.9048443 C30.0923162,36.9048443 28.1440671,35.4348328 27.5517486,34.9134948 C29.1539499,32.1049596 30.04733,27.6366782 30.2093957,21.5351788 C30.2111259,21.5109573 30.2099724,21.4867359 30.2088189,21.4630911 C29.917562,16.1499423 28.9982284,12.2404844 27.4733111,9.75144175 C28.398989,9.16782007 31.7908341,7.2266436 34.8510501,8.01787774 C36.5576425,8.45905421 37.9239545,9.71510957 38.9124977,11.7514418 C42.1255515,18.3708189 39.0653355,29.7474048 37.9937408,32.0565167 Z M23.881335,36.2762399 C21.6902757,37.3742791 19.0908801,35.8229527 18.0752298,35.1055363 C17.804159,34.9152249 17.5428929,34.7768166 17.2908548,34.6805075 C17.2475988,34.5467128 17.1847335,34.4215686 17.0786121,34.316609 C13.9918658,31.3010381 14.2508249,22.4867359 14.2537086,22.3985006 C14.2698575,21.9123414 13.8903585,21.5046136 13.4035846,21.488466 C12.9208479,21.4625144 12.5102045,21.8523645 12.4940556,22.3379469 C12.4813672,22.7122261 12.233943,31.1188005 15.3385685,35.0046136 C15.2410983,35.0899654 15.1465119,35.1828143 15.0542325,35.2889273 C14.5980262,35.8264129 12.6117119,37.0472895 10.4096944,36.8910035 C7.93026195,36.7156863 3.0204205,33.2168397 2.18413833,21.2266436 C1.65237822,13.6009227 4.12142923,8.97693195 9.73201746,7.09400231 C10.356057,6.88465975 10.978943,6.79642445 11.5839499,6.79642445 C13.8788235,6.79642445 15.919352,8.05478662 16.792546,8.6810842 C16.4868704,8.91407151 16.3005813,9.07958478 16.2659766,9.11072664 C15.9055101,9.43598616 15.8755193,9.99192618 16.201381,10.3540946 C16.5272426,10.716263 17.0838028,10.7445213 17.4454228,10.4186851 C17.4794508,10.3886967 20.8632215,7.38465975 23.7388787,8.56978085 C25.6034995,9.33852364 27.9318244,12.2110727 28.4485892,21.5230681 C28.1654067,31.9677047 25.809398,35.310842 23.881335,36.2762399 Z M20.0719256,1.85236448 L24.4275138,1.85236448 L26.7598759,8.11995386 C26.6093451,8.21164937 26.4945726,8.28431373 26.4028699,8.34544406 C25.8053608,7.71914648 25.1444095,7.24509804 24.4107881,6.94175317 C22.2433755,6.0461361 20.0171347,6.77566321 18.4403102,7.62226067 L20.0719256,1.85236448 Z M40.4968199,10.9821223 C39.2712339,8.4567474 37.5167716,6.88523645 35.2830331,6.31026528 C32.7153585,5.64936563 30.0946232,6.47347174 28.3309329,7.28892734 L25.8647656,0.664359862 C25.7367279,0.320069204 25.4074058,0.0911188005 25.0400184,0.0911188005 L19.4052068,0.0911188005 C19.0112891,0.0911188005 18.6652413,0.352364475 18.5579665,0.732410611 L16.8894393,6.6349481 C15.1897679,5.61707036 12.2662408,4.38408304 9.17142004,5.42387543 C2.78164752,7.56920415 -0.159758732,12.9279123 0.426792279,21.349481 C1.34497243,34.5196078 7.05591452,38.4192618 10.2845404,38.6476355 C10.4558341,38.6591696 10.6248208,38.6649366 10.7932307,38.6649366 C13.3101517,38.6649366 15.5882996,37.3777393 16.3934375,36.4331027 C16.5116705,36.2958478 16.5756893,36.2785467 16.5756893,36.2785467 C16.6702757,36.2860438 16.9528814,36.4705882 17.0590028,36.5449827 C18.6415947,37.6637832 21.7358387,39.322376 24.6709007,37.8506344 C25.3578056,37.5069204 25.9795381,37.005767 26.5407123,36.3604383 C27.4669669,37.1286044 29.7601103,38.66609 33.2811466,38.66609 C36.8961926,38.66609 38.7192877,34.6966551 39.4973185,33.0017301 L39.5913281,32.7981546 C40.2914982,31.2900807 44.2745083,18.7635525 40.4968199,10.9821223 L40.4968199,10.9821223 Z" id="Fill-23" fill="#AA6F30"></path>
                                        <path d="M9.24697381,9.73183391 C9.03415441,9.8160323 4.04875919,11.8933103 4.81237132,20.3719723 C4.85389706,20.8292964 5.23801011,21.1735871 5.68902574,21.1735871 C5.71497932,21.1735871 5.74150965,21.1724337 5.76861673,21.1701269 C6.25308364,21.1268743 6.61066636,20.6983852 6.56741039,20.2139562 C5.92895221,13.1291811 9.72682675,11.4405998 9.90331112,11.3662053 C10.3502895,11.1851211 10.5682996,10.6758939 10.3906618,10.2254902 C10.2107169,9.7733564 9.69914292,9.55305652 9.24697381,9.73183391" id="Fill-24" fill="#AA6F30"></path>
                                        <path d="M6.85001608,22.8944637 C6.71332721,22.428489 6.22309283,22.1614764 5.75650506,22.3010381 C5.28991728,22.438293 5.02403722,22.928489 5.16245634,23.393887 L6.42956801,27.671857 C6.54318704,28.0547866 6.89442555,28.3021915 7.27334789,28.3021915 C7.3569761,28.3021915 7.44060432,28.2912341 7.52480928,28.2658593 C7.99082031,28.1286044 8.25670037,27.6378316 8.118858,27.1712803 L6.85001608,22.8944637" id="Fill-25" fill="#AA6F30"></path>
                                    </g>
                                    <g id="Group-12" transform="translate(105.506250, 109.000000)" stroke-linecap="round" stroke-linejoin="round">
                                        <path d="M39.0609281,11.8357202 L19.530464,33.0081478 L0,11.8357202 L5.12921278,0 L33.9317153,0 L39.0609281,11.8357202 Z" id="Combined-Shape" stroke="#4A4A4A" stroke-width="2" fill="#7CC3CA"></path>
                                        <path d="M26.1402538,6.39488462e-14 L33.9317153,6.39488462e-14 L39.0609281,11.8357202 L31.1698315,11.8357202 L19.530464,32.7454926 L7.89109658,11.8357202 L2.84217094e-14,11.8357202 L5.12921278,6.39488462e-14 L13.3152291,6.39488462e-14 L7.89109658,11.8357202 L31.1698315,11.8357202 L26.1402538,-3.19744231e-14 Z" id="Combined-Shape" stroke="#4A4A4A" stroke-width="2" fill="#BCF5EA"></path>
                                    </g>
                                </g>
                            </g>
                        </g>
                        <path d="M48.8528646,287.990196 L190.136393,287.990196 C194.554671,287.990196 198.136393,291.571918 198.136393,295.990196 L198.136393,392.156863 L40.8528646,392.156863 L40.8528646,295.990196 C40.8528646,291.571918 44.4345866,287.990196 48.8528646,287.990196 Z" id="Rectangle-Copy-46" fill="#AD0C14"></path>
                        <rect id="Rectangle-Copy-46" fill="#D11C25" x="40.8528646" y="375.816993" width="157.283529" height="16.3398693" rx="8"></rect>
                        <polygon id="Rectangle-Copy-42" fill="#801433" points="0 42.8921569 238.989258 42.8921569 224.690755 69.4444444 14.2985026 69.4444444"></polygon>
                        <polygon id="Rectangle-Copy-44" fill="#D11C25" transform="translate(119.494629, 232.843137) scale(1, -1) translate(-119.494629, -232.843137) " points="0 218.545752 238.989258 218.545752 224.690755 247.140523 14.2985026 247.140523"></polygon>
                        <polygon id="Rectangle-Copy-11" fill="#FFE52D" points="26.1458333 237.037037 31.375 224.836601 64.4930556 224.836601 62.75 237.037037"></polygon>
                        <polygon id="Rectangle-Copy-82" fill="#FFE52D" points="81.9236111 237.037037 83.6666667 224.836601 120.270833 224.836601 122.013889 237.037037"></polygon>
                        <polygon id="Rectangle-Copy-84" fill="#ED4457" points="139.444444 242.265795 137.701389 224.836601 214.395833 224.836601 223.111111 242.265795"></polygon>
                        <polygon id="Rectangle-Copy-84" fill="#AD0C14" points="144.460176 237.037037 143.66337 230.065359 210.871945 230.065359 214.395833 237.037037"></polygon>
                        <polygon id="Rectangle-Copy-11" fill="#F8AC0E" transform="translate(44.447917, 239.770193) scale(1, -1) translate(-44.447917, -239.770193) " points="26.1458333 242.503349 26.1458333 237.037037 62.75 237.037037 62.75 242.503349"></polygon>
                        <polygon id="Rectangle-Copy-83" fill="#F8AC0E" transform="translate(101.968750, 239.770193) scale(1, -1) translate(-101.968750, -239.770193) " points="81.9236111 242.503349 81.9236111 237.037037 122.013889 237.037037 122.013889 242.503349"></polygon>
                    </g>
                </g>
            </g>
        </g>
    </g>
</svg>