<svg xmlns="http://www.w3.org/2000/svg" xmlns:xlink="http://www.w3.org/1999/xlink" width="220" height="230" viewBox="0 0 220 230">
    <defs>
        <path id="a" d="M0 .227h208.744v71.896H0z"/>
    </defs>
    <g fill="none" fill-rule="evenodd">
        <path fill="#192133" d="M108.647 133.718c-28.37 0-53.078 15.94-65.615 39.318a87.086 87.086 0 0 0 12.69 11.95c3.7 2.843 5.49 7.564 4.538 12.118a49.583 49.583 0 0 0-1.217 10.937c0 .664.018 1.324.043 1.981.005.103.008.207.012.31.029.633.07 1.264.123 1.893l.03.33c.057.643.127 1.285.21 1.925l.02.143c.089.666.19 1.33.305 1.991l.01.055c.118.672.252 1.342.398 2.008.013.05.022.102.035.153.148.669.311 1.335.489 1.998l.018.07c.37 1.377.801 2.738 1.29 4.078 1.406 3.853 5.673 5.839 9.534 4.435a7.42 7.42 0 0 0 4.885-7.193c1.538-16.392 15.356-29.222 32.18-29.222 16.826 0 30.644 12.833 32.18 29.227a7.42 7.42 0 0 0 4.887 7.188c.84.305 1.699.45 2.543.45 3.037 0 5.89-1.871 6.989-4.885a49.188 49.188 0 0 0 1.285-4.064l.026-.096a49.535 49.535 0 0 0 .918-4.138l.014-.088a47.025 47.025 0 0 0 .323-2.12 50.863 50.863 0 0 0 .36-4.126c.006-.113.01-.227.014-.34.025-.648.042-1.296.043-1.946v-.017c0-.546-.012-1.089-.03-1.63l-1.09-9.029c-.017-.071-.029-.143-.045-.215-1.018-4.551.734-9.302 4.438-12.144a87.082 87.082 0 0 0 12.765-12.02c-12.542-23.36-37.24-39.285-65.598-39.285"/>
        <g fill="#192133">
            <path d="M79.353 47.791c7.335-6.605 1.872-15.514-6.61-24.934-8.482-9.42-22.55-14.858-24.107-9.18-1.557 5.678-6.405 19.596 2.077 29.016 8.482 9.42 21.305 11.703 28.64 5.098z"/>
            <path d="M71.207 40.316c4.366-3.932 1.148-9.197-3.86-14.758-5.006-5.561-13.336-8.749-14.273-5.38-.937 3.367-3.846 11.626 1.161 17.186 5.007 5.562 12.606 6.883 16.972 2.952zM138.068 48.377c-7.561-6.344-2.413-15.439 5.736-25.15 8.148-9.71 22.018-15.635 23.772-10.015 1.754 5.62 7.085 19.36-1.063 29.07-8.148 9.712-20.884 12.44-28.445 6.095z"/>
            <path d="M148.996 36.657c-4.246-3.562-1.45-8.556 3.01-13.87 4.458-5.313 12.122-8.493 13.136-5.372 1.014 3.12 4.072 10.758-.386 16.071-4.459 5.314-11.515 6.734-15.76 3.171z"/>
        </g>
        <g transform="translate(6 73.595)">
            <mask id="b" fill="#fff">
                <use xlink:href="#a"/>
            </mask>
            <path fill="#192133" d="M199.504 71.114c5.11 3.35 11.343-2.262 8.547-7.69C188.724 25.9 149.554.228 104.372.228S20.021 25.899.692 63.423c-2.794 5.428 3.439 11.04 8.548 7.69 27.32-17.907 60.007-28.325 95.132-28.325 35.126 0 67.813 10.418 95.132 28.325" mask="url(#b)"/>
        </g>
        <path fill="#192133" d="M108.942 202.845c16.944 0 32.752-4.854 46.111-13.236a87.172 87.172 0 0 0 19.508-16.707c13.176-15.188 21.149-34.997 21.149-56.665 0-54.666-38.849-111.354-86.77-111.354-47.92 0-86.767 56.688-86.767 111.354 0 21.683 7.753 41.69 20.945 56.883 5.645 6.499 12.452 11.94 19.746 16.51 13.352 8.37 29.147 13.215 46.078 13.215z"/>
        <path fill="#192133" d="M168.163 135.97c0 27.332-26.638 49.49-59.498 49.49s-59.498-22.158-59.498-49.491 26.638-49.49 59.498-49.49 59.498 22.157 59.498 49.49M46.028 54.025c0 4.099-3.33 7.423-7.437 7.423-4.108 0-7.438-3.324-7.438-7.423 0-4.101 3.33-7.424 7.438-7.424 4.107 0 7.437 3.323 7.437 7.424M182.838 54.025c0 4.099-3.33 7.423-7.437 7.423-4.108 0-7.438-3.324-7.438-7.423 0-4.101 3.33-7.424 7.438-7.424 4.107 0 7.437 3.323 7.437 7.424"/>
        <path fill="#192133" d="M44.775 54.015c0 3.416-2.774 6.186-6.197 6.186s-6.198-2.77-6.198-6.186a6.191 6.191 0 0 1 6.198-6.187 6.191 6.191 0 0 1 6.197 6.187M181.585 54.015c0 3.416-2.775 6.186-6.197 6.186-3.424 0-6.198-2.77-6.198-6.186a6.191 6.191 0 0 1 6.198-6.187 6.191 6.191 0 0 1 6.197 6.187"/>
        <g fill="#192133">
            <path d="M107.726 60.825c0 7.517-6.105 13.61-13.635 13.61-7.531 0-13.635-6.093-13.635-13.61 0-7.517 6.104-13.61 13.635-13.61 7.53 0 13.635 6.093 13.635 13.61"/>
            <path d="M132.879 60.825c0 7.517-6.105 13.61-13.635 13.61-7.53 0-13.635-6.093-13.635-13.61 0-7.517 6.104-13.61 13.635-13.61 7.53 0 13.635 6.093 13.635 13.61M80.338 87.013h-.496c0-16.47 11.65-34.89 27.242-34.89v.495c-12.625 0-26.746 14.71-26.746 34.395"/>
            <path d="M138.02 82.085h-.495c0-18.27-16.23-31.921-30.741-31.921s-30.74 13.65-30.74 31.92h-.496c0-15.301 13.358-32.415 31.236-32.415 8.145 0 15.99 3.638 22.095 10.241 5.81 6.288 9.141 14.37 9.142 22.175"/>
            <path d="M144.28 87.055h-.495c0-9.471-3.947-19.283-10.828-26.92-7.22-8.012-16.493-12.425-26.11-12.425-9.618 0-18.891 4.413-26.111 12.425-6.881 7.637-10.828 17.449-10.828 26.92h-.495c0-18.807 16.008-39.84 37.433-39.84 9.761 0 19.164 4.47 26.479 12.59 6.963 7.726 10.956 17.659 10.956 27.25"/>
            <path d="M125.442 52.226c0 8.951-8.264 16.207-18.456 16.207s-18.454-7.257-18.454-16.207c0-8.951 8.262-16.209 18.454-16.209s18.456 7.258 18.456 16.209"/>
            <path fill-rule="nonzero" d="M102.04 52.585c0 1.81-1.389 3.275-3.1 3.275-1.715 0-3.103-1.466-3.103-3.275s1.388-3.275 3.1-3.275c1.714 0 3.102 1.466 3.102 3.275m16.371 0c0 1.81-1.388 3.275-3.101 3.275-1.714 0-3.102-1.466-3.102-3.275s1.388-3.275 3.102-3.275c1.713 0 3.101 1.466 3.101 3.275"/>
        </g>
    </g>
</svg>
