<svg xmlns="http://www.w3.org/2000/svg" width="220" height="300" viewBox="0 0 220 300">
    <g fill="#192133" fill-rule="evenodd">
        <path d="M109.553 203.681c-28.37 0-53.078 15.94-65.614 39.318a87.086 87.086 0 0 0 12.69 11.95c3.699 2.843 5.49 7.564 4.537 12.118a49.583 49.583 0 0 0-1.217 10.937c0 .664.018 1.324.043 1.981.005.103.008.208.012.31.03.633.07 1.265.123 1.893l.03.33c.057.643.127 1.285.21 1.926l.02.143c.09.665.19 1.329.306 1.99l.009.056c.118.671.253 1.341.399 2.007l.034.153c.148.669.312 1.335.489 1.998l.018.07c.371 1.377.801 2.738 1.29 4.078 1.406 3.853 5.674 5.839 9.534 4.435a7.42 7.42 0 0 0 4.886-7.193c1.538-16.391 15.355-29.222 32.179-29.222 16.826 0 30.644 12.833 32.18 29.227a7.42 7.42 0 0 0 4.887 7.188c.84.305 1.699.45 2.544.45 3.037 0 5.89-1.871 6.988-4.885a49.188 49.188 0 0 0 1.285-4.064l.027-.096c.175-.654.336-1.313.484-1.975l.039-.18a50.36 50.36 0 0 0 .394-1.983l.015-.088c.113-.646.212-1.294.298-1.944.008-.059.017-.117.024-.176a50.863 50.863 0 0 0 .36-4.126c.007-.113.01-.227.015-.34.025-.647.041-1.296.042-1.946v-.017c0-.546-.012-1.089-.03-1.63l-1.09-9.029c-.016-.07-.029-.143-.045-.214-1.017-4.552.734-9.303 4.439-12.145a87.082 87.082 0 0 0 12.765-12.02c-12.543-23.36-37.242-39.285-65.599-39.285"/>
        <path d="M204.792 214.445c5.11 3.35 11.343-2.262 8.547-7.69-19.327-37.525-58.497-63.197-103.678-63.197-45.182 0-84.352 25.673-103.68 63.197-2.795 5.427 3.438 11.04 8.548 7.69 27.319-17.908 60.006-28.325 95.132-28.325 35.125 0 67.812 10.417 95.131 28.325M70.993 98.78S65.7 86.064 56.039 78c-9.662-8.065-32.324-11.306-35.95-8.835-3.627 2.47 8.718 27.474 13.079 31.844 4.36 4.37 26.435 6.489 26.435 6.489l11.39-8.718z"/>
        <path d="M63.686 96.83s-6.75-9.244-12.484-13.205c-5.734-3.963-21.471-9.983-23.783-7.905-2.311 2.078 7 18.99 10.925 22.21 3.926 3.22 15.642 5.105 15.642 5.105l9.7-6.205zM147.998 98.78s5.293-12.716 14.954-20.78c9.662-8.065 32.324-11.306 35.95-8.835 3.627 2.47-8.718 27.474-13.079 31.844-4.36 4.37-26.435 6.489-26.435 6.489l-11.39-8.718z"/>
        <path d="M155.305 96.83s6.75-9.244 12.484-13.205c5.734-3.963 21.471-9.983 23.783-7.905 2.312 2.078-7 18.99-10.925 22.21-3.926 3.22-15.642 5.105-15.642 5.105l-9.7-6.205zM88.111 88.531S79.47 72.988 77.022 68.177c-2.446-4.81 7.467-22.289 9.958-28.953 2.492-6.665-.475-23.223-2.803-25.454-2.328-2.233-5.756.442-5.23 5.017.529 4.576 1.33 14.307.862 18.049-.467 3.741-5.615 9.913-7.366 14.258-1.752 4.346-5.272-10.761-10.213-18.66-4.942-7.898-1.327-23.2-2.238-28.338-.91-5.139-6.48-5.85-7.928.214-1.448 6.063-1.912 20.418.611 26.66 0 0-5.442-2.147-9.962-5.468-4.52-3.32-6.17-17.618-8.126-22.155-1.955-4.537-7.645 1.067-7.817 5.087-.173 4.021 6.148 21.922 10.013 25.26 3.866 3.338 14.275 7.461 16.738 11.073 2.463 3.612 9.366 16.334 10.49 19.172 1.122 2.838-21.49-6.878-26.76-9.891-5.272-3.013-9.06 4.834-2.875 9.257 6.184 4.423 29.336 10.682 32.289 12.61 2.953 1.929 10.93 17.203 10.93 17.203l10.516-4.587zM132.767 87.17s9.173-15.181 11.785-19.889c2.612-4.707-6.69-22.577-8.949-29.338-2.26-6.762 1.277-23.187 3.681-25.323 2.404-2.135 5.738.676 5.052 5.227-.686 4.551-1.821 14.243-1.484 18.001.337 3.758 5.267 10.134 6.868 14.55 1.6 4.413 5.64-10.541 10.85-18.233 5.212-7.692 2.128-23.13 3.217-28.227 1.088-5.099 6.679-5.581 7.915.536 1.237 6.118 1.205 20.482-1.533 26.618 0 0 5.513-1.926 10.144-5.06 4.632-3.134 6.776-17.354 8.887-21.809 2.111-4.453 7.602 1.378 7.636 5.403.033 4.024-6.902 21.655-10.88 24.834-3.979 3.178-14.523 6.875-17.109 10.384-2.586 3.509-9.925 15.94-11.145 18.732-1.22 2.79 21.71-6 27.083-8.796 5.372-2.796 8.884 5.2 2.552 9.368-6.333 4.168-29.685 9.48-32.702 11.287-3.018 1.806-11.518 16.746-11.518 16.746l-10.35-5.011z"/>
        <path d="M63.77 259.594c13.353 8.37 29.147 13.215 46.078 13.215 16.945 0 32.752-4.854 46.112-13.237a87.172 87.172 0 0 0 19.507-16.706c13.177-15.189 21.149-34.998 21.149-56.666 0-54.666-38.849-111.353-86.769-111.353-47.92 0-86.767 56.687-86.767 111.353 0 21.683 7.983 41.505 21.175 56.698a87.167 87.167 0 0 0 19.515 16.696"/>
        <path d="M169.07 205.933c0 27.332-26.639 49.49-59.499 49.49s-59.497-22.158-59.497-49.491 26.638-49.49 59.497-49.49c32.86 0 59.498 22.157 59.498 49.49M109.35 125.788c0 7.517-6.106 13.61-13.636 13.61-7.53 0-13.635-6.093-13.635-13.61 0-7.517 6.104-13.61 13.635-13.61 7.53 0 13.635 6.093 13.635 13.61"/>
        <path d="M134.502 125.788c0 7.517-6.104 13.61-13.635 13.61-7.53 0-13.634-6.093-13.634-13.61 0-7.517 6.104-13.61 13.634-13.61s13.635 6.093 13.635 13.61M81.962 151.977h-.496c0-16.47 11.65-34.891 27.242-34.891v.495c-12.626 0-26.746 14.71-26.746 34.396"/>
        <path d="M139.644 147.048h-.496c0-18.27-16.23-31.921-30.74-31.921-14.512 0-30.741 13.65-30.741 31.92h-.496c0-15.301 13.358-32.415 31.236-32.415 8.145 0 15.991 3.638 22.095 10.242 5.81 6.287 9.142 14.369 9.142 22.174"/>
        <path d="M145.904 152.018h-.495c0-9.47-3.947-19.282-10.829-26.92-7.22-8.012-16.492-12.425-26.11-12.425-9.618 0-18.89 4.413-26.11 12.425-6.881 7.638-10.829 17.45-10.829 26.92h-.495c0-18.806 16.009-39.84 37.434-39.84 9.76 0 19.164 4.471 26.478 12.59 6.964 7.726 10.956 17.659 10.956 27.25"/>
        <path d="M123.485 117.189c0 6.833-6.66 12.372-14.875 12.372s-14.874-5.54-14.874-12.372c0-6.833 6.66-12.373 14.874-12.373 8.215 0 14.875 5.54 14.875 12.373"/>
        <path fill-rule="nonzero" d="M106.644 126.092c0 .57-.555 1.03-1.24 1.03-.684 0-1.239-.46-1.239-1.03 0-.57.555-1.03 1.24-1.03.684 0 1.239.46 1.239 1.03m6.446 0c0 .57-.555 1.03-1.24 1.03-.684 0-1.239-.46-1.239-1.03 0-.57.555-1.03 1.24-1.03.684 0 1.239.46 1.239 1.03"/>
        <path d="M50.395 116.423c0 4.1-3.33 7.424-7.437 7.424-4.108 0-7.438-3.324-7.438-7.424 0-4.1 3.33-7.423 7.438-7.423 4.107 0 7.437 3.323 7.437 7.423M183.875 117.423c0 4.1-3.33 7.424-7.438 7.424-4.107 0-7.437-3.324-7.437-7.424 0-4.1 3.33-7.423 7.437-7.423 4.108 0 7.438 3.323 7.438 7.423"/>
        <path d="M48.915 116.187c0 3.415-2.775 6.185-6.197 6.185-3.424 0-6.198-2.77-6.198-6.185A6.191 6.191 0 0 1 42.718 110a6.191 6.191 0 0 1 6.197 6.187M182.395 117.187c0 3.415-2.775 6.185-6.197 6.185-3.424 0-6.198-2.77-6.198-6.185a6.191 6.191 0 0 1 6.198-6.187 6.191 6.191 0 0 1 6.197 6.187"/>
    </g>
</svg>
