<svg xmlns="http://www.w3.org/2000/svg" xmlns:xlink="http://www.w3.org/1999/xlink" width="220" height="230" viewBox="0 0 220 230">
    <defs>
        <path id="a" d="M0 .227h208.744v71.896H0z"/>
    </defs>
    <g fill="none" fill-rule="evenodd">
        <path fill="#192133" d="M108.573 133.067c-28.37 0-53.078 15.941-65.614 39.318a87.086 87.086 0 0 0 12.69 11.95c3.699 2.844 5.49 7.565 4.537 12.119a49.583 49.583 0 0 0-1.217 10.937c0 .664.018 1.324.043 1.98l.012.311c.03.633.07 1.264.123 1.893l.03.33c.057.643.127 1.285.21 1.925l.02.143c.09.666.19 1.33.306 1.99l.009.056c.118.672.253 1.342.399 2.007l.034.154c.148.668.312 1.335.489 1.997l.018.07c.371 1.378.802 2.739 1.29 4.079 1.406 3.853 5.674 5.838 9.534 4.435a7.42 7.42 0 0 0 4.886-7.194c1.538-16.39 15.355-29.222 32.179-29.222 16.826 0 30.644 12.834 32.18 29.227a7.42 7.42 0 0 0 4.887 7.188c.84.306 1.699.451 2.544.451 3.037 0 5.89-1.872 6.988-4.885a49.188 49.188 0 0 0 1.285-4.065l.027-.095a49.535 49.535 0 0 0 .917-4.138l.015-.089a47.025 47.025 0 0 0 .322-2.12 50.863 50.863 0 0 0 .36-4.126c.007-.113.01-.227.015-.34.025-.647.041-1.295.042-1.946v-.016c0-.546-.012-1.09-.03-1.63l-1.09-9.03c-.016-.07-.029-.143-.045-.214-1.017-4.551.734-9.302 4.439-12.145a87.082 87.082 0 0 0 12.765-12.019c-12.543-23.36-37.242-39.286-65.599-39.286"/>
        <g transform="translate(5.926 72.945)">
            <mask id="b" fill="#fff">
                <use xlink:href="#a"/>
            </mask>
            <path fill="#192133" d="M199.504 71.114c5.11 3.35 11.343-2.262 8.547-7.69C188.724 25.9 149.554.228 104.372.228S20.021 25.899.692 63.423c-2.794 5.428 3.439 11.04 8.548 7.69 27.32-17.907 60.007-28.325 95.132-28.325 35.126 0 67.813 10.418 95.132 28.325" mask="url(#b)"/>
        </g>
        <path fill="#192133" d="M108.868 202.195c16.945 0 32.752-4.854 46.112-13.236a87.172 87.172 0 0 0 19.508-16.707c13.176-15.188 21.148-34.997 21.148-56.665 0-54.666-24.193-111.354-86.769-111.354-62.576 0-86.767 56.688-86.767 111.354 0 21.682 7.983 41.504 21.175 56.697A87.167 87.167 0 0 0 62.79 188.98c13.353 8.37 29.147 13.215 46.078 13.215z"/>
        <path fill="#192133" d="M168.09 135.319c0 27.333-26.639 49.49-59.499 49.49s-59.497-22.157-59.497-49.49c0-27.333 26.638-49.49 59.497-49.49 32.86 0 59.498 22.157 59.498 49.49"/>
        <g fill="#192133">
            <path d="M43.955 53.374c0 4.1-3.33 7.424-7.438 7.424-4.107 0-7.437-3.324-7.437-7.424 0-4.1 3.33-7.423 7.437-7.423 4.108 0 7.438 3.323 7.438 7.423"/>
            <path d="M42.702 53.364c0 3.416-2.775 6.186-6.198 6.186-3.423 0-6.197-2.77-6.197-6.186a6.191 6.191 0 0 1 6.197-6.186 6.191 6.191 0 0 1 6.198 6.186"/>
        </g>
        <g fill="#192133">
            <path d="M189.764 53.374c0 4.1-3.33 7.424-7.437 7.424s-7.437-3.324-7.437-7.424c0-4.1 3.33-7.423 7.437-7.423s7.437 3.323 7.437 7.423"/>
            <path d="M188.512 53.364c0 3.416-2.775 6.186-6.198 6.186-3.423 0-6.197-2.77-6.197-6.186a6.191 6.191 0 0 1 6.197-6.186 6.191 6.191 0 0 1 6.198 6.186"/>
        </g>
        <g fill="#192133">
            <path d="M107.652 60.174c0 7.517-6.105 13.61-13.635 13.61-7.53 0-13.635-6.093-13.635-13.61 0-7.516 6.104-13.61 13.635-13.61 7.53 0 13.635 6.094 13.635 13.61"/>
            <path d="M132.805 60.174c0 7.517-6.105 13.61-13.635 13.61-7.53 0-13.635-6.093-13.635-13.61 0-7.516 6.105-13.61 13.635-13.61 7.53 0 13.635 6.094 13.635 13.61M80.265 86.363h-.496c0-16.47 11.65-34.89 27.242-34.89v.494c-12.626 0-26.746 14.71-26.746 34.396"/>
            <path d="M137.947 81.434h-.496c0-18.27-16.23-31.92-30.74-31.92-14.512 0-30.741 13.65-30.741 31.92h-.496c0-15.301 13.358-32.416 31.236-32.416 8.145 0 15.991 3.638 22.095 10.242 5.81 6.287 9.141 14.37 9.142 22.174"/>
            <path d="M144.207 86.404h-.496c0-9.47-3.946-19.282-10.828-26.92-7.22-8.012-16.492-12.424-26.11-12.424-9.618 0-18.891 4.412-26.11 12.425-6.882 7.637-10.829 17.449-10.829 26.92h-.495c0-18.807 16.009-39.84 37.434-39.84 9.76 0 19.164 4.47 26.478 12.589 6.964 7.727 10.956 17.66 10.956 27.25"/>
            <path d="M121.788 51.575c0 6.834-6.66 12.373-14.875 12.373s-14.875-5.54-14.875-12.373c0-6.833 6.66-12.373 14.875-12.373 8.214 0 14.875 5.54 14.875 12.373"/>
            <path fill-rule="nonzero" d="M104.947 60.479c0 .569-.555 1.03-1.24 1.03-.684 0-1.24-.461-1.24-1.03 0-.57.556-1.031 1.24-1.031.685 0 1.24.461 1.24 1.03m6.445 0c0 .57-.554 1.031-1.239 1.031-.684 0-1.24-.461-1.24-1.03 0-.57.556-1.031 1.24-1.031.685 0 1.24.461 1.24 1.03"/>
        </g>
    </g>
</svg>
