<svg xmlns="http://www.w3.org/2000/svg" xmlns:xlink="http://www.w3.org/1999/xlink" width="220" height="230" viewBox="0 0 220 230">
    <defs>
        <path id="a" d="M0 .227h208.744v71.896H0z"/>
    </defs>
    <g fill="none" fill-rule="evenodd">
        <path fill="#192133" d="M109.671 133.733c-28.37 0-53.078 15.94-65.615 39.318A87.086 87.086 0 0 0 56.746 185c3.7 2.843 5.49 7.565 4.538 12.119a49.583 49.583 0 0 0-1.217 10.936c0 .664.018 1.324.043 1.981.005.103.008.208.012.31.029.633.07 1.265.123 1.893l.03.33c.057.644.127 1.285.21 1.926l.02.143c.089.665.19 1.33.305 1.99l.01.056c.118.671.252 1.341.398 2.007.013.05.022.102.035.153.148.67.311 1.335.489 1.998l.018.07c.37 1.377.801 2.738 1.29 4.078 1.406 3.853 5.673 5.84 9.534 4.435a7.42 7.42 0 0 0 4.885-7.193c1.538-16.391 15.356-29.222 32.18-29.222 16.826 0 30.644 12.833 32.18 29.227a7.42 7.42 0 0 0 4.887 7.188c.84.305 1.699.45 2.544.45 3.036 0 5.89-1.871 6.988-4.885a49.188 49.188 0 0 0 1.285-4.064l.027-.096c.174-.654.336-1.313.484-1.975l.039-.18c.144-.658.276-1.318.394-1.983l.014-.088a47.027 47.027 0 0 0 .323-2.12 50.865 50.865 0 0 0 .36-4.126c.006-.113.01-.227.014-.34.025-.647.042-1.296.043-1.946v-.017c0-.546-.012-1.089-.03-1.63l-1.09-9.028c-.017-.072-.029-.144-.045-.215-1.018-4.552.734-9.303 4.438-12.145a87.082 87.082 0 0 0 12.765-12.019c-12.542-23.36-37.24-39.286-65.598-39.286"/>
        <g transform="translate(5.29 73.982)">
            <mask id="b" fill="#fff">
                <use xlink:href="#a"/>
            </mask>
            <path fill="#192133" d="M199.504 71.114c5.11 3.35 11.343-2.262 8.547-7.69C188.724 25.9 149.554.228 104.372.228S20.021 25.899.692 63.423c-2.794 5.428 3.439 11.04 8.548 7.69 27.32-17.907 60.007-28.325 95.132-28.325 35.126 0 67.813 10.418 95.132 28.325" mask="url(#b)"/>
        </g>
        <path fill="#192133" fill-rule="nonzero" d="M45.263 33.327c-2.542 2.537-1.59 7.6 1.314 10.498a6.515 6.515 0 0 0 9.203 0 6.487 6.487 0 0 0 0-9.186c-2.905-2.899-7.976-3.848-10.517-1.312m128.8 0c-2.54-2.536-7.613-1.587-10.518 1.313a6.487 6.487 0 0 0 0 9.185 6.515 6.515 0 0 0 9.203 0c2.905-2.899 3.856-7.961 1.315-10.498"/>
        <path fill="#192133" d="M63.586 189.747c13.352 8.37 29.147 13.215 46.077 13.215 16.945 0 32.752-4.854 46.112-13.236a87.172 87.172 0 0 0 19.508-16.707c13.176-15.188 21.148-34.998 21.148-56.666C196.431 61.688 157.583 5 109.663 5 61.742 5 22.895 61.688 22.895 116.353c0 21.683 7.983 41.505 21.175 56.698a87.167 87.167 0 0 0 19.515 16.696"/>
        <path fill="#192133" d="M110.655 60.6c0 7.517-6.105 13.61-13.635 13.61-7.531 0-13.635-6.093-13.635-13.61 0-7.517 6.104-13.61 13.635-13.61 7.53 0 13.635 6.093 13.635 13.61"/>
        <path fill="#192133" d="M135.941 60.6c0 7.517-6.105 13.61-13.635 13.61-7.53 0-13.635-6.093-13.635-13.61 0-7.517 6.104-13.61 13.635-13.61 7.53 0 13.635 6.093 13.635 13.61M52.272 54.413c0 4.1-3.33 7.424-7.437 7.424s-7.437-3.324-7.437-7.424c0-4.1 3.33-7.423 7.437-7.423s7.437 3.323 7.437 7.423"/>
        <path fill="#192133" d="M51.033 54.413c0 3.416-2.775 6.186-6.198 6.186-3.423 0-6.198-2.77-6.198-6.186 0-3.417 2.775-6.186 6.198-6.186 3.423 0 6.198 2.77 6.198 6.186M181.928 54.413c0 4.1-3.33 7.424-7.437 7.424-4.108 0-7.438-3.324-7.438-7.424 0-4.1 3.33-7.423 7.438-7.423 4.107 0 7.437 3.323 7.437 7.423"/>
        <path fill="#192133" d="M180.688 54.413c0 3.416-2.775 6.186-6.197 6.186-3.424 0-6.198-2.77-6.198-6.186a6.191 6.191 0 0 1 6.198-6.186 6.191 6.191 0 0 1 6.197 6.186M82.917 86.83h-.497c0-16.47 11.65-34.891 27.243-34.891v.495c-12.626 0-26.746 14.71-26.746 34.395"/>
        <path fill="#192133" d="M140.9 81.88h-.496c0-18.27-16.23-31.92-30.741-31.92s-30.74 13.65-30.74 31.92h-.497c0-15.301 13.359-32.416 31.237-32.416 8.144 0 15.99 3.638 22.095 10.242 5.81 6.287 9.14 14.37 9.141 22.174"/>
        <path fill="#192133" d="M147.097 86.83h-.496c0-9.471-3.946-19.283-10.828-26.92-7.22-8.012-16.493-12.425-26.11-12.425-9.618 0-18.891 4.413-26.11 12.425-6.882 7.637-10.83 17.449-10.83 26.92h-.494c0-18.807 16.008-39.84 37.434-39.84 9.76 0 19.163 4.47 26.478 12.59 6.963 7.726 10.956 17.659 10.956 27.25"/>
        <path fill="#192133" d="M124.537 52.187c0 6.833-6.66 12.372-14.874 12.372-8.215 0-14.875-5.54-14.875-12.372 0-6.834 6.66-12.374 14.875-12.374 8.214 0 14.874 5.54 14.874 12.374"/>
        <path fill="#192133" fill-rule="nonzero" d="M107.68 60.6c0 .569-.555 1.03-1.24 1.03-.685 0-1.24-.461-1.24-1.03 0-.57.555-1.031 1.24-1.031.685 0 1.24.461 1.24 1.03m6.445 0c0 .57-.554 1.031-1.24 1.031-.684 0-1.238-.461-1.238-1.03 0-.57.554-1.031 1.239-1.031s1.24.461 1.24 1.03"/>
        <path fill="#192133" d="M169.16 135.672c0 27.333-26.637 49.49-59.497 49.49s-59.498-22.157-59.498-49.49c0-27.333 26.638-49.49 59.498-49.49s59.498 22.157 59.498 49.49"/>
    </g>
</svg>
