<svg xmlns="http://www.w3.org/2000/svg" xmlns:xlink="http://www.w3.org/1999/xlink" width="280" height="250" viewBox="0 0 280 250">
    <defs>
        <path id="a" d="M29.383 240.267c1.612 3.072 5.786 5.107 10.436 5.107h25.456c4.65 0 8.824-2.035 10.436-5.107C140.705 116.386 80.071.299 52.547.299s-88.158 116.087-23.164 239.968z"/>
        <path id="c" d="M39.82 245.374h25.455c4.65 0 8.824-2.035 10.436-5.107C140.705 116.386 80.071.299 52.547.299s-88.158 116.087-23.164 239.968c1.612 3.072 5.786 5.107 10.436 5.107z"/>
        <path id="e" d="M0 .425h33.185v31.84H0z"/>
        <path id="g" d="M.346.244H18.74V35.7H.346z"/>
        <path id="i" d="M.092.244h29.93v34.302H.092z"/>
    </defs>
    <g fill="none" fill-rule="evenodd">
        <g fill="#192133">
            <path d="M8.162 147.23c3.523 20.467 15.04 38.39 30.596 51.92 31.175 27.093 72.771 33.648 112.938 32.457-18.994-2.515-37.604-7.082-55.108-15.259-29.057-13.578-55.848-37.984-63.386-70.136-1.846-7.894-2.512-16.192-1.982-24.43-7.39-8.213-11.417-18.919-11.245-29.869C8.53 107.761 4.86 128.03 8.162 147.23z"/>
            <path d="M23 93.292a40.504 40.504 0 0 0 8.568 24.84c2.189-18.92 10.756-37.101 26.035-48.82C72.292 58.02 92.083 53.931 110.3 53.82c17.725-.098 35.671 4.729 49.132 16.658 12.427 11.02 19.126 26.941 16.385 43.5-2.472 14.976-11.887 28.477-25.346 35.43-.406.394-.836.775-1.278 1.156 4.253 4.09 9.624 7.64 15.769 6.535 6.984-1.265 12.368-10.922 4.168-15-1.771-.872-.21-3.525 1.547-2.642.014 0 .027.013.04.013 18.548-.209 35.817-15.59 36.604-34.508.786-18.968-15.328-35.933-33.937-37.456-1.07-.087-1.66-.91-1.477-1.954 1.673-9.828-2.322-21.045-11.91-25.332-8.42-3.759-18.771-.786-23.553 7.138-.909 1.51-5.384.748-6.071-.664-5.482-11.007-17.688-18.378-30.152-16.363-11.395 1.854-20.454 10.774-23.32 21.78a1.455 1.455 0 0 1-.441.738c0 1.204-1.979 2.002-2.95.738-9.231-11.941-27.963-3.6-25.395 11.215.183 1.094-2.743 3.379-3.75 2.9C29.714 60.639 22.977 82.947 23 93.292z"/>
            <path d="M34.234 123.142c-.406 8.11.38 16.257 2.359 23.96 7.611 29.73 32.094 52.291 58.874 65.456 22.762 11.189 47.615 15.863 72.784 17.79-17.914-2.318-35.558-6.318-51.667-14.588-24.398-12.526-43.01-35.58-54.269-60.253-10.326-22.635-13.826-51.419 7.33-69.086 18.835-15.73 48.413-19.716 70.366-8.392 19.78 10.196 30.917 34.71 23.71 55.578a46.99 46.99 0 0 0 8.409-17.79c3.635-15.484-1.706-30.831-12.965-41.812-12.99-12.661-31.099-17.667-48.891-17.569-17.988.11-37.817 4.22-52.048 15.815-14.538 11.863-22.358 29.973-23.832 48.535.011.026.037.05.062.074.736.772.43 1.767-.222 2.282"/>
            <path d="M70.388 89.814c-20.42 18.4-14.006 47.849-2.83 69.44 11.287 21.825 27.766 41.916 49.822 53.474 25.65 13.436 55.437 15.61 83.808 17.636.862.061 1.34.675 1.451 1.352 1.342.01 2.684.01 4.013.023-32.888-9.272-62.255-29.732-82.157-57.478-.801.431-1.932.259-2.216-.883-.271-1.141-.59-2.382-.923-3.684-.32-.504-.653-.983-.972-1.487-9.897-15.365-19.915-36.206-11.335-54.333 7.284-15.4 25.071-21.873 39.312-11.19 12.59 9.447 15.016 26.074 8.048 38.713l.74-.627c.036-.134.097-.283.184-.417 12.837-20.215 3.04-47.53-17.035-58.854-21.367-12.048-51.817-7.995-69.91 8.315"/>
            <path d="M119.407 160.087c-3.547-16.19-5.291-36.232 12.635-41.301 7.715-2.173 15.874.995 18.816 8.64 1.964 5.106 2.46 12.79-.556 17.92 6.749-7.278 9.643-17.515 6.193-27.235-3.945-11.182-16.232-20.56-28.52-17.134-10.471 2.92-17.395 13.611-18.507 23.921-1.324 12.433 3.893 24.608 9.94 35.189z"/>
        </g>
        <g transform="rotate(109 83.932 188.441)">
            <mask id="b" fill="#fff">
                <use xlink:href="#a"/>
            </mask>
            <path fill="#192133" d="M52.547-7.352V152.34l108.742-21.417V-7.352z" mask="url(#b)"/>
            <mask id="d" fill="#fff">
                <use xlink:href="#c"/>
            </mask>
            <path fill="#192133" d="M-56.195 59.308H52.547v-66.66H-56.195zM52.547 152.341V59.308L-56.195 81.365v164.009H52.547v-66.66z" mask="url(#d)"/>
            <path fill="#192133" d="M-56.196 59.308v51.466L52.547 59.308zM52.547 245.374h108.742v-66.66H52.547zM52.547 178.713h108.742v-47.79L52.547 152.342z" mask="url(#d)"/>
            <path fill="#192133" d="M24.72 262.529h27.827V-.681H24.72z" mask="url(#d)"/>
        </g>
        <path stroke="#192133" stroke-linecap="round" stroke-linejoin="round" stroke-width="2" d="M272.004 220.327L40.475 140.605"/>
        <g>
            <path fill="#192133" d="M260.886 168.417c3.074 3.998.71 7.74-5.052 6.255-4.107-1.059-13.902.96-19.192 2.209a4.268 4.268 0 0 1-5.041-2.853c-3.513-10.918 2.766-16.66 3.826-16.975 3.699-1.101 22.386 7.366 25.46 11.364"/>
            <path fill="#192133" d="M86.888 142.711c.805-15.716 8.1-30.166 18.835-42.634 15.257-17.717 38.912-27.184 62.155-24.111 22.04 2.914 39.753 17.342 52.6 34.791 13.534 18.381 26.713 43.007 23.336 66.579-.958 6.685-3.277 13.106-6.505 19.02-10.251 18.783-29.092 29.015-51.072 29.473-40.253.84-87.236-24.824-97.627-65.971-1.479-5.854-2.007-11.58-1.722-17.147"/>
            <path fill="#192133" d="M232.036 138.709s4.99-8.19 7.528-2.758c2.537 5.433-1.26 10.146-1.26 10.146l-6.268-7.388zM215.604 185.03c2.921 4.533 9.045 5.778 13.678 2.782 4.634-2.997 6.023-9.1 3.102-13.633-2.92-4.533-9.044-5.779-13.677-2.783-4.634 2.997-6.023 9.1-3.103 13.634"/>
            <path fill="#192133" d="M195.077 197.006c3.682 5.714 11.4 7.284 17.241 3.507 5.841-3.777 7.592-11.471 3.91-17.185-3.68-5.714-11.4-7.285-17.241-3.507-5.841 3.777-7.592 11.471-3.91 17.185"/>
            <path stroke="#192133" stroke-linecap="round" d="M216.08 176.37s14.319-10.342 34.25 11.248M217.294 178.879s16.444.617 24.913 13.004M217.288 177.256s13.966-2.374 24.359 7.686M201.835 183.916s-15.801 18.663-3.475 42.071M206.126 184.381s-7.312 13.869-3.76 27.554"/>
            <path fill="#192133" d="M200.7 183.812c2.835 4.4 9.615 5.07 15.143 1.496 5.529-3.575 7.712-10.041 4.876-14.442-2.836-4.402-9.616-5.072-15.145-1.497-5.528 3.575-7.71 10.041-4.875 14.443"/>
            <path fill="#192133" d="M215.956 181.41c.358.556 1.22.638 1.925.182.705-.456.985-1.276.627-1.832-.359-.557-1.22-.638-1.925-.182-.705.455-.986 1.276-.627 1.832M211.258 184.317c.39.607 1.332.697 2.101.2.77-.498 1.076-1.394.684-2.001-.39-.608-1.332-.697-2.1-.2-.77.499-1.077 1.394-.685 2.001M160.992 209.075c2.272 3.527 6.865 4.609 10.258 2.415 3.393-2.194 4.3-6.833 2.027-10.36-2.272-3.529-6.865-4.61-10.258-2.416-3.392 2.194-4.3 6.833-2.027 10.36"/>
            <path fill="#192133" d="M161.977 208.437c1.909 2.962 5.765 3.87 8.613 2.028 2.849-1.842 3.61-5.736 1.702-8.698-1.908-2.962-5.764-3.87-8.613-2.028-2.848 1.842-3.61 5.736-1.702 8.698M235.91 160.96c1.318 2.045 3.982 2.673 5.95 1.4 1.968-1.272 2.495-3.963 1.177-6.01-1.32-2.045-3.983-2.672-5.951-1.4-1.967 1.273-2.495 3.963-1.176 6.01"/>
            <path fill="#192133" d="M236.482 160.59c1.107 1.718 3.343 2.244 4.996 1.176 1.652-1.069 2.094-3.328.987-5.045-1.107-1.718-3.344-2.245-4.996-1.177-1.652 1.068-2.094 3.328-.987 5.046M152.233 183.24c-1.225-2.082-8.02-2.533-10.236-2.309-.956.097-1.94.319-2.693.916-4.265 3.379-1.541 10.068 1.244 13.296.378.437 6.36 5.379 6.399 5.26l3.536-10.731c.493-1.496 2.077-4.294 1.934-5.87a1.326 1.326 0 0 0-.184-.562M147.354 81.761c-1.142-.876-3.232-3.412-3.905-4.66-2.208-4.09-3.443-8.746-4.463-13.253-1.148-5.07-6.204-5.192-9.766-2.408-5.154 4.03-6.156 11.31-4.078 17.217 1.13 3.21 2.628 6.957-1.48 8.887"/>
            <g transform="translate(80 87.86)">
                <mask id="f" fill="#fff">
                    <use xlink:href="#e"/>
                </mask>
                <path fill="#192133" d="M33.185 8.162l-.94.653c-3.932 2.729-7.11-1.548-9.71-4.016-2.647-2.512-6.33-4.046-9.957-4.335C7.995.1.442 2.23.014 7.864c-.157 2.068 1.052 3.827 2.634 5.04 3.861 2.963 7.726 6.183 10.691 10.08 1.288 1.692 2.57 3.671 2.835 5.834.278 2.283.55 1.594-.526 3.446" mask="url(#f)"/>
            </g>
            <g transform="translate(114.482 58.25)">
                <mask id="h" fill="#fff">
                    <use xlink:href="#g"/>
                </mask>
                <path fill="#192133" d="M18.74 35.701c-3.693-4.258-7.272-9.46-7.6-15.205-.19-3.322.92-6.344 2.543-9.169.98-1.704 1.978-3.37 2.23-5.374.292-2.324-.609-4.695-3.023-5.46C10.926-.13 8.66.473 7.053 1.637 4.742 3.312 3.094 5.868 1.882 8.399c-2.237 4.668-1.953 9.837.349 14.522 2.138 4.35 6.09 8.433 11.23 10.843 1.707.8 3.503 1.348 5.28 1.937" mask="url(#h)"/>
            </g>
            <g transform="translate(144.038 211.732)">
                <mask id="j" fill="#fff">
                    <use xlink:href="#i"/>
                </mask>
                <path fill="#192133" d="M23.918 34.338c4.794 1.18 7.693-2.83 5.176-7.875-1.884-3.776-2.047-14.124-1.984-19.557.025-2.185-1.636-4.398-3.947-5.149C8.249-3.09.359 5.127.12 6.653c-.85 5.441 18.283 26.326 23.798 27.685" mask="url(#j)"/>
            </g>
        </g>
    </g>
</svg>
