<svg xmlns="http://www.w3.org/2000/svg" xmlns:xlink="http://www.w3.org/1999/xlink" width="220" height="230" viewBox="0 0 220 230">
    <defs>
        <path id="a" d="M0 .228h209.743v72.247H0z"/>
    </defs>
    <g fill="none" fill-rule="evenodd">
        <path fill="#192133" d="M108.138 133.434c-28.506 0-53.332 16.018-65.928 39.51a87.506 87.506 0 0 0 12.75 12.008c3.717 2.857 5.517 7.602 4.56 12.178a49.83 49.83 0 0 0-1.223 10.99c0 .667.017 1.33.043 1.99.005.104.008.209.012.313.029.635.07 1.27.123 1.901l.03.332c.058.646.128 1.291.211 1.935l.02.143c.09.67.192 1.336.308 2l.009.056c.119.675.254 1.349.4 2.017.013.052.023.103.035.155.15.672.313 1.341.491 2.007l.019.07a49.406 49.406 0 0 0 1.296 4.099c1.413 3.871 5.7 5.867 9.58 4.456a7.456 7.456 0 0 0 4.908-7.228C77.328 205.894 91.212 193 108.115 193c16.907 0 30.791 12.896 32.335 29.37a7.455 7.455 0 0 0 4.91 7.223 7.48 7.48 0 0 0 2.556.453c3.051 0 5.918-1.881 7.022-4.91.489-1.342.92-2.704 1.291-4.084l.027-.096a49.78 49.78 0 0 0 .921-4.158l.015-.089c.113-.648.213-1.3.3-1.953l.024-.177a51.118 51.118 0 0 0 .362-4.147c.006-.113.01-.227.014-.34.026-.651.042-1.303.043-1.956v-.017c0-.549-.012-1.094-.03-1.639l-1.096-9.072c-.016-.071-.028-.144-.045-.216-1.022-4.573.738-9.348 4.46-12.204a87.502 87.502 0 0 0 12.826-12.077c-12.602-23.475-37.42-39.478-65.912-39.478"/>
        <g transform="translate(5 73.018)">
            <mask id="b" fill="#fff">
                <use xlink:href="#a"/>
            </mask>
            <path fill="#192133" d="M200.458 71.461c5.135 3.366 11.397-2.273 8.588-7.727C189.626 26.025 150.27.228 104.872.228 59.473.228 20.117 26.026.696 63.733c-2.809 5.454 3.454 11.094 8.589 7.728 27.45-17.996 60.293-28.464 95.587-28.464 35.293 0 68.137 10.468 95.586 28.464" mask="url(#b)"/>
        </g>
        <path fill="#192133" d="M108.434 202.899c17.026 0 32.909-4.878 46.332-13.3a87.592 87.592 0 0 0 19.602-16.79c13.239-15.262 21.25-35.168 21.25-56.941 0-54.933-39.035-111.897-87.185-111.897-48.15 0-87.182 56.964-87.182 111.897 0 21.788 7.79 41.894 21.045 57.16 5.672 6.53 12.511 11.998 19.84 16.592 13.416 8.41 29.286 13.279 46.298 13.279z"/>
        <path fill="#192133" d="M158.338 187.875c13.229-9.839 28.51-24.583 35.29-52.022 1.43-5.792-14.527-12.3-23.02 3.704-6.719 12.661 4.097 17.26-1.212 24.327-6.678 8.889-9.055-1.524-16.22 9.624-6.685 10.402 3.348 15.715 5.162 14.367z"/>
        <path fill="#192133" d="M167.939 135.696c0 27.466-26.766 49.732-59.783 49.732s-59.782-22.266-59.782-49.732 26.765-49.732 59.782-49.732c33.017 0 59.783 22.266 59.783 49.732"/>
        <g fill="#192133">
            <path d="M70.736 11.017c-6.89-7.135-15.645-1.336-24.807 7.513-9.162 8.849-14.13 23.168-8.374 24.532 5.757 1.364 19.903 5.745 29.065-3.104 9.163-8.849 11.005-21.806 4.116-28.94zM140.994 11.721c6.507-7.486 15.553-2.153 25.166 6.204 9.612 8.356 15.321 22.396 9.645 24.06-5.677 1.663-19.575 6.779-29.187-1.578-9.613-8.357-12.131-21.2-5.624-28.686z"/>
        </g>
        <path fill="#192133" d="M45.22 53.352c0 4.12-3.346 7.46-7.473 7.46s-7.473-3.34-7.473-7.46c0-4.121 3.346-7.46 7.473-7.46s7.473 3.339 7.473 7.46M182.684 53.352c0 4.12-3.346 7.46-7.473 7.46s-7.473-3.34-7.473-7.46c0-4.121 3.346-7.46 7.473-7.46s7.473 3.339 7.473 7.46"/>
        <path fill="#192133" d="M43.961 53.342c0 3.432-2.788 6.216-6.227 6.216-3.44 0-6.227-2.784-6.227-6.216a6.221 6.221 0 0 1 6.227-6.217 6.221 6.221 0 0 1 6.227 6.217M181.425 53.342c0 3.432-2.788 6.216-6.227 6.216-3.44 0-6.227-2.784-6.227-6.216a6.221 6.221 0 0 1 6.227-6.217 6.221 6.221 0 0 1 6.227 6.217"/>
        <g fill="#192133">
            <path d="M107.212 60.185c0 7.554-6.134 13.677-13.7 13.677-7.567 0-13.7-6.123-13.7-13.677 0-7.553 6.133-13.676 13.7-13.676 7.566 0 13.7 6.123 13.7 13.676"/>
            <path d="M132.486 60.185c0 7.554-6.134 13.677-13.7 13.677-7.567 0-13.7-6.123-13.7-13.677 0-7.553 6.133-13.676 13.7-13.676 7.566 0 13.7 6.123 13.7 13.676M79.694 86.502h-.499c0-16.55 11.707-35.061 27.373-35.061v.497c-12.686 0-26.874 14.782-26.874 34.564"/>
            <path d="M137.652 81.549h-.498c0-18.36-16.307-32.077-30.888-32.077-14.58 0-30.887 13.718-30.887 32.077h-.499c0-15.377 13.423-32.574 31.386-32.574 8.184 0 16.067 3.655 22.2 10.291 5.839 6.318 9.186 14.44 9.186 22.283"/>
            <path d="M143.942 86.543h-.498c0-9.517-3.965-19.376-10.88-27.052-7.254-8.05-16.571-12.485-26.235-12.485-9.664 0-18.981 4.435-26.235 12.486-6.914 7.675-10.88 17.534-10.88 27.052h-.498c0-18.899 16.085-40.035 37.613-40.035 9.807 0 19.255 4.493 26.605 12.65 6.997 7.765 11.008 17.746 11.008 27.384"/>
            <path d="M121.416 51.544c0 6.867-6.692 12.433-14.946 12.433-8.255 0-14.946-5.567-14.946-12.433s6.691-12.433 14.946-12.433c8.254 0 14.946 5.567 14.946 12.433"/>
            <path fill-rule="nonzero" d="M104.494 60.49c0 .573-.557 1.036-1.245 1.036-.688 0-1.246-.463-1.246-1.035 0-.572.558-1.036 1.246-1.036s1.245.464 1.245 1.036m6.477 0c0 .572-.558 1.035-1.245 1.035-.688 0-1.246-.463-1.246-1.035 0-.572.558-1.036 1.246-1.036.687 0 1.245.464 1.245 1.036"/>
        </g>
    </g>
</svg>
