<svg xmlns="http://www.w3.org/2000/svg" xmlns:xlink="http://www.w3.org/1999/xlink" width="220" height="230" viewBox="0 0 220 230">
    <defs>
        <path id="a" d="M.21.154h36.33v35.818H.21z"/>
    </defs>
    <g fill="none" fill-rule="evenodd">
        <path fill="#192133" d="M39.724 39.393s-11.964-8.124-12.068.915c-.102 9.04 8.054 13.136 8.054 13.136l4.014-14.05zM146.473 36.706s13.043-6.2 11.778 2.757c-1.264 8.957-9.938 11.758-9.938 11.758l-1.84-14.515zM102.277 200.46c-1.723-.354-3.521-.703-5.065.392-1.576 1.118-2.718 2.855-3.682 4.493-3.164 5.373-5.05 11.552-6.64 17.542-1.788 6.738-8.581 6.654-13.226 2.748-6.723-5.651-7.713-15.456-4.635-23.269 1.673-4.248 3.867-9.194-1.552-11.982"/>
        <g transform="translate(100.207 193.135)">
            <mask id="b" fill="#fff">
                <use xlink:href="#a"/>
            </mask>
            <path fill="#192133" d="M36.54.154L35.264.73c-5.342 2.41-2.864 8.441-1.92 12.727.963 4.36.247 9.195-1.739 13.185-2.51 5.043-9.51 11.631-15.686 8.533-2.267-1.138-3.347-3.517-3.62-5.94-.668-5.923-1.605-12.01-3.818-17.579-.96-2.417-2.225-5.011-4.325-6.65C1.938 3.274 2.832 3.424.211 3.386" mask="url(#b)"/>
        </g>
        <path fill="#192133" d="M142.358 191.051c.345-.184.69-.371 1.033-.56 31.073-17.147 41.92-49.003 36.203-82.954-2.212-13.134-6.42-25.93-11.921-38.042-5.44-11.977-11.468-23.32-18.742-32.972C135.696 18.963 118.334 7 92.871 7 67.06 7 45.316 21.05 32.093 44.082 16.458 71.312 5.5 108.004 12.69 139.546c5.157 22.615 20.73 41.234 40.512 51.41 27.433 14.11 61.799 14.708 89.155.095"/>
        <path fill="#192133" d="M68.345 48.43h52.53v-5.709h-52.53z"/>
        <path fill="#192133" d="M53.431 77.55H28.445c-10.759 0-19.481-8.722-19.481-19.481V42.72h63.949v15.348c0 10.76-8.723 19.482-19.482 19.482"/>
        <path fill="#192133" d="M49.434 74.125H33.116c-10.76 0-19.481-8.722-19.481-19.482v-8.496h55.28v8.496c0 10.76-8.721 19.482-19.48 19.482M159.06 77.55h-24.985c-10.76 0-19.482-8.722-19.482-19.481V42.72h63.949v15.348c0 10.76-8.722 19.482-19.481 19.482"/>
        <path fill="#192133" d="M155.064 74.125h-16.318c-10.76 0-19.482-8.722-19.482-19.482v-8.496h55.281v8.496c0 10.76-8.722 19.482-19.481 19.482M26.093 52.999a4.568 4.568 0 1 1-9.136 0 4.568 4.568 0 0 1 9.136 0"/>
        <path fill="#192133" d="M132.864 52.999a4.568 4.568 0 1 1-9.136 0 4.568 4.568 0 0 1 9.136 0M153.402 137.556c0 26.664-25.508 48.28-56.972 48.28-31.465 0-56.972-21.616-56.972-48.28 0-26.663 25.507-48.278 56.972-48.278 31.464 0 56.972 21.615 56.972 48.278"/>
        <path fill="#192133" d="M68.15 121.018c4.168-5.983.493-11.22-7.737-8.68-5.865 1.812-20.169-.425-27.905-1.861a6.181 6.181 0 0 0-7.093 4.465c-4.326 16.001 5.15 23.856 6.705 24.238 5.423 1.334 31.861-12.18 36.03-18.162M202.311 90.871c2.981-6.655-1.606-11.116-9.218-7.085-5.425 2.872-19.895 3.339-27.764 3.37a6.181 6.181 0 0 0-6.137 5.709c-1.268 16.527 9.505 22.478 11.105 22.564 5.576.3 29.033-17.903 32.014-24.558M95.87 60.612c0 7.129-5.92 12.908-13.22 12.908-7.3 0-13.22-5.78-13.22-12.908 0-7.13 5.92-12.908 13.22-12.908 7.3 0 13.22 5.779 13.22 12.908"/>
        <path fill="#192133" d="M119.496 60.612c0 7.129-5.918 12.908-13.219 12.908-7.3 0-13.22-5.78-13.22-12.908 0-7.13 5.92-12.908 13.22-12.908 7.3 0 13.22 5.779 13.22 12.908"/>
        <path fill="#192133" fill-rule="nonzero" d="M86.014 52.331a.444.444 0 0 1-.045.888l-.049-.002a12.63 12.63 0 0 0-1.658.09 20.87 20.87 0 0 0-3.548.724c-3.503 1.026-6.987 2.92-10.245 5.901-6.568 6.009-11.447 15.694-13.915 29.801a.444.444 0 1 1-.876-.153c2.501-14.291 7.47-24.154 14.192-30.303 3.361-3.075 6.965-5.036 10.595-6.098a21.755 21.755 0 0 1 3.699-.755 13.485 13.485 0 0 1 1.78-.095l.07.002zM108.1 55.89a.444.444 0 0 1 .301-.837 18.394 18.394 0 0 1 1.008.426c.788.362 1.664.817 2.606 1.373 2.689 1.585 5.376 3.661 7.883 6.287 6.321 6.62 10.433 15.554 11.287 27.122a.444.444 0 1 1-.886.065c-.839-11.358-4.862-20.099-11.044-26.573-2.448-2.564-5.07-4.59-7.69-6.136a28.02 28.02 0 0 0-2.527-1.33 17.512 17.512 0 0 0-.938-.398zM86.182 56.049a.444.444 0 1 1 .51.728c-.138.096-.4.289-.77.576a43.151 43.151 0 0 0-2.052 1.711 52.544 52.544 0 0 0-6.24 6.565c-5.456 6.839-8.812 14.54-9.042 22.948a.444.444 0 1 1-.888-.024c.236-8.623 3.668-16.5 9.236-23.478a53.426 53.426 0 0 1 6.346-6.676 44.035 44.035 0 0 1 2.095-1.747 27.924 27.924 0 0 1 .805-.603z"/>
        <path fill="#192133" fill-rule="nonzero" d="M85.111 54.208a.444.444 0 1 1 .35.817 22.901 22.901 0 0 0-.939.45c-.756.385-1.6.856-2.511 1.415a42.91 42.91 0 0 0-7.64 5.982c-4.923 4.853-8.49 10.737-10.123 17.73a.444.444 0 1 1-.865-.203c1.674-7.167 5.328-13.195 10.365-18.16a43.791 43.791 0 0 1 7.798-6.106 36.88 36.88 0 0 1 2.574-1.45 23.783 23.783 0 0 1 .991-.475zM105.068 58.675a.444.444 0 0 1 .494-.739 24.274 24.274 0 0 1 .75.54c.59.443 1.246.967 1.951 1.573a46.867 46.867 0 0 1 5.906 6.086c3.398 4.204 5.974 8.888 7.396 14.02a.444.444 0 0 1-.856.237c-1.387-5.006-3.905-9.583-7.231-13.699a45.985 45.985 0 0 0-5.793-5.97 37.438 37.438 0 0 0-1.905-1.536 18.014 18.014 0 0 0-.712-.512z"/>
        <path fill="#192133" d="M109.573 52.868c0 6.317-6.443 11.437-14.391 11.437S80.79 59.185 80.79 52.868c0-6.316 6.444-11.436 14.392-11.436 7.948 0 14.391 5.12 14.391 11.436"/>
        <path fill="#192133" d="M93.967 60.877c0 .551-.567.999-1.267.999s-1.266-.448-1.266-.999c0-.551.567-.998 1.266-.998.7 0 1.267.447 1.267.998M99.164 60.877c0 .551-.567.999-1.267.999-.699 0-1.266-.448-1.266-.999 0-.551.567-.998 1.266-.998.7 0 1.267.447 1.267.998M40.712 29.174s-.344 15.83-18.049 7.96c0 0 5.714-16.11 18.05-7.96M51.177 15.961c-.08.855-1.457 2.558-3.022 4.546-1.09 1.384-2.102 3.42-3.61 3.244-1.638-.192-3.174-1.778-4.36-3.605-1.478-2.28-2.37-4.659-2.32-5.74.038-.853.092-2.449.76-3.065 1.405-1.3 2.846-.476 2.846-.476s.548-1.411 2.742-1.522c1.906-.094 3.232 1.709 3.232 1.709s1.171-.568 2.374.24c1.26.847 1.522 2.862 1.358 4.67"/>
        <path fill="#192133" d="M49.134 35.45c-.039-.858-.434-2.92-1.176-5.351-.517-1.693-.727-3.962-2.195-4.359-1.591-.428-3.593.48-5.355 1.743-2.196 1.574-3.883 3.46-4.226 4.482-.278.827-.676 2.237-.195 3.043.935 1.57 2.528 1.19 2.528 1.19s.466 1.685 2.67 2.28c1.405.38 2.951-.475 2.951-.475s.668 1.178 3.325.523c1.733-.429 1.733-1.759 1.673-3.075"/>
        <path fill="#192133" d="M57.172 25.218c-.668-.528-2.834-.678-5.335-.881-1.741-.143-3.895-.79-4.802.446-.984 1.34-.9 3.562-.399 5.691.623 2.654 1.721 4.945 2.529 5.647.733.639 2.355 1.739 3.634.604 1.094.502 2.74-.132 3.436-.86.968-1.015.668-2.51.668-2.51s1.713-1.296 2.049-2.243c.7-1.982-.004-4.487-1.78-5.894"/>
        <path fill="#192133" d="M49.164 13.215c-.543.658-1.353 2.615-2.173 5.02-.574 1.675-1.42 3.8-.47 5.001 1.034 1.302 1.916.921 5.027 1.643 2.619.608 5.146-.455 6.019-1.072 1.243-.88 2.145-3.252 1.712-5.148-.289-1.266-.749-2.613-2.418-3.147-.228-1.463-.354-1.987-1.071-2.533-.358-.271-1.875-.879-2.522-.532-1.014-1.416-2.455-1.228-4.104.768M38 16.759c.742.415 2.498 2.004 4.339 3.733 1.28 1.203 3.209 2.374 2.927 3.89-.187.998-.878 1.923-1.812 2.732-.605.524-1.239.98-1.976 1.399-2.348 1.331-4.822 2.08-5.88 1.954-1.016-.124-2.642-.642-3.062-1.732-.842-2.186-.156-3.358-.156-3.358s-.893-.897-.531-2.947c.438-2.471 1.905-2.82 1.905-2.82s-.395-1.257.75-2.344c.998-.951 2.316-1.172 3.496-.507"/>
        <path fill="#192133" d="M42.26 28.115c-1.844-.506-3.12-1.657-3.053-3.61 0-1.21.216-2.757 1.358-3.294.657-.328 1.956-.59 1.956-.59s-.8-2.82.628-3.678c.756-.461 2.183-.112 2.875.172.344.143 1.038.824 1.038.824s1.12-.41 1.65-.459c2.285.136 4.33 5.462 2.008 5.925 1.005.609 1.424 3.656.652 5.4-.42 1.054-1.446 1.764-2.595 1.922-.845.14-1.325-.23-1.699-.478-.281-.186-.674-.677-.674-.677s-.927 1.277-1.184 1.456c-.843.517-2.043.968-3.028.25-.652-.503-1.395-2.423.068-3.163"/>
        <path fill="#192133" d="M46.766 21.354c.938.18 2.24 1.86 1.944 3.451-.297 1.593-2.08 2.497-3.018 2.318-.94-.18-2.305-1.477-2.008-3.07.296-1.593 2.144-2.88 3.082-2.7"/>
        <path fill="#192133" d="M45.256 24.624l-.051-.074c-.015-.021-.034-.048-.054-.08-.028-.034-.056-.072-.09-.116a13.093 13.093 0 0 0-.255-.317c-.105-.12-.219-.258-.356-.401-.131-.147-.285-.298-.446-.46a15.9 15.9 0 0 0-.527-.486c-.193-.155-.385-.332-.597-.484l-.319-.239c-.108-.079-.22-.15-.33-.224-.114-.073-.222-.154-.338-.22l-.345-.202c-.226-.14-.462-.249-.688-.362-.225-.12-.455-.205-.67-.296-.108-.042-.212-.089-.316-.127l-.303-.098c-.195-.061-.371-.126-.533-.167l-.422-.1-.369-.087h-.005a.073.073 0 0 1-.054-.09.07.07 0 0 1 .073-.056s.14.005.385.017l.441.022c.171.01.362.043.573.069l.33.044c.11.019.226.046.346.07.238.053.492.096.748.178.257.074.527.143.79.244.133.05.267.097.402.147.133.049.263.11.396.166.133.059.267.112.398.174l.384.192c.259.122.495.271.736.402.233.143.46.281.669.422.207.143.404.278.578.413.18.13.337.26.477.375a9.76 9.76 0 0 1 .676.61c.344.343.35.906.012 1.256a.868.868 0 0 1-1.338-.103l-.008-.012z"/>
        <path fill="#192133" d="M39.965 20.576s.378-.07.431-.408l-.25-.046-.297.082.116.372z"/>
        <path fill="#192133" d="M38.444 18.863c-1.034-.198-1.946.044-2.04.541-.09.498.672 1.06 1.704 1.259 1.034.199 1.738.535 2.038-.541.136-.487-.668-1.061-1.702-1.26"/>
        <path fill="#192133" d="M39 20.607a.236.236 0 0 1 .185.276.23.23 0 0 1-.27.187c-.126-.023-.247-.078-.223-.206.024-.128.182-.28.308-.257M37.437 18.669a.234.234 0 0 1 .185.275.232.232 0 0 1-.272.188c-.126-.024-.246-.079-.22-.206.022-.13.181-.281.307-.257M39.692 20.161a.235.235 0 1 1-.085.462c-.126-.024-.247-.078-.223-.207.024-.126.184-.279.308-.255M39.617 19.302a.234.234 0 0 1 .184.275.23.23 0 0 1-.27.187c-.128-.024-.22-.213-.198-.34.025-.128.158-.146.284-.122M38.838 18.748a.236.236 0 0 1-.085.464c-.128-.024-.222-.213-.198-.34.022-.128.155-.148.283-.124M39.034 19.758c.128.024.21.146.186.275a.232.232 0 0 1-.272.187c-.125-.024-.221-.213-.197-.34.025-.128.157-.146.283-.122M36.72 18.986a.235.235 0 0 1 .184.274.232.232 0 0 1-.27.188c-.126-.024-.234-.152-.21-.28.023-.127.169-.206.296-.182M38.257 20.402a.235.235 0 0 1 .184.275.232.232 0 0 1-.272.187c-.125-.024-.22-.212-.197-.34.026-.128.159-.147.285-.122M38.349 19.437a.236.236 0 0 1 .185.275.233.233 0 0 1-.27.188c-.126-.025-.223-.213-.198-.342.023-.126.158-.146.283-.12M38.083 18.666a.238.238 0 0 1 .186.277.234.234 0 0 1-.271.186c-.127-.024-.222-.212-.199-.34.024-.128.158-.147.284-.123M37.524 20.198a.236.236 0 0 1 .185.276.23.23 0 0 1-.27.186c-.127-.024-.222-.21-.2-.34.025-.127.159-.146.285-.122M37.539 19.52a.235.235 0 0 1 .185.275.232.232 0 0 1-.27.189c-.127-.025-.221-.214-.198-.342.024-.127.157-.145.283-.121M36.772 19.702a.233.233 0 0 1 .184.274.232.232 0 0 1-.27.188c-.125-.023-.221-.213-.197-.34.025-.128.157-.146.283-.122M181.57 81.58l8.045 8.866a2.656 2.656 0 1 0 3.935-3.57l-.799-.881 14.453.967c1.74.116 3.423-.497 4.64-1.695A16.427 16.427 0 0 0 215.44 80a16.866 16.866 0 0 0 1.166-4.075 17.477 17.477 0 0 0-.556-7.725 17.876 17.876 0 0 0-1.134-2.856 18.376 18.376 0 0 0-7.946-8.085 17.913 17.913 0 0 0-2.837-1.183 17.505 17.505 0 0 0-7.711-.689 16.93 16.93 0 0 0-4.096 1.094h-.001a16.452 16.452 0 0 0-5.328 3.505 5.906 5.906 0 0 0-1.376 2.1 6.127 6.127 0 0 0-.398 2.51l.686 13.858-.403-.445a2.658 2.658 0 0 0-3.936 3.57M15.382 142.934s-3.938 33.461-13.381 65.028l20.935 2.825s10.544-35.451 12.435-62.275l-19.989-5.578z"/>
        <path fill="#192133" d="M33.958 152.16s-7.592 44.905-2.987 63.319l18.263.532s-.67-55.429 1.845-63.352l-17.121-.5z"/>
        <path fill="#192133" d="M50.592 149.788s-.41 33.69-6.494 66.073l21.116.615s6.772-36.361 5.84-63.236l-20.462-3.452z"/>
        <path fill="#192133" d="M69.41 150.908s-7.592 44.905-2.987 63.319l18.263.531s-.67-55.428 1.845-63.351l-17.122-.5z"/>
        <path fill="#192133" d="M85.39 151.373l-.183 65.114 18.313-1.18.737-64.527z"/>
        <path fill="#192133" d="M101.2 150.658l16.414-3.52s10.892 40.873 5.332 65.845l-18.175 1.755s2.15-53.06-3.57-64.08"/>
        <path fill="#192133" d="M118.12 145.472s.084 55.982 6.617 67.026l18.396-4.034s-6.948-55.612-6.65-65.885l-18.362 2.893z"/>
        <path fill="#192133" d="M133.533 140.148s7.48 34.639 9.335 69.176l19.938-3.982s-2.14-38.768-9.286-66.124l-19.987.93z"/>
        <path fill="#192133" d="M152.421 138.916s5.5 45.21 15.152 61.551l17.66-4.686s-16.413-52.947-16.256-61.26l-16.556 4.395z"/>
        <path fill="#192133" d="M181.302 127.686s4.239 33.424 13.446 64.987l-18.98 2.704s-10.283-35.447-12.53-62.234l18.064-5.457z"/>
        <path fill="#192133" d="M181.313 121.505s-69.81 38.357-168.275 19.37l1.42 8.033s88.006 20.226 167.083-19.54l-.228-7.863z"/>
    </g>
</svg>
