<svg xmlns="http://www.w3.org/2000/svg" xmlns:xlink="http://www.w3.org/1999/xlink" width="220" height="280" viewBox="0 0 220 280">
    <defs>
        <path id="a" d="M0 .227h208.744v71.896H0z"/>
    </defs>
    <g fill="none" fill-rule="evenodd">
        <g fill="#192133">
            <path d="M80.88 108.488c-.613-1.387 11.057-55.229-3.404-93.387C70.74-2.678 43.445-.96 45.72 20.833c2 19.159 35.776 89.043 35.162 87.655z"/>
            <path d="M79.454 92.258c0-.254.959-36.87-8.315-63.95-4.32-12.617-16.467-13.427-13.861 1.602 2.29 13.214 22.176 62.602 22.176 62.348z"/>
            <g>
                <path d="M137.12 108.488c.613-1.387-11.057-55.229 3.404-93.387 6.737-17.779 34.031-16.06 31.757 5.732-2 19.159-35.776 89.043-35.162 87.655z"/>
                <path d="M138.546 92.258c0-.254-.959-36.87 8.315-63.95 4.32-12.617 16.467-13.427 13.861 1.602-2.29 13.214-22.176 62.602-22.176 62.348z"/>
            </g>
        </g>
        <path fill="#192133" d="M109.43 183.681c-28.37 0-53.078 15.94-65.614 39.318a87.086 87.086 0 0 0 12.69 11.95c3.699 2.843 5.49 7.564 4.538 12.118a49.583 49.583 0 0 0-1.218 10.937c0 .664.018 1.324.043 1.981l.013.31c.028.633.07 1.265.122 1.893l.03.33c.058.643.127 1.285.21 1.926l.02.143c.09.665.19 1.329.306 1.99l.01.056c.118.671.252 1.341.398 2.007l.034.153c.149.669.312 1.335.49 1.998l.018.07c.37 1.377.8 2.738 1.29 4.078 1.405 3.853 5.673 5.839 9.534 4.435a7.42 7.42 0 0 0 4.885-7.193c1.538-16.391 15.356-29.222 32.179-29.222 16.826 0 30.644 12.833 32.18 29.227-.014.495.022.99.108 1.478a7.42 7.42 0 0 0 4.779 5.71c.84.305 1.7.45 2.544.45 3.037 0 5.89-1.871 6.988-4.885a49.188 49.188 0 0 0 1.286-4.064l.026-.096c.175-.654.336-1.313.484-1.975a50.357 50.357 0 0 0 .433-2.163l.015-.088c.113-.646.212-1.294.298-1.944l.025-.176a50.867 50.867 0 0 0 .36-4.126c.006-.113.01-.227.014-.34a51.34 51.34 0 0 0 .042-1.946v-.017c0-.546-.011-1.089-.03-1.63l-1.09-9.029c-.016-.07-.028-.143-.045-.214-1.017-4.552.735-9.303 4.439-12.145a87.082 87.082 0 0 0 12.765-12.02c-12.542-23.36-37.241-39.285-65.598-39.285"/>
        <g transform="translate(5.166 123.558)">
            <mask id="b" fill="#fff">
                <use xlink:href="#a"/>
            </mask>
            <path fill="#192133" d="M199.504 71.114c5.11 3.35 11.343-2.262 8.547-7.69C188.724 25.9 149.554.228 104.372.228S20.021 25.899.692 63.423c-2.794 5.428 3.439 11.04 8.548 7.69 27.32-17.907 60.007-28.325 95.132-28.325 35.126 0 67.813 10.418 95.132 28.325" mask="url(#b)"/>
        </g>
        <path fill="#192133" d="M109.725 252.809c16.945 0 32.752-4.854 46.112-13.237a87.172 87.172 0 0 0 19.508-16.706c13.176-15.189 21.148-34.998 21.148-56.666 0-54.666-38.848-111.353-86.768-111.353-47.921 0-86.768 56.687-86.768 111.353 0 21.683 7.983 41.505 21.175 56.698a87.167 87.167 0 0 0 19.515 16.696c13.353 8.37 29.147 13.215 46.078 13.215z"/>
        <path fill="#192133" d="M168.947 185.933c0 27.332-26.638 49.49-59.499 49.49-32.859 0-59.497-22.158-59.497-49.491s26.638-49.49 59.497-49.49c32.86 0 59.499 22.157 59.499 49.49M51.942 104.51c0 4.099-3.33 7.423-7.437 7.423s-7.438-3.324-7.438-7.424c0-4.1 3.33-7.423 7.438-7.423 4.107 0 7.437 3.323 7.437 7.423M179.55 104.51c0 4.099-3.33 7.423-7.438 7.423-4.107 0-7.437-3.324-7.437-7.424 0-4.1 3.33-7.423 7.437-7.423 4.108 0 7.438 3.323 7.438 7.423"/>
        <path fill="#192133" d="M50.69 104.5c0 3.415-2.775 6.185-6.198 6.185-3.423 0-6.198-2.77-6.198-6.186a6.191 6.191 0 0 1 6.198-6.186 6.191 6.191 0 0 1 6.198 6.186M178.297 104.5c0 3.415-2.775 6.185-6.198 6.185-3.423 0-6.197-2.77-6.197-6.186a6.191 6.191 0 0 1 6.197-6.186 6.191 6.191 0 0 1 6.198 6.186"/>
        <g fill="#192133">
            <path d="M102.197 109.816h4.322a1 1 0 0 1 1 1v6.672a2.309 2.309 0 0 1-2.29 2.309l-1.46.012a1 1 0 0 1-.99-.808l-1.564-7.993a1 1 0 0 1 .982-1.192z"/>
            <path d="M112.46 109.816h-4.31a1 1 0 0 0-1 1.013l.09 6.764a2.253 2.253 0 0 0 2.253 2.223h1.4a1 1 0 0 0 .982-.808l1.566-8a1 1 0 0 0-.982-1.192z"/>
            <path d="M108.51 105.788c0 7.517-6.106 13.61-13.636 13.61-7.53 0-13.635-6.093-13.635-13.61 0-7.517 6.105-13.61 13.635-13.61 7.53 0 13.635 6.093 13.635 13.61"/>
            <path d="M133.663 105.788c0 7.517-6.105 13.61-13.635 13.61-7.531 0-13.635-6.093-13.635-13.61 0-7.517 6.104-13.61 13.635-13.61 7.53 0 13.635 6.093 13.635 13.61M81.122 131.977h-.496c0-16.47 11.65-34.891 27.242-34.891v.495c-12.626 0-26.746 14.71-26.746 34.396"/>
            <path d="M138.804 127.048h-.495c0-18.27-16.23-31.921-30.742-31.921-14.51 0-30.74 13.65-30.74 31.92h-.496c0-15.301 13.359-32.415 31.236-32.415 8.145 0 15.991 3.638 22.096 10.242 5.81 6.287 9.14 14.369 9.141 22.174"/>
            <path d="M145.064 132.018h-.495c0-9.47-3.947-19.282-10.829-26.92-7.22-8.012-16.492-12.425-26.11-12.425-9.618 0-18.89 4.413-26.11 12.425-6.881 7.638-10.829 17.45-10.829 26.92h-.495c0-18.806 16.009-39.84 37.434-39.84 9.76 0 19.164 4.471 26.479 12.59 6.963 7.726 10.955 17.659 10.955 27.25"/>
            <path d="M122.645 97.189c0 6.833-6.66 12.372-14.875 12.372s-14.874-5.54-14.874-12.372c0-6.833 6.66-12.373 14.874-12.373 8.215 0 14.875 5.54 14.875 12.373"/>
            <path fill-rule="nonzero" d="M105.804 106.092c0 .57-.555 1.03-1.239 1.03-.685 0-1.24-.46-1.24-1.03 0-.57.555-1.03 1.24-1.03.684 0 1.239.46 1.239 1.03m6.446 0c0 .57-.555 1.03-1.24 1.03-.684 0-1.239-.46-1.239-1.03 0-.57.555-1.03 1.24-1.03.684 0 1.239.46 1.239 1.03"/>
        </g>
    </g>
</svg>
