<svg xmlns="http://www.w3.org/2000/svg" xmlns:xlink="http://www.w3.org/1999/xlink" width="280" height="250" viewBox="0 0 280 250">
    <defs>
        <path id="a" d="M.05.437h40.636v24.9H.05z"/>
    </defs>
    <g fill="none" fill-rule="evenodd">
        <path fill="#192133" d="M163.95 211.327l-30.38 33.05c-3.722 4.05-10.063 4.385-14.16.748-4.099-3.637-4.403-9.869-.68-13.92l3.017-3.282-54.542 3.866c-6.567.464-12.914-1.78-17.508-6.199a60.495 60.495 0 0 1-13.557-19.473 61.475 61.475 0 0 1-4.386-15.098c-1.47-9.385-.804-19.187 2.114-28.666 1.1-3.6 2.524-7.151 4.283-10.617a68.743 68.743 0 0 1 12.597-17.393 69.787 69.787 0 0 1 17.408-12.757 68.751 68.751 0 0 1 10.709-4.446c9.576-3.067 19.525-3.94 29.101-2.7 5.31.685 10.5 2.017 15.454 3.977l.004.004c7.371 2.92 14.208 7.236 20.093 12.897a21.748 21.748 0 0 1 5.19 7.767 22.39 22.39 0 0 1 1.497 9.305l-2.62 51.425 1.525-1.66c3.723-4.05 10.064-4.384 14.162-.747 4.098 3.637 4.402 9.869.68 13.92"/>
        <g transform="translate(217.36 120.56)">
            <mask id="b" fill="#fff">
                <use xlink:href="#a"/>
            </mask>
            <path fill="#192133" d="M.05.437c4.373 4.986 9.882 9.99 16.611 11.297 3.892.756 7.661-.05 11.288-1.486 2.19-.867 4.336-1.761 6.749-1.733 2.797.034 5.439 1.464 5.912 4.399.385 2.388-.731 4.93-2.392 6.612-2.391 2.422-5.706 3.929-8.913 4.934-5.914 1.853-11.972.691-17.097-2.743-4.76-3.189-8.88-8.448-10.81-14.821C.757 4.78.43 2.6.05.437" mask="url(#b)"/>
        </g>
        <path fill="#192133" d="M58.184 127.57s-13.195 2.97-7.091 8.82c6.102 5.85 14.114 2.904 14.114 2.904l-7.023-11.724zM124.608 53s4.109-12.868 9.413-6.277c5.304 6.59 1.67 14.301 1.67 14.301L124.607 53zM191.745 204.015l19.532-23.154c-1.503 5.27 4.3 7.14 7.933 9.052 3.696 1.945 6.716 5.375 8.368 9.202 2.088 4.836 4.427 13.404-3.372 16.355-2.22.84-4.532.27-6.43-1-4.633-3.096-9.545-6.101-14.86-7.882 0 0-5.601-2.82-11.17-2.573"/>
        <path fill="#192133" d="M227.311 154.497c.095-.354.188-.708.278-1.063 8.167-32.17-6.637-59.943-33.464-77.75-10.377-6.888-21.801-12.198-33.584-16.188-11.652-3.945-23.248-7.085-34.486-8.292-20.446-2.195-39.712 2.004-55.994 19.382-16.505 17.616-20.819 41.44-13.556 65.19 8.586 28.081 26.62 59.022 52.744 74.282 18.73 10.94 41.395 12.218 60.989 5.224 27.172-9.7 49.554-32.771 57.073-60.785"/>
        <path fill="#192133" d="M197.865 112.755c18.196 17.05 16.638 48.278-3.481 69.751-20.12 21.474-51.18 25.061-69.377 8.012-18.197-17.049-16.639-48.277 3.48-69.751 20.12-21.474 51.181-25.06 69.378-8.012M108.566 102.82c4.865 4.559 5.025 12.293.356 17.275-4.668 4.983-12.396 5.327-17.262.769-4.865-4.559-5.024-12.293-.356-17.276 4.668-4.983 12.397-5.327 17.262-.768"/>
        <path fill="#192133" d="M123.674 86.695c4.865 4.559 5.024 12.293.356 17.276-4.668 4.983-12.397 5.327-17.262.768s-5.025-12.293-.356-17.276c4.668-4.983 12.397-5.326 17.262-.768"/>
        <path stroke="#192133" stroke-linecap="round" d="M96.901 104.55s-15.658 15.079 6.067 43.972M112.975 91.083S131.1 81.84 151.12 98M99.668 106.573s-2.87 20.06 10.246 33.042M97.707 106.209s-5.944 16.4 3.936 31.204M113.032 94.899s13.094-3.046 25.108 3.248"/>
        <path fill="#192133" d="M112.044 88.516c4.31 4.038 3.685 11.71-1.397 17.135-5.082 5.425-12.698 6.547-17.008 2.509-4.31-4.039-3.685-11.71 1.397-17.135 5.082-5.425 12.698-6.548 17.008-2.51"/>
        <path fill="#192133" d="M107.166 104.678c.376.352.318 1.025-.13 1.502-.447.478-1.114.58-1.49.227-.376-.353-.32-1.026.128-1.503.448-.478 1.115-.579 1.492-.226M110.489 101.13c.376.353.319 1.026-.129 1.503-.447.478-1.115.58-1.491.227-.376-.353-.319-1.026.128-1.503.448-.478 1.115-.579 1.492-.226M147.36 53.847c2.596 2.432 2.8 6.433.456 8.935-2.343 2.502-6.349 2.558-8.946.125-2.597-2.433-2.802-6.434-.458-8.936 2.345-2.502 6.35-2.558 8.947-.124"/>
        <path fill="#192133" d="M146.678 54.573c2.18 2.043 2.352 5.402.385 7.503-1.969 2.1-5.332 2.147-7.512.104-2.18-2.043-2.352-5.401-.384-7.502 1.968-2.1 5.33-2.148 7.511-.105M67.647 140.944c2.597 2.433 2.802 6.434.457 8.936-2.343 2.502-6.35 2.557-8.946.125-2.597-2.433-2.802-6.434-.457-8.936 2.344-2.502 6.35-2.558 8.946-.125"/>
        <path fill="#192133" d="M66.966 141.67c2.18 2.044 2.353 5.402.385 7.503-1.969 2.1-5.332 2.148-7.512.105-2.18-2.043-2.352-5.402-.384-7.503 1.968-2.1 5.331-2.147 7.511-.104M226.74 156.706s19.013 13.127 9.022 30.734c-5.826 10.268-12.791 1.248-13.874-4.868-.413-2.337-2.22-4.334-4.528-5l-5.876-1.699 15.256-19.167zM79.256 177.65a6.49 6.49 0 0 1-3.722.454c-3.08-.573-2.97-4.763-3.357-7.538-.238-1.705-1.377-2.688-3.574-2.836-2.859-.192-4.549 1.435-5.668 3.949-1.177 2.641-1.604 5.66-1.332 8.532 1.07 11.265 9.415 19.21 18.62 19.323 1.67.02 9.46.247 14.15-3.852L79.255 177.65"/>
        <path fill="#192133" d="M54.161 186.058s20.292 1.602 36.845 18.423l-27.42 6.14-9.425-24.563zM59.036 186.869s15.313 2.477 28.766 14.675"/>
        <path stroke="#192133" stroke-linecap="round" stroke-width="2" d="M59.036 186.869s15.313 2.477 28.766 14.675"/>
        <path fill="#192133" d="M191.947 39.748L177.649 28l3.25 14.952z"/>
        <path fill="#192133" d="M167.9 46.155l8.448 26.7 24.124-6.217-8.525-26.89zM167.9 46.155l24.028-6.407-.534-.534L167.9 45.62z"/>
        <path fill="#192133" d="M188.218 73.06c1.264.066 6.914-3.943 4.469-9.59-.81-1.873-.59-3.24 1.3-4.247 2.459-1.31 5.101-.336 7.834 1.751 2.87 2.194 5.32 5.06 7.035 8.053 6.726 11.734 4.594 22.978-3.67 26.69-1.497.674-8.4 3.946-15.448 1.662l-1.52-24.32"/>
    </g>
</svg>
