<svg xmlns="http://www.w3.org/2000/svg" xmlns:xlink="http://www.w3.org/1999/xlink" width="220" height="250" viewBox="0 0 220 250">
    <defs>
        <path id="a" d="M.337.21h55.855v59.953H.337z"/>
    </defs>
    <g fill="none" fill-rule="evenodd">
        <path fill="#192133" d="M110.155 153.681c-28.371 0-53.079 15.94-65.615 39.318a87.086 87.086 0 0 0 12.69 11.95c3.699 2.843 5.49 7.564 4.537 12.118a49.583 49.583 0 0 0-1.217 10.937c0 .664.018 1.324.043 1.981l.013.31c.028.633.07 1.265.122 1.893l.03.33c.057.643.127 1.285.21 1.926l.02.143c.09.665.19 1.329.306 1.99l.01.056c.117.671.252 1.341.398 2.007l.034.153c.149.669.312 1.335.49 1.998l.018.07c.37 1.377.8 2.738 1.29 4.078 1.405 3.853 5.673 5.839 9.533 4.435a7.42 7.42 0 0 0 4.886-7.193c1.538-16.391 15.356-29.222 32.179-29.222 16.826 0 30.644 12.833 32.18 29.227-.014.495.022.99.108 1.478a7.42 7.42 0 0 0 4.779 5.71c.84.305 1.7.45 2.544.45 3.037 0 5.89-1.871 6.988-4.885a49.188 49.188 0 0 0 1.286-4.064l.026-.096c.175-.654.336-1.313.484-1.975a50.36 50.36 0 0 0 .433-2.163l.015-.088a47.025 47.025 0 0 0 .323-2.12 50.863 50.863 0 0 0 .36-4.126c.006-.113.01-.227.014-.34.025-.647.041-1.296.042-1.946v-.017c0-.546-.012-1.089-.03-1.63l-1.09-9.029c-.016-.07-.028-.143-.045-.214-1.017-4.552.734-9.303 4.439-12.145a87.082 87.082 0 0 0 12.765-12.02c-12.543-23.36-37.241-39.285-65.598-39.285"/>
        <g fill="#192133">
            <path d="M92.274 29.18S87.468 7.442 71.092 5.98c0 0 2.6 2.537 3.166 5.73 0 0-16.07-9.13-27.614 3.682 0 0 5.289-1.487 6.993-.46 0 0-14.7 7.026-17.885 22.145 0 0 4.318-3.84 6.58-4.455 0 0-13.007 16.662 3.69 32.344l46.252-35.787z"/>
            <path d="M82.57 32.935s-8.188-18.495-22.778-9.59c-14.59 8.905-16.047 26.144-4.715 30.285C66.408 57.77 82.57 32.935 82.57 32.935"/>
        </g>
        <g transform="translate(130.062 6.686)">
            <mask id="b" fill="#fff">
                <use xlink:href="#a"/>
            </mask>
            <path fill="#192133" d="M.337 22.789S6.272 1.149 22.654.209c0 0-2.722 2.46-3.457 5.645 0 0 16.484-8.637 27.298 4.582 0 0-5.186-1.662-6.937-.687 0 0 14.262 7.518 16.634 22.781 0 0-4.097-3.99-6.316-4.68 0 0 12.068 17.127-5.387 32.313L.337 22.79z" mask="url(#b)"/>
        </g>
        <path fill="#192133" d="M137.704 34.391s9.131-18.281 23.185-8.881c14.054 9.4 14.592 26.732 3.091 30.519-11.5 3.787-26.276-21.638-26.276-21.638M205.393 164.445c5.11 3.35 11.343-2.262 8.548-7.69-19.327-37.525-58.497-63.197-103.679-63.197S25.91 119.231 6.582 156.755c-2.795 5.427 3.438 11.04 8.548 7.69 27.32-17.908 60.006-28.325 95.132-28.325 35.125 0 67.812 10.417 95.131 28.325"/>
        <path fill="#192133" d="M64.372 209.594c13.352 8.37 29.146 13.215 46.077 13.215 16.945 0 32.752-4.854 46.112-13.237a87.172 87.172 0 0 0 19.508-16.706c13.176-15.189 21.148-34.998 21.148-56.666 0-54.666-38.848-111.353-86.769-111.353-47.92 0-86.767 56.687-86.767 111.353 0 21.683 7.983 41.505 21.175 56.698a87.167 87.167 0 0 0 19.515 16.696"/>
        <path fill="#192133" d="M169.67 155.933c0 27.332-26.637 49.49-59.498 49.49-32.86 0-59.497-22.158-59.497-49.491s26.638-49.49 59.497-49.49c32.86 0 59.499 22.157 59.499 49.49"/>
        <g fill="#192133">
            <path d="M112.404 80.788c0 7.517-6.105 13.61-13.635 13.61-7.53 0-13.635-6.093-13.635-13.61 0-7.517 6.105-13.61 13.635-13.61 7.53 0 13.635 6.093 13.635 13.61"/>
            <path d="M137.558 80.788c0 7.517-6.105 13.61-13.635 13.61-7.531 0-13.635-6.093-13.635-13.61 0-7.517 6.104-13.61 13.635-13.61 7.53 0 13.635 6.093 13.635 13.61M85.017 106.977h-.496c0-16.47 11.65-34.891 27.242-34.891v.495c-12.626 0-26.746 14.71-26.746 34.396"/>
            <path d="M142.7 102.048h-.496c0-18.27-16.23-31.921-30.741-31.921s-30.74 13.65-30.74 31.92h-.497c0-15.301 13.359-32.415 31.237-32.415 8.144 0 15.99 3.638 22.095 10.242 5.81 6.287 9.14 14.369 9.141 22.174"/>
            <path d="M148.96 107.018h-.496c0-9.47-3.947-19.282-10.828-26.92-7.22-8.012-16.493-12.425-26.11-12.425-9.619 0-18.892 4.413-26.111 12.425-6.881 7.638-10.828 17.45-10.828 26.92h-.496c0-18.806 16.009-39.84 37.434-39.84 9.76 0 19.164 4.471 26.479 12.59 6.963 7.726 10.956 17.659 10.956 27.25"/>
            <path d="M126.54 72.189c0 6.833-6.66 12.372-14.875 12.372s-14.874-5.54-14.874-12.372c0-6.833 6.66-12.373 14.874-12.373 8.215 0 14.875 5.54 14.875 12.373"/>
            <path fill-rule="nonzero" d="M109.7 81.092c0 .57-.556 1.03-1.24 1.03-.685 0-1.24-.46-1.24-1.03 0-.57.555-1.03 1.24-1.03.684 0 1.239.46 1.239 1.03m6.446 0c0 .57-.555 1.03-1.24 1.03-.684 0-1.239-.46-1.239-1.03 0-.57.555-1.03 1.24-1.03.684 0 1.239.46 1.239 1.03"/>
        </g>
        <path fill="#192133" d="M48.875 72.423c0 4.1-3.33 7.424-7.438 7.424-4.107 0-7.437-3.324-7.437-7.424 0-4.1 3.33-7.423 7.437-7.423 4.108 0 7.438 3.323 7.438 7.423M188.875 72.423c0 4.1-3.33 7.424-7.438 7.424-4.107 0-7.437-3.324-7.437-7.424 0-4.1 3.33-7.423 7.437-7.423 4.108 0 7.438 3.323 7.438 7.423"/>
        <path fill="#192133" d="M47.395 72.187c0 3.415-2.775 6.185-6.197 6.185-3.424 0-6.198-2.77-6.198-6.185A6.191 6.191 0 0 1 41.198 66a6.191 6.191 0 0 1 6.197 6.187M187.395 72.187c0 3.415-2.775 6.185-6.197 6.185-3.424 0-6.198-2.77-6.198-6.185A6.191 6.191 0 0 1 181.198 66a6.191 6.191 0 0 1 6.197 6.187"/>
    </g>
</svg>
