<svg xmlns="http://www.w3.org/2000/svg" xmlns:xlink="http://www.w3.org/1999/xlink" width="280" height="270" viewBox="0 0 280 270">
    <defs>
        <path id="a" d="M.48.33h29.653v30.986H.48z"/>
        <path id="c" d="M.35.294h154.606v176.492H.35z"/>
    </defs>
    <g fill="none" fill-rule="evenodd">
        <g fill="#192133">
            <path d="M40.05 125.002l17.654-.928c1.375-.072 2.481-1.267 2.519-2.72 1.187-45.946 36.21-83.73 79.733-86.02a77.519 77.519 0 0 1 20.171 1.57c16.953 3.603 31.997 12.68 43.506 26.247 11.69 13.782 18.603 30.936 19.99 49.61.089 1.199.895 2.162 2.007 2.398.208.045.422.061.637.05l17.657-.93a2.609 2.609 0 0 0 1.847-.94c.474-.559.717-1.304.667-2.043-1.859-28.393-13.891-54.353-33.881-73.096-13.411-12.573-29.785-21.193-47.355-24.928a99.17 99.17 0 0 0-25.824-2.009c-27.14 1.427-52.604 13.7-71.7 34.558-19.04 20.794-29.795 47.953-30.285 76.472a2.769 2.769 0 0 0 .762 1.967c.35.354.781.593 1.254.693.213.046.428.062.642.049z"/>
            <path d="M47.195 128.574c.234.05.474.068.71.051l19.819-1.237c1.503-.093 2.74-1.455 2.814-3.1 1.855-40.666 32.452-74.34 69.656-76.663a64.173 64.173 0 0 1 17.326 1.264c30.063 6.39 51.995 33.14 54.574 66.563.105 1.353.987 2.436 2.197 2.693.234.05.476.067.718.05l19.816-1.238c.783-.048 1.536-.452 2.065-1.108.527-.65.8-1.514.745-2.368-1.458-22.784-9.44-43.664-23.087-60.38-13.433-16.45-31.077-27.389-51.026-31.629a87.88 87.88 0 0 0-23.761-1.725c-51.315 3.204-92.946 49.658-94.776 105.761-.026.856.271 1.684.818 2.27.381.41.863.684 1.392.796"/>
            <path d="M57.517 129.564c.212.045.429.062.643.05l17.933-.937c1.36-.07 2.47-1.251 2.526-2.686 1.386-35.487 28.844-64.662 62.51-66.423a60.413 60.413 0 0 1 15.694 1.229c27.262 5.795 47.311 29.304 49.887 58.5.104 1.182.91 2.133 2.008 2.367.213.045.432.061.65.048l17.932-.938a2.62 2.62 0 0 0 1.862-.952 2.897 2.897 0 0 0 .657-2.061c-1.484-19.9-8.862-38.185-21.337-52.876-12.28-14.458-28.332-24.133-46.423-27.979a82.73 82.73 0 0 0-21.524-1.677c-46.434 2.427-83.789 42.68-85.041 91.643a2.771 2.771 0 0 0 .756 1.987c.348.36.787.603 1.267.705"/>
            <path d="M66.278 131.597c.188.04.38.054.57.042l15.913-.9c1.206-.067 2.195-1.134 2.248-2.427 1.34-31.978 25.788-58.349 55.66-60.038a52.71 52.71 0 0 1 13.92 1.058c24.167 5.137 41.88 26.257 44.076 52.554.09 1.065.802 1.92 1.774 2.126.189.04.383.055.577.042l15.91-.9a2.33 2.33 0 0 0 1.655-.863c.421-.51.638-1.189.59-1.86-1.256-17.926-7.744-34.377-18.766-47.574-10.85-12.989-25.06-21.657-41.098-25.066a72.181 72.181 0 0 0-19.09-1.444c-41.2 2.33-74.463 38.712-75.725 82.83a2.502 2.502 0 0 0 .664 1.788c.308.323.696.541 1.122.632"/>
            <path d="M77.474 132.705c.19.04.383.055.576.043l13.89-.717c1.208-.062 2.194-1.108 2.242-2.38 1.056-27.276 22.196-49.693 48.127-51.034 4.07-.21 8.138.109 12.089.949 21.001 4.464 36.453 22.543 38.447 44.987.093 1.046.81 1.89 1.786 2.097.189.04.382.055.577.043l13.893-.719a2.325 2.325 0 0 0 1.654-.844 2.55 2.55 0 0 0 .581-1.826c-2.357-31.364-23.56-56.608-52.762-62.815a64.536 64.536 0 0 0-16.75-1.31c-36.136 1.868-65.192 33.116-66.149 71.14a2.446 2.446 0 0 0 .674 1.762c.308.317.697.533 1.125.624"/>
            <path d="M86.414 134.94c.16.034.322.047.484.037l11.673-.61c1.015-.052 1.844-.933 1.885-2.004.897-22.968 18.67-41.851 40.463-42.99 3.42-.178 6.839.088 10.158.794 17.648 3.751 30.626 18.97 32.293 37.866.078.881.68 1.591 1.5 1.765a1.8 1.8 0 0 0 .485.037l11.675-.61a1.955 1.955 0 0 0 1.39-.713c.353-.418.533-.98.49-1.537-1.97-26.409-19.779-47.657-44.316-52.873a54.118 54.118 0 0 0-14.076-1.097c-30.367 1.587-54.796 27.91-55.614 59.927a2.06 2.06 0 0 0 .565 1.483c.259.267.585.45.945.526"/>
        </g>
        <path fill="#192133" d="M207.738 167.894c-13.481 0-28.987-2.564-31.168-8.194-3.507-9.056 10.731-41.248 54.287-62.515 10.12-4.24 18.23-6.367 24.189-6.367 5.254 0 8.894 1.589 11.127 4.86 1.408 2.06 1.768 4.7 1.015 7.431-1.916 6.95-10.574 14.547-25.78 22.644 5.155.23 7.445 2.548 8.461 4.51 1.113 2.14 1.057 4.535-.159 6.92-2.06 4.04-7.35 7.68-12.025 9.736 2.126 1.284 3.914 3.408 4.014 6.737.072 2.402-.82 4.575-2.65 6.461-7.004 7.216-25.737 7.777-31.31 7.777M77.567 174.326s.002 0 0 0c-6.107 0-26.635-.614-34.309-8.523-2.005-2.065-2.982-4.447-2.904-7.078.109-3.65 2.068-5.976 4.398-7.383-5.123-2.253-10.921-6.241-13.177-10.668-1.334-2.615-1.394-5.238-.176-7.586 1.115-2.148 3.627-4.688 9.272-4.94-16.66-8.872-26.147-17.196-28.249-24.812-.826-2.994-.431-5.886 1.113-8.145 2.448-3.584 6.437-5.325 12.194-5.325 6.53 0 15.414 2.332 26.41 6.933 47.824 23.349 63.427 58.625 59.584 68.548-2.39 6.169-19.38 8.98-34.156 8.98M110.118 210.335c-3.412 6.929-8.094 14.22-15.266 17.724-4.149 2.027-8.63 2.26-13.144 1.741-2.723-.314-5.407-.67-8.112.092-3.135.882-5.674 3.29-5.32 6.732.29 2.802 2.313 5.323 4.69 6.714 3.42 2 7.603 2.693 11.514 2.854 7.21.297 13.671-2.84 18.397-8.252 4.388-5.025 7.432-12.185 7.677-19.935.082-2.573-.21-5.122-.436-7.67M95.872 98.334s-10.842-7.361-10.935.83c-.093 8.19 7.298 11.903 7.298 11.903l3.637-12.733zM192.601 95.9s11.82-5.619 10.674 2.497c-1.146 8.116-9.006 10.655-9.006 10.655L192.601 95.9z"/>
        <g transform="translate(140.825 239.39)">
            <mask id="b" fill="#fff">
                <use xlink:href="#a"/>
            </mask>
            <path fill="#192133" d="M30.133 1.652c-1.158 1.313-3.058 4.829-3.57 6.474-1.677 5.396-2.06 11.236-2.22 16.85-.181 6.315-6.19 7.648-11.098 5.166C6.144 26.55 3.237 18.107 4.332 10.577 4.928 6.483 5.838 1.665.48.33" mask="url(#b)"/>
        </g>
        <path fill="#192133" d="M153.264 236.749l-1.159.522c-4.84 2.183-2.594 7.649-1.738 11.532.871 3.952.223 8.332-1.577 11.948-2.273 4.569-8.617 10.539-14.213 7.731-2.054-1.03-3.033-3.185-3.28-5.383-.607-5.366-1.455-10.88-3.46-15.928-.87-2.19-2.016-4.54-3.919-6.026-2.009-1.569-1.2-1.433-3.574-1.467"/>
        <g transform="translate(69.105 68.368)">
            <mask id="d" fill="#fff">
                <use xlink:href="#c"/>
            </mask>
            <path fill="#192133" d="M119.891 167.067c.313-.167.625-.336.935-.507 28.157-15.538 37.986-44.404 32.806-75.167-2.004-11.901-5.817-23.496-10.803-34.471-4.929-10.853-10.39-21.13-16.983-29.877C113.854 11.134 98.122.294 75.05.294c-23.39 0-43.092 12.732-55.074 33.6C5.808 58.57-4.122 91.817 2.395 120.398c4.671 20.492 18.782 37.363 36.708 46.583 24.859 12.788 55.999 13.329 80.788.087" mask="url(#d)"/>
        </g>
        <path fill="#192133" d="M144.632 66.526c-12.209 0-22.106-2.68-22.106-5.987 0-3.306 9.897-5.986 22.106-5.986 12.208 0 22.105 2.68 22.105 5.986 0 3.307-9.897 5.987-22.105 5.987zm0-5.526c8.139 0 14.736-1.03 14.736-2.303 0-1.271-6.597-2.302-14.736-2.302-8.14 0-14.737 1.03-14.737 2.302S136.493 61 144.632 61zM198.88 187.283c0 24.16-23.113 43.746-51.624 43.746-28.512 0-51.624-19.586-51.624-43.746 0-24.16 23.112-43.747 51.624-43.747 28.51 0 51.624 19.586 51.624 43.747M248.697 168.806c4.367-4.959 1.595-10.052-6.075-8.607-5.467 1.03-18.115-2.451-24.933-4.537a5.601 5.601 0 0 0-6.844 3.293c-5.535 13.963 2.19 22.005 3.552 22.51 4.746 1.756 29.935-7.7 34.3-12.659M44.678 167.772c-2.286-4.31.852-8.054 6.284-6.857 4.068.896 14.006-1.439 19.188-2.808 2.084-.55 4.602.508 5.878 2.543 8.235 13.125 2.279 22.667.876 23.263-5 2.126-29.595-11.182-32.226-16.14M146.748 117.561c0 6.46-5.363 11.697-11.979 11.697-6.615 0-11.978-5.237-11.978-11.697 0-6.46 5.363-11.697 11.978-11.697 6.616 0 11.979 5.237 11.979 11.697"/>
        <path fill="#192133" d="M168.157 117.561c0 6.46-5.362 11.697-11.979 11.697-6.615 0-11.978-5.237-11.978-11.697 0-6.46 5.363-11.697 11.978-11.697 6.617 0 11.979 5.237 11.979 11.697"/>
        <path fill="#192133" fill-rule="nonzero" d="M137.818 110.055a.405.405 0 1 1-.042.81l-.044-.002c-.346-.009-.855.01-1.502.082-.989.11-2.068.32-3.214.656-3.174.929-6.33 2.646-9.282 5.346-5.952 5.444-10.373 14.22-12.61 27.002a.405.405 0 0 1-.798-.14c2.266-12.95 6.769-21.888 12.86-27.46 3.047-2.786 6.313-4.563 9.602-5.526a19.716 19.716 0 0 1 3.352-.683c.685-.076 1.231-.097 1.614-.087l.064.002zM157.829 113.284a.405.405 0 0 1 .275-.762 16.669 16.669 0 0 1 .913.386c.714.328 1.509.74 2.363 1.244a33.256 33.256 0 0 1 7.143 5.697c5.728 6 9.454 14.095 10.228 24.578a.405.405 0 1 1-.808.06c-.76-10.292-4.405-18.212-10.006-24.078a32.45 32.45 0 0 0-6.969-5.56c-.83-.488-1.6-.888-2.288-1.204-.41-.188-.701-.306-.851-.36zM137.968 113.424a.405.405 0 0 1 .464.664c-.124.087-.361.262-.696.523-.56.436-1.185.954-1.86 1.55a47.606 47.606 0 0 0-5.653 5.947c-4.944 6.197-7.985 13.174-8.193 20.793a.405.405 0 0 1-.81-.022c.214-7.815 3.324-14.952 8.37-21.276a48.41 48.41 0 0 1 5.75-6.05 39.902 39.902 0 0 1 1.898-1.582 25.305 25.305 0 0 1 .73-.547z"/>
        <path fill="#192133" fill-rule="nonzero" d="M136.999 111.756a.405.405 0 1 1 .32.745 20.752 20.752 0 0 0-.85.408c-.687.349-1.453.775-2.278 1.282a38.883 38.883 0 0 0-6.922 5.421c-4.461 4.397-7.693 9.728-9.172 16.063a.405.405 0 0 1-.79-.184c1.517-6.495 4.829-11.958 9.393-16.456a39.688 39.688 0 0 1 7.067-5.534 33.424 33.424 0 0 1 2.333-1.315 21.556 21.556 0 0 1 .899-.43zM155.081 115.808a.405.405 0 1 1 .45-.674 22 22 0 0 1 .68.49c.535.4 1.13.876 1.769 1.425a42.473 42.473 0 0 1 5.352 5.515c3.079 3.81 5.414 8.054 6.702 12.704a.405.405 0 1 1-.78.217c-1.257-4.535-3.539-8.683-6.553-12.411a41.668 41.668 0 0 0-5.249-5.41 33.924 33.924 0 0 0-1.726-1.392c-.31-.232-.53-.388-.645-.464z"/>
        <path fill="#192133" d="M159.166 110.545c0 5.723-5.839 10.363-13.041 10.363-7.203 0-13.042-4.64-13.042-10.363 0-5.724 5.84-10.364 13.042-10.364s13.04 4.64 13.04 10.364"/>
        <path fill="#192133" d="M144.506 117.802c0 .499-.514.904-1.147.904-.634 0-1.148-.405-1.148-.904 0-.5.514-.905 1.148-.905.633 0 1.147.405 1.147.905M149.216 117.802c0 .499-.514.904-1.148.904-.633 0-1.148-.405-1.148-.904 0-.5.515-.905 1.148-.905.634 0 1.148.405 1.148.905M207.074 112.547c0 3.448-2.693 6.243-6.015 6.243-3.322 0-6.015-2.795-6.015-6.243 0-3.447 2.693-6.243 6.015-6.243 3.322 0 6.015 2.796 6.015 6.243"/>
        <path fill="#192133" d="M206.109 112.547c0 2.895-2.26 5.242-5.05 5.242s-5.05-2.347-5.05-5.242c0-2.894 2.26-5.242 5.05-5.242s5.05 2.348 5.05 5.242M92.685 113.885c0 3.448-2.694 6.243-6.016 6.243-3.321 0-6.015-2.795-6.015-6.243 0-3.448 2.694-6.243 6.015-6.243 3.322 0 6.016 2.795 6.016 6.243"/>
        <path fill="#192133" d="M91.72 113.885c0 2.895-2.262 5.242-5.05 5.242-2.79 0-5.05-2.347-5.05-5.242s2.26-5.242 5.05-5.242c2.788 0 5.05 2.347 5.05 5.242"/>
    </g>
</svg>
