<svg xmlns="http://www.w3.org/2000/svg" xmlns:xlink="http://www.w3.org/1999/xlink" width="240" height="250" viewBox="0 0 240 250">
    <defs>
        <path id="a" d="M.305.341h110.01v40.454H.306z"/>
        <path id="c" d="M.563 6.576c-1.907 7.688 19.88 19.708 48.664 26.848 28.783 7.139 53.663 6.693 55.569-.995 1.907-7.69-19.88-19.709-48.664-26.848C42.438 2.184 29.63.504 19.757.504 8.877.505 1.562 2.544.563 6.576"/>
        <path id="e" d="M.563 6.576c-1.907 7.688 19.88 19.708 48.664 26.848 28.783 7.139 53.663 6.693 55.569-.995 1.907-7.69-19.88-19.709-48.664-26.848C42.438 2.184 29.63.504 19.757.504 8.877.505 1.562 2.544.563 6.576"/>
        <path id="g" d="M.563 6.576c-1.907 7.688 19.88 19.708 48.664 26.848 28.783 7.139 53.663 6.693 55.569-.995 1.907-7.69-19.88-19.709-48.664-26.848C42.438 2.184 29.63.504 19.757.504 8.877.505 1.562 2.544.563 6.576"/>
        <path id="i" d="M.563 6.576c-1.907 7.688 19.88 19.708 48.664 26.848 28.783 7.139 53.663 6.693 55.569-.995 1.907-7.69-19.88-19.709-48.664-26.848C42.438 2.184 29.63.504 19.757.504 8.877.505 1.562 2.544.563 6.576"/>
        <path id="k" d="M.254.555h33.258V52.97H.254z"/>
    </defs>
    <g fill="none" fill-rule="evenodd">
        <path fill="#192133" d="M165.943 201.121l-25.116-6.229c-23.412-5.807-37.684-29.493-31.877-52.906l16.743-67.507 109.9 27.258-16.744 67.508c-5.807 23.412-29.494 37.684-52.906 31.876"/>
        <path fill="#192133" d="M214.999 105.695c-10.586 0-23.872-1.85-37.411-5.208-14.495-3.595-27.718-8.501-37.234-13.816-10.084-5.63-13.07-10.088-12.502-12.38.939-3.783 10.715-5.126 18.8-5.126 10.587 0 23.873 1.85 37.412 5.207 14.495 3.596 27.718 8.502 37.234 13.816 10.085 5.632 13.07 10.088 12.502 12.38-.939 3.784-10.714 5.127-18.801 5.127"/>
        <g transform="translate(125.516 66.862)">
            <mask id="b" fill="#fff">
                <use xlink:href="#a"/>
            </mask>
            <path fill="#192133" d="M21.137.341C9.427.342 1.52 2.571.432 6.957-1.618 15.22 21.291 28.012 51.6 35.53c14.217 3.526 27.535 5.265 37.883 5.265 11.71 0 19.617-2.229 20.705-6.615 2.05-8.263-20.859-21.056-51.167-28.573C44.803 2.08 31.485.341 21.137.341m.004 3.924c10.429 0 23.546 1.83 36.935 5.15 14.33 3.554 27.381 8.393 36.75 13.624 10.27 5.736 11.726 9.501 11.554 10.196-.179.721-3.748 3.636-16.897 3.636-10.431 0-23.55-1.829-36.94-5.15-14.328-3.554-27.38-8.392-36.748-13.624C5.525 12.362 4.068 8.596 4.24 7.901 4.42 7.18 7.989 4.266 21.14 4.265h.001" mask="url(#b)"/>
        </g>
        <g>
            <g transform="translate(128.879 65.18)">
                <mask id="d" fill="#fff">
                    <use xlink:href="#c"/>
                </mask>
                <path fill="#192133" d="M34.116 16.022L32.34 7.751a1.878 1.878 0 0 0-3.67.787l.176.822-8.492-5.715a4.258 4.258 0 0 0-3.438-.609 11.622 11.622 0 0 0-4.065 1.945 11.92 11.92 0 0 0-2.156 2.079 12.34 12.34 0 0 0-2.398 4.917 12.603 12.603 0 0 0-.32 2.148 12.97 12.97 0 0 0 .384 4.037c.336 1.31.876 2.567 1.607 3.722.394.621.835 1.2 1.315 1.729a12.349 12.349 0 0 0 4.47 3.153c.928.382 1.899.646 2.89.785l.001-.001c1.477.205 3.002.131 4.499-.253a4.174 4.174 0 0 0 1.586-.796c.463-.374.85-.846 1.133-1.393l4.493-8.714.089.416a1.877 1.877 0 0 0 3.67-.788" mask="url(#d)"/>
            </g>
            <g transform="translate(128.879 65.18)">
                <mask id="f" fill="#fff">
                    <use xlink:href="#e"/>
                </mask>
                <path fill="#192133" d="M36.112 35.427l8.426-.754a1.877 1.877 0 0 0-.334-3.74l-.837.075 6.706-7.732a4.253 4.253 0 0 0 1.023-3.337 11.614 11.614 0 0 0-1.435-4.271 11.916 11.916 0 0 0-1.8-2.395 12.34 12.34 0 0 0-4.59-2.979c-.669-.25-1.368-.444-2.092-.579a12.984 12.984 0 0 0-9.82 2.125 12.369 12.369 0 0 0-3.675 4.053 11.95 11.95 0 0 0-1.13 2.774v.001a11.63 11.63 0 0 0-.296 4.496c.078.598.283 1.166.597 1.67.314.505.736.948 1.245 1.295l8.1 5.52-.423.038a1.878 1.878 0 0 0 .335 3.74" mask="url(#f)"/>
            </g>
            <g transform="translate(128.879 65.18)">
                <mask id="h" fill="#fff">
                    <use xlink:href="#g"/>
                </mask>
                <path fill="#192133" d="M46.105 23.022l2.542 8.069a1.878 1.878 0 0 0 3.581-1.129l-.252-.8 8.99 4.893a4.258 4.258 0 0 0 3.479.285 11.605 11.605 0 0 0 3.864-2.318 11.924 11.924 0 0 0 1.953-2.27c1-1.51 1.667-3.256 1.926-5.121.1-.708.14-1.433.117-2.169a12.982 12.982 0 0 0-4.18-9.136 12.368 12.368 0 0 0-4.745-2.722c-.96-.292-1.95-.464-2.952-.51v.001c-1.49-.065-3 .151-4.455.674a4.177 4.177 0 0 0-1.504.941 4.331 4.331 0 0 0-.998 1.493l-3.657 9.096-.127-.405a1.878 1.878 0 0 0-3.582 1.128" mask="url(#h)"/>
            </g>
            <g transform="translate(128.879 65.18)">
                <mask id="j" fill="#fff">
                    <use xlink:href="#i"/>
                </mask>
                <path fill="#192133" d="M88.798 42.022l5.244-6.638a1.876 1.876 0 1 0-2.946-2.327l-.52.66-1.007-10.187a4.258 4.258 0 0 0-1.72-3.037c-1.251-.909-2.641-1.54-4.09-1.893a11.928 11.928 0 0 0-2.976-.338 12.35 12.35 0 0 0-5.318 1.286c-.642.315-1.264.689-1.86 1.122a13.002 13.002 0 0 0-4.71 6.478c-.228.7-.393 1.407-.495 2.115a12.365 12.365 0 0 0 .417 5.454c.298.959.713 1.875 1.239 2.728a11.64 11.64 0 0 0 3.062 3.306 4.175 4.175 0 0 0 1.624.715c.583.12 1.194.117 1.796-.015l9.578-2.09-.263.334a1.878 1.878 0 0 0 2.945 2.327" mask="url(#j)"/>
            </g>
        </g>
        <g>
            <path fill="#192133" d="M172.012 178.56c-.673 6.93-.543 14.741 3.293 20.83 2.218 3.522 5.543 5.827 9.248 7.57 2.236 1.052 4.463 2.053 6.175 3.92 1.985 2.165 2.788 5.213.883 7.684-1.55 2.01-4.299 2.983-6.78 2.921-3.57-.09-7.106-1.543-10.18-3.274-5.668-3.194-9.131-8.665-10.186-15.055-.98-5.933.084-12.865 3.573-18.922 1.159-2.012 2.592-3.827 3.974-5.673"/>
            <path fill="#192133" d="M168.147 211.35c-4.808 3.158-1.478 8.625.098 12.635 1.603 4.08 1.653 8.878.341 13.052-1.657 5.275-7.431 12.74-13.896 10.687-2.373-.755-3.786-2.894-4.424-5.203-1.56-5.639-3.403-11.397-6.406-16.456-1.303-2.196-2.928-4.516-5.217-5.783-2.416-1.336-5.46-.428-8.006-.062-3.162.455-6.455.548-9.643.418-1.766-.072-3.514-.243-5.242-.597-1.692-.345-3.457-.687-4.972.39-1.546 1.099-2.666 2.804-3.611 4.414-3.102 5.278-4.947 11.345-6.503 17.227-1.75 6.616-8.419 6.54-12.983 2.71-6.605-5.543-7.585-15.168-4.57-22.84 1.64-4.172 3.789-9.03-1.534-11.762-19.429-9.972-35.293-27.116-40.374-49.313-7.087-30.958 3.64-66.989 18.965-93.734 12.962-22.621 34.296-36.434 59.637-36.456 24.996-.022 42.052 11.707 55.059 28.934 7.15 9.47 13.077 20.6 18.428 32.354 13.955 30.651 22.03 71.658-.488 100.12-6.297 7.959-14.424 14.056-23.508 18.51 0 0-1.147.752-1.151.756"/>
            <path fill="#192133" d="M179.342 158.794c.023 26.175-25 47.417-55.89 47.444-30.889.027-55.949-21.171-55.971-47.347-.023-26.175 25-47.417 55.889-47.444 30.89-.027 55.95 21.17 55.972 47.347M24.647 188.585l-17.837.016c-1 0-1.81.858-1.81 1.914l.021 24.009c.012 13.607 17.197 21.777 19.668 21.774 2.47-.002 19.641-8.201 19.629-21.808l-.02-24.009c-.001-1.056-.813-1.912-1.813-1.91l-17.838.014zM27.64 186.875l-5.99.005-.068-78.64 5.99-.005z"/>
            <path fill="#192133" d="M28.88 203.313s-2.311 6.583-4.271 6.573c-1.945-.01-4.17-6.566-4.17-6.566l-.018-20.349 8.443-.007.017 20.349zM30.995 95.41c-2.335 4.663-5.815 6.76-6.426 6.761-.612 0-4.096-2.09-6.44-6.75-2.39-4.753-2.283-9.165-2.283-9.165s3.626-1.244 8.708-1.248c5.08-.005 8.71 1.233 8.71 1.233s.114 4.412-2.269 9.17m-6.444-13.503c-3.487.003-7.033.498-10.496 1.688-.017 1.814-.387 6.714 2.534 12.52 1.44 2.862 3.347 4.978 4.988 6.291l.005 5.834.831-.001v.001l4.32-.004.84-.002-.007-5.838c1.638-1.317 3.539-3.434 4.97-6.294 1.82-3.632 2.624-8.255 2.513-12.527-3.473-1.185-7.018-1.671-10.498-1.668M224.683 170.192c-.44 4.145-5.143 4.282-9.066-.11-2.938-3.29-12.6-8.597-17.723-11.274-2.06-1.076-3.6-3.415-3.56-5.505.269-13.48 10.534-15.21 12.044-14.622 5.384 2.096 18.812 26.743 18.305 31.51M122.796 84.427c.006 6.999-5.8 12.677-12.967 12.683-7.167.007-12.982-5.662-12.988-12.66-.007-7 5.799-12.678 12.966-12.684 7.167-.006 12.983 5.662 12.99 12.66"/>
            <path fill="#192133" d="M145.991 84.406c.006 7-5.8 12.678-12.967 12.684-7.167.006-12.982-5.662-12.988-12.66-.006-7 5.799-12.678 12.966-12.684 7.168-.007 12.983 5.662 12.99 12.66"/>
            <path fill="#192133" fill-rule="nonzero" d="M113.117 76.242a.5.5 0 1 1-.05.999l-.045-.002c-.37-.01-.916.012-1.611.09-1.066.118-2.23.345-3.466.707-3.427 1.004-6.835 2.858-10.023 5.775-6.442 5.892-11.224 15.397-13.636 29.249a.5.5 0 0 1-.985-.172c2.448-14.06 7.33-23.764 13.946-29.815 3.305-3.023 6.848-4.951 10.417-5.996a21.404 21.404 0 0 1 3.636-.743 13.26 13.26 0 0 1 1.748-.094l.07.002zM134.778 79.84a.5.5 0 1 1 .338-.94c.05.017.14.052.269.104.21.085.454.19.727.315.776.356 1.64.803 2.569 1.35 2.648 1.559 5.294 3.6 7.763 6.185 6.216 6.503 10.262 15.28 11.111 26.645a.5.5 0 1 1-.997.075c-.831-11.13-4.778-19.69-10.837-26.03a35.1 35.1 0 0 0-7.548-6.013 27.452 27.452 0 0 0-2.477-1.303 13.2 13.2 0 0 0-.918-.388zM113.245 79.903a.5.5 0 1 1 .574.819c-.134.093-.39.282-.75.564a42.287 42.287 0 0 0-2.01 1.677 51.52 51.52 0 0 0-6.107 6.436c-5.347 6.71-8.632 14.263-8.85 22.506a.5.5 0 1 1-1-.026c.224-8.485 3.596-16.236 9.068-23.103a52.512 52.512 0 0 1 6.227-6.561 43.281 43.281 0 0 1 2.056-1.717c.375-.293.645-.492.792-.595z"/>
            <path fill="#192133" fill-rule="nonzero" d="M112.204 78.09a.5.5 0 1 1 .395.92c-.162.07-.475.215-.916.44-.741.377-1.568.84-2.459 1.388a42.063 42.063 0 0 0-7.478 5.864c-4.826 4.761-8.319 10.533-9.914 17.39a.5.5 0 1 1-.974-.226c1.641-7.054 5.232-12.989 10.185-17.876a43.056 43.056 0 0 1 7.657-6.004 36.26 36.26 0 0 1 2.529-1.427 23.404 23.404 0 0 1 .975-.468zM131.79 82.57a.5.5 0 0 1 .555-.832c.138.092.39.27.74.533a37.7 37.7 0 0 1 1.922 1.546 46.078 46.078 0 0 1 5.815 5.984c3.341 4.129 5.877 8.73 7.278 13.771a.5.5 0 1 1-.963.268c-1.362-4.9-3.832-9.381-7.092-13.41a45.084 45.084 0 0 0-5.689-5.854 36.703 36.703 0 0 0-1.87-1.505c-.335-.25-.573-.419-.697-.501z"/>
            <path fill="#192133" d="M136.243 76.813c.006 6.2-6.316 11.233-14.119 11.24-7.803.007-14.133-5.015-14.138-11.215-.006-6.201 6.315-11.234 14.119-11.24 7.802-.007 14.133 5.014 14.138 11.215"/>
            <path fill="#192133" d="M120.368 84.69c0 .54-.555.98-1.243.98-.686 0-1.244-.437-1.244-.978 0-.541.556-.98 1.243-.981.687 0 1.244.437 1.244.978M125.47 84.685c0 .541-.555.98-1.242.981-.687 0-1.245-.438-1.245-.979 0-.541.556-.98 1.243-.98.687-.002 1.244.437 1.244.978M188.149 77.817c.003 3.735-2.912 6.766-6.51 6.77-3.6.003-6.52-3.023-6.524-6.759-.003-3.736 2.912-6.767 6.51-6.77 3.6-.003 6.52 3.023 6.524 6.759"/>
            <path fill="#192133" d="M187.103 77.817c.003 3.137-2.444 5.681-5.466 5.684-3.022.003-5.474-2.538-5.476-5.674-.003-3.136 2.444-5.681 5.466-5.684 3.022-.002 5.473 2.538 5.476 5.674M64.219 79.374c.003 3.736-2.912 6.766-6.511 6.77-3.6.003-6.52-3.023-6.523-6.758-.003-3.736 2.912-6.767 6.511-6.77 3.599-.003 6.52 3.022 6.523 6.758"/>
            <path fill="#192133" d="M63.173 79.375c.003 3.136-2.444 5.681-5.466 5.684-3.022.002-5.474-2.538-5.476-5.675-.003-3.136 2.444-5.68 5.466-5.683 3.022-.003 5.474 2.537 5.476 5.674M204.416 170.325l4.417.265a1.43 1.43 0 0 0 1.514-1.343l1.904-31.835a1.43 1.43 0 0 0-1.343-1.514l-4.418-.264a1.431 1.431 0 0 0-1.514 1.343l-1.903 31.835a1.431 1.431 0 0 0 1.343 1.513M21.25 161.664c-1.214 7.055 4.235 10.18 10.493 4.494 4.46-4.054 18.108-8.021 25.583-9.967a6.067 6.067 0 0 0 4.447-6.923c-2.818-16.027-14.513-19.064-16.055-18.756-5.377 1.074-23.253 24.097-24.467 31.152M177.188 58.888c-.023-26.413-25.905-47.802-57.808-47.774-31.904.027-57.748 21.462-57.725 47.875l115.533-.1z"/>
            <g transform="translate(102.534 8.005)">
                <mask id="l" fill="#fff">
                    <use xlink:href="#k"/>
                </mask>
                <path fill="#192133" d="M33.512 52.94l-33.217.03L.254 6.12A5.541 5.541 0 0 1 5.79.575l22.136-.02a5.542 5.542 0 0 1 5.546 5.537l.04 46.848z" mask="url(#l)"/>
            </g>
            <path fill="#192133" d="M176.36 46.668l-113.352.099s-2.23 3.556-2.224 10.665l117.82-.103c-.004-4.265-2.244-10.661-2.244-10.661"/>
            <path fill="#192133" d="M179.45 63.45l-120.142.105a3.19 3.19 0 1 1-.007-6.378l120.143-.105a3.19 3.19 0 1 1 .007 6.378"/>
            <path fill="#192133" d="M135.952 44.39c.008 8.953-7.392 16.218-16.529 16.226-9.137.008-16.55-7.244-16.557-16.198-.008-8.954 7.392-16.219 16.529-16.227 9.137-.007 16.55 7.244 16.557 16.198"/>
            <path fill="#192133" d="M131.36 44.393c.006 6.469-5.34 11.717-11.94 11.723-6.602.005-11.957-5.233-11.963-11.702-.005-6.469 5.341-11.717 11.941-11.722 6.602-.007 11.957 5.233 11.962 11.701"/>
        </g>
    </g>
</svg>
