<svg xmlns="http://www.w3.org/2000/svg" xmlns:xlink="http://www.w3.org/1999/xlink" width="280" height="230" viewBox="0 0 280 230">
    <defs>
        <path id="a" d="M.333 96.015L.747.081l96.148 11.138-.412 95.934"/>
    </defs>
    <g fill="none" fill-rule="evenodd">
        <path fill="#192133" d="M209.241 153.896c-.716 7.309-.587 15.547 3.453 21.974 2.337 3.715 5.842 6.15 9.748 7.992 2.358 1.111 4.706 2.17 6.51 4.14 2.09 2.285 2.936 5.502.924 8.106-1.638 2.12-4.536 3.143-7.153 3.075-3.767-.098-7.494-1.634-10.735-3.463-5.975-3.375-9.624-9.147-10.73-15.889-1.028-6.259.1-13.57 3.786-19.955 1.224-2.12 2.737-4.034 4.197-5.98"/>
        <path fill="#192133" fill-rule="nonzero" d="M64.347 197.363c-.003-3.327-.836-5.795-2.65-6.915-1.862-1.15-4.695-.506-6.273 1.366-1.48 1.756-2 4.397-1.513 7.095.248 1.372.693 2.465 1.38 3.26 1.638 1.897 4.868 2.232 8.103 1.105.128-.045.256-.09.383-.138.375-1.897.571-3.83.57-5.773zm-10.438 6c-.929-1.076-1.494-2.463-1.795-4.13-.576-3.196.051-6.386 1.914-8.595 2.131-2.529 5.95-3.397 8.63-1.743 2.487 1.537 3.511 4.571 3.514 8.467.002 1.64-.13 3.272-.383 4.883 4.083-2.1 7.67-5.796 11.368-11.184a91.703 91.703 0 0 0 14.75-36.47.913.913 0 0 1 1.8.305 93.529 93.529 0 0 1-15.044 37.198c-4.221 6.15-8.36 10.243-13.304 12.373-2.734 11.902-12.088 22.269-23.916 25.614a.913.913 0 1 1-.497-1.757c10.789-3.051 19.43-12.33 22.342-23.1-3.64 1.063-7.296.55-9.379-1.861z"/>
        <path fill="#192133" d="M61.36 62.457s-14.262-4.417-11.64 4.539C52.34 75.952 61.63 77.54 61.63 77.54l-.27-15.084zM158.73 24.684c.67-2.933 8.573-6.038 11.291-6.61 1.173-.247 2.424-.356 3.546.068 6.344 2.394 5.633 11.358 3.54 16.24-.282.661-5.526 8.785-5.616 8.66l-8.254-11.392c-1.15-1.587-4.09-4.307-4.515-6.23a1.664 1.664 0 0 1 .008-.736"/>
        <path fill="#192133" d="M206.123 180.079c.286-.287.57-.575.85-.865 25.517-26.291 26.63-61.012 10.759-92.812-6.14-12.301-14.15-23.668-23.23-33.97-8.98-10.186-18.348-19.57-28.438-26.91-18.358-13.35-39.104-19.932-64.245-12.261-25.487 7.775-42.723 28.198-48.842 54.922-7.235 31.595-7.001 71.125 9.6 100.102 11.904 20.775 32.889 34.469 55.487 38.556 31.338 5.67 65.45-4.093 88.06-26.762"/>
        <g transform="translate(81.678 92.204)">
            <mask id="b" fill="#fff">
                <use xlink:href="#a"/>
            </mask>
            <path fill="#192133" d="M49.645 5.745a48.16 48.16 0 0 0-9.134-.189c-26.175 1.968-43.77 25.077-39.29 51.62C5.172 80.6 24.988 98.87 47.587 101.488c3.006.349 6.065.42 9.14.188 26.175-1.962 43.765-25.072 39.29-51.619C92.062 26.631 72.242 8.361 49.645 5.745" mask="url(#b)"/>
        </g>
        <path fill="#192133" d="M93.076 80.141c1.96 6.423-1.784 13.257-8.362 15.264-6.577 2.007-13.498-1.573-15.458-7.996-1.96-6.423 1.784-13.257 8.362-15.264 6.578-2.007 13.5 1.573 15.458 7.996"/>
        <path fill="#192133" d="M120.984 70.208c2.47 8.096-2.25 16.71-10.541 19.24-8.292 2.53-17.016-1.983-19.487-10.08-2.47-8.096 2.25-16.71 10.542-19.24 8.291-2.53 17.016 1.983 19.486 10.08"/>
        <path fill="#192133" fill-rule="nonzero" d="M84.35 73.195a.456.456 0 0 1 .22.886c-.121.03-.362.103-.706.228-.58.21-1.228.49-1.928.85-2.006 1.032-4.014 2.49-5.89 4.447-6.792 7.084-10.106 18.599-8.001 35.636a.456.456 0 0 1-.906.112c-2.137-17.298 1.256-29.087 8.248-36.38 1.949-2.033 4.04-3.55 6.132-4.626a17.656 17.656 0 0 1 2.034-.897c.374-.136.645-.218.796-.256z"/>
        <path fill="#192133" fill-rule="nonzero" d="M85.51 76.528a.456.456 0 1 1 .718.563c-.065.083-.19.25-.368.498-.298.415-.63.901-.99 1.455a49.042 49.042 0 0 0-3.009 5.389c-4.104 8.548-5.67 17.593-3.237 26.432a.456.456 0 1 1-.88.242c-2.5-9.081-.897-18.34 3.294-27.07a49.95 49.95 0 0 1 3.066-5.488c.367-.567.708-1.066 1.014-1.493.185-.257.318-.435.391-.528z"/>
        <path fill="#192133" fill-rule="nonzero" d="M84.036 75.152a.456.456 0 1 1 .59.697c-.091.076-.267.232-.514.465-.416.391-.88.856-1.38 1.39a40.326 40.326 0 0 0-4.206 5.354c-4.233 6.428-6.572 13.746-6.035 21.79a.456.456 0 0 1-.911.06c-.551-8.26 1.848-15.77 6.184-22.352a41.234 41.234 0 0 1 4.3-5.475c.515-.55.993-1.027 1.422-1.432.26-.244.447-.41.55-.497zM102.642 66.13c0-.252.204-.456.456-.457.11 0 .304.004.58.015.452.019.972.052 1.556.104a47.63 47.63 0 0 1 5.484.826c5.65 1.18 11.297 3.304 16.57 6.611 8.264 5.183 14.822 12.791 19.032 23.214a.456.456 0 1 1-.846.342c-4.136-10.24-10.566-17.7-18.67-22.782-5.176-3.246-10.723-5.333-16.273-6.491a46.72 46.72 0 0 0-5.378-.81 32.01 32.01 0 0 0-1.512-.102c-.263-.01-.446-.014-.541-.014a.456.456 0 0 1-.458-.456zM99.99 71.037a.456.456 0 0 1 .195-.891c.074.016.212.048.41.097.33.081.71.182 1.138.302 1.221.343 2.58.777 4.045 1.31 4.18 1.52 8.362 3.525 12.267 6.075 4.67 3.05 8.627 6.683 11.64 10.95a.456.456 0 0 1-.746.526c-2.942-4.165-6.814-7.72-11.393-10.711-3.842-2.51-7.961-4.485-12.08-5.983a56.163 56.163 0 0 0-3.98-1.288 37.466 37.466 0 0 0-1.496-.387z"/>
        <path fill="#192133" d="M103.914 64.964c1.902 6.237-2.917 13.234-10.765 15.628-7.848 2.394-15.753-.72-17.656-6.957-1.902-6.237 2.917-13.233 10.765-15.628 7.848-2.394 15.753.721 17.656 6.957"/>
        <path fill="#192133" d="M89.352 77.568c.241.788-.375 1.675-1.376 1.98-1 .305-2.006-.086-2.247-.875-.24-.788.376-1.674 1.376-1.98 1.001-.305 2.007.087 2.247.875M95.898 75.428c.262.86-.41 1.828-1.503 2.162-1.092.333-2.19-.095-2.452-.955-.263-.861.41-1.829 1.502-2.162 1.092-.333 2.19.094 2.453.955M159.889 47.433c1.525 5-1.143 10.243-5.96 11.713-4.816 1.469-9.956-1.393-11.482-6.392-1.524-4.999 1.144-10.242 5.96-11.711 4.816-1.47 9.957 1.391 11.482 6.39"/>
        <path fill="#192133" d="M158.49 47.86c1.28 4.197-.96 8.6-5.003 9.833-4.044 1.234-8.36-1.169-9.641-5.365-1.28-4.197.96-8.6 5.004-9.834 4.043-1.233 8.36 1.169 9.64 5.366M58.005 78.413c.884 2.9-.664 5.941-3.457 6.793-2.794.853-5.775-.807-6.66-3.706-.885-2.9.663-5.942 3.456-6.794 2.794-.852 5.776.807 6.66 3.707"/>
        <path fill="#192133" d="M57.193 78.66c.743 2.435-.556 4.989-2.902 5.704-2.346.716-4.849-.678-5.592-3.112-.743-2.434.557-4.988 2.902-5.704 2.346-.716 4.85.678 5.592 3.113M51.205 174.34c1.605 3.632 5.773 2.963 7.925-1.625 1.61-3.435 8.531-9.806 12.24-13.061 1.49-1.31 2.155-3.66 1.504-5.521-4.199-12.006-13.718-11.823-14.87-11.043-4.11 2.78-8.646 27.074-6.8 31.25M157.082 206.023s3.92 24.533 29.798 20.429c15.09-2.393 7.326-14.935.406-19.027-2.644-1.563-4.242-4.66-4.002-7.761l.613-7.893-26.815 14.252zM108.574 203.102s1.748 25.522 24.158 25.965c13.068.259 8.42-11.471 3.21-15.96-1.991-1.715-2.871-4.564-2.201-7.139l1.705-6.553-26.872 3.687zM274.342 138.851c.3 1.82-3.54 3.321-3.928 5.212-.443 2.163.648 4.423 1.487 6.363 1.949 4.51 1.288 8.916-.648 13.344-2.395 5.482-5.744 10.39-11.285 13.129-2.251 1.112-4.509 1.779-7.012 1.924-1.638.096-3.349-.242-4.946.181-1.945-3.903-3.995-7.978-4.732-12.326-1.049-6.189-.406-14.463 4.666-18.85 1.97-1.704 4.318-3.295 6.702-4.32a16.73 16.73 0 0 1 6.488-1.394c2.67-.044 5.952.746 8.442-.47 1.7-.83 4.387-5.09 4.766-2.793"/>
        <g fill="#192133">
            <path d="M269.334 143.814c-.877 2.049-3.214 4.054-4.692 5.738-1.718 1.957-3.13 4.099-4.467 6.288-2.979 4.875-5.38 9.637-7.904 14.69-.63 1.258-1.34 2.382-1.963 3.603-.526 1.033-.57 2.407-1.203 3.247-1.072-1.55.542-4.676 1.13-6.185.947-2.43 2.52-4.721 3.806-7.013 1.51-2.693 2.702-5.796 4.505-8.308.932-1.3 2.42-2.232 3.2-3.672.581-1.075.714-2.118 1.467-3.162 1.368-1.9 3.922-4.84 6.12-5.226"/>
            <path d="M253.245 167.166c-.109 1.736.01 3.483.16 5.212.116 1.325.142 2.777.702 3.995.097.214.403.09.412-.111.07-1.487-.42-3.03-.585-4.506-.17-1.528-.209-3.056-.273-4.59-.011-.268-.4-.266-.416 0M255.873 161.684c.897 2.335 1.558 4.667 1.822 7.162.21 1.985.059 4.008.395 5.97.03.181.334.181.365 0 .743-4.342-.368-9.356-2.118-13.328-.115-.26-.568-.073-.464.196M258.742 155.986c.208 2.398.914 4.616 1.763 6.858 1.125 2.968 1.063 5.634 1.469 8.703.032.242.349.244.378 0 .682-5.592-2.086-10.274-3.166-15.62-.05-.248-.467-.196-.444.06M262.216 151.655c-.321 2.74.674 5.335 1.675 7.844 1.174 2.935 1.818 5.62 2.364 8.716.03.168.31.167.339 0 .442-2.479-.541-5.01-1.445-7.288-1.236-3.118-2.35-5.888-2.61-9.272-.015-.21-.298-.205-.323 0M264.96 147.43c.98 2.37 2.112 4.667 2.931 7.102.829 2.463 1.113 4.912 1.584 7.45.045.243.376.155.4-.055.539-4.859-2.168-10.528-4.551-14.65-.109-.187-.451-.06-.363.154M252.605 167.572c-1.264.115-2.46.626-3.588 1.183-1.033.51-2.466 1.139-3.083 2.158-.08.13.052.315.203.265 1.003-.329 1.886-1.172 2.816-1.685 1.185-.653 2.44-1.092 3.7-1.567.175-.067.17-.374-.048-.354"/>
            <path d="M255.915 161.094c-1.95.513-3.888 1.404-5.701 2.282-1.536.745-3.486 1.674-4.406 3.183-.1.165.098.35.26.26 1.642-.917 3.052-2.152 4.762-3 1.71-.849 3.578-1.442 5.207-2.438.151-.092.053-.333-.122-.287M258.137 156.526c-3.01.889-6.064 1.206-9.034 2.285-1.404.51-3.702 1.09-4.193 2.68-.045.146.133.288.265.203 1.89-1.217 3.695-2.06 5.831-2.801 2.394-.83 5.035-.818 7.316-1.928.246-.12.073-.515-.185-.439M261.775 151.726c-3.542.634-7.205.987-10.779 1.429-1.8.222-4.052.488-4.916 2.295-.068.144.087.364.247.247 4.298-3.17 10.663-1.774 15.542-3.633a.176.176 0 0 0-.094-.338M264.828 147.865c-2.025-.992-4.16-1.009-6.378-1.114-2.753-.13-5.643-.414-8.062 1.124-.139.088-.048.295.11.261 4.146-.881 10.08-1.661 14.22-.009.15.06.255-.191.11-.262"/>
        </g>
        <path fill="#192133" d="M29.575 177.166c.225 1.363-2.65 2.486-2.94 3.902-.331 1.62.485 3.31 1.112 4.764 1.46 3.377.965 6.674-.484 9.99-1.794 4.103-4.3 7.777-8.448 9.828-1.686.833-3.376 1.332-5.25 1.44-1.227.072-2.507-.18-3.703.136-1.456-2.922-2.99-5.973-3.542-9.228-.786-4.633-.304-10.827 3.493-14.112 1.474-1.274 3.232-2.466 5.017-3.233a12.549 12.549 0 0 1 4.857-1.044c2-.033 4.456.558 6.32-.351 1.272-.621 3.285-3.811 3.568-2.092"/>
        <g fill="#192133">
            <path d="M25.826 180.881c-.656 1.534-2.406 3.036-3.513 4.296-1.286 1.465-2.343 3.069-3.344 4.708-2.23 3.65-4.027 7.214-5.917 10.997-.471.942-1.003 1.784-1.469 2.698-.394.773-.427 1.8-.9 2.43-.803-1.16.405-3.5.845-4.63.709-1.819 1.887-3.535 2.85-5.25 1.129-2.016 2.022-4.339 3.372-6.22.698-.972 1.81-1.67 2.395-2.749.435-.804.535-1.585 1.099-2.367 1.024-1.423 2.936-3.624 4.582-3.913"/>
            <path d="M13.729 198.364c-.104 1.296-.007 2.608.098 3.902.078.988.056 2.142.551 3.018.119.21.387.09.413-.111.14-1.088-.293-2.29-.42-3.373-.135-1.144-.158-2.289-.226-3.436-.016-.269-.395-.266-.416 0M15.687 194.277c.655 1.746 1.149 3.482 1.34 5.345.154 1.485-.002 3.03.335 4.482.042.18.324.18.366 0 .732-3.155-.28-7.142-1.577-10.023-.117-.26-.565-.074-.464.196M17.84 189.994c.13 1.938.75 3.714 1.447 5.514.804 2.077.613 4.062.988 6.186.031.18.335.182.365 0 .687-4.141-1.48-7.814-2.356-11.76-.055-.246-.462-.196-.445.06M20.463 186.709c-.27 1.939.368 3.776 1.065 5.571.904 2.323 1.422 4.46 1.95 6.88.037.167.303.169.339 0 .387-1.825-.341-3.698-1.007-5.389-.932-2.367-1.756-4.46-2.03-7.02-.017-.162-.29-.239-.317-.042M22.504 183.602c.693 1.788 1.553 3.502 2.162 5.325.616 1.842.77 3.7 1.216 5.569.045.185.36.202.392 0 .575-3.555-1.6-8.075-3.407-11.047-.112-.184-.448-.064-.363.153M13.303 198.622c-.961.043-1.873.447-2.727.864-.745.364-1.95.86-2.307 1.66-.066.147.041.296.203.265.799-.154 1.56-.925 2.277-1.313.85-.46 1.759-.76 2.645-1.14.166-.072.078-.344-.091-.336"/>
            <path d="M15.77 193.78c-1.474.31-2.944 1.022-4.3 1.674-1.122.54-2.718 1.26-3.297 2.431-.088.178.086.337.26.26 1.253-.562 2.327-1.588 3.583-2.215 1.27-.634 2.7-1.062 3.875-1.863a.158.158 0 0 0-.12-.287M17.427 190.34c-2.275.603-4.545.876-6.77 1.684-1.017.37-2.94.844-3.159 2.078-.028.16.118.275.265.204 1.473-.706 2.785-1.5 4.366-2.05 1.791-.623 3.798-.598 5.483-1.477.245-.128.075-.507-.185-.439M20.156 186.762c-2.771.408-5.566.665-8.34 1.048-1.304.18-2.94.437-3.455 1.803-.057.15.137.281.264.204 3.49-2.133 7.9-1.164 11.624-2.716.209-.087.132-.372-.093-.339M22.471 183.884c-1.526-.773-3.108-.796-4.793-.88-2.036-.101-4.315-.37-6.053.887-.136.098-.052.286.11.262 3.206-.485 7.435-1.234 10.625-.008.152.058.255-.189.111-.261"/>
        </g>
        <path fill="#192133" fill-rule="nonzero" d="M228.974 78.238c.417-6.22-1.864-10.477-6.712-10.154-5.665.38-10.092 6.955-8.277 12.312 1.818 5.366 9.408 7.848 14.003 4.57l.097-.07a50.78 50.78 0 0 0 .89-6.658zm-16.718 2.744c-2.201-6.496 3.026-14.26 9.885-14.72 6.268-.418 9.135 4.933 8.655 12.098a52.865 52.865 0 0 1-.488 4.453c2.078-2.434 3.736-5.915 5.152-10.43a85.858 85.858 0 0 0 1.251-4.446c.166-.647.33-1.307.53-2.123l.485-1.994c1.731-7.059 2.618-13.006 4.106-25.78a.913.913 0 0 1 1.814.212C242.149 51.1 241.254 57.1 239.5 64.254l-.486 1.994c-.201.822-.367 1.487-.534 2.142a87.62 87.62 0 0 1-1.278 4.54c-1.886 6.012-4.21 10.35-7.468 13-3.424 15.858-14.045 28.84-28.717 32.496a.913.913 0 1 1-.442-1.771c13.384-3.335 23.28-14.921 26.953-29.321-5.577 2.574-13.253-.394-15.272-6.352z"/>
        <path fill="#192133" d="M138.966 161.378l.826 1.65c.228.457.683.76 1.194.782 2.157.1 8.093-.107 13.201-4.685.45-.402.608-1.04.384-1.6l-.824-2.06-14.78 5.913z"/>
        <path fill="#192133" d="M160.043 132.912c.532 1.022.97 2.106 1.301 3.246 3.053 10.505-4.069 21.808-15.905 25.247-11.837 3.44-23.907-2.287-26.96-12.79a17.764 17.764 0 0 1-.647-3.507"/>
        <path fill="#192133" d="M160.354 132.752c.775 2.665-8.13 7.595-19.888 11.012-11.758 3.417-21.918 4.027-22.693 1.361-.775-2.665 8.13-7.596 19.888-11.012 11.759-3.418 21.919-4.027 22.693-1.361"/>
        <path stroke="#192133" d="M118.273 148.37s19.51 3.548 43.16-11.824"/>
        <path fill="#192133" d="M159.9 142.011c1.711 5.522 6.777 5.775 9.196-.61 1.725-4.55 10.092-12.406 14.759-16.545a4.9 4.9 0 0 0 .662-6.611c-7.9-10.5-17.427-8.4-18.424-7.614-3.476 2.743-7.904 25.86-6.193 31.38"/>
    </g>
</svg>
