<svg xmlns="http://www.w3.org/2000/svg" xmlns:xlink="http://www.w3.org/1999/xlink" width="210" height="230" viewBox="0 0 210 230">
    <defs>
        <path id="a" d="M.252.155h36.693v36.123H.252z"/>
    </defs>
    <g fill="none" fill-rule="evenodd">
        <path fill="#712473" d="M78.746 164.327c-3.163 6.416-7.506 13.169-14.159 16.414-3.847 1.876-8.004 2.092-12.189 1.612-2.525-.29-5.016-.621-7.523.084-2.908.818-5.263 3.047-4.934 6.235.268 2.595 2.144 4.93 4.349 6.218 3.173 1.852 7.052 2.494 10.678 2.643 6.688.275 12.68-2.63 17.062-7.642 4.07-4.654 6.894-11.284 7.12-18.461.076-2.383-.194-4.744-.404-7.103M62.747 39.669s-12.083-8.194-12.188.922c-.104 9.116 8.135 13.248 8.135 13.248l4.053-14.17zM170.565 36.959s13.174-6.254 11.896 2.78c-1.277 9.033-10.038 11.858-10.038 11.858l-1.858-14.638z"/>
        <path fill="#954A97" d="M123.62 202.105c-1.74-.357-3.557-.71-5.116.395-1.592 1.128-2.745 2.88-3.719 4.531-3.195 5.42-5.1 11.65-6.706 17.692-1.806 6.795-8.667 6.71-13.359 2.771-6.79-5.7-7.79-15.588-4.681-23.467 1.69-4.284 3.906-9.272-1.568-12.084"/>
        <g transform="translate(123.797 194.718)">
            <mask id="b" fill="#fff">
                <use xlink:href="#a"/>
            </mask>
            <path fill="#954A97" d="M36.945.155s-1.285.58-1.29.581c-5.395 2.43-2.893 8.513-1.939 12.835.972 4.398.249 9.273-1.757 13.298-2.535 5.085-9.606 11.73-15.843 8.605-2.29-1.148-3.38-3.546-3.656-5.991-.675-5.972-1.62-12.11-3.856-17.727-.97-2.438-2.247-5.055-4.368-6.708C1.996 3.302 2.899 3.453.252 3.415" mask="url(#b)"/>
        </g>
        <path fill="#954A97" d="M166.409 192.616c.349-.186.696-.374 1.043-.565 31.384-17.293 42.34-49.42 36.565-83.66-2.233-13.245-6.483-26.15-12.04-38.365-5.494-12.078-11.582-23.518-18.93-33.252C159.682 19.064 142.146 7 116.428 7 90.357 7 68.396 21.17 55.04 44.398c-15.79 27.46-26.858 64.465-19.596 96.275 5.208 22.807 20.937 41.584 40.917 51.847 27.708 14.23 62.418 14.833 90.048.096"/>
        <path fill="#C5809F" d="M177.563 138.666c0 26.89-25.763 48.69-57.542 48.69-31.78 0-57.542-21.8-57.542-48.69 0-26.89 25.762-48.689 57.542-48.689s57.542 21.8 57.542 48.69"/>
        <path fill="#BEA2C2" d="M119.455 61.068c0 7.19-5.978 13.018-13.351 13.018-7.374 0-13.352-5.829-13.352-13.018 0-7.19 5.978-13.018 13.352-13.018 7.373 0 13.351 5.828 13.351 13.018"/>
        <path fill="#BEA2C2" d="M143.318 61.068c0 7.19-5.978 13.018-13.351 13.018-7.374 0-13.352-5.829-13.352-13.018 0-7.19 5.978-13.018 13.352-13.018 7.373 0 13.351 5.828 13.351 13.018"/>
        <path stroke="#040000" stroke-linecap="round" d="M109.478 53.164S86.033 51.96 79.304 90.36M131.96 55.883s20.67 7.448 22.717 35.119M109.927 56.833s-17.93 12.531-18.475 32.425M108.766 55.021s-17.314 7.415-21.685 26.104M128.995 58.741s12.07 8.06 15.98 22.155"/>
        <path fill="#712473" d="M133.296 53.258c0 6.37-6.508 11.534-14.536 11.534-8.027 0-14.535-5.164-14.535-11.534 0-6.37 6.508-11.534 14.535-11.534 8.028 0 14.536 5.164 14.536 11.534"/>
        <path fill="#040000" d="M116.957 61.336c0 .555-.573 1.006-1.28 1.006-.706 0-1.279-.45-1.279-1.006 0-.557.573-1.008 1.28-1.008.706 0 1.279.451 1.279 1.008M122.206 61.336c0 .555-.572 1.006-1.28 1.006-.706 0-1.279-.45-1.279-1.006 0-.557.573-1.008 1.28-1.008.707 0 1.28.451 1.28 1.008"/>
        <path fill="#FFF" d="M186.696 55.487c0 3.838-3.002 6.949-6.705 6.949-3.702 0-6.704-3.111-6.704-6.949 0-3.837 3.002-6.948 6.704-6.948 3.703 0 6.705 3.11 6.705 6.948"/>
        <path fill="#040000" d="M185.62 55.487c0 3.222-2.52 5.834-5.629 5.834-3.108 0-5.628-2.612-5.628-5.834 0-3.222 2.52-5.833 5.628-5.833 3.11 0 5.63 2.611 5.63 5.833"/>
        <path fill="#FFF" d="M59.194 56.976c0 3.838-3.001 6.949-6.704 6.949-3.702 0-6.704-3.111-6.704-6.949 0-3.837 3.002-6.948 6.704-6.948 3.703 0 6.704 3.11 6.704 6.948"/>
        <path fill="#040000" d="M58.12 56.976c0 3.222-2.52 5.834-5.63 5.834-3.109 0-5.629-2.612-5.629-5.834 0-3.222 2.52-5.834 5.63-5.834 3.108 0 5.628 2.612 5.628 5.834"/>
        <path fill="#C63C3C" d="M20.098 24.03c-.38-3.784 1.416-7.548 4.87-9.429 4.653-2.531 10.172-.38 13.179 4.126 0 0 .869 1.052 1.523 3.441.892 3.253.689 6.686-.405 9.816l-5.871 16.404-16.797-4.068c-3.226-.778-6.226-2.468-8.481-4.98-1.656-1.844-2.07-3.144-2.07-3.144-2.164-4.965-.983-10.762 3.67-13.294 3.453-1.88 7.403-1.24 10.382 1.128"/>
        <path fill="#D8D8D8" d="M72.635 125.542l16.94-35.291c.218-.441 16.79 7.22 17.85 7.705 9.16 4.187 18.887 8.606 27.72 13.844 8.256 4.897 15.052 13.126 15.974 21.732.47 4.39-3.3 8.038-7.094 9.911-13.93 6.877-35.777-1.788-50.039-7.809-1.987-.839-21.55-9.677-21.351-10.092"/>
        <path fill="#E25848" d="M78.42 79.914c-2.08-.95-4.497-.12-5.4 1.852-.06.133-.112.267-.156.403l-.08-.04c-2.08-.948-4.498-.12-5.4 1.852-.73 1.593-.246 3.445 1.064 4.598a3.752 3.752 0 0 0-.746 1.077c-.902 1.972.053 4.34 2.132 5.289a4.238 4.238 0 0 0 3.327.1 4.25 4.25 0 0 0 2.017 1.9c2.08.95 4.498.12 5.4-1.852.376-.82.429-1.709.214-2.536 1.63.11 3.2-.729 3.89-2.233.902-1.972-.052-4.34-2.132-5.289a4.31 4.31 0 0 0-1.793-.393c.51-1.84-.45-3.868-2.337-4.728"/>
        <path fill="#D04A3D" d="M93.666 81.112c-2.445-1.116-5.287-.142-6.348 2.176a4.5 4.5 0 0 0-.184.474c-.031-.015-.062-.032-.095-.046-2.444-1.116-5.287-.141-6.347 2.176-.857 1.874-.289 4.05 1.251 5.405-.355.36-.655.783-.876 1.267-1.061 2.318.061 5.101 2.506 6.217 1.3.593 2.713.595 3.91.118a5.01 5.01 0 0 0 2.372 2.234c2.445 1.115 5.287.14 6.347-2.178a4.439 4.439 0 0 0 .252-2.98c1.916.127 3.763-.858 4.573-2.627 1.06-2.317-.062-5.101-2.506-6.217a5.076 5.076 0 0 0-2.107-.462c.598-2.163-.53-4.546-2.748-5.557M70.016 101.797c-2.445-1.116-5.287-.141-6.347 2.176a4.368 4.368 0 0 0-.184.474l-.095-.046c-2.446-1.116-5.287-.14-6.348 2.177-.857 1.873-.288 4.05 1.251 5.404-.356.36-.655.784-.876 1.267-1.06 2.318.061 5.1 2.506 6.217a4.982 4.982 0 0 0 3.91.118 5.009 5.009 0 0 0 2.372 2.233c2.445 1.116 5.287.141 6.348-2.176.44-.965.503-2.01.25-2.981 1.917.127 3.763-.858 4.573-2.627 1.062-2.318-.06-5.101-2.505-6.217a5.069 5.069 0 0 0-2.108-.461c.6-2.164-.53-4.547-2.747-5.558"/>
        <path fill="#9B2C2C" d="M83.407 91.557c-2.445-1.115-5.287-.14-6.348 2.177a4.368 4.368 0 0 0-.184.474l-.095-.047c-2.445-1.116-5.287-.14-6.348 2.178-.857 1.873-.288 4.049 1.252 5.404-.356.36-.656.783-.877 1.267-1.06 2.317.061 5.1 2.507 6.216a4.98 4.98 0 0 0 3.91.119 5.013 5.013 0 0 0 2.371 2.233c2.446 1.115 5.287.141 6.348-2.177a4.442 4.442 0 0 0 .251-2.98c1.916.127 3.763-.858 4.573-2.627 1.061-2.318-.061-5.101-2.506-6.217a5.069 5.069 0 0 0-2.108-.462c.6-2.163-.53-4.546-2.746-5.558M72.009 116.988c-2.445-1.115-5.287-.141-6.348 2.177a4.368 4.368 0 0 0-.184.474 2.906 2.906 0 0 0-.095-.046c-2.445-1.116-5.286-.142-6.348 2.177-.856 1.873-.288 4.049 1.252 5.404-.356.36-.655.784-.877 1.266-1.06 2.319.061 5.102 2.507 6.218a4.98 4.98 0 0 0 3.91.118 5.002 5.002 0 0 0 2.372 2.233c2.445 1.116 5.287.14 6.347-2.177a4.44 4.44 0 0 0 .251-2.981c1.917.128 3.763-.857 4.573-2.626 1.061-2.318-.061-5.101-2.506-6.217a5.069 5.069 0 0 0-2.107-.462c.599-2.163-.53-4.546-2.747-5.558"/>
        <path fill="#E25848" d="M84.373 106.052c-2.546-1.161-5.505-.147-6.61 2.267a4.487 4.487 0 0 0-.191.493c-.033-.016-.065-.033-.1-.049-2.545-1.161-5.503-.146-6.608 2.267-.892 1.95-.3 4.216 1.302 5.627-.37.375-.681.816-.911 1.319-1.105 2.413.063 5.311 2.609 6.472a5.183 5.183 0 0 0 4.071.124 5.213 5.213 0 0 0 2.469 2.325c2.546 1.161 5.505.147 6.61-2.267a4.62 4.62 0 0 0 .26-3.103c1.995.133 3.918-.893 4.762-2.734 1.104-2.414-.065-5.312-2.61-6.473a5.28 5.28 0 0 0-2.194-.481c.624-2.253-.552-4.734-2.86-5.787"/>
        <path fill="#D04A3D" d="M82.004 113.7c1.382.63 2.017 2.203 1.417 3.514-.6 1.31-2.206 1.861-3.588 1.23-1.382-.63-2.017-2.204-1.417-3.514.6-1.31 2.206-1.861 3.588-1.23"/>
        <path fill="#992B2B" d="M67.742 109.141c1.327.606 1.936 2.117 1.36 3.376-.576 1.259-2.119 1.788-3.446 1.182-1.327-.606-1.937-2.117-1.36-3.376.575-1.258 2.118-1.787 3.446-1.182"/>
        <path fill="#FDBCBC" d="M81.132 98.902c1.328.606 1.937 2.117 1.36 3.376-.576 1.258-2.118 1.788-3.446 1.182-1.327-.606-1.936-2.117-1.36-3.376.575-1.259 2.119-1.788 3.446-1.182"/>
        <path fill="#D04A3D" d="M76.485 86.162c1.13.515 1.648 1.801 1.158 2.872-.49 1.07-1.802 1.52-2.932 1.005-1.129-.515-1.648-1.8-1.157-2.872.49-1.07 1.802-1.52 2.931-1.005"/>
        <path fill="#FDBCBC" d="M69.735 124.333c1.327.606 1.936 2.117 1.36 3.376-.576 1.258-2.119 1.788-3.446 1.182-1.328-.606-1.937-2.117-1.361-3.376.576-1.259 2.12-1.788 3.447-1.182"/>
        <path fill="#992B2B" d="M91.391 88.456c1.328.606 1.937 2.118 1.362 3.376-.577 1.259-2.12 1.788-3.447 1.182-1.328-.606-1.937-2.117-1.361-3.376.576-1.258 2.12-1.787 3.446-1.182"/>
        <path fill="#D8D8D8" d="M146.338 139.497l9.624 11.729 9.091-19.864-17.011-.76z"/>
        <path fill="#954A97" d="M151.323 129.915c-4.726-2.22-4.224-7.515 1.402-10.05 4.211-1.899 11.7-10.443 15.51-15.03 1.532-1.845 4.452-2.584 6.86-1.665 15.533 5.926 16.089 18.08 15.197 19.515-3.178 5.12-33.533 9.785-38.97 7.23M85.674 133.044c3.01-6.711-1.622-11.21-9.31-7.145-5.48 2.897-20.095 3.367-28.042 3.399a6.239 6.239 0 0 0-6.198 5.757c-1.281 16.668 9.6 22.67 11.215 22.756 5.633.302 29.324-18.055 32.335-24.767"/>
    </g>
</svg>
