<svg xmlns="http://www.w3.org/2000/svg" xmlns:xlink="http://www.w3.org/1999/xlink" width="240" height="240" viewBox="0 0 240 240">
    <defs>
        <path id="a" d="M.08.042h32.593v31.687H.08z"/>
    </defs>
    <g fill="none" fill-rule="evenodd">
        <path fill="#FFF" d="M116.082 202.1c.377 4.865-3.26-4.769-8.123-4.391-4.864.377-9.111 10.621-9.488 5.757a8.833 8.833 0 1 1 17.61-1.366"/>
        <path fill="#712473" d="M153.871 48.675s12.768-9.529 13.324.415c.556 9.944-8.218 14.854-8.218 14.854l-5.106-15.269zM41.22 45.49c-1.719-2.712-10.775-3.017-13.712-2.624-1.268.17-2.566.508-3.543 1.333-5.526 4.67-1.615 13.434 2.228 17.6.522.563 8.69 6.866 8.736 6.708 1.414-4.801 2.828-9.601 4.24-14.403.591-2.006 2.579-5.79 2.32-7.876a1.78 1.78 0 0 0-.27-.738M64.294 189.13c-.979 6.28-2.867 13.158-7.641 17.671-2.76 2.61-6.224 3.894-9.895 4.594-2.216.422-4.412.8-6.35 2.063-2.245 1.463-3.649 3.977-2.525 6.595.914 2.13 3.123 3.614 5.33 4.123 3.178.731 6.633.25 9.744-.584 5.736-1.537 10.04-5.588 12.424-10.999 2.214-5.024 2.847-11.395 1.138-17.545-.568-2.04-1.423-3.972-2.225-5.918"/>
        <path fill="#954A97" d="M139.616 204.274c-1.552.277-3.165.583-4.087 2.007-.941 1.454-1.316 3.279-1.575 4.963-.852 5.523-.372 11.293.29 16.809.746 6.203-4.937 8.386-10.1 6.675-7.47-2.475-11.546-10.31-11.575-17.837-.016-4.092.17-8.939-5.266-9.462"/>
        <g transform="translate(74.498 208.481)">
            <mask id="b" fill="#fff">
                <use xlink:href="#a"/>
            </mask>
            <path fill="#954A97" d="M.08 2.469l1.213.324c5.073 1.353 3.76 7.048 3.548 10.976-.216 3.997 1.12 8.167 3.457 11.407 2.952 4.095 10.1 8.903 15.11 5.265 1.84-1.336 2.448-3.597 2.338-5.781-.271-5.334-.329-10.853.818-16.1.498-2.278 1.239-4.757 2.857-6.512 1.71-1.854.94-1.591 3.252-2.006" mask="url(#b)"/>
        </g>
        <path fill="#954A97" d="M48.946 204.823c-.389-.186-.777-.374-1.164-.566C12.75 186.907-.748 166.26 3.88 128.611c1.79-14.563 5.795-28.853 11.255-42.454 5.4-13.448 11.477-26.229 19.008-37.208 13.704-19.976 32.223-33.993 60.243-35.241 28.405-1.265 53.02 13.135 68.7 37.835 18.538 29.204 32.393 69.053 26.026 104.12-4.566 25.143-20.79 32.517-42.06 44.686-29.497 16.876-67.285 19.217-98.105 4.474"/>
        <path fill="#BEA2C2" d="M121.986 78.26c.319 7.16 6.52 12.699 13.851 12.373 7.33-.327 13.015-6.396 12.697-13.556-.32-7.16-6.52-12.699-13.851-12.372-7.331.326-13.016 6.394-12.697 13.554"/>
        <path fill="#BEA2C2" d="M90.378 78.216c.402 9.026 8.218 16.01 17.46 15.598 9.241-.412 16.407-8.062 16.005-17.088-.402-9.025-8.219-16.008-17.46-15.597-9.241.411-16.407 8.062-16.005 17.087"/>
        <path fill="#FFF" d="M43.132 69.178c.248 5.572 4.8 9.896 10.167 9.657 5.369-.239 9.519-4.95 9.271-10.523-.248-5.572-4.8-9.896-10.169-9.657-5.367.24-9.518 4.95-9.27 10.523"/>
        <path fill="#040000" d="M44.69 69.109c.209 4.678 4.031 8.308 8.537 8.107 4.507-.2 7.992-4.155 7.783-8.834-.208-4.678-4.03-8.309-8.537-8.109-4.506.201-7.99 4.157-7.783 8.836"/>
        <path fill="#FFF" d="M156.685 64.97c.168 3.76 3.239 6.675 6.86 6.514 3.62-.162 6.42-3.34 6.252-7.098-.167-3.758-3.238-6.675-6.859-6.513-3.62.16-6.42 3.338-6.253 7.097"/>
        <path fill="#040000" d="M157.737 64.923c.14 3.156 2.719 5.605 5.759 5.47 3.04-.136 5.39-2.804 5.25-5.96-.14-3.155-2.719-5.604-5.759-5.469-3.04.136-5.39 2.804-5.25 5.96"/>
        <path fill="#954A97" d="M206.575 157.313c-.288 4.227-6.989 5.719-10.817 1.9-2.866-2.86-9.851-7.377-14.755-9.293-1.972-.77-3.495-2.886-3.52-4.99-.157-13.574 9.457-16.857 10.897-16.494 5.133 1.294 18.527 24.014 18.195 28.877"/>
        <path fill="#C5809F" d="M47.45 165.64c2.235 28.843 31.221 36.238 64.743 33.64 33.523-2.6 58.885-14.206 56.65-43.05-2.234-28.844-31.22-50.12-64.743-47.522-33.522 2.599-58.885 28.087-56.65 56.931"/>
        <path fill="#954A97" d="M206.575 157.313c-.288 4.227-6.989 5.719-10.817 1.9-2.866-2.86-9.851-7.377-14.755-9.293-1.972-.77-3.495-2.886-3.52-4.99-.157-13.574 9.457-16.857 10.897-16.494 5.133 1.294 18.527 24.014 18.195 28.877M74.093 157.944c-.288 4.227-6.989 5.719-10.817 1.9-2.866-2.86-9.85-7.377-14.755-9.293-1.972-.77-3.495-2.886-3.52-4.99-.157-13.574 9.457-16.857 10.897-16.494 5.133 1.294 18.527 24.014 18.195 28.877"/>
        <path stroke="#040000" stroke-linecap="round" d="M111.597 68.645s-23.38-2.249-31.816 35.895M111.883 72.338s-18.479 11.748-19.911 31.64M110.803 70.473s-17.636 6.652-22.838 25.169M133.019 67.738s30.657 10.8 32.177 45.924M128.4 71.153s17.692 10.999 22.778 29.082"/>
        <path fill="#C63C3C" d="M85.735 56.012h58.04v-6.31h-58.04z"/>
        <path fill="#BEA2C2" d="M129.265 176.533l-40.376-11.358h51.731z"/>
        <path fill="#954A97" d="M131.923 174.603l-25.37-6.904 26.72.631z"/>
        <path fill="#BEA2C2" d="M148.19 126.053l-18.926 50.48h88.953l17.034-50.48z"/>
        <path fill="#954A97" d="M88.89 165.175v2.524l40.375 11.358v-2.524zM129.265 179.057h88.952v-2.524h-88.952z"/>
        <g>
            <path fill="#954A97" d="M194.184 154.97c-2.131 4.963-7.363 7.482-11.685 5.625-4.321-1.856-6.098-7.384-3.967-12.348 2.132-4.964 7.363-7.482 11.685-5.625 4.321 1.856 6.098 7.384 3.967 12.348"/>
            <path fill="#C63C3C" d="M108.446 49.702H17.601v18.224c0 11.89 9.913 21.53 22.14 21.53h46.565c12.228 0 22.14-9.64 22.14-21.53V49.702zm-7.787 7.572v10.652c0 7.696-6.438 13.957-14.353 13.957H39.742c-7.915 0-14.354-6.261-14.354-13.957V57.274h75.271zM186.043 49.702H133.05v20.7c0 10.522 9.185 19.053 20.516 19.053h11.961c11.331 0 20.516-8.53 20.516-19.053v-20.7zm-6.795 6.31v14.39c0 7.026-6.154 12.743-13.721 12.743h-11.961c-7.567 0-13.722-5.717-13.722-12.743v-14.39h39.404z"/>
            <path fill="#712473" d="M105.677 66.856c.309 6.953 7.65 12.272 16.397 11.883 8.746-.39 15.586-6.341 15.277-13.293-.31-6.952-7.651-12.273-16.398-11.883-8.746.39-15.586 6.341-15.276 13.293"/>
            <path fill="#040000" d="M124.814 74.343c.04.88.975 1.55 2.09 1.502 1.115-.05 1.987-.803 1.948-1.681-.039-.88-.975-1.551-2.09-1.502-1.115.05-1.987.802-1.948 1.681M117.469 74.524c.042.96 1.064 1.694 2.28 1.64 1.218-.055 2.17-.877 2.128-1.836-.043-.96-1.064-1.693-2.282-1.639-1.217.054-2.169.876-2.126 1.835M100.66 57.274v10.652c0 7.696-6.44 13.957-14.354 13.957H39.741c-7.914 0-14.353-6.261-14.353-13.957V57.274h75.272"/>
            <path fill="#FFF" d="M32.111 69.137h3.66v-3.66h-3.66zM35.77 72.797h3.66v-3.66h-3.66zM39.429 76.457h3.66v-3.66h-3.66zM39.429 69.137h3.66v-3.66h-3.66zM43.088 72.797h3.66v-3.66h-3.66zM46.747 76.457h3.66v-3.66h-3.66z"/>
            <path fill="#040000" d="M179.249 56.012v14.39c0 7.026-6.156 12.743-13.722 12.743h-11.962c-7.566 0-13.72-5.717-13.72-12.743v-14.39h39.404"/>
            <path fill="#FFF" d="M145.036 70.273h2.902V67.37h-2.902zM147.938 73.176h2.902v-2.904h-2.902zM150.84 76.078h2.902v-2.902h-2.902zM150.84 70.273h2.902V67.37h-2.902zM153.742 73.176h2.902v-2.904h-2.902zM156.644 76.078h2.902v-2.902h-2.902z"/>
        </g>
    </g>
</svg>
