<?xml version="1.0" encoding="UTF-8"?>
<svg width="220px" height="260px" viewBox="0 0 220 260" version="1.1" xmlns="http://www.w3.org/2000/svg" xmlns:xlink="http://www.w3.org/1999/xlink">
    <!-- Generator: sketchtool 52.5 (67469) - http://www.bohemiancoding.com/sketch -->
    <title>7AE6B49C-2558-44C9-9D6D-042F45F51136</title>
    <desc>Created with sketchtool.</desc>
    <defs>
        <polygon id="path-1" points="0 0.226993865 208.744172 0.226993865 208.744172 72.1233129 0 72.1233129"></polygon>
        <polygon id="path-3" points="0 0 202.560123 0 202.560123 174.525767 0 174.525767"></polygon>
    </defs>
    <g id="v1-UI" stroke="none" stroke-width="1" fill="none" fill-rule="evenodd">
        <g id="ArcadeX-my-collection" transform="translate(-442.000000, -214.000000)">
            <g id="Group-10" transform="translate(442.000000, 214.000000)">
                <g id="Group-3" transform="translate(5.000000, 0.000000)">
                    <path d="M104.430675,163.680982 C76.0601227,163.680982 51.3521472,179.621472 38.8159509,202.998773 C42.6355033,207.396567 46.8866494,211.400052 51.5055215,214.94908 C55.204908,217.792025 56.996319,222.513497 56.0435583,227.067485 C55.2332863,230.656633 54.8250467,234.324821 54.8263804,238.004294 C54.8263804,238.668098 54.8441718,239.328221 54.8693252,239.985276 C54.8742331,240.088344 54.8773006,240.192638 54.8815951,240.295706 C54.9104294,240.928221 54.9521472,241.559509 55.0042945,242.188344 L55.0343558,242.518405 C55.0915465,243.161448 55.1614989,243.803292 55.2441718,244.443558 C55.2503067,244.491411 55.2576687,244.538037 55.2644172,244.586503 C55.3533742,245.252147 55.4546012,245.915951 55.5699387,246.577301 L55.5791411,246.632515 C55.697546,247.304294 55.8319018,247.974233 55.9779141,248.639877 C55.990184,248.690798 56,248.742331 56.0122699,248.793252 C56.1607362,249.461963 56.3239264,250.128221 56.501227,250.790798 L56.5196319,250.860736 C56.8903148,252.238321 57.3207835,253.599118 57.809816,254.939264 C59.2153374,258.792025 63.4828221,260.777914 67.3435583,259.374233 C69.9355828,258.431902 71.6779141,256.19816 72.1208589,253.666871 C72.206135,253.179755 72.2435583,252.682822 72.2288344,252.180982 C73.7668712,235.789571 87.5846626,222.958896 104.407975,222.958896 C121.234356,222.958896 135.052147,235.792025 136.588344,252.18589 C136.57446,252.681085 136.610429,253.176422 136.695706,253.664417 C137.138037,256.197546 138.880982,258.431288 141.474847,259.374233 C142.314724,259.679141 143.174233,259.82454 144.019018,259.82454 C147.055828,259.82454 149.908589,257.952761 151.007362,254.939264 C151.494319,253.603668 151.923147,252.247589 152.292638,250.874847 L152.319018,250.779141 C152.493865,250.12454 152.655215,249.465644 152.803067,248.804294 C152.815337,248.744785 152.828834,248.684663 152.842331,248.62454 C152.986503,247.966258 153.118405,247.305521 153.236196,246.641104 L153.25092,246.552761 C153.363804,245.907362 153.46319,245.258896 153.54908,244.608589 C153.557669,244.550307 153.566258,244.492025 153.57362,244.433129 C153.655223,243.801425 153.724357,243.168173 153.780982,242.533742 C153.848391,241.792622 153.899528,241.050112 153.934356,240.306748 C153.939877,240.193865 153.943558,240.079755 153.947853,239.966871 C153.973006,239.319632 153.989571,238.671166 153.990184,238.020859 L153.990184,238.004294 C153.990184,237.458282 153.978528,236.915337 153.960736,236.37362 L152.869939,227.345399 C152.853988,227.274233 152.841718,227.20184 152.825153,227.130675 C151.807975,222.579141 153.559509,217.828221 157.263804,214.98589 C161.912319,211.419189 166.188999,207.392446 170.028834,202.966871 C157.486503,179.606748 132.78773,163.680982 104.430675,163.680982" id="Path-Copy-32" fill="#683907"></path>
                    <g id="Group-Copy-4" transform="translate(0.165644, 103.558282)">
                        <g id="Clipped">
                            <mask id="mask-2" fill="white">
                                <use xlink:href="#path-1"></use>
                            </mask>
                            <g id="a"></g>
                            <path d="M199.503681,71.1141104 C204.61411,74.4638037 210.846626,68.8515337 208.05092,63.4245399 C188.723926,25.898773 149.553988,0.226993865 104.372393,0.226993865 C59.190184,0.226993865 20.0208589,25.8993865 0.692638037,63.4233129 C-2.10245399,68.8509202 4.13067485,74.4631902 9.2404908,71.1134969 C36.5595092,53.2055215 69.2466258,42.7883436 104.372393,42.7883436 C139.497546,42.7883436 172.184663,53.2055215 199.503681,71.1134969" id="Path" fill="#683907" mask="url(#mask-2)"></path>
                        </g>
                    </g>
                    <path d="M58.6478528,219.593865 C72,227.96319 87.7944785,232.808589 104.725153,232.808589 C121.669939,232.808589 137.477301,227.954601 150.83681,219.572393 C158.128702,214.997239 164.702699,209.367228 170.344785,202.865644 C183.520859,187.677301 191.493252,167.868098 191.493252,146.2 C191.493252,91.5343558 152.644785,34.8466258 104.72454,34.8466258 C56.803681,34.8466258 17.9570552,91.5343558 17.9570552,146.2 C17.9570552,167.882822 25.9398773,187.704908 39.1319018,202.897546 C44.7769278,209.396051 51.3534084,215.02255 58.6472393,219.593865" id="Path-Copy-33" fill="#683907"></path>
                    <path d="M163.946626,165.932515 C163.946626,193.265031 137.308589,215.422699 104.448466,215.422699 C71.5889571,215.422699 44.9509202,193.265031 44.9509202,165.931902 C44.9509202,138.599387 71.5889571,116.441718 104.448466,116.441718 C137.307975,116.441718 163.946626,138.599387 163.946626,165.932515" id="Path-Copy-34" fill="#F9B032"></path>
                    <g id="Group-3-Copy" transform="translate(2.006135, 0.490798)">
                        <mask id="mask-4" fill="white">
                            <use xlink:href="#path-3"></use>
                        </mask>
                        <g id="Clip-2"></g>
                        <path d="M194.550368,76.0314724 C194.550368,76.0314724 199.677362,54.7922086 182.342393,47.9069325 C182.342393,47.9069325 182.098221,24.8664417 161.587791,24.3363804 C161.587791,24.3363804 150.023988,2.61981595 135.890245,11.3596933 C135.890245,11.3596933 126.038712,1.0308589 113.658957,7.38668712 C113.658957,7.38668712 111.046687,-0.293067485 101.279816,-0.293067485 C91.5135583,-0.293067485 88.9000613,7.38668712 88.9000613,7.38668712 C76.5203067,1.0308589 66.67,11.3596933 66.67,11.3596933 C52.5362577,2.61981595 40.971227,24.3363804 40.971227,24.3363804 C20.461411,24.8664417 20.2178528,47.9069325 20.2178528,47.9069325 C2.88226994,54.7922086 8.0092638,76.0314724 8.0092638,76.0314724 C-8.10546012,91.4437423 5.07920245,113.056626 5.07920245,113.056626 C-0.780306748,138.480552 17.7755215,142.982393 17.7755215,142.982393 C18.5086503,163.375031 39.1657055,158.872577 39.1657055,158.872577 C46.1491411,175.82227 64.6546626,168.142515 64.6546626,168.142515 C77.3522086,179.265215 86.1417791,167.348037 86.1417791,167.348037 C88.0951534,169.466442 91.0252147,174.232699 101.279816,174.232699 C111.535031,174.232699 114.464479,169.466442 116.418466,167.348037 C116.418466,167.348037 125.208037,179.265215 137.904356,168.142515 C137.904356,168.142515 156.411104,175.82227 163.39454,158.872577 C163.39454,158.872577 184.051595,163.375031 184.783497,142.982393 C184.783497,142.982393 203.340552,138.480552 197.480429,113.056626 C197.480429,113.056626 210.665706,91.4437423 194.550368,76.0314724" id="Fill-1" fill="#7C4613" mask="url(#mask-4)"></path>
                    </g>
                    <path d="M182.814976,81.8110429 C182.814976,81.8110429 187.175712,63.2791411 172.43154,57.2717791 C172.43154,57.2717791 172.223565,37.1674847 154.780006,36.7055215 C154.780006,36.7055215 144.94381,17.7576687 132.922951,25.3822086 C132.922951,25.3822086 124.54381,16.3705521 114.014362,21.9165644 C114.014362,21.9165644 111.791663,15.2147239 103.484914,15.2147239 C95.1781659,15.2147239 92.95608,21.9165644 92.95608,21.9165644 C82.4272457,16.3705521 74.0481046,25.3822086 74.0481046,25.3822086 C62.0266322,17.7576687 52.1910494,36.7055215 52.1910494,36.7055215 C34.7468776,37.1674847 34.5395156,57.2717791 34.5395156,57.2717791 C19.7947304,63.2791411 24.15608,81.8110429 24.15608,81.8110429 C10.4499451,95.2588957 21.663442,114.116564 21.663442,114.116564 C16.6793929,136.299387 32.4628285,140.228221 32.4628285,140.228221 C33.0855279,158.021472 50.6548531,154.092638 50.6548531,154.092638 C56.5947304,168.881595 72.3352212,162.180982 72.3352212,162.180982 C83.1339942,171.88589 90.6094543,161.487117 90.6094543,161.487117 C92.270804,163.336196 94.763442,167.495092 103.484914,167.495092 C112.207614,167.495092 114.699638,163.336196 116.360988,161.487117 C116.360988,161.487117 123.837062,171.88589 134.635835,162.180982 C134.635835,162.180982 150.375712,168.881595 156.316203,154.092638 C156.316203,154.092638 173.884914,158.021472 174.508227,140.228221 C174.508227,140.228221 190.291049,136.299387 185.307,114.116564 C185.307,114.116564 196.521724,95.2588957 182.814976,81.8110429" id="Fill-4-Copy" fill="#683907"></path>
                    <path d="M77.0147239,63.3208589 C77.0147239,75.997546 69.0128834,86.2736196 59.1423313,86.2736196 C49.2717791,86.2736196 41.2699387,75.997546 41.2699387,63.3208589 C41.2699387,50.6447853 49.2717791,40.3680982 59.1423313,40.3680982 C69.0128834,40.3680982 77.0147239,50.6447853 77.0147239,63.3208589" id="Fill-6-Copy-2" fill="#F69833"></path>
                    <path d="M70.0552147,63.3269939 C70.0552147,70.9245399 65.2595092,77.0834356 59.3435583,77.0834356 C53.4276074,77.0834356 48.6319018,70.9245399 48.6319018,63.3269939 C48.6319018,55.7294479 53.4276074,49.5705521 59.3435583,49.5705521 C65.2595092,49.5705521 70.0552147,55.7294479 70.0552147,63.3269939" id="Fill-8-Copy-2" fill="#FFF8AD"></path>
                    <path d="M129.613497,63.3208589 C129.613497,75.997546 137.614724,86.2736196 147.48589,86.2736196 C157.356442,86.2736196 165.358282,75.997546 165.358282,63.3208589 C165.358282,50.6447853 157.356442,40.3680982 147.48589,40.3680982 C137.614724,40.3680982 129.613497,50.6447853 129.613497,63.3208589" id="Fill-10-Copy-2" fill="#F69833"></path>
                    <path d="M136.97546,63.3269939 C136.97546,70.9245399 141.771166,77.0834356 147.687117,77.0834356 C153.603067,77.0834356 158.398773,70.9245399 158.398773,63.3269939 C158.398773,55.7294479 153.603067,49.5705521 147.687117,49.5705521 C141.771166,49.5705521 136.97546,55.7294479 136.97546,63.3269939" id="Fill-12-Copy-2" fill="#FFF8AD"></path>
                    <path d="M103.128221,48.9570552 C64.8993865,48.9570552 33.9079755,77.4361963 33.9079755,108.809816 C33.9079755,140.183436 64.8993865,161.246626 103.128221,161.246626 C141.357669,161.246626 172.348466,140.183436 172.348466,108.809816 C172.348466,77.4361963 141.357669,48.9570552 103.128221,48.9570552" id="Fill-14-Copy" fill="#F9B032"></path>
                    <path d="M46.9423313,89.5092025 C46.9423313,93.608589 43.6122699,96.9325153 39.504908,96.9325153 C35.397546,96.9325153 32.0674847,93.608589 32.0674847,89.5092025 C32.0674847,85.408589 35.397546,82.0858896 39.504908,82.0858896 C43.6122699,82.0858896 46.9423313,85.408589 46.9423313,89.5092025" id="Path-Copy-35" fill="#FFFFFF"></path>
                    <path d="M174.549693,89.5092025 C174.549693,93.608589 171.219632,96.9325153 167.11227,96.9325153 C163.004908,96.9325153 159.674847,93.608589 159.674847,89.5092025 C159.674847,85.408589 163.004908,82.0858896 167.11227,82.0858896 C171.219632,82.0858896 174.549693,85.408589 174.549693,89.5092025" id="Path-Copy-36" fill="#FFFFFF"></path>
                    <path d="M45.6895706,89.4993865 C45.6895706,92.9153374 42.9147239,95.6852761 39.4920245,95.6852761 C36.0687117,95.6852761 33.2944785,92.9153374 33.2944785,89.4993865 C33.2944785,86.0822086 36.0687117,83.3128834 39.4920245,83.3128834 C42.9153374,83.3128834 45.6895706,86.0822086 45.6895706,89.4993865" id="Path-Copy-37" fill="#040000"></path>
                    <path d="M173.296933,89.4993865 C173.296933,92.9153374 170.522086,95.6852761 167.099387,95.6852761 C163.676074,95.6852761 160.90184,92.9153374 160.90184,89.4993865 C160.90184,86.0822086 163.676074,83.3128834 167.099387,83.3128834 C170.522699,83.3128834 173.296933,86.0822086 173.296933,89.4993865" id="Path-Copy-38" fill="#040000"></path>
                    <g id="Group-10-Copy-2" transform="translate(65.196319, 69.815951)">
                        <path d="M38.3128834,20.9717791 C38.3128834,28.4889571 32.2079755,34.5822086 24.6779141,34.5822086 C17.1472393,34.5822086 11.0429448,28.4889571 11.0429448,20.9717791 C11.0429448,13.4552147 17.1472393,7.36196319 24.6779141,7.36196319 C32.2079755,7.36196319 38.3128834,13.4552147 38.3128834,20.9717791" id="Path" fill="#7C4613"></path>
                        <path d="M63.4662577,20.9717791 C63.4662577,28.4889571 57.3613497,34.5822086 49.8312883,34.5822086 C42.3006135,34.5822086 36.196319,28.4889571 36.196319,20.9717791 C36.196319,13.4552147 42.3006135,7.36196319 49.8312883,7.36196319 C57.3613497,7.36196319 63.4662577,13.4552147 63.4662577,20.9717791" id="Path" fill="#7C4613"></path>
                        <path d="M10.9257669,47.1607362 L10.4294479,47.1607362 C10.4294479,30.6907975 22.0797546,12.2699387 37.6717791,12.2699387 L37.6717791,12.7650307 C25.0460123,12.7650307 10.9257669,27.4748466 10.9257669,47.1607362" id="Path" fill="#000000"></path>
                        <path d="M68.6079755,42.2319018 L68.1122699,42.2319018 C68.1122699,23.9619632 51.8822086,10.3110429 37.3711656,10.3110429 C22.8601227,10.3110429 6.63067485,23.9619632 6.63067485,42.2319018 L6.13496933,42.2319018 C6.13496933,26.9300613 19.4932515,9.81595092 37.3711656,9.81595092 C45.5159509,9.81595092 53.3619632,13.4539877 59.4662577,20.0576687 C65.2760736,26.3447853 68.607362,34.4269939 68.6079755,42.2319018" id="Path" fill="#000000"></path>
                        <path d="M74.8680982,47.2018405 L74.3723926,47.2018405 C74.3723926,37.7312883 70.4257669,27.9196319 63.5441718,20.2815951 C56.3245399,12.2699387 47.0515337,7.85705521 37.4337423,7.85705521 C27.8159509,7.85705521 18.5429448,12.2699387 11.3233129,20.2822086 C4.44233129,27.9196319 0.495092025,37.7312883 0.495092025,47.202454 L-7.10542736e-14,47.202454 C-7.10542736e-14,28.3957055 16.008589,7.36196319 37.4337423,7.36196319 C47.1944785,7.36196319 56.597546,11.8331288 63.9122699,19.9515337 C70.8754601,27.6785276 74.8680982,37.6110429 74.8680982,47.2018405" id="Path" fill="#000000"></path>
                        <path d="M52.4484663,12.3730061 C52.4484663,19.206135 45.7883436,24.7453988 37.5736196,24.7453988 C29.3588957,24.7453988 22.6993865,19.2055215 22.6993865,12.3730061 C22.6993865,5.5398773 29.3588957,-4.36983782e-13 37.5736196,-4.36983782e-13 C45.7883436,-4.36983782e-13 52.4484663,5.5398773 52.4484663,12.3730061" id="Path" fill="#683907"></path>
                        <path d="M35.6079755,21.2760736 C35.6079755,21.8453988 35.0527607,22.3067485 34.3687117,22.3067485 C33.6834356,22.3067485 33.1288344,21.8453988 33.1288344,21.2760736 C33.1288344,20.7067485 33.6834356,20.2453988 34.3680982,20.2453988 C35.0527607,20.2453988 35.607362,20.7067485 35.607362,21.2760736 M42.0533742,21.2760736 C42.0533742,21.8453988 41.498773,22.3067485 40.8141104,22.3067485 C40.1294479,22.3067485 39.5748466,21.8453988 39.5748466,21.2760736 C39.5748466,20.7067485 40.1294479,20.2453988 40.8141104,20.2453988 C41.498773,20.2453988 42.0533742,20.7067485 42.0533742,21.2760736" id="Shape" fill="#040000" fill-rule="nonzero"></path>
                    </g>
                </g>
            </g>
        </g>
    </g>
</svg>