<svg xmlns="http://www.w3.org/2000/svg" width="220" height="230" viewBox="0 0 220 230">
    <g fill="none" fill-rule="evenodd">
        <path fill="#000" d="M110.001 133.681c-28.37 0-53.078 15.94-65.614 39.318a87.086 87.086 0 0 0 12.69 11.95c3.698 2.843 5.49 7.564 4.537 12.118a49.583 49.583 0 0 0-1.217 10.937c0 .664.018 1.324.043 1.981.005.103.008.208.012.31.029.633.07 1.265.123 1.893l.03.33c.057.643.127 1.285.21 1.926l.02.143c.089.665.19 1.329.305 1.99l.01.056c.118.671.252 1.341.398 2.007.013.05.023.102.035.153.148.669.311 1.335.489 1.998l.018.07c.37 1.377.801 2.738 1.29 4.078 1.406 3.853 5.673 5.839 9.534 4.435a7.42 7.42 0 0 0 4.885-7.193c1.538-16.391 15.356-29.222 32.18-29.222 16.826 0 30.644 12.833 32.18 29.227a7.42 7.42 0 0 0 4.887 7.188c.84.305 1.699.45 2.544.45 3.036 0 5.89-1.871 6.988-4.885a49.188 49.188 0 0 0 1.285-4.064l.027-.096c.174-.654.336-1.313.484-1.975l.039-.18c.144-.658.276-1.318.394-1.983l.014-.088a47.025 47.025 0 0 0 .323-2.12 50.867 50.867 0 0 0 .36-4.126c.006-.113.01-.227.014-.34a51.34 51.34 0 0 0 .043-1.946v-.017c0-.546-.012-1.089-.03-1.63l-1.09-9.029c-.016-.07-.029-.143-.045-.214-1.017-4.552.734-9.303 4.438-12.145a87.082 87.082 0 0 0 12.765-12.02c-12.542-23.36-37.24-39.285-65.598-39.285"/>
        <path fill="#000" d="M205.24 144.445c5.11 3.35 11.343-2.262 8.547-7.69C194.46 99.23 155.29 73.559 110.11 73.559c-45.183 0-84.352 25.673-103.68 63.197-2.795 5.427 3.438 11.04 8.548 7.69 27.319-17.908 60.006-28.325 95.132-28.325 35.125 0 67.812 10.417 95.13 28.325M151.644 28.876c5.508 5.028 16.281 2.836 22.292-3.077 6.011-5.914 2.456-13.573-3.053-18.601-5.508-5.028-15.712-7.475-20.756.325-5.044 7.8-3.991 16.325 1.517 21.353z"/>
        <path fill="#404040" d="M154.955 25.116c3.694 3.35 10.843 1.971 14.804-1.89 3.96-3.863 1.549-8.936-2.146-12.286-3.693-3.35-10.493-5.026-13.8.087-3.305 5.112-2.552 10.74 1.142 14.09z"/>
        <path fill="#000" d="M69.924 28.876c-5.508 5.028-16.28 2.836-22.291-3.077-6.012-5.914-2.456-13.573 3.053-18.601 5.508-5.028 15.711-7.475 20.756.325 5.044 7.8 3.991 16.325-1.518 21.353z"/>
        <path fill="#404040" d="M66.614 25.116c-3.694 3.35-10.844 1.971-14.804-1.89-3.96-3.863-1.549-8.936 2.145-12.286 3.694-3.35 10.494-5.026 13.8.087 3.306 5.112 2.553 10.74-1.141 14.09z"/>
        <path fill="#000" d="M64.218 189.594c13.353 8.37 29.147 13.215 46.078 13.215 16.944 0 32.752-4.854 46.111-13.237a87.172 87.172 0 0 0 19.508-16.706c13.176-15.189 21.149-34.998 21.149-56.666 0-54.666-38.849-111.353-86.769-111.353-47.92 0-86.767 56.687-86.767 111.353 0 21.683 7.982 41.505 21.174 56.698a87.167 87.167 0 0 0 19.516 16.696"/>
        <path fill="#FFF" d="M110.498 138.352C92.047 138.4 51 105.762 51 91.255c0-14.506 26.638 18.546 59.498 18.546s59.498-35.693 59.498-18.546-41.048 47.048-59.498 47.097zM108.57 48.518c0 7.517-6.105 13.61-13.635 13.61-7.53 0-13.635-6.093-13.635-13.61 0-7.517 6.104-13.61 13.635-13.61 7.53 0 13.635 6.093 13.635 13.61"/>
        <path fill="#FFF" d="M133.723 48.518c0 7.517-6.105 13.61-13.635 13.61-7.53 0-13.635-6.093-13.635-13.61 0-7.517 6.105-13.61 13.635-13.61 7.53 0 13.635 6.093 13.635 13.61M81.183 74.707h-.496c0-16.47 11.65-34.891 27.242-34.891v.495c-12.626 0-26.746 14.71-26.746 34.396"/>
        <path fill="#FFF" d="M138.865 69.778h-.496c0-18.27-16.23-31.92-30.74-31.92-14.512 0-30.741 13.65-30.741 31.92h-.496c0-15.302 13.358-32.416 31.236-32.416 8.145 0 15.991 3.638 22.095 10.242 5.81 6.287 9.141 14.369 9.142 22.174"/>
        <path fill="#FFF" d="M145.125 74.748h-.496c0-9.47-3.946-19.282-10.828-26.92-7.22-8.012-16.492-12.425-26.11-12.425-9.618 0-18.891 4.413-26.11 12.425-6.882 7.638-10.829 17.45-10.829 26.92h-.495c0-18.806 16.009-39.84 37.434-39.84 9.76 0 19.164 4.471 26.478 12.59 6.964 7.727 10.956 17.66 10.956 27.25"/>
        <path fill="#404040" d="M122.706 39.919c0 6.833-6.66 12.372-14.875 12.372s-14.875-5.54-14.875-12.372c0-6.833 6.66-12.373 14.875-12.373 8.214 0 14.875 5.54 14.875 12.373"/>
        <path fill="#040000" fill-rule="nonzero" d="M105.865 48.822c0 .57-.555 1.03-1.24 1.03-.685 0-1.24-.46-1.24-1.03 0-.57.555-1.03 1.24-1.03.685 0 1.24.46 1.24 1.03m6.445 0c0 .57-.554 1.03-1.239 1.03-.684 0-1.24-.46-1.24-1.03 0-.57.556-1.03 1.24-1.03.685 0 1.24.46 1.24 1.03"/>
        <g>
            <path fill="#FFF" d="M54.991 39.877c0 4.1-3.33 7.424-7.437 7.424s-7.437-3.324-7.437-7.424c0-4.1 3.33-7.423 7.437-7.423s7.437 3.323 7.437 7.423"/>
            <path fill="#040000" d="M53.739 39.867c0 3.416-2.775 6.186-6.198 6.186-3.423 0-6.197-2.77-6.197-6.186a6.191 6.191 0 0 1 6.197-6.186 6.191 6.191 0 0 1 6.198 6.186"/>
        </g>
        <g>
            <path fill="#FFF" d="M179.507 39.877c0 4.1-3.33 7.424-7.438 7.424-4.107 0-7.437-3.324-7.437-7.424 0-4.1 3.33-7.423 7.437-7.423 4.108 0 7.438 3.323 7.438 7.423"/>
            <path fill="#040000" d="M178.254 39.867c0 3.416-2.775 6.186-6.198 6.186-3.423 0-6.197-2.77-6.197-6.186a6.191 6.191 0 0 1 6.197-6.186 6.191 6.191 0 0 1 6.198 6.186"/>
        </g>
    </g>
</svg>
