<svg xmlns="http://www.w3.org/2000/svg" xmlns:xlink="http://www.w3.org/1999/xlink" width="220" height="230" viewBox="0 0 220 230">
    <defs>
        <path id="a" d="M0 .227h208.744v71.896H0z"/>
    </defs>
    <g fill="none" fill-rule="evenodd">
        <path fill="#F69833" d="M64.263 32.71C59 34.22 46.473 28.8 46.755 19.906c.13-4.143 7.438-9.215 10.908-10.21 5.262-1.509 9.324 3.917 11.255 10.652 1.931 6.735.606 10.854-4.655 12.362z"/>
        <path fill="#F47775" d="M62.019 29c-3.225.924-10.992-2.71-10.907-8.465.04-2.681 4.488-5.893 6.615-6.502 3.224-.925 5.779 2.628 7.035 7.008 1.256 4.38.481 7.034-2.743 7.958z"/>
        <path fill="#F69833" d="M157.67 34.71c5.279 1.51 17.848-3.911 17.566-12.804-.132-4.143-7.463-9.215-10.945-10.21-5.28-1.509-9.354 3.917-11.292 10.652-1.938 6.735-.608 10.854 4.67 12.362z"/>
        <path fill="#F47775" d="M159.921 31c3.236.924 11.028-2.71 10.943-8.465-.04-2.681-4.503-5.893-6.637-6.502-3.235-.925-5.798 2.628-7.058 7.008-1.26 4.38-.483 7.034 2.752 7.958z"/>
        <path fill="#F9B032" d="M109.43 133.681c-28.37 0-53.078 15.94-65.614 39.318a87.086 87.086 0 0 0 12.69 11.95c3.699 2.843 5.49 7.564 4.538 12.118a49.583 49.583 0 0 0-1.218 10.937c0 .664.018 1.324.043 1.981l.013.31c.028.633.07 1.265.122 1.893l.03.33c.058.643.127 1.285.21 1.926l.02.143c.09.665.19 1.329.306 1.99l.01.056c.118.671.252 1.341.398 2.007l.034.153c.149.669.312 1.335.49 1.998l.018.07c.37 1.377.8 2.738 1.29 4.078 1.405 3.853 5.673 5.839 9.534 4.435a7.42 7.42 0 0 0 4.885-7.193c1.538-16.391 15.356-29.222 32.179-29.222 16.826 0 30.644 12.833 32.18 29.227-.014.495.022.99.108 1.478a7.42 7.42 0 0 0 4.779 5.71c.84.305 1.7.45 2.544.45 3.037 0 5.89-1.871 6.988-4.885a49.188 49.188 0 0 0 1.286-4.064l.026-.096c.175-.654.336-1.313.484-1.975a50.357 50.357 0 0 0 .433-2.163l.015-.088a47.025 47.025 0 0 0 .323-2.12 50.867 50.867 0 0 0 .36-4.126c.006-.113.01-.227.014-.34a51.34 51.34 0 0 0 .042-1.946v-.017c0-.546-.011-1.089-.03-1.63l-1.09-9.029c-.016-.07-.028-.143-.045-.214-1.017-4.552.735-9.303 4.439-12.145a87.082 87.082 0 0 0 12.765-12.02c-12.542-23.36-37.241-39.285-65.598-39.285"/>
        <g transform="translate(5.166 73.558)">
            <mask id="b" fill="#fff">
                <use xlink:href="#a"/>
            </mask>
            <path fill="#F9B032" d="M199.504 71.114c5.11 3.35 11.343-2.262 8.547-7.69C188.724 25.9 149.554.228 104.372.228S20.021 25.899.692 63.423c-2.794 5.428 3.439 11.04 8.548 7.69 27.32-17.907 60.007-28.325 95.132-28.325 35.126 0 67.813 10.418 95.132 28.325" mask="url(#b)"/>
        </g>
        <path fill="#F9B032" d="M63.648 189.594c13.352 8.37 29.146 13.215 46.077 13.215 16.945 0 32.752-4.854 46.112-13.237a87.172 87.172 0 0 0 19.508-16.706c13.176-15.189 21.148-34.998 21.148-56.666 0-54.666-38.848-111.353-86.768-111.353-47.921 0-86.768 56.687-86.768 111.353 0 21.683 7.983 41.505 21.175 56.698a87.167 87.167 0 0 0 19.515 16.696"/>
        <g fill="#040000">
            <path d="M46.204 155.489c1.032 1.638-6.578 11.584-8.263 9.685-.64-.72-2.888-3.797-2.923-4.685-.085-2.113 10.939-6.37 11.186-5zM49.686 165.667c.848 1.145-4.426 8.92-5.775 7.623-.512-.492-2.337-2.623-2.403-3.274-.157-1.551 7.932-5.343 8.178-4.349zM30.035 149.946c-.073-1.233 12.879-5.204 13.853-3.208 1.154 2.368-10.536 9.618-11.37 9.27-.832-.347-2.409-4.83-2.483-6.062z"/>
        </g>
        <g fill="#040000">
            <path d="M41.93 86.12c-.555 1.899-14.839.698-14.581-1.951.098-1.006.893-4.855 1.606-5.403 1.696-1.306 13.923 6.331 12.974 7.354zM36.182 95.229c-.287 1.442-10.922 1.123-10.903-.868.008-.756.349-3.668.84-4.107 1.17-1.045 10.698 4.171 10.063 4.975zM33.206 67.532c.97-.783 14.476 8.789 13.578 10.842-1.065 2.434-15.963-3.593-16.33-4.558-.365-.966 1.783-5.5 2.752-6.284z"/>
        </g>
        <g fill="#040000">
            <path d="M174.964 151.916c-.856 1.737 7.752 10.833 9.23 8.768.56-.783 2.475-4.078 2.417-4.964-.137-2.111-11.545-5.193-11.647-3.804zM173.473 160.632c-.868 1.13 4.27 8.996 5.641 7.722.521-.483 2.383-2.581 2.46-3.232.184-1.548-7.837-5.48-8.101-4.49zM191.303 144.946c.074-1.233-12.878-5.204-13.852-3.208-1.155 2.368 10.536 9.618 11.368 9.27.833-.347 2.41-4.83 2.484-6.062z"/>
        </g>
        <path fill="#FFF8AD" d="M168.947 135.933c0 27.332-26.638 49.49-59.499 49.49-32.859 0-59.497-22.158-59.497-49.491s26.638-49.49 59.497-49.49c32.86 0 59.499 22.157 59.499 49.49"/>
        <path fill="#F69833" d="M98.169 6.154c-3.762.815 3.84 37.818 9.389 37.625 6.58-.23 11.28-36.613 7.83-37.78-3.448-1.167-13.457-.659-17.219.155z"/>
        <g fill="#040000">
            <path d="M132.915 22.132c1.78.763 10.412-8.31 8.273-9.676-.812-.52-4.202-2.259-5.084-2.155-2.1.248-4.581 11.801-3.189 11.83zM127.056 6.596c-1.235-.01-4.523 13.133-2.478 14 2.424 1.03 9.053-11.024 8.662-11.838-.39-.813-4.95-2.153-6.184-2.162z"/>
        </g>
        <g fill="#040000">
            <path d="M84.076 23.436c-1.78.763-10.412-8.31-8.273-9.677.812-.519 4.202-2.258 5.085-2.154 2.1.247 4.58 11.801 3.188 11.83zM89.936 7.9c1.235-.01 4.523 13.132 2.478 14-2.425 1.03-9.053-11.024-8.662-11.838.39-.813 4.95-2.154 6.184-2.163z"/>
        </g>
        <path fill="#FFF" d="M51.942 54.51c0 4.099-3.33 7.423-7.437 7.423s-7.438-3.324-7.438-7.424c0-4.1 3.33-7.423 7.438-7.423 4.107 0 7.437 3.323 7.437 7.423M179.55 54.51c0 4.099-3.33 7.423-7.438 7.423-4.107 0-7.437-3.324-7.437-7.424 0-4.1 3.33-7.423 7.437-7.423 4.108 0 7.438 3.323 7.438 7.423"/>
        <path fill="#040000" d="M50.69 54.5c0 3.415-2.775 6.185-6.198 6.185-3.423 0-6.198-2.77-6.198-6.186a6.191 6.191 0 0 1 6.198-6.186 6.191 6.191 0 0 1 6.198 6.186M178.297 54.5c0 3.415-2.775 6.185-6.198 6.185-3.423 0-6.197-2.77-6.197-6.186a6.191 6.191 0 0 1 6.197-6.186 6.191 6.191 0 0 1 6.198 6.186"/>
        <g>
            <path fill="#F69833" d="M108.51 55.788c0 7.517-6.106 13.61-13.636 13.61-7.53 0-13.635-6.093-13.635-13.61 0-7.517 6.105-13.61 13.635-13.61 7.53 0 13.635 6.093 13.635 13.61"/>
            <path fill="#F69833" d="M133.663 55.788c0 7.517-6.105 13.61-13.635 13.61-7.531 0-13.635-6.093-13.635-13.61 0-7.517 6.104-13.61 13.635-13.61 7.53 0 13.635 6.093 13.635 13.61"/>
            <path fill="#000" d="M81.122 81.977h-.496c0-16.47 11.65-34.891 27.242-34.891v.495c-12.626 0-26.746 14.71-26.746 34.396"/>
            <path fill="#000" d="M138.804 77.048h-.495c0-18.27-16.23-31.921-30.742-31.921-14.51 0-30.74 13.65-30.74 31.92h-.496c0-15.301 13.359-32.415 31.236-32.415 8.145 0 15.991 3.638 22.096 10.242 5.81 6.287 9.14 14.369 9.141 22.174"/>
            <path fill="#000" d="M145.064 82.018h-.495c0-9.47-3.947-19.282-10.829-26.92-7.22-8.012-16.492-12.425-26.11-12.425-9.618 0-18.89 4.413-26.11 12.425-6.881 7.638-10.829 17.45-10.829 26.92h-.495c0-18.806 16.009-39.84 37.434-39.84 9.76 0 19.164 4.471 26.479 12.59 6.963 7.726 10.955 17.659 10.955 27.25"/>
            <path fill="#683907" d="M122.645 47.189c0 6.833-6.66 12.372-14.875 12.372s-14.874-5.54-14.874-12.372c0-6.833 6.66-12.373 14.874-12.373 8.215 0 14.875 5.54 14.875 12.373"/>
            <path fill="#040000" fill-rule="nonzero" d="M105.804 56.092c0 .57-.555 1.03-1.239 1.03-.685 0-1.24-.46-1.24-1.03 0-.57.555-1.03 1.24-1.03.684 0 1.239.46 1.239 1.03m6.446 0c0 .57-.555 1.03-1.24 1.03-.684 0-1.239-.46-1.239-1.03 0-.57.555-1.03 1.24-1.03.684 0 1.239.46 1.239 1.03"/>
        </g>
        <g fill="#040000">
            <path d="M177.791 87.195c.554 1.899 14.838.698 14.58-1.951-.097-1.006-.893-4.855-1.606-5.403-1.696-1.306-13.922 6.331-12.974 7.354zM183.538 96.304c.287 1.442 10.923 1.123 10.903-.868-.008-.756-.348-3.668-.84-4.107-1.17-1.045-10.698 4.171-10.063 4.975zM186.514 68.607c-.97-.783-14.476 8.788-13.577 10.842 1.065 2.434 15.963-3.593 16.329-4.558.365-.966-1.782-5.5-2.752-6.284z"/>
        </g>
    </g>
</svg>
