<svg xmlns="http://www.w3.org/2000/svg" xmlns:xlink="http://www.w3.org/1999/xlink" width="280" height="250" viewBox="0 0 280 250">
    <defs>
        <path id="a" d="M.09.048h37.006V36.06H.09z"/>
        <path id="c" d="M.506.002h109.365v33.75H.506z"/>
    </defs>
    <g fill="none" fill-rule="evenodd">
        <path fill="#D8D8D8" d="M2.1 159.33c2.185 46.687 39.68 82.857 83.744 80.79 44.066-2.068 78.016-41.59 75.831-88.277-2.185-46.686-39.679-82.856-83.744-80.788C33.865 73.123-.085 112.645 2.1 159.331"/>
        <path fill="#FFF" d="M192.878 197.25c.21 4.493-3.256 8.305-7.743 8.516-4.487.21-8.294-3.26-8.505-7.753-.21-4.492 3.257-8.304 7.743-8.514 4.487-.211 8.295 3.26 8.505 7.752"/>
        <path fill="#712473" d="M133.45 190.983c-1.111 7.137-3.255 14.954-8.675 20.083-3.135 2.966-7.067 4.425-11.235 5.22-2.516.48-5.01.91-7.209 2.345-2.55 1.664-4.143 4.52-2.867 7.495 1.038 2.421 3.545 4.108 6.051 4.686 3.609.832 7.532.284 11.063-.664 6.513-1.746 11.4-6.35 14.106-12.5 2.513-5.71 3.233-12.95 1.292-19.94-.645-2.319-1.615-4.514-2.526-6.725M231.968 56.961s12.019-8.42 12.252.757c.232 9.178-7.982 13.454-7.982 13.454l-4.27-14.21zM128.374 50.858c-1.505-2.547-9.832-3.082-12.546-2.803-1.171.12-2.376.395-3.298 1.128-5.218 4.147-1.864 12.332 1.556 16.277.464.535 7.805 6.571 7.852 6.427l4.308-13.15c.6-1.832 2.535-5.262 2.357-7.191a1.631 1.631 0 0 0-.229-.688"/>
        <path fill="#954A97" d="M130.62 210.66a76.038 76.038 0 0 1-1.054-.554c-31.758-16.97-43.21-49.162-37.894-83.718 2.057-13.367 6.144-26.42 11.551-38.797 5.348-12.238 11.3-23.842 18.54-33.745 13.174-18.019 30.613-30.412 56.437-30.774 26.179-.366 48.43 13.593 62.167 36.79 16.242 27.428 27.876 64.53 21.03 96.659-4.908 23.037-20.439 42.164-40.357 52.777-27.622 14.718-62.467 15.812-90.42 1.363"/>
        <path fill="#FFF" d="M129.469 72.736c.072 5.14 4.14 9.252 9.087 9.183 4.947-.07 8.9-4.293 8.828-9.434-.072-5.14-4.14-9.252-9.088-9.183-4.946.07-8.899 4.293-8.827 9.434"/>
        <path fill="#040000" d="M130.906 72.716c.06 4.316 3.476 7.768 7.63 7.71 4.153-.059 7.471-3.605 7.411-7.92-.06-4.317-3.477-7.769-7.63-7.71-4.154.057-7.472 3.604-7.411 7.92"/>
        <path fill="#FFF" d="M234.088 71.174c.041 2.982 2.402 5.366 5.271 5.326 2.87-.04 5.162-2.49 5.12-5.472-.041-2.982-2.401-5.366-5.27-5.326-2.87.04-5.162 2.49-5.12 5.472"/>
        <path fill="#040000" d="M234.922 71.162c.035 2.504 2.016 4.506 4.425 4.472 2.41-.034 4.334-2.09 4.3-4.594-.036-2.504-2.017-4.506-4.427-4.472-2.409.034-4.333 2.09-4.298 4.594"/>
        <path fill="#954A97" d="M277.336 158.618c-.414 3.883-6.63 5.021-10.02 1.37-2.536-2.735-8.805-7.14-13.251-9.076-1.788-.778-3.115-2.782-3.063-4.72.329-12.508 9.29-15.194 10.602-14.81 4.679 1.372 16.208 22.768 15.732 27.236M219.547 208.307c-1.762.315-3.593.662-4.64 2.281-1.069 1.652-1.494 3.726-1.789 5.64-.967 6.277-.422 12.835.33 19.103.847 7.05-5.605 9.532-11.466 7.587-8.482-2.814-13.11-11.719-13.143-20.272-.018-4.651.194-10.159-5.979-10.753"/>
        <g transform="translate(145.485 212.981)">
            <mask id="b" fill="#fff">
                <use xlink:href="#a"/>
            </mask>
            <path fill="#954A97" d="M.09 2.806l1.378.368c5.76 1.538 4.27 8.01 4.028 12.474-.245 4.543 1.272 9.283 3.925 12.965 3.352 4.654 11.468 10.118 17.155 5.983 2.089-1.518 2.78-4.087 2.655-6.57-.308-6.062-.373-12.335.929-18.299.565-2.588 1.406-5.404 3.244-7.4C35.344.222 34.472.52 37.096.048" mask="url(#b)"/>
        </g>
        <path fill="#C5809F" d="M130.734 161.728c1.247 26.638 27.328 47.055 58.254 45.604 30.927-1.45 54.986-24.221 53.739-50.859-1.246-26.636-27.328-47.054-58.254-45.602-30.926 1.45-54.985 24.22-53.739 50.857"/>
        <path fill="#D8D8D8" d="M108.613 75.977s36.314 10.597 41.924 52.528c-6.293-1.172-26.847-5.447-45.252.028-1.774.528-18.094 5.856-17.59 7.282-2.708-7.65-3.822-16.106-5.464-24.038-.257-1.243-4.18-15.831-3.448-16.307l29.83-19.493zM152.912 138.572l4.645 19.524a1.516 1.516 0 0 1-1.403 1.867l-16.125.757a1.517 1.517 0 0 1-1.576-1.688l2.273-19.889 12.186-.571z"/>
        <path fill="#954A97" d="M163.41 136.926c4.104-5.29 2.783-10.332-4.145-9.816-6.27.467-20.683.1-28.652-.967-3.262-.437-6.37 1.323-7.145 4.042-3.987 13.993 5.945 20.592 7.55 20.888 5.596 1.031 28.287-8.855 32.391-14.147"/>
        <g transform="translate(114.116 10.58)">
            <mask id="d" fill="#fff">
                <use xlink:href="#c"/>
            </mask>
            <path fill="#C63C3C" d="M109.87 23.13S85.467-20.751.507 12.374c0 0 15.22 8.522 10.742 21.378 0 0 80.57-13.871 98.623-10.622" mask="url(#d)"/>
        </g>
        <path fill="#BEA2C2" d="M125.676 48.867c11.666-3.764 52.279-15.376 97.429-10.97 1.406.137 2.63-.907 2.649-2.241.016-1.16-.892-2.14-2.11-2.287-4.419-.527-8.876-.748-13.323-.843-8.413-.178-16.836.17-25.22.858-12.26 1.005-24.455 2.758-36.539 5.053a421.08 421.08 0 0 0-12.86 2.657c-2.302.514-4.601 1.045-6.895 1.595-1.624.39-4.47.55-5.67 1.836-1.706 1.829-.013 5.165 2.539 4.342M116.369 23.221c.075 5.62-4.416 10.238-10.03 10.313-5.614.075-10.226-4.421-10.3-10.042-.075-5.62 4.415-10.238 10.03-10.313 5.613-.075 10.225 4.421 10.3 10.042M201.49 83.91c.755 7.141 7.288 12.303 14.592 11.529 7.303-.775 12.613-7.19 11.858-14.33-.756-7.141-7.288-12.303-14.592-11.529-7.303.775-12.612 7.19-11.858 14.33"/>
        <path fill="#BEA2C2" d="M172.327 84.613c.876 8.28 8.453 14.266 16.923 13.369 8.47-.898 14.628-8.339 13.752-16.62-.875-8.282-8.452-14.267-16.922-13.369-8.471.897-14.628 8.339-13.753 16.62"/>
        <path fill="#040000" fill-rule="nonzero" d="M206.75 74.147a.478.478 0 0 1-.149-.945c.083-.013.233-.03.445-.049 1.794-.151 4.103.012 6.738.732 3.893 1.064 7.728 3.168 11.308 6.547 5.573 5.26 10.122 13.233 13.298 24.349a.478.478 0 0 1-.918.263c-3.132-10.959-7.594-18.78-13.035-23.916-3.464-3.27-7.16-5.297-10.905-6.32-2.52-.69-4.718-.845-6.406-.702a5.879 5.879 0 0 0-.376.04zM206.39 77.507a.478.478 0 0 1 .461-.837 27.163 27.163 0 0 1 .897.538 42.21 42.21 0 0 1 2.332 1.58 49.6 49.6 0 0 1 7.065 6.222c5.395 5.758 9.013 12.437 10.024 20.006a.478.478 0 1 1-.947.127c-.981-7.35-4.505-13.855-9.774-19.48a48.652 48.652 0 0 0-6.928-6.1 41.258 41.258 0 0 0-2.279-1.544c-.41-.257-.7-.428-.852-.512z"/>
        <path fill="#040000" fill-rule="nonzero" d="M207.367 75.768a.478.478 0 0 1 .282-.913 23.14 23.14 0 0 1 1.08.387c.846.328 1.787.738 2.8 1.236a40.617 40.617 0 0 1 8.485 5.575c4.661 3.99 8.252 8.948 10.347 14.974a.478.478 0 0 1-.902.315c-2.036-5.857-5.527-10.678-10.066-14.562a39.67 39.67 0 0 0-8.284-5.444 34.361 34.361 0 0 0-2.725-1.202 22.194 22.194 0 0 0-1.017-.366zM186.75 73.603a.477.477 0 1 1 .372.88 26.111 26.111 0 0 0-1.13.539 41.22 41.22 0 0 0-3.025 1.707 49.99 49.99 0 0 0-9.196 7.317c-8.564 8.64-13.607 19.885-13.356 34.048a.478.478 0 1 1-.955.017c-.255-14.437 4.896-25.925 13.633-34.739a50.939 50.939 0 0 1 9.372-7.457 42.17 42.17 0 0 1 3.095-1.746 27.057 27.057 0 0 1 1.19-.566zM191.097 76.536a.477.477 0 1 1 .552.78c-.15.107-.438.32-.844.639a50.68 50.68 0 0 0-2.251 1.881 60.426 60.426 0 0 0-6.843 7.118c-4.535 5.571-7.779 11.645-9.177 18.108a.478.478 0 1 1-.933-.202c1.433-6.626 4.747-12.83 9.37-18.51a61.374 61.374 0 0 1 6.951-7.231 51.632 51.632 0 0 1 2.294-1.917 32.944 32.944 0 0 1 .88-.666z"/>
        <path fill="#712473" d="M185.752 73.302c.674 6.378 7.72 10.86 15.737 10.01 8.017-.849 13.97-6.709 13.296-13.087-.675-6.379-7.72-10.861-15.738-10.012-8.017.85-13.97 6.71-13.295 13.089"/>
        <path fill="#040000" d="M203.761 79.115c.085.806.982 1.372 2.005 1.264 1.022-.11 1.781-.85 1.696-1.657-.085-.806-.983-1.372-2.005-1.264-1.022.11-1.781.85-1.696 1.657M197.02 79.694c.093.88 1.073 1.498 2.189 1.38 1.115-.12 1.944-.928 1.851-1.808-.093-.88-1.073-1.498-2.188-1.38-1.116.118-1.945.927-1.852 1.808M90.42 150.234s70.738 42.12 171.817 4.543l-2.002 10.839s-87.424 37.905-168.853-4.918l-.963-10.464z"/>
        <path fill="#FFF" fill-rule="nonzero" d="M211.665 168.849l-23.697 1.112.431 9.203 23.696-1.111-.43-9.204zm-26.122 13.453l-.712-15.197 29.69-1.393.71 15.197-29.688 1.393z"/>
        <path fill="#FFF" fill-rule="nonzero" d="M202.308 168.19h3v10.47h-3z"/>
    </g>
</svg>
