<svg xmlns="http://www.w3.org/2000/svg" xmlns:xlink="http://www.w3.org/1999/xlink" width="220" height="240" viewBox="0 0 220 240">
    <defs>
        <path id="a" d="M0 .227h208.744v71.896H0z"/>
    </defs>
    <g fill="none" fill-rule="evenodd">
        <path fill="#F69833" d="M63.582 56.138C53.808 57.512 50.494 47.6 48.73 35.047c-1.764-12.553 3.113-26.825 8.463-24.368 5.35 2.457 19.13 7.69 20.893 20.242 1.765 12.554-4.73 23.843-14.504 25.217z"/>
        <path fill="#FFDB9C" d="M62.502 47.01c-5.858.823-7.16-4.84-8.217-12.364-1.058-7.524-1.182-18.524 4.388-14.882 5.57 3.642 11.465 4.608 12.522 12.132 1.058 7.523-2.834 14.29-8.693 15.113z"/>
        <path fill="#F69833" d="M146.49 55.346c9.69 1.884 13.003-7.94 15.422-20.384 2.418-12.444 2.798-28.89-6.662-24.678-9.46 4.213-19.505 6.678-21.924 19.121-2.418 12.444 3.475 24.058 13.165 25.941z"/>
        <path fill="#FFDB9C" d="M148.442 46.364c5.807 1.128 7.975-4.724 9.424-12.182 1.45-7.458 2.74-17.857-4.174-14.826-6.915 3.031-11.69 4.002-13.14 11.46-1.45 7.458 2.083 14.419 7.89 15.548z"/>
        <path fill="#FF9F01" d="M107.647 143.718c-28.37 0-53.078 15.94-65.615 39.318a87.086 87.086 0 0 0 12.69 11.95c3.7 2.843 5.49 7.564 4.538 12.118a49.583 49.583 0 0 0-1.217 10.937c0 .664.018 1.324.043 1.981.005.103.008.207.012.31.029.633.07 1.264.123 1.893l.03.33c.057.643.127 1.285.21 1.925l.02.143c.089.666.19 1.33.305 1.991l.01.055c.118.672.252 1.342.398 2.008.013.05.022.102.035.153.148.669.311 1.335.489 1.998l.018.07c.37 1.377.801 2.738 1.29 4.078 1.406 3.853 5.673 5.839 9.534 4.435a7.42 7.42 0 0 0 4.885-7.193c1.538-16.392 15.356-29.222 32.18-29.222 16.826 0 30.644 12.833 32.18 29.227a7.42 7.42 0 0 0 4.887 7.188c.84.305 1.699.45 2.543.45 3.037 0 5.89-1.871 6.989-4.885a49.188 49.188 0 0 0 1.285-4.064l.026-.096a49.535 49.535 0 0 0 .918-4.138l.014-.088a47.025 47.025 0 0 0 .323-2.12 50.863 50.863 0 0 0 .36-4.126c.006-.113.01-.227.014-.34.025-.648.042-1.296.043-1.946v-.017c0-.546-.012-1.089-.03-1.63l-1.09-9.029c-.017-.071-.029-.143-.045-.215-1.018-4.551.734-9.302 4.438-12.144a87.082 87.082 0 0 0 12.765-12.02c-12.542-23.36-37.24-39.285-65.598-39.285"/>
        <g transform="translate(5 83.595)">
            <mask id="b" fill="#fff">
                <use xlink:href="#a"/>
            </mask>
            <path fill="#FF9F01" d="M199.504 71.114c5.11 3.35 11.343-2.262 8.547-7.69C188.724 25.9 149.554.228 104.372.228S20.021 25.899.692 63.423c-2.794 5.428 3.439 11.04 8.548 7.69 27.32-17.907 60.007-28.325 95.132-28.325 35.126 0 67.813 10.418 95.132 28.325" mask="url(#b)"/>
        </g>
        <path fill="#FF9F01" d="M61.864 199.63c13.352 8.37 29.147 13.215 46.078 13.215 16.944 0 32.752-4.854 46.111-13.236a87.172 87.172 0 0 0 19.508-16.707c13.176-15.188 21.149-34.997 21.149-56.665 0-54.666-38.849-111.354-86.77-111.354-47.92 0-86.767 56.688-86.767 111.354 0 21.683 7.983 41.505 21.175 56.697a87.167 87.167 0 0 0 19.516 16.697"/>
        <path fill="#543A12" d="M157.608 197.894c13.166-9.79 28.374-24.463 35.121-51.77 1.425-5.763-14.457-12.24-22.909 3.687-6.687 12.6 4.077 17.177-1.207 24.209-6.646 8.846-9.012-1.517-16.142 9.577-6.654 10.352 3.332 15.64 5.137 14.297z"/>
        <path fill="#FFF" d="M167.163 145.97c0 27.332-26.638 49.49-59.498 49.49s-59.498-22.158-59.498-49.491 26.638-49.49 59.498-49.49 59.498 22.157 59.498 49.49M45.028 64.025c0 4.099-3.33 7.423-7.437 7.423-4.108 0-7.438-3.324-7.438-7.423 0-4.101 3.33-7.424 7.438-7.424 4.107 0 7.437 3.323 7.437 7.424M181.838 64.025c0 4.099-3.33 7.423-7.437 7.423-4.108 0-7.438-3.324-7.438-7.423 0-4.101 3.33-7.424 7.438-7.424 4.107 0 7.437 3.323 7.437 7.424"/>
        <path fill="#040000" d="M43.775 64.015c0 3.416-2.774 6.186-6.197 6.186s-6.198-2.77-6.198-6.186a6.191 6.191 0 0 1 6.198-6.187 6.191 6.191 0 0 1 6.197 6.187M180.585 64.015c0 3.416-2.775 6.186-6.197 6.186-3.424 0-6.198-2.77-6.198-6.186a6.191 6.191 0 0 1 6.198-6.187 6.191 6.191 0 0 1 6.197 6.187"/>
        <g>
            <path fill="#FFDB9C" d="M106.726 70.825c0 7.517-6.105 13.61-13.635 13.61-7.531 0-13.635-6.093-13.635-13.61 0-7.517 6.104-13.61 13.635-13.61 7.53 0 13.635 6.093 13.635 13.61"/>
            <path fill="#FFDB9C" d="M131.879 70.825c0 7.517-6.105 13.61-13.635 13.61-7.53 0-13.635-6.093-13.635-13.61 0-7.517 6.104-13.61 13.635-13.61 7.53 0 13.635 6.093 13.635 13.61"/>
            <path fill="#000" d="M79.338 97.013h-.496c0-16.47 11.65-34.89 27.242-34.89v.495c-12.625 0-26.746 14.71-26.746 34.395"/>
            <path fill="#000" d="M137.02 92.085h-.495c0-18.27-16.23-31.921-30.741-31.921s-30.74 13.65-30.74 31.92h-.496c0-15.301 13.358-32.415 31.236-32.415 8.145 0 15.99 3.638 22.095 10.241 5.81 6.288 9.141 14.37 9.142 22.175"/>
            <path fill="#000" d="M143.28 97.055h-.495c0-9.471-3.947-19.283-10.828-26.92-7.22-8.012-16.493-12.425-26.11-12.425-9.618 0-18.891 4.413-26.111 12.425-6.881 7.637-10.828 17.449-10.828 26.92h-.495c0-18.807 16.008-39.84 37.433-39.84 9.761 0 19.164 4.47 26.479 12.59 6.963 7.726 10.956 17.659 10.956 27.25"/>
            <path fill="#543A12" d="M120.861 62.226c0 6.833-6.66 12.372-14.875 12.372-8.214 0-14.874-5.54-14.874-12.372 0-6.833 6.66-12.373 14.874-12.373 8.215 0 14.875 5.54 14.875 12.373"/>
            <path fill="#040000" fill-rule="nonzero" d="M104.02 71.129c0 .57-.555 1.03-1.239 1.03-.685 0-1.24-.46-1.24-1.03 0-.57.555-1.03 1.24-1.03.684 0 1.24.46 1.24 1.03m6.445 0c0 .57-.555 1.03-1.24 1.03-.684 0-1.238-.46-1.238-1.03 0-.57.554-1.03 1.239-1.03.684 0 1.24.46 1.24 1.03"/>
        </g>
        <path fill="#543A12" d="M171.094 50.399c-15.091-20.554-38.463-37.737-62.961-37.31-8.985.157-10.312 27.804 14.146 40.529 25.939 13.494 50.875-.414 48.815-3.22z"/>
        <path fill="#FFDB9C" d="M45.846 49.07C54.369 32.681 67.972 21.22 84.24 18.642c5.967-.945 10.065 17.511-4.555 29.343-15.505 12.548-34.98 3.278-33.839 1.085zM43.062 183.391c-10.225-8.939-12.492-17.023-16.735-28.389-1.371-3.673 13.299-6.388 20.759 3.849 7.911 10.855-2.673 25.721-4.024 24.54z"/>
    </g>
</svg>
