<svg xmlns="http://www.w3.org/2000/svg" width="36" height="36" viewBox="0 0 36 36">
    <g fill="none" fill-rule="evenodd">
        <path fill="#F7F4CC" d="M29.014 29.835c-2.456 2.427-5.707 2.604-6.989 2.573-.318-.01-3.907-.028-4.067-.028-.156 0-3.827.018-4.145.028-1.28.032-4.533-.147-6.99-2.573-2.09-2.068-3.119-5.287-3.053-9.595-.068-4.455 1.042-7.747 3.3-9.786 3.004-2.713 7.105-2.276 7.171-2.268h.022c.022.003.042.005.063.005l.026-.001a.954.954 0 0 0 .077-.008l.054-.01a.75.75 0 0 0 .082-.025c.009-.003.018-.003.027-.008.008-.002.014-.007.021-.01a.605.605 0 0 0 .077-.04c.017-.011.034-.021.05-.033a.529.529 0 0 0 .056-.046.532.532 0 0 0 .092-.098.638.638 0 0 0 .041-.058c.012-.019.022-.039.032-.058a.757.757 0 0 0 .049-.128.77.77 0 0 0 .017-.074c.001-.01.005-.019.006-.03.002-.011 0-.022.001-.033a.589.589 0 0 0-.004-.145.774.774 0 0 0-.033-.14l-.01-.033-1.17-2.903 1.763.633a.708.708 0 0 0 .573-.04l1.876-.986 1.882.986a.707.707 0 0 0 .571.04l1.672-.6-1.29 2.842c-.007.015-.01.03-.016.046-.009.023-.018.046-.024.071-.006.024-.01.047-.013.07a.692.692 0 0 0-.009.068c0 .026 0 .052.002.078l.001.047c0 .005.003.01.004.015.004.026.01.05.017.075.005.021.01.043.016.062.008.024.02.044.03.066.01.02.017.04.028.058.015.025.033.047.05.07.01.012.018.026.03.039a.763.763 0 0 0 .075.07c.007.007.015.015.022.02.028.023.059.04.09.059.01.004.018.01.027.015.009.004.016.01.024.013.024.012.049.018.075.026.01.003.02.008.033.01.033.01.067.016.1.02a.555.555 0 0 0 .13.004h.042c.042-.006 4.131-.466 7.16 2.256 2.264 2.038 3.378 5.334 3.31 9.817.066 4.288-.962 7.508-3.054 9.575"/>
        <path fill="#8B2225" d="M22.283 33.835c-.107 0-.206 0-.298-.003-.25-.008-2.992-.023-4.027-.028-1.051.005-3.855.02-4.105.028-1.468.047-5.184-.172-8.03-2.984-2.379-2.35-3.55-5.92-3.478-10.608-.074-4.871 1.198-8.531 3.783-10.855 3.505-3.153 8.09-2.637 8.284-2.614a.713.713 0 0 1-.171 1.415c-.066-.008-4.167-.445-7.171 2.268-2.258 2.039-3.368 5.33-3.3 9.786-.066 4.308.962 7.527 3.054 9.595 2.456 2.426 5.71 2.605 6.99 2.573.317-.01 3.988-.028 4.144-.028.16 0 3.75.018 4.067.028 1.282.031 4.533-.146 6.99-2.573 2.09-2.067 3.119-5.287 3.053-9.575.068-4.483-1.046-7.779-3.31-9.817-3.029-2.722-7.118-2.262-7.16-2.257a.716.716 0 0 1-.793-.621.714.714 0 0 1 .621-.794c.194-.024 4.78-.54 8.284 2.614 2.584 2.324 3.857 5.984 3.783 10.875.071 4.669-1.099 8.239-3.477 10.588-2.67 2.639-6.108 2.987-7.733 2.987"/>
        <path fill="#8B2225" d="M14.326 8.191a.712.712 0 0 1-.661-.446l-1.763-4.378a.712.712 0 0 1 .902-.936l2.963 1.066 1.93-1.015a.709.709 0 0 1 .662 0l1.936 1.015 2.963-1.066a.714.714 0 0 1 .89.965l-1.987 4.378a.712.712 0 0 1-1.298-.59l1.291-2.841-1.672.6a.707.707 0 0 1-.571-.04l-1.882-.986-1.876.985a.708.708 0 0 1-.573.041l-1.762-.633 1.169 2.903a.711.711 0 0 1-.66.978M14.24 31.195c-3.268 0-8.813-1.382-9.23-10.634-.169-3.74.695-6.63 2.565-8.586 2.314-2.42 5.618-2.781 7.38-2.781 1.01 0 1.687.112 1.716.117a.711.711 0 0 1 .594.702v20.213a.713.713 0 0 1-.529.688c-.043.012-1.069.281-2.496.281z"/>
        <path fill="#E1707A" d="M14.955 10.619c-1.536 0-4.403.304-6.35 2.34-1.591 1.665-2.322 4.201-2.172 7.539.345 7.663 4.436 9.272 7.807 9.272.658 0 1.22-.066 1.6-.128v-18.99a11.862 11.862 0 0 0-.885-.033z"/>
        <path fill="#8B2225" d="M21.366 31.196c-1.41 0-2.424-.27-2.466-.282a.714.714 0 0 1-.527-.688V10.013c0-.346.25-.643.592-.702.028-.005.697-.117 1.695-.117 1.727 0 4.965.356 7.248 2.742 1.872 1.957 2.736 4.86 2.568 8.625-.41 9.252-5.884 10.635-9.11 10.635z"/>
        <path fill="#E1707A" d="M19.798 29.644c.375.062.924.126 1.568.126 3.318 0 7.346-1.609 7.687-9.272.15-3.362-.582-5.911-2.175-7.577-1.917-2.003-4.719-2.302-6.218-2.302-.335 0-.629.014-.862.032v18.993z"/>
        <path fill="#8B2225" d="M13.754 17.04a.712.712 0 0 1-.712-.712v-2.922a.713.713 0 0 1 1.425 0v2.922c0 .394-.32.712-.713.712M9.2 21.68a.713.713 0 0 1-.712-.711v-2.923a.713.713 0 0 1 1.425 0v2.923c0 .392-.32.711-.713.711M13.754 26.922a.712.712 0 0 1-.712-.712v-2.922a.712.712 0 0 1 1.425 0v2.922c0 .393-.32.712-.713.712M22.079 26.922a.712.712 0 0 1-.712-.712v-2.922a.712.712 0 1 1 1.424 0v2.922c0 .393-.32.712-.712.712M26.633 22.282a.712.712 0 0 1-.712-.713v-2.921a.712.712 0 0 1 1.425 0v2.921c0 .394-.32.713-.713.713M22.079 17.04a.712.712 0 0 1-.712-.712v-2.922a.712.712 0 0 1 1.424 0v2.922c0 .394-.32.712-.712.712"/>
    </g>
</svg>
