<svg xmlns="http://www.w3.org/2000/svg" width="36" height="36" viewBox="0 0 36 36">
    <g fill="none" fill-rule="evenodd">
        <path fill="#61AD0E" d="M27.516 5.507c-4.613 1.046-7.045-.633-8.025-1.622 5.04-.944 7.191.613 8.025 1.622"/>
        <path fill="#BFF645" d="M32.379 19.176c-.272 5.606-3.353 11.186-7.687 13.944-.222.025-.663.067-1.179.067-1.234 0-2.15-.238-2.507-.651-.933-1.08-2.135-1.255-2.705-1.273a.86.86 0 0 0-.05-.002h-.089c-.389.01-2.054.115-3.057 1.275-.358.413-1.271.651-2.507.651-.514 0-.956-.042-1.179-.067-4.334-2.758-7.415-8.338-7.685-13.944-.18-3.708.93-6.668 3.126-8.34 1.734-1.32 3.62-1.988 5.605-1.988 2.316 0 4.251.918 5.2 1.466.241.14.54.14.782 0 .948-.548 2.884-1.466 5.2-1.466 1.985 0 3.87.669 5.605 1.989 2.195 1.67 3.306 4.632 3.127 8.34"/>
        <path fill="#698F4A" d="M18.301 31.263c.57.018 1.772.193 2.705 1.273.358.413 1.273.651 2.507.651.516 0 .957-.042 1.179-.067 4.334-2.758 7.415-8.338 7.687-13.944.18-3.707-.932-6.668-3.127-8.34-1.735-1.32-3.62-1.988-5.605-1.988-2.316 0-4.252.918-5.2 1.466a.78.78 0 0 1-.783 0c-.948-.548-2.883-1.466-5.199-1.466-1.985 0-3.87.669-5.605 1.989-2.196 1.67-3.306 4.631-3.126 8.339.27 5.606 3.351 11.186 7.685 13.944.223.025.665.067 1.179.067 1.236 0 2.15-.238 2.507-.651 1.003-1.16 2.668-1.264 3.057-1.274H18.25a.86.86 0 0 1 .051 0zm5.212 3.488c-1.764 0-3.006-.402-3.69-1.192-.57-.66-1.32-.733-1.619-.734-.485.009-1.428.171-1.916.734-.683.79-1.925 1.192-3.69 1.192-.862 0-1.536-.1-1.564-.104a.77.77 0 0 1-.296-.108C5.91 31.553 2.468 25.41 2.17 19.252c-.206-4.238 1.123-7.668 3.741-9.66 2.013-1.532 4.218-2.309 6.553-2.309 2.39 0 4.412.836 5.59 1.46 1.179-.624 3.202-1.46 5.592-1.46 2.335 0 4.54.777 6.552 2.309 2.618 1.992 3.947 5.422 3.742 9.66-.298 6.159-3.741 12.302-8.568 15.287a.768.768 0 0 1-.295.108c-.028.004-.702.104-1.565.104z"/>
        <path fill="#698F4A" d="M19.49 3.885c.98.99 3.413 2.668 8.026 1.622-.834-1.01-2.986-2.566-8.025-1.622zM18.057 9.71a.782.782 0 0 1-.782-.782V3.396c0-.36.246-.673.594-.76C27.435.28 29.383 5.52 29.461 5.745a.785.785 0 0 1-.52 1.008c-5.392 1.578-8.55-.023-10.103-1.345V8.93c0 .432-.35.782-.782.782zM7.757 23.488a.783.783 0 0 1-.742-.534c-2.549-7.583 2.649-11.068 2.701-11.103a.782.782 0 0 1 .855 1.31c-.182.12-4.221 2.903-2.073 9.296a.781.781 0 0 1-.74 1.031"/>
    </g>
</svg>
