<svg xmlns="http://www.w3.org/2000/svg" width="36" height="36" viewBox="0 0 36 36">
    <g fill="none" fill-rule="evenodd">
        <path fill="#000" stroke="#000" stroke-width="3" d="M5.675 8.5A3.175 3.175 0 0 0 2.5 11.675v11.9a3.175 3.175 0 0 0 3.175 3.175h24.65a3.175 3.175 0 0 0 3.175-3.175v-11.9A3.175 3.175 0 0 0 30.325 8.5H5.675z"/>
        <path fill="#000" stroke="#FFF" d="M5.675 8.775a2.9 2.9 0 0 0-2.9 2.9v11.9a2.9 2.9 0 0 0 2.9 2.9h24.65a2.9 2.9 0 0 0 2.9-2.9v-11.9a2.9 2.9 0 0 0-2.9-2.9H5.675z"/>
        <path fill="#FFF" d="M7.952 20.235h1.74c.282 0 .555-.045.82-.137.266-.09.502-.242.71-.453a2.28 2.28 0 0 0 .497-.827c.124-.34.186-.754.186-1.243 0-.448-.043-.852-.13-1.212-.088-.36-.23-.67-.43-.926a1.902 1.902 0 0 0-.789-.59c-.327-.138-.731-.206-1.212-.206H7.952v5.594zM6 13h3.829a4.57 4.57 0 0 1 1.597.273c.494.183.92.456 1.28.821.361.365.643.82.846 1.367.203.547.305 1.19.305 1.927a6.15 6.15 0 0 1-.249 1.79 3.94 3.94 0 0 1-.752 1.418c-.336.398-.754.71-1.256.938-.501.228-1.091.342-1.771.342H6V13zm11.387 4.227L14.528 13h2.263l1.74 2.834L20.334 13h2.138l-2.847 4.24 3.096 4.636h-2.325l-1.94-3.07-1.976 3.07h-2.188l3.095-4.65zM23.504 13h1.94l3.704 5.955h.025V13H31v8.876h-1.952l-3.692-5.942h-.025v5.942h-1.827V13z"/>
    </g>
</svg>
