<svg xmlns="http://www.w3.org/2000/svg" width="36" height="36" viewBox="0 0 36 36">
    <g fill="none" fill-rule="evenodd">
        <path fill="#698F4A" d="M28.817 10.443a.71.71 0 0 0-.354.374l-1.359 3.335-4.314-3.211a.708.708 0 0 0-.898.042l-3.9 3.524-3.9-3.524a.71.71 0 0 0-.899-.042L8.88 14.152l-1.358-3.335a.714.714 0 0 0-.355-.374L4.072 8.984c2-2.26 4.81-3.405 8.364-3.405 2.7 0 4.916.689 5.333.827a.704.704 0 0 0 .237.035.701.701 0 0 0 .592-.154 18.41 18.41 0 0 1 4.95-.708c3.553 0 6.362 1.144 8.364 3.405l-3.095 1.459z"/>
        <path fill="#FF4354" d="M29.863 19.649c-1.495 8.204-9.794 12.495-11.27 13.199-9.878-2.964-12.936-11.541-13.28-14.621-.2-1.809-.25-4.434.607-6.805l.392.185 1.6 3.927a.71.71 0 0 0 1.08.301l4.581-3.41L17.42 15.9a.71.71 0 0 0 .475.183h.195a.711.711 0 0 0 .475-.183l3.847-3.475 4.582 3.41a.712.712 0 0 0 .613.115.711.711 0 0 0 .466-.416l1.6-3.927.015-.007c.8 1.911.85 4.348.176 8.049z"/>
        <path fill="#AB2531" d="M18.648 34.311a.711.711 0 0 1-.196-.027C7.627 31.177 4.281 21.753 3.905 18.384c-.225-2.019-.273-4.989.767-7.68a.712.712 0 0 1 .916-.406.71.71 0 0 1 .406.917c-.937 2.423-.887 5.15-.68 7.012.343 3.08 3.4 11.657 13.278 14.62 1.477-.703 9.776-4.994 11.271-13.198.71-3.896.619-6.393-.308-8.35a.709.709 0 1 1 1.281-.606c1.063 2.245 1.19 5 .421 9.21-1.772 9.726-11.9 14.167-12.33 14.351a.725.725 0 0 1-.28.057"/>
        <path fill="#AB2531" d="M13.616 10.8c.171 0 .341.062.476.183l3.9 3.524 3.9-3.524a.708.708 0 0 1 .898-.042l4.314 3.211 1.359-3.335a.71.71 0 0 1 .354-.374l3.095-1.459C29.91 6.724 27.1 5.58 23.548 5.58c-2.7 0-4.917.689-5.333.827a.708.708 0 0 1-.446 0c-.417-.138-2.632-.827-5.333-.827-3.554 0-6.363 1.144-8.364 3.405l3.094 1.459c.16.075.287.209.355.374l1.358 3.335 4.314-3.211a.706.706 0 0 1 .423-.14zm4.473 5.283h-.195a.71.71 0 0 1-.475-.183l-3.846-3.475-4.582 3.41a.71.71 0 0 1-1.08-.3l-1.6-3.928L2.65 9.88a.71.71 0 0 1-.266-1.065c2.271-3.045 5.748-4.654 10.052-4.654a19.9 19.9 0 0 1 5.556.827 19.897 19.897 0 0 1 5.556-.827c4.303 0 7.78 1.61 10.052 4.654a.71.71 0 0 1-.265 1.065l-3.663 1.726-1.6 3.927a.711.711 0 0 1-.466.416.712.712 0 0 1-.613-.115l-4.582-3.41-3.847 3.475a.711.711 0 0 1-.475.183zM8.632 22.92a.71.71 0 0 1-.71-.71v-2.935a.709.709 0 1 1 1.418 0v2.936a.709.709 0 0 1-.708.709"/>
        <path fill="#AB2531" d="M13.122 19.018a.709.709 0 0 1-.71-.708v-2.935a.709.709 0 0 1 1.418 0v2.935a.709.709 0 0 1-.708.708M18.146 22.99a.709.709 0 0 1-.709-.71v-2.935a.709.709 0 0 1 1.418 0v2.936a.709.709 0 0 1-.709.709M18.146 6.454a.71.71 0 0 1-.709-.708V2.81a.71.71 0 0 1 1.418 0v2.935a.709.709 0 0 1-.709.708M22.743 19.018a.708.708 0 0 1-.708-.708v-2.935a.708.708 0 1 1 1.417 0v2.935a.709.709 0 0 1-.71.708M13.122 28.147a.709.709 0 0 1-.71-.709v-2.935a.709.709 0 0 1 1.418 0v2.935a.708.708 0 0 1-.708.709M22.743 28.147a.708.708 0 0 1-.708-.709v-2.935a.708.708 0 0 1 1.417 0v2.935a.709.709 0 0 1-.71.709M27.18 22.99a.709.709 0 0 1-.71-.71v-2.935a.709.709 0 0 1 1.418 0v2.936a.708.708 0 0 1-.708.709"/>
    </g>
</svg>
