<svg xmlns="http://www.w3.org/2000/svg" width="36" height="36" viewBox="0 0 36 36">
    <g fill="none" fill-rule="evenodd">
        <path fill="#FE2" d="M8.392 30.377c.121 0 .243.03.353.088.033.019 3.345 1.761 7.643 1.761 4.488 0 8.382-1.84 11.573-5.466 6.914-7.865 4.359-14.01 2.22-16.973-.057-.08-.101-.141-.13-.184a.747.747 0 0 1 .094-.943c.398-.401 1.432-1.675 1.413-2.728-.006-.38-.15-.69-.45-.971-.274-.255-.545-.38-.83-.38-.697 0-1.476.693-2.043 1.199-.474.42-.786.7-1.19.738-.024.002-.06.004-.084.004-.192 0-.395-.057-.885-.196-1.14-.323-3.508-.994-6.36-.994-4.595 0-8.434 1.728-11.406 5.137-6.404 7.343-4.64 12.504-3.082 17.058a.747.747 0 0 1-.213.803c-.393.35-1.425 1.471-1.454 2.425-.01.334.107.61.37.874.322.32.642.471 1.009.471.732 0 1.571-.594 2.246-1.074.302-.214.588-.417.852-.56.11-.06.232-.09.354-.09"/>
        <path fill="#FFFFFE" d="M7.274 19.152a.748.748 0 0 1-.719-.952C9.782 6.919 21.322 7.613 21.435 7.623c.412.03.722.387.692.798a.744.744 0 0 1-.798.692c-.426-.028-10.448-.602-13.337 9.497a.747.747 0 0 1-.718.542M7.575 25.677a.747.747 0 0 1-.684-.448c-.658-1.501-.666-3.566-.666-3.654a.748.748 0 0 1 1.494 0c0 .019.01 1.843.54 3.055a.748.748 0 0 1-.684 1.047"/>
        <path fill="#C3AE34" d="M8.392 30.377c.121 0 .243.03.353.088.033.019 3.345 1.761 7.643 1.761 4.488 0 8.382-1.84 11.573-5.466 6.914-7.865 4.359-14.01 2.22-16.973-.057-.08-.101-.141-.13-.184a.747.747 0 0 1 .094-.943c.398-.401 1.432-1.675 1.413-2.728-.006-.38-.15-.69-.45-.971-.274-.255-.545-.38-.83-.38-.697 0-1.476.693-2.043 1.199-.474.42-.786.7-1.19.738-.024.002-.06.004-.084.004-.192 0-.395-.057-.885-.196-1.14-.323-3.508-.994-6.36-.994-4.595 0-8.434 1.728-11.406 5.137-6.404 7.343-4.64 12.504-3.082 17.058a.747.747 0 0 1-.213.803c-.393.35-1.425 1.471-1.454 2.425-.01.334.107.61.37.874.322.32.642.471 1.009.471.732 0 1.571-.594 2.246-1.074.302-.214.588-.417.852-.56.11-.06.232-.09.354-.09zm7.996 3.344c-3.845 0-6.899-1.25-7.955-1.744-.12.08-.249.173-.383.268-.802.57-1.901 1.35-3.11 1.35-.767 0-1.462-.307-2.065-.91-.551-.55-.83-1.236-.807-1.98.042-1.337 1.03-2.554 1.593-3.14C2.166 23.16.444 17.214 7.184 9.485c3.268-3.748 7.485-5.648 12.533-5.648 3.059 0 5.562.71 6.767 1.05.129.037.268.077.375.106.108-.087.26-.223.381-.33.705-.629 1.772-1.577 3.038-1.577.672 0 1.295.263 1.852.784.59.554.91 1.26.922 2.04.021 1.363-.867 2.656-1.426 3.333 3.815 5.591 2.9 12.313-2.544 18.503-3.486 3.964-7.757 5.974-12.694 5.974z"/>
        <path fill="#C3AE34" d="M7.274 19.152a.748.748 0 0 1-.719-.952C9.782 6.919 21.322 7.613 21.435 7.623c.412.03.722.387.692.798a.744.744 0 0 1-.798.692c-.426-.028-10.448-.602-13.337 9.497a.747.747 0 0 1-.718.542M7.575 25.677a.747.747 0 0 1-.684-.448c-.658-1.501-.666-3.566-.666-3.654a.748.748 0 0 1 1.494 0c0 .019.01 1.843.54 3.055a.748.748 0 0 1-.684 1.047"/>
    </g>
</svg>
