<svg xmlns="http://www.w3.org/2000/svg" width="36" height="36" viewBox="0 0 36 36">
    <g fill="none" fill-rule="evenodd">
        <path fill="#FFAB02" d="M30.858 27.52l-.074.16c-.488 1.061-1.63 3.548-3.53 3.548-2.44 0-3.93-1.124-4.383-1.523 1.226-2.148 1.909-5.566 2.033-10.233a.46.46 0 0 0 0-.055c-.223-4.064-.927-7.054-2.093-8.958.708-.447 3.302-1.931 5.643-1.326 1.305.337 2.35 1.298 3.106 2.856 2.458 5.063.117 13.764-.702 15.53zm-10.794 3.227c-1.676.84-3.664-.346-4.44-.895a2.76 2.76 0 0 0-.6-.325.667.667 0 0 0-.163-.279c-2.36-2.306-2.163-9.048-2.16-9.116a.673.673 0 0 0-.65-.696.67.67 0 0 0-.696.65c-.01.286-.2 6.716 2.175 9.689a2.248 2.248 0 0 0-.217.217c-.35.411-1.868 1.345-3.553 1.226-1.896-.135-5.651-2.81-6.29-11.982-.407-5.833 1.48-9.37 5.772-10.81a4.43 4.43 0 0 1 1.416-.227c1.756 0 3.316.962 3.984 1.441a6.774 6.774 0 0 0-.403.329.674.674 0 0 0 .903 1c.026-.023 2.614-2.32 4.813-1.414 1.426.588 3.207 2.785 3.602 9.908-.216 7.989-2.018 10.546-3.493 11.284z"/>
        <path fill="#FFE1A4" d="M17.15 4.417h3.332l1.784 4.794c-.116.07-.203.126-.274.172-.457-.479-.962-.841-1.523-1.073-1.658-.685-3.36-.127-4.567.52l1.248-4.413z"/>
        <path fill="#AA6F30" d="M30.858 27.52l-.074.16c-.488 1.061-1.63 3.548-3.53 3.548-2.44 0-3.93-1.124-4.383-1.523 1.226-2.148 1.909-5.566 2.033-10.233a.46.46 0 0 0 0-.055c-.223-4.064-.927-7.054-2.093-8.958.708-.447 3.302-1.931 5.643-1.326 1.305.337 2.35 1.298 3.106 2.856 2.458 5.063.117 13.764-.702 15.53zm-10.794 3.227c-1.676.84-3.664-.346-4.44-.895a2.76 2.76 0 0 0-.6-.325.667.667 0 0 0-.163-.279c-2.36-2.306-2.163-9.048-2.16-9.116a.673.673 0 0 0-.65-.696.67.67 0 0 0-.696.65c-.01.286-.2 6.716 2.175 9.689a2.248 2.248 0 0 0-.217.217c-.35.411-1.868 1.345-3.553 1.226-1.896-.135-5.651-2.81-6.29-11.982-.407-5.833 1.48-9.37 5.772-10.81a4.43 4.43 0 0 1 1.416-.227c1.756 0 3.316.962 3.984 1.441a6.774 6.774 0 0 0-.403.329.674.674 0 0 0 .903 1c.026-.023 2.614-2.32 4.813-1.414 1.426.588 3.207 2.785 3.602 9.908-.216 7.989-2.018 10.546-3.493 11.284zM17.15 4.417h3.332l1.784 4.794c-.116.07-.203.126-.274.172-.457-.479-.962-.841-1.523-1.073-1.658-.685-3.36-.127-4.567.52l1.248-4.413zM32.772 11.4c-.937-1.932-2.28-3.134-3.988-3.573-1.964-.506-3.968.124-5.317.748l-1.886-5.067a.673.673 0 0 0-.63-.438h-4.31c-.302 0-.567.2-.649.49l-1.276 4.515c-1.3-.779-3.536-1.722-5.903-.926-4.887 1.64-7.136 5.74-6.688 12.181.702 10.074 5.07 13.057 7.54 13.231.13.009.26.013.389.013 1.925 0 3.667-.984 4.283-1.707.09-.105.14-.118.14-.118.072.006.288.147.369.204 1.21.856 3.577 2.124 5.822.999.525-.263 1-.647 1.43-1.14.708.587 2.462 1.763 5.155 1.763 2.765 0 4.16-3.036 4.754-4.332l.072-.156c.536-1.154 3.582-10.735.693-16.687z"/>
        <path fill="#AA6F30" d="M8.871 10.444c-.163.064-3.976 1.653-3.392 8.138a.674.674 0 0 0 1.343-.12c-.489-5.42 2.416-6.711 2.551-6.768a.674.674 0 0 0-.502-1.25M7.038 20.512a.671.671 0 0 0-.837-.454.672.672 0 0 0-.454.836l.97 3.272a.674.674 0 0 0 1.291-.383l-.97-3.271"/>
    </g>
</svg>
