<svg xmlns="http://www.w3.org/2000/svg" width="36" height="36" viewBox="0 0 36 36">
    <g fill="none" fill-rule="evenodd">
        <path fill="#7CC3CA" d="M33.215 14.824l-15.2 16.479-15.2-16.48 3.992-9.212h22.416l3.992 9.213z"/>
        <path fill="#4A4A4A" fill-rule="nonzero" d="M28.822 6.223H7.209l-3.674 8.479L18.015 30.4l14.481-15.7-3.674-8.478zm4.843 9.015l-15.2 16.48a.611.611 0 0 1-.9 0l-15.2-16.48a.611.611 0 0 1-.11-.658l3.991-9.212A.611.611 0 0 1 6.807 5h22.416c.244 0 .465.145.561.368l3.992 9.212a.611.611 0 0 1-.111.658z"/>
        <g>
            <path fill="#BCF5EA" d="M6.807 5.611h6.347l-4.173 9.213H2.815zM29.137 5.611H22.79l4.173 9.213h6.166zM17.989 31.098l9.058-16.274H8.93z"/>
            <path fill="#4A4A4A" fill-rule="nonzero" d="M3.747 14.212h4.84l3.619-7.99H7.209l-3.462 7.99zM6.807 5h6.347c.445 0 .74.459.557.864l-4.173 9.212a.611.611 0 0 1-.557.36H2.815a.611.611 0 0 1-.56-.856l3.991-9.212A.611.611 0 0 1 6.807 5zM32.198 14.212h-4.84l-3.62-7.99h4.998l3.462 7.99zM29.137 5H22.79a.611.611 0 0 0-.557.864l4.173 9.212c.1.219.317.36.557.36h6.166c.44 0 .736-.452.56-.856l-3.991-9.212A.611.611 0 0 0 29.137 5z"/>
            <path fill="#4A4A4A" fill-rule="nonzero" d="M9.97 15.435h16.037l-8.018 14.406L9.97 15.435zm8.553 15.96l9.058-16.274a.611.611 0 0 0-.534-.909H8.93a.611.611 0 0 0-.534.909l9.058 16.275a.611.611 0 0 0 1.069 0z"/>
        </g>
    </g>
</svg>
