<svg xmlns="http://www.w3.org/2000/svg" width="36" height="36" viewBox="0 0 36 36">
    <g fill="none" fill-rule="evenodd">
        <path fill="#3A3FCF" d="M23.635 30.66c-3.881-.548-6.61-4.083-6.208-7.948a.692.692 0 0 0 .017-.19c.003-.027.003-.054.007-.08.56-3.97 4.247-6.744 8.217-6.184 3.972.56 6.745 4.247 6.185 8.217-.561 3.972-4.247 6.745-8.218 6.185z"/>
        <path fill="#698F4A" d="M3.529 28.474C4.583 24.9 6.124 22.969 6.86 22.2a8.573 8.573 0 0 0 4.544 2.114 8.638 8.638 0 0 0 3.499-.23 7.566 7.566 0 0 1-5.306 2.755.683.683 0 1 0 .104 1.361 8.884 8.884 0 0 0 6.413-3.444 8.629 8.629 0 0 0 1.383 3.52c-6.677 5.023-12.526 1.285-13.968.198z"/>
        <path fill="#3A3FCF" d="M5.411 14.745c.56-3.97 4.247-6.745 8.217-6.184 3.782.534 6.514 3.923 6.237 7.724a8.603 8.603 0 0 0-3.741 5.837 7.277 7.277 0 0 1-4.529.84c-3.97-.56-6.745-4.247-6.184-8.217zM25.151 6.618c3.97.56 6.744 4.247 6.183 8.217a7.21 7.21 0 0 1-.754 2.356 8.58 8.58 0 0 0-4.72-2.285 8.578 8.578 0 0 0-4.613.628 8.634 8.634 0 0 0-2.855-6.177 7.31 7.31 0 0 1 6.76-2.739z"/>
        <path fill="#22224B" d="M23.635 30.66c-3.881-.548-6.61-4.083-6.208-7.948a.692.692 0 0 0 .017-.19c.003-.027.003-.054.007-.08.56-3.97 4.247-6.744 8.217-6.184 3.972.56 6.745 4.247 6.185 8.217-.561 3.972-4.247 6.745-8.218 6.185zM3.53 28.474C4.583 24.9 6.124 22.969 6.86 22.2a8.573 8.573 0 0 0 4.544 2.114 8.638 8.638 0 0 0 3.499-.23 7.566 7.566 0 0 1-5.306 2.755.683.683 0 1 0 .104 1.361 8.884 8.884 0 0 0 6.413-3.444 8.629 8.629 0 0 0 1.383 3.52c-6.677 5.023-12.526 1.285-13.968.198zm1.882-13.73c.56-3.97 4.247-6.744 8.217-6.183 3.782.534 6.514 3.923 6.237 7.724a8.603 8.603 0 0 0-3.741 5.837 7.277 7.277 0 0 1-4.529.84c-3.97-.56-6.745-4.247-6.184-8.217zm19.74-8.126c3.97.56 6.744 4.247 6.183 8.217a7.21 7.21 0 0 1-.754 2.356 8.58 8.58 0 0 0-4.72-2.285 8.578 8.578 0 0 0-4.613.628 8.634 8.634 0 0 0-2.855-6.177 7.31 7.31 0 0 1 6.76-2.739zm6.394 11.642a8.565 8.565 0 0 0 1.142-3.234c.666-4.716-2.63-9.095-7.346-9.76a8.682 8.682 0 0 0-8.032 3.26 8.582 8.582 0 0 0-3.49-1.318c-4.716-.665-9.094 2.63-9.76 7.346a8.607 8.607 0 0 0 1.862 6.649c-.888.906-2.685 3.147-3.831 7.34a.683.683 0 0 0 .208.694c.044.038 2.655 2.273 6.516 2.818 2.711.383 6.041-.073 9.53-2.706a8.586 8.586 0 0 0 5.1 2.663c4.716.666 9.095-2.63 9.76-7.346a8.61 8.61 0 0 0-1.659-6.406z"/>
        <path fill="#22224B" d="M10.047 18.169a.684.684 0 0 0 .59-.206l2.436-2.557a.682.682 0 0 0 .088-.826l-1.645-2.7a.685.685 0 0 0-.678-.322l-2.99.425a.685.685 0 0 0-.565.506l-.805 3.13a.683.683 0 0 0 .325.764l3.003 1.704c.077.043.158.07.241.082z"/>
        <path fill="#9D9BFF" d="M8.492 13.271l2.092-.297 1.14 1.869-1.708 1.792-2.085-1.182z"/>
        <path fill="#22224B" d="M30.033 26.468l-.265-3.15a.68.68 0 0 0-.464-.59l-2.863-.957a.684.684 0 0 0-.732.2l-2.119 2.442a.683.683 0 0 0-.05.829l1.926 2.865a.68.68 0 0 0 .797.261l3.322-1.2a.68.68 0 0 0 .448-.7z"/>
        <path fill="#9D9BFF" d="M26.3 26.903l-1.335-1.99 1.477-1.702 2.003.67.184 2.181z"/>
        <path fill="#22224B" d="M23.831 12.266a.679.679 0 0 0 .799.261l2.667-.962a.682.682 0 0 0 .448-.7l-.213-2.53a.68.68 0 0 0-.464-.59l-2.3-.767a.683.683 0 0 0-.73.2l-1.701 1.96a.681.681 0 0 0-.052.829l1.546 2.3z"/>
        <path fill="#9D9BFF" d="M24.77 8.418l1.44.48.13 1.56-1.672.604-.957-1.423z"/>
    </g>
</svg>
