<svg xmlns="http://www.w3.org/2000/svg" width="36" height="36" viewBox="0 0 36 36">
    <g fill="none" fill-rule="evenodd">
        <path fill="#E32A75" d="M29.009 27.734c-3.481 3.295-7.437 1.318-8.396.756a7.907 7.907 0 0 0 .675-2.204c.035-.213.766-4.943-1.019-7.734 1.937-1.668 3.791-2.353 5.517-2.032 2.928.545 4.628 3.824 4.665 3.892.023.038 2.202 3.87-1.442 7.322zM12.21 31.518c-.34 0-.548-.017-.562-.018a1.02 1.02 0 0 0-.06-.002c-.062 0-6.262-.069-7.058-5.982-.748-5.556.91-6.926 2.63-7.535a3.375 3.375 0 0 1 1.12-.169c1.843 0 3.945 1.045 3.965 1.056a.662.662 0 0 0 .581.007c1.424-.671 2.66-1.012 3.672-1.012 1.01 0 1.786.332 2.369 1.016 1.88 2.203 1.12 7.148 1.112 7.198-.78 4.91-5.692 5.441-7.77 5.441z"/>
        <path fill="#FFFFFE" d="M23.682 6.084c-3.696.848-5.656-.474-6.46-1.272 4.243-.88 5.872.436 6.46 1.272"/>
        <path fill="#8B234D" d="M8.282 17.813c-.427 0-.804.056-1.12.168-1.721.608-3.38 1.98-2.631 7.535.796 5.914 6.997 5.983 7.059 5.983l.059.001c.014.002.221.018.562.018 2.077 0 6.99-.53 7.769-5.44.008-.052.769-4.996-1.112-7.199-.583-.684-1.358-1.016-2.369-1.016-1.011 0-2.248.34-3.672 1.012a.662.662 0 0 1-.58-.007c-.02-.01-2.123-1.055-3.965-1.055zm3.929 15.03c-.338 0-.565-.014-.644-.02-2.086-.011-7.565-1.306-8.35-7.13-.687-5.1.394-7.863 3.503-8.961.46-.163.985-.245 1.562-.245 1.737 0 3.564.74 4.266 1.058 3.319-1.493 5.81-1.306 7.329.476 2.277 2.67 1.448 8.037 1.411 8.265-.965 6.084-7.191 6.558-9.077 6.558z"/>
        <path fill="#8B234D" d="M24.588 30.898c-2.749 0-4.897-1.418-4.93-1.441a.663.663 0 1 1 .741-1.099c.2.134 4.705 3.073 8.61-.624 3.644-3.451 1.465-7.284 1.442-7.322-.037-.068-1.736-3.347-4.665-3.892-1.795-.334-3.728.417-5.748 2.232a.663.663 0 0 1-.886-.986c2.347-2.107 4.662-2.967 6.885-2.547 3.575.67 5.497 4.4 5.577 4.56.008.01 2.706 4.75-1.694 8.918-1.772 1.678-3.663 2.201-5.332 2.201"/>
        <path fill="#8B234D" d="M12.243 18.47a.663.663 0 0 1-.654-.552c-.075-.45-1.785-11.044 3.98-13.893a.663.663 0 0 1 .955.546c.007.098.763 9.714 5.826 11.271a.663.663 0 1 1-.389 1.267c-4.86-1.495-6.273-8.607-6.641-11.362-3.854 3.08-2.439 11.857-2.423 11.95a.663.663 0 0 1-.654.773"/>
        <path fill="#8B234D" d="M21.405 7.686c-4.064 0-5.677-2.582-5.759-2.718a.664.664 0 0 1 .1-.81.663.663 0 0 1 .483-.48c7.807-1.923 8.998 2.493 9.043 2.682a.662.662 0 0 1-.456.796c-1.291.377-2.424.53-3.411.53z"/>
        <path fill="#61AD0E" d="M17.222 4.812c.803.798 2.764 2.12 6.46 1.272-.588-.835-2.217-2.151-6.46-1.272z"/>
        <path fill="#8B234D" d="M7.441 26.366a.663.663 0 0 1-.63-.455c-1.308-3.967.613-6.129.695-6.219a.663.663 0 0 1 .981.891c-.07.081-1.466 1.733-.416 4.912a.664.664 0 0 1-.63.87"/>
    </g>
</svg>
